%TF.GenerationSoftware,KiCad,Pcbnew,10.0.1*%
%TF.CreationDate,2026-05-27T20:12:14+10:00*%
%TF.ProjectId,PowerBox_PCB,506f7765-7242-46f7-985f-5043422e6b69,rev?*%
%TF.SameCoordinates,Original*%
%TF.FileFunction,Soldermask,Top*%
%TF.FilePolarity,Negative*%
%FSLAX46Y46*%
G04 Gerber Fmt 4.6, Leading zero omitted, Abs format (unit mm)*
G04 Created by KiCad (PCBNEW 10.0.1) date 2026-05-27 20:12:14*
%MOMM*%
%LPD*%
G01*
G04 APERTURE LIST*
G04 Aperture macros list*
%AMRoundRect*
0 Rectangle with rounded corners*
0 $1 Rounding radius*
0 $2 $3 $4 $5 $6 $7 $8 $9 X,Y pos of 4 corners*
0 Add a 4 corners polygon primitive as box body*
4,1,4,$2,$3,$4,$5,$6,$7,$8,$9,$2,$3,0*
0 Add four circle primitives for the rounded corners*
1,1,$1+$1,$2,$3*
1,1,$1+$1,$4,$5*
1,1,$1+$1,$6,$7*
1,1,$1+$1,$8,$9*
0 Add four rect primitives between the rounded corners*
20,1,$1+$1,$2,$3,$4,$5,0*
20,1,$1+$1,$4,$5,$6,$7,0*
20,1,$1+$1,$6,$7,$8,$9,0*
20,1,$1+$1,$8,$9,$2,$3,0*%
%AMFreePoly0*
4,1,21,-0.160000,1.440000,0.160000,1.440000,0.160000,2.160000,0.400000,2.160000,0.400000,1.016000,1.016000,1.016000,1.016000,-1.016000,0.400000,-1.016000,0.400000,-2.160000,0.160000,-2.160000,0.160000,-1.440000,-0.160000,-1.440000,-0.160000,-2.160000,-0.400000,-2.160000,-0.400000,-1.016000,-1.016000,-1.016000,-1.016000,1.016000,-0.400000,1.016000,-0.400000,2.160000,-0.160000,2.160000,
-0.160000,1.440000,-0.160000,1.440000,$1*%
%AMFreePoly1*
4,1,5,0.300000,-0.650000,-0.300000,-0.650000,-0.300000,0.650000,0.300000,0.650000,0.300000,-0.650000,0.300000,-0.650000,$1*%
%AMFreePoly2*
4,1,5,0.299500,-0.650000,-0.300500,-0.650000,-0.300500,0.650000,0.299500,0.650000,0.299500,-0.650000,0.299500,-0.650000,$1*%
G04 Aperture macros list end*
%ADD10RoundRect,0.150000X0.587500X0.150000X-0.587500X0.150000X-0.587500X-0.150000X0.587500X-0.150000X0*%
%ADD11RoundRect,0.250000X-0.350000X-0.450000X0.350000X-0.450000X0.350000X0.450000X-0.350000X0.450000X0*%
%ADD12RoundRect,0.250000X0.450000X-0.350000X0.450000X0.350000X-0.450000X0.350000X-0.450000X-0.350000X0*%
%ADD13RoundRect,0.250000X-0.325000X-0.450000X0.325000X-0.450000X0.325000X0.450000X-0.325000X0.450000X0*%
%ADD14RoundRect,0.250000X-0.450000X0.350000X-0.450000X-0.350000X0.450000X-0.350000X0.450000X0.350000X0*%
%ADD15RoundRect,0.250000X0.350000X0.450000X-0.350000X0.450000X-0.350000X-0.450000X0.350000X-0.450000X0*%
%ADD16RoundRect,0.300000X-0.700000X-0.700000X0.700000X-0.700000X0.700000X0.700000X-0.700000X0.700000X0*%
%ADD17RoundRect,0.250000X0.475000X-0.337500X0.475000X0.337500X-0.475000X0.337500X-0.475000X-0.337500X0*%
%ADD18C,5.750000*%
%ADD19R,0.280000X0.800000*%
%ADD20R,0.800000X0.280000*%
%ADD21FreePoly0,0.000000*%
%ADD22RoundRect,0.250000X-0.475000X0.337500X-0.475000X-0.337500X0.475000X-0.337500X0.475000X0.337500X0*%
%ADD23RoundRect,0.250000X-0.337500X-0.475000X0.337500X-0.475000X0.337500X0.475000X-0.337500X0.475000X0*%
%ADD24RoundRect,0.250000X0.337500X0.475000X-0.337500X0.475000X-0.337500X-0.475000X0.337500X-0.475000X0*%
%ADD25RoundRect,0.250001X-0.849999X0.462499X-0.849999X-0.462499X0.849999X-0.462499X0.849999X0.462499X0*%
%ADD26RoundRect,0.375000X0.625000X0.375000X-0.625000X0.375000X-0.625000X-0.375000X0.625000X-0.375000X0*%
%ADD27RoundRect,0.500000X0.500000X1.400000X-0.500000X1.400000X-0.500000X-1.400000X0.500000X-1.400000X0*%
%ADD28RoundRect,0.255000X0.595000X-1.845000X0.595000X1.845000X-0.595000X1.845000X-0.595000X-1.845000X0*%
%ADD29R,0.280000X0.665000*%
%ADD30R,2.500000X1.500000*%
%ADD31RoundRect,0.162500X0.617500X0.162500X-0.617500X0.162500X-0.617500X-0.162500X0.617500X-0.162500X0*%
%ADD32RoundRect,0.200000X0.200000X-0.750000X0.200000X0.750000X-0.200000X0.750000X-0.200000X-0.750000X0*%
%ADD33RoundRect,0.375000X-0.375000X0.625000X-0.375000X-0.625000X0.375000X-0.625000X0.375000X0.625000X0*%
%ADD34RoundRect,0.500000X-1.400000X0.500000X-1.400000X-0.500000X1.400000X-0.500000X1.400000X0.500000X0*%
%ADD35RoundRect,0.250000X0.350000X-0.850000X0.350000X0.850000X-0.350000X0.850000X-0.350000X-0.850000X0*%
%ADD36RoundRect,0.249997X2.650003X-2.950003X2.650003X2.950003X-2.650003X2.950003X-2.650003X-2.950003X0*%
%ADD37RoundRect,0.249999X1.425001X-0.450001X1.425001X0.450001X-1.425001X0.450001X-1.425001X-0.450001X0*%
%ADD38RoundRect,0.300000X0.700000X-0.700000X0.700000X0.700000X-0.700000X0.700000X-0.700000X-0.700000X0*%
%ADD39RoundRect,0.200000X-0.200000X0.750000X-0.200000X-0.750000X0.200000X-0.750000X0.200000X0.750000X0*%
%ADD40R,0.787400X0.254000*%
%ADD41R,0.254000X0.787400*%
%ADD42R,2.600000X2.600000*%
%ADD43RoundRect,0.150000X-0.150000X0.587500X-0.150000X-0.587500X0.150000X-0.587500X0.150000X0.587500X0*%
%ADD44RoundRect,0.250000X0.450000X-0.325000X0.450000X0.325000X-0.450000X0.325000X-0.450000X-0.325000X0*%
%ADD45O,1.200000X2.000000*%
%ADD46O,1.200000X1.800000*%
%ADD47FreePoly1,180.000000*%
%ADD48R,0.300000X1.300000*%
%ADD49FreePoly2,180.000000*%
%ADD50C,2.000000*%
G04 APERTURE END LIST*
D10*
%TO.C,U12*%
X90375000Y-65450000D03*
X90375000Y-63550000D03*
X88500000Y-64500000D03*
%TD*%
D11*
%TO.C,R25*%
X82750000Y-64500000D03*
X84750000Y-64500000D03*
%TD*%
D12*
%TO.C,R21*%
X106750000Y-64250000D03*
X106750000Y-62250000D03*
%TD*%
D13*
%TO.C,L6*%
X77950000Y-64500000D03*
X80000000Y-64500000D03*
%TD*%
D14*
%TO.C,R20*%
X114500000Y-95750000D03*
X114500000Y-97750000D03*
%TD*%
%TO.C,R18*%
X114500000Y-70500000D03*
X114500000Y-72500000D03*
%TD*%
D13*
%TO.C,L5*%
X119225000Y-91750000D03*
X121275000Y-91750000D03*
%TD*%
%TO.C,L3*%
X119700000Y-68000000D03*
X121750000Y-68000000D03*
%TD*%
D15*
%TO.C,R13*%
X127330000Y-110430194D03*
X125330000Y-110430194D03*
%TD*%
D12*
%TO.C,R22*%
X56450000Y-85750000D03*
X56450000Y-83750000D03*
%TD*%
D16*
%TO.C,TP5*%
X105500000Y-106750000D03*
%TD*%
D14*
%TO.C,R19*%
X67700000Y-82500000D03*
X67700000Y-84500000D03*
%TD*%
D17*
%TO.C,C27*%
X92727900Y-114059600D03*
X92727900Y-111984600D03*
%TD*%
D18*
%TO.C,TP15*%
X166250000Y-53750000D03*
%TD*%
D19*
%TO.C,U1*%
X111510000Y-76687500D03*
D20*
X110535000Y-77412500D03*
X110535000Y-77912500D03*
X110535000Y-78412500D03*
X110535000Y-78912500D03*
X110535000Y-79412500D03*
D19*
X111510000Y-80137500D03*
X113010000Y-80137500D03*
D20*
X113985000Y-79412500D03*
X113985000Y-78912500D03*
X113985000Y-78412500D03*
X113985000Y-77912500D03*
X113985000Y-77412500D03*
D19*
X113010000Y-76687500D03*
D21*
X112260000Y-78412500D03*
%TD*%
D22*
%TO.C,C26*%
X82227900Y-103665400D03*
X82227900Y-105740400D03*
%TD*%
D23*
%TO.C,C3*%
X109472500Y-84262500D03*
X111547500Y-84262500D03*
%TD*%
D11*
%TO.C,R9*%
X109530000Y-112630194D03*
X111530000Y-112630194D03*
%TD*%
D23*
%TO.C,R37*%
X79940400Y-123977900D03*
X82015400Y-123977900D03*
%TD*%
D16*
%TO.C,TP4*%
X71000000Y-88000000D03*
%TD*%
D24*
%TO.C,C16*%
X115367500Y-110630194D03*
X113292500Y-110630194D03*
%TD*%
D17*
%TO.C,C12*%
X99510000Y-103867694D03*
X99510000Y-101792694D03*
%TD*%
%TO.C,C6*%
X105510000Y-79500000D03*
X105510000Y-77425000D03*
%TD*%
D19*
%TO.C,U5*%
X111530000Y-101055194D03*
D20*
X110555000Y-101780194D03*
X110555000Y-102280194D03*
X110555000Y-102780194D03*
X110555000Y-103280194D03*
X110555000Y-103780194D03*
D19*
X111530000Y-104505194D03*
X113030000Y-104505194D03*
D20*
X114005000Y-103780194D03*
X114005000Y-103280194D03*
X114005000Y-102780194D03*
X114005000Y-102280194D03*
X114005000Y-101780194D03*
D19*
X113030000Y-101055194D03*
D21*
X112280000Y-102780194D03*
%TD*%
D14*
%TO.C,R26*%
X103825000Y-62023750D03*
X103825000Y-64023750D03*
%TD*%
D25*
%TO.C,ID2*%
X95727900Y-112109600D03*
X95727900Y-114434600D03*
%TD*%
D26*
%TO.C,U3*%
X141110000Y-79062500D03*
X141110000Y-76762500D03*
X141110000Y-74462500D03*
D27*
X134810000Y-76762500D03*
%TD*%
D11*
%TO.C,R5*%
X109310000Y-73662500D03*
X111310000Y-73662500D03*
%TD*%
D12*
%TO.C,R40*%
X84977900Y-126433700D03*
X84977900Y-124433700D03*
%TD*%
D14*
%TO.C,R12*%
X117530000Y-108630194D03*
X117530000Y-110630194D03*
%TD*%
D28*
%TO.C,L2*%
X122530000Y-102530194D03*
X130530000Y-102530194D03*
%TD*%
D24*
%TO.C,C9*%
X115347500Y-86262500D03*
X113272500Y-86262500D03*
%TD*%
D23*
%TO.C,C29*%
X93440400Y-117227900D03*
X95515400Y-117227900D03*
%TD*%
D24*
%TO.C,C18*%
X127367500Y-95430194D03*
X125292500Y-95430194D03*
%TD*%
D14*
%TO.C,R28*%
X118075000Y-61773750D03*
X118075000Y-63773750D03*
%TD*%
D17*
%TO.C,C10*%
X105530000Y-103867694D03*
X105530000Y-101792694D03*
%TD*%
D14*
%TO.C,R8*%
X138560000Y-81825000D03*
X138560000Y-83825000D03*
%TD*%
D16*
%TO.C,TP6*%
X166750000Y-91250000D03*
%TD*%
D29*
%TO.C,U20*%
X111575000Y-61773750D03*
X111075000Y-61773750D03*
X110575000Y-61773750D03*
X110075000Y-61773750D03*
X109575000Y-61773750D03*
X109575000Y-64588750D03*
X110075000Y-64588750D03*
X110575000Y-64588750D03*
X111075000Y-64588750D03*
X111575000Y-64588750D03*
D30*
X110575000Y-63181250D03*
%TD*%
D31*
%TO.C,U15*%
X64700000Y-95400000D03*
X64700000Y-94450000D03*
X64700000Y-93500000D03*
X62000000Y-93500000D03*
X62000000Y-94450000D03*
X62000000Y-95400000D03*
%TD*%
D11*
%TO.C,R31*%
X79977900Y-121727900D03*
X81977900Y-121727900D03*
%TD*%
D10*
%TO.C,U2*%
X145635000Y-79575000D03*
X145635000Y-77675000D03*
X143760000Y-78625000D03*
%TD*%
D14*
%TO.C,R6*%
X117510000Y-84262500D03*
X117510000Y-86262500D03*
%TD*%
D16*
%TO.C,TP3*%
X54250000Y-79750000D03*
%TD*%
D31*
%TO.C,U11*%
X64650000Y-84250000D03*
X64650000Y-83300000D03*
X64650000Y-82350000D03*
X61950000Y-82350000D03*
X61950000Y-83300000D03*
X61950000Y-84250000D03*
%TD*%
D11*
%TO.C,R14*%
X109530000Y-106630194D03*
X111530000Y-106630194D03*
%TD*%
D15*
%TO.C,R10*%
X115330000Y-112630194D03*
X113330000Y-112630194D03*
%TD*%
D23*
%TO.C,C13*%
X109492500Y-108630194D03*
X111567500Y-108630194D03*
%TD*%
D32*
%TO.C,U14*%
X66750000Y-91000000D03*
X68650000Y-91000000D03*
X67700000Y-88000000D03*
%TD*%
D16*
%TO.C,TP10*%
X166750000Y-98500000D03*
%TD*%
D17*
%TO.C,C5*%
X102500000Y-79500000D03*
X102500000Y-77425000D03*
%TD*%
D14*
%TO.C,R41*%
X79977900Y-107952900D03*
X79977900Y-109952900D03*
%TD*%
%TO.C,R24*%
X67500000Y-94500000D03*
X67500000Y-96500000D03*
%TD*%
D33*
%TO.C,U21*%
X100125000Y-62623750D03*
X97825000Y-62623750D03*
X95525000Y-62623750D03*
D34*
X97825000Y-68923750D03*
%TD*%
D16*
%TO.C,TP7*%
X105500000Y-82250000D03*
%TD*%
D35*
%TO.C,U18*%
X85447900Y-111977900D03*
X87727900Y-111977900D03*
D36*
X87727900Y-105677900D03*
D35*
X90007900Y-111977900D03*
%TD*%
D14*
%TO.C,R15*%
X147117500Y-106005194D03*
X147117500Y-108005194D03*
%TD*%
%TO.C,R16*%
X139117500Y-106205194D03*
X139117500Y-108205194D03*
%TD*%
D11*
%TO.C,R27*%
X109575000Y-67273750D03*
X111575000Y-67273750D03*
%TD*%
D37*
%TO.C,R39*%
X88727900Y-128277900D03*
X88727900Y-122177900D03*
%TD*%
D18*
%TO.C,TP17*%
X166250000Y-131250000D03*
%TD*%
D32*
%TO.C,U17*%
X66550000Y-101750000D03*
X68450000Y-101750000D03*
X67500000Y-98750000D03*
%TD*%
D11*
%TO.C,R3*%
X109510000Y-88262500D03*
X111510000Y-88262500D03*
%TD*%
D14*
%TO.C,R23*%
X57000000Y-92500000D03*
X57000000Y-94500000D03*
%TD*%
D22*
%TO.C,C21*%
X58700000Y-83712500D03*
X58700000Y-85787500D03*
%TD*%
D16*
%TO.C,B1*%
X52250000Y-85500000D03*
X52250000Y-88500000D03*
X52250000Y-91500000D03*
%TD*%
D24*
%TO.C,C2*%
X127347500Y-71062500D03*
X125272500Y-71062500D03*
%TD*%
D16*
%TO.C,TP8*%
X166750000Y-88250000D03*
%TD*%
D23*
%TO.C,C30*%
X97000000Y-119477900D03*
X99075000Y-119477900D03*
%TD*%
%TO.C,C15*%
X113292500Y-106630194D03*
X115367500Y-106630194D03*
%TD*%
D11*
%TO.C,R34*%
X79977900Y-114227900D03*
X81977900Y-114227900D03*
%TD*%
D28*
%TO.C,L1*%
X122510000Y-78162500D03*
X130510000Y-78162500D03*
%TD*%
D38*
%TO.C,SW1*%
X84750000Y-82000000D03*
X84750000Y-79000000D03*
X84750000Y-76000000D03*
X87750000Y-82000000D03*
X87750000Y-79000000D03*
X87750000Y-76000000D03*
%TD*%
D16*
%TO.C,TP12*%
X135250000Y-94000000D03*
%TD*%
D11*
%TO.C,R11*%
X109330000Y-98030194D03*
X111330000Y-98030194D03*
%TD*%
D15*
%TO.C,R1*%
X127310000Y-86062500D03*
X125310000Y-86062500D03*
%TD*%
D23*
%TO.C,C1*%
X117072500Y-74062500D03*
X119147500Y-74062500D03*
%TD*%
D24*
%TO.C,C8*%
X115347500Y-84262500D03*
X113272500Y-84262500D03*
%TD*%
D23*
%TO.C,R38*%
X73250000Y-114227900D03*
X75325000Y-114227900D03*
%TD*%
%TO.C,C7*%
X113272500Y-82262500D03*
X115347500Y-82262500D03*
%TD*%
D17*
%TO.C,C11*%
X102520000Y-103867694D03*
X102520000Y-101792694D03*
%TD*%
D10*
%TO.C,U8*%
X146192500Y-103955194D03*
X146192500Y-102055194D03*
X144317500Y-103005194D03*
%TD*%
D17*
%TO.C,C28*%
X92477900Y-126221200D03*
X92477900Y-124146200D03*
%TD*%
D39*
%TO.C,U16*%
X64200000Y-98750000D03*
X62300000Y-98750000D03*
X63250000Y-101750000D03*
%TD*%
D40*
%TO.C,U10*%
X86522100Y-116272100D03*
X86522100Y-116772099D03*
X86522100Y-117272100D03*
X86522100Y-117772100D03*
X86522100Y-118272101D03*
X86522100Y-118772100D03*
D41*
X87227900Y-119477900D03*
X87727899Y-119477900D03*
X88227900Y-119477900D03*
X88727900Y-119477900D03*
X89227901Y-119477900D03*
X89727900Y-119477900D03*
D40*
X90433700Y-118772100D03*
X90433700Y-118272101D03*
X90433700Y-117772100D03*
X90433700Y-117272100D03*
X90433700Y-116772099D03*
X90433700Y-116272100D03*
D41*
X89727900Y-115566300D03*
X89227901Y-115566300D03*
X88727900Y-115566300D03*
X88227900Y-115566300D03*
X87727899Y-115566300D03*
X87227900Y-115566300D03*
D42*
X88477900Y-117522100D03*
%TD*%
D16*
%TO.C,TP2*%
X52250000Y-101750000D03*
%TD*%
D43*
%TO.C,U6*%
X144067500Y-106530194D03*
X142167500Y-106530194D03*
X143117500Y-108405194D03*
%TD*%
D14*
%TO.C,R7*%
X146560000Y-81625000D03*
X146560000Y-83625000D03*
%TD*%
D22*
%TO.C,C22*%
X59250000Y-94712500D03*
X59250000Y-96787500D03*
%TD*%
D12*
%TO.C,R17*%
X129910000Y-91862500D03*
X129910000Y-89862500D03*
%TD*%
D10*
%TO.C,U9*%
X127110000Y-91762500D03*
X127110000Y-89862500D03*
X125235000Y-90812500D03*
%TD*%
D44*
%TO.C,L4*%
X82227900Y-109977900D03*
X82227900Y-107927900D03*
%TD*%
D17*
%TO.C,C4*%
X99490000Y-79500000D03*
X99490000Y-77425000D03*
%TD*%
D39*
%TO.C,U13*%
X64350000Y-88000000D03*
X62450000Y-88000000D03*
X63400000Y-91000000D03*
%TD*%
D16*
%TO.C,TP1*%
X92000000Y-69000000D03*
%TD*%
D24*
%TO.C,R36*%
X75325000Y-116477900D03*
X73250000Y-116477900D03*
%TD*%
D11*
%TO.C,R32*%
X79977900Y-119477900D03*
X81977900Y-119477900D03*
%TD*%
D18*
%TO.C,TP14*%
X53750000Y-53750000D03*
%TD*%
%TO.C,TP16*%
X53750000Y-131250000D03*
%TD*%
D43*
%TO.C,U4*%
X143510000Y-82150000D03*
X141610000Y-82150000D03*
X142560000Y-84025000D03*
%TD*%
D16*
%TO.C,TP11*%
X87750000Y-99750000D03*
%TD*%
D11*
%TO.C,R2*%
X109510000Y-82262500D03*
X111510000Y-82262500D03*
%TD*%
D16*
%TO.C,TP13*%
X134750000Y-70500000D03*
%TD*%
D22*
%TO.C,C20*%
X115325000Y-61736250D03*
X115325000Y-63811250D03*
%TD*%
D26*
%TO.C,U7*%
X141667500Y-103442694D03*
X141667500Y-101142694D03*
X141667500Y-98842694D03*
D27*
X135367500Y-101142694D03*
%TD*%
D45*
%TO.C,USBC2*%
X105675000Y-55953250D03*
D46*
X105675000Y-51773750D03*
X114325000Y-51773750D03*
D45*
X114325000Y-55953250D03*
D47*
X113200000Y-56721750D03*
X112400000Y-56721750D03*
D48*
X111250000Y-56721750D03*
X110250000Y-56721750D03*
X109750000Y-56721750D03*
X108750500Y-56721750D03*
D47*
X106800000Y-56721750D03*
D49*
X107599500Y-56721750D03*
D48*
X108250000Y-56721750D03*
X109250000Y-56721750D03*
X110750000Y-56721750D03*
X111750000Y-56721750D03*
%TD*%
D23*
%TO.C,C17*%
X117092500Y-98430194D03*
X119167500Y-98430194D03*
%TD*%
D11*
%TO.C,R33*%
X79977900Y-117227900D03*
X81977900Y-117227900D03*
%TD*%
D16*
%TO.C,TP9*%
X166750000Y-95500000D03*
%TD*%
D15*
%TO.C,R4*%
X115310000Y-88262500D03*
X113310000Y-88262500D03*
%TD*%
D24*
%TO.C,C14*%
X115367500Y-108630194D03*
X113292500Y-108630194D03*
%TD*%
D50*
%TO.C,TR1*%
X71787500Y-108477900D03*
X76787500Y-108477900D03*
%TD*%
M02*
