%TF.GenerationSoftware,KiCad,Pcbnew,10.0.1*%
%TF.CreationDate,2026-05-27T20:12:14+10:00*%
%TF.ProjectId,PowerBox_PCB,506f7765-7242-46f7-985f-5043422e6b69,rev?*%
%TF.SameCoordinates,Original*%
%TF.FileFunction,Copper,L2,Bot*%
%TF.FilePolarity,Positive*%
%FSLAX46Y46*%
G04 Gerber Fmt 4.6, Leading zero omitted, Abs format (unit mm)*
G04 Created by KiCad (PCBNEW 10.0.1) date 2026-05-27 20:12:14*
%MOMM*%
%LPD*%
G01*
G04 APERTURE LIST*
G04 Aperture macros list*
%AMRoundRect*
0 Rectangle with rounded corners*
0 $1 Rounding radius*
0 $2 $3 $4 $5 $6 $7 $8 $9 X,Y pos of 4 corners*
0 Add a 4 corners polygon primitive as box body*
4,1,4,$2,$3,$4,$5,$6,$7,$8,$9,$2,$3,0*
0 Add four circle primitives for the rounded corners*
1,1,$1+$1,$2,$3*
1,1,$1+$1,$4,$5*
1,1,$1+$1,$6,$7*
1,1,$1+$1,$8,$9*
0 Add four rect primitives between the rounded corners*
20,1,$1+$1,$2,$3,$4,$5,0*
20,1,$1+$1,$4,$5,$6,$7,0*
20,1,$1+$1,$6,$7,$8,$9,0*
20,1,$1+$1,$8,$9,$2,$3,0*%
G04 Aperture macros list end*
%TA.AperFunction,ComponentPad*%
%ADD10C,5.750000*%
%TD*%
%TA.AperFunction,ComponentPad*%
%ADD11RoundRect,0.300000X-0.700000X-0.700000X0.700000X-0.700000X0.700000X0.700000X-0.700000X0.700000X0*%
%TD*%
%TA.AperFunction,ComponentPad*%
%ADD12RoundRect,0.300000X0.700000X-0.700000X0.700000X0.700000X-0.700000X0.700000X-0.700000X-0.700000X0*%
%TD*%
%TA.AperFunction,ComponentPad*%
%ADD13O,1.200000X2.000000*%
%TD*%
%TA.AperFunction,ComponentPad*%
%ADD14O,1.200000X1.800000*%
%TD*%
%TA.AperFunction,ComponentPad*%
%ADD15C,2.000000*%
%TD*%
%TA.AperFunction,ViaPad*%
%ADD16C,0.600000*%
%TD*%
%TA.AperFunction,ViaPad*%
%ADD17C,0.500000*%
%TD*%
%TA.AperFunction,Conductor*%
%ADD18C,0.200000*%
%TD*%
%TA.AperFunction,Conductor*%
%ADD19C,2.000000*%
%TD*%
%TA.AperFunction,Conductor*%
%ADD20C,0.800000*%
%TD*%
%TA.AperFunction,Conductor*%
%ADD21C,0.300000*%
%TD*%
%TA.AperFunction,Conductor*%
%ADD22C,1.600000*%
%TD*%
%TA.AperFunction,Conductor*%
%ADD23C,0.500000*%
%TD*%
G04 APERTURE END LIST*
D10*
%TO.P,TP15,1,PAD_1*%
%TO.N,GND*%
X166250000Y-53750000D03*
%TD*%
D11*
%TO.P,TP6,1,PAD_1*%
%TO.N,/Ideal_Diode/VOUT_IDEAL*%
X166750000Y-91250000D03*
%TD*%
%TO.P,TP10,1,PAD_1*%
%TO.N,GND*%
X166750000Y-98500000D03*
%TD*%
D10*
%TO.P,TP17,1,PAD_1*%
%TO.N,GND*%
X166250000Y-131250000D03*
%TD*%
D11*
%TO.P,B1,1,B+_1*%
%TO.N,P+*%
X52250000Y-85500000D03*
%TO.P,B1,2,BM_2*%
%TO.N,/BMS/BM*%
X52250000Y-88500000D03*
%TO.P,B1,3,B-_3*%
%TO.N,/BMS/B-*%
X52250000Y-91500000D03*
%TD*%
%TO.P,TP8,1,PAD_1*%
%TO.N,/Ideal_Diode/VOUT_IDEAL*%
X166750000Y-88250000D03*
%TD*%
D12*
%TO.P,SW1,1,A_1*%
%TO.N,/VUSBPDSWITCHED*%
X84750000Y-82000000D03*
%TO.P,SW1,2,B_2*%
%TO.N,VUSBPD*%
X84750000Y-79000000D03*
%TO.P,SW1,3,C_3*%
%TO.N,unconnected-(SW1A-C-Pad3)*%
X84750000Y-76000000D03*
%TO.P,SW1,4,A_4*%
%TO.N,/TPS54620_Buck1/VIN_BUCK*%
X87750000Y-82000000D03*
%TO.P,SW1,5,B_5*%
%TO.N,P+*%
X87750000Y-79000000D03*
%TO.P,SW1,6,C_6*%
%TO.N,unconnected-(SW1B-C-Pad6)*%
X87750000Y-76000000D03*
%TD*%
D10*
%TO.P,TP14,1,PAD_1*%
%TO.N,GND*%
X53750000Y-53750000D03*
%TD*%
%TO.P,TP16,1,PAD_1*%
%TO.N,GND*%
X53750000Y-131250000D03*
%TD*%
D13*
%TO.P,USBC2,1,EH_1*%
%TO.N,GND*%
X105675000Y-55953250D03*
D14*
%TO.P,USBC2,2,EH_2*%
X105675000Y-51773750D03*
%TO.P,USBC2,3,EH_3*%
X114325000Y-51773750D03*
D13*
%TO.P,USBC2,4,EH_4*%
X114325000Y-55953250D03*
%TD*%
D11*
%TO.P,TP9,1,PAD_1*%
%TO.N,GND*%
X166750000Y-95500000D03*
%TD*%
D15*
%TO.P,TR1,1*%
%TO.N,/Batt Charger/TS*%
X71787500Y-108477900D03*
%TO.P,TR1,2*%
%TO.N,GND*%
X76787500Y-108477900D03*
%TD*%
D16*
%TO.N,GND*%
X126500000Y-103500000D03*
X121000000Y-95250000D03*
X120750000Y-70750000D03*
X126500000Y-78250000D03*
X152750000Y-84500000D03*
X155500000Y-91500000D03*
X143750000Y-93000000D03*
X95750000Y-74750000D03*
X99750000Y-89750000D03*
X101500000Y-95500000D03*
X107250000Y-118750000D03*
X103000000Y-129750000D03*
X64500000Y-127000000D03*
X59000000Y-115750000D03*
X55000000Y-120000000D03*
X59250000Y-122500000D03*
X59250000Y-109250000D03*
X55500000Y-112000000D03*
X86000000Y-55000000D03*
X71250000Y-63250000D03*
X77500000Y-56000000D03*
X66500000Y-68000000D03*
X65250000Y-56750000D03*
X57750000Y-68000000D03*
X161250000Y-67500000D03*
X148750000Y-64750000D03*
X143750000Y-55750000D03*
X132000000Y-63000000D03*
X126500000Y-56250000D03*
X128750000Y-129250000D03*
X129250000Y-119000000D03*
X154500000Y-114250000D03*
X140750000Y-124250000D03*
X116500000Y-124250000D03*
%TO.N,/VUSBPDSWITCHED*%
X108250000Y-79750000D03*
X103000000Y-81750000D03*
X107500000Y-86000000D03*
%TO.N,/TPS54620_Buck1/VIN_BUCK*%
X107500000Y-110250000D03*
X102000000Y-105750000D03*
X108000000Y-104000000D03*
%TO.N,/Ideal_Diode1/VIN_IDEAL*%
X133000000Y-104750000D03*
X128750000Y-99000000D03*
X128750000Y-102500000D03*
X128750000Y-106000000D03*
X130500000Y-106000000D03*
X130500000Y-99000000D03*
X133000000Y-102500000D03*
X133000000Y-100750000D03*
%TO.N,Net-(C17-Pad2)*%
X116750000Y-102500000D03*
X118500000Y-101250000D03*
X118500000Y-103750000D03*
X120250000Y-105000000D03*
X120250000Y-100250000D03*
X120250000Y-102500000D03*
X124500000Y-106500000D03*
X122500000Y-106500000D03*
X124500000Y-98750000D03*
X122500000Y-98750000D03*
X124500000Y-102750000D03*
%TO.N,/Ideal_Diode/VIN_IDEAL*%
X128500000Y-74250000D03*
X130500000Y-74250000D03*
X128500000Y-78250000D03*
X128500000Y-81750000D03*
X130500000Y-81750000D03*
X132750000Y-79500000D03*
X132750000Y-76750000D03*
X132750000Y-74500000D03*
%TO.N,Net-(C1-Pad2)*%
X116750000Y-78250000D03*
X118500000Y-79500000D03*
X118500000Y-77000000D03*
X120250000Y-75750000D03*
X120250000Y-80750000D03*
X120250000Y-78250000D03*
X124500000Y-82000000D03*
X124500000Y-78000000D03*
X124500000Y-74500000D03*
X122500000Y-82000000D03*
X122500000Y-74500000D03*
%TO.N,Net-(U5-VSENSE)*%
X123330000Y-110430194D03*
X110867500Y-105167694D03*
D17*
%TO.N,P+*%
X54250000Y-82500000D03*
X54250000Y-83250000D03*
X54250000Y-81000000D03*
D16*
X91000000Y-118500000D03*
X91750000Y-119250000D03*
D17*
X54250000Y-84750000D03*
D16*
X90433700Y-118500000D03*
D17*
X54250000Y-84000000D03*
X54250000Y-81750000D03*
D16*
X91000000Y-119250000D03*
D17*
X54250000Y-85500000D03*
D16*
X91750000Y-118500000D03*
%TO.N,GND*%
X79977900Y-114227900D03*
X111510000Y-86662500D03*
X79940400Y-123977900D03*
X67500000Y-96500000D03*
X98000000Y-125500000D03*
X112260000Y-78412500D03*
X111510000Y-85862500D03*
X88477900Y-117522100D03*
X68475000Y-101725000D03*
X69750000Y-99000000D03*
X79977900Y-119477900D03*
X98000000Y-109500000D03*
X79977900Y-117227900D03*
X52750000Y-99250000D03*
X112280000Y-102780194D03*
X64250000Y-104000000D03*
X96750000Y-117250000D03*
X57000000Y-102250000D03*
X79977900Y-121727900D03*
X83477900Y-111927900D03*
X99000000Y-118000000D03*
X69750000Y-96500000D03*
X111530000Y-111030194D03*
X102000000Y-113250000D03*
X85447900Y-111977900D03*
X111530000Y-110230194D03*
X92727900Y-111984600D03*
%TO.N,Net-(U1-VSENSE)*%
X110847500Y-80800000D03*
X123310000Y-86062500D03*
%TO.N,/TPS54620_Buck1/EN_BUCK*%
X124110000Y-90862500D03*
X115387500Y-103922694D03*
%TO.N,/USBPD/VBUS*%
X114000000Y-58000000D03*
X113250000Y-58000000D03*
X106700000Y-59148750D03*
X107500000Y-58500000D03*
X112596657Y-57775432D03*
X106750000Y-58500000D03*
X107580740Y-57750000D03*
%TO.N,/Batt Charger/SW*%
X92477900Y-124146200D03*
X91977900Y-116272100D03*
%TO.N,/USBPD/D+*%
X111075000Y-59773750D03*
X110075000Y-55273750D03*
%TO.N,/USBPD/D-*%
X109575000Y-58273750D03*
X110575000Y-60523750D03*
%TO.N,/VUSBPDSWITCHED*%
X98750000Y-79500000D03*
X105500000Y-79500000D03*
X101500000Y-79500000D03*
X104000000Y-79500000D03*
X103250000Y-79500000D03*
X102500000Y-79500000D03*
X100750000Y-79500000D03*
X104750000Y-79500000D03*
X99500000Y-79500000D03*
%TD*%
%TO.N,Net-(U5-VSENSE)*%
D18*
X116130000Y-110430194D02*
X123330000Y-110430194D01*
X110867500Y-105167694D02*
X116130000Y-110430194D01*
%TO.N,P+*%
D19*
X90500000Y-77750000D02*
X90500000Y-74500000D01*
X79500000Y-72750000D02*
X73000000Y-79250000D01*
X52250000Y-85500000D02*
X53500000Y-85500000D01*
X54250000Y-81750000D02*
X56750000Y-79250000D01*
X54250000Y-84750000D02*
X54250000Y-81750000D01*
X53500000Y-85500000D02*
X54250000Y-84750000D01*
D20*
X91750000Y-119250000D02*
X91000000Y-118500000D01*
D19*
X88750000Y-72750000D02*
X79500000Y-72750000D01*
X90500000Y-74500000D02*
X88750000Y-72750000D01*
X89977900Y-96227900D02*
X73000000Y-79250000D01*
X91000000Y-118500000D02*
X89977900Y-117477900D01*
X89250000Y-79000000D02*
X90500000Y-77750000D01*
D20*
X91000000Y-119250000D02*
X91750000Y-119250000D01*
X91000000Y-119250000D02*
X91750000Y-118500000D01*
D19*
X87750000Y-79000000D02*
X89250000Y-79000000D01*
X89977900Y-117477900D02*
X89977900Y-96227900D01*
X56750000Y-79250000D02*
X73000000Y-79250000D01*
%TO.N,Net-(U1-VSENSE)*%
D18*
X110847500Y-80800000D02*
X116110000Y-86062500D01*
X116110000Y-86062500D02*
X123310000Y-86062500D01*
%TO.N,/TPS54620_Buck1/EN_BUCK*%
D21*
X115387500Y-103922694D02*
X115387500Y-94185000D01*
X115387500Y-94185000D02*
X118710000Y-90862500D01*
X118710000Y-90862500D02*
X124110000Y-90862500D01*
%TO.N,/USBPD/VBUS*%
D22*
X112821225Y-58000000D02*
X114000000Y-58000000D01*
X107580740Y-57750000D02*
X107580740Y-57336782D01*
X107580740Y-57336782D02*
X107599500Y-57318022D01*
X107580740Y-57750000D02*
X107580740Y-58268010D01*
D23*
X107580740Y-57750000D02*
X107580740Y-56740510D01*
D22*
X112596657Y-57775432D02*
X112821225Y-58000000D01*
D23*
X112596657Y-57707583D02*
X112400000Y-57510926D01*
X112596657Y-57775432D02*
X112596657Y-57707583D01*
D22*
X107580740Y-58268010D02*
X106700000Y-59148750D01*
X107599500Y-57125042D02*
X107792480Y-57125042D01*
X107599500Y-57318022D02*
X107599500Y-57125042D01*
D23*
X107580740Y-56740510D02*
X107599500Y-56721750D01*
%TO.N,/Batt Charger/SW*%
D18*
X92477900Y-124146200D02*
X92477900Y-116772100D01*
X92477900Y-116772100D02*
X91977900Y-116272100D01*
%TO.N,/USBPD/D+*%
X110175000Y-58025221D02*
X110175000Y-58522279D01*
X110075000Y-58622279D02*
X110075000Y-59273750D01*
X110075000Y-57925221D02*
X110175000Y-58025221D01*
X110075000Y-55273750D02*
X110075000Y-57925221D01*
X110175000Y-58522279D02*
X110075000Y-58622279D01*
X110075000Y-59273750D02*
X110575000Y-59773750D01*
X110575000Y-59773750D02*
X111075000Y-59773750D01*
%TO.N,/USBPD/D-*%
X109575000Y-58273750D02*
X109575000Y-59523750D01*
X109575000Y-59523750D02*
X110575000Y-60523750D01*
%TO.N,/VUSBPDSWITCHED*%
D19*
X86750000Y-85500000D02*
X84750000Y-83500000D01*
X84750000Y-83500000D02*
X84750000Y-82000000D01*
X105500000Y-79500000D02*
X98750000Y-79500000D01*
X98750000Y-79500000D02*
X92750000Y-85500000D01*
X92750000Y-85500000D02*
X86750000Y-85500000D01*
%TD*%
%TA.AperFunction,Conductor*%
%TO.N,/VUSBPDSWITCHED*%
G36*
X110621971Y-78264881D02*
G01*
X110700618Y-78280524D01*
X110745308Y-78299035D01*
X110801626Y-78336666D01*
X110807519Y-78342559D01*
X110812251Y-78344619D01*
X110835832Y-78370871D01*
X110873462Y-78427188D01*
X110891976Y-78471887D01*
X110907617Y-78550519D01*
X110910000Y-78574710D01*
X110910000Y-79350289D01*
X110907617Y-79374480D01*
X110891976Y-79453112D01*
X110888786Y-79460813D01*
X110888694Y-79465973D01*
X110873462Y-79497811D01*
X110835836Y-79554123D01*
X110801623Y-79588336D01*
X110745311Y-79625962D01*
X110700612Y-79644476D01*
X110621980Y-79660117D01*
X110597789Y-79662500D01*
X110109999Y-79662500D01*
X108510000Y-81262499D01*
X108510000Y-81262500D01*
X108510000Y-83262500D01*
X109997789Y-83262500D01*
X110021971Y-83264881D01*
X110100618Y-83280524D01*
X110145308Y-83299035D01*
X110201626Y-83336666D01*
X110235833Y-83370873D01*
X110273462Y-83427188D01*
X110291976Y-83471887D01*
X110307617Y-83550519D01*
X110310000Y-83574710D01*
X110310000Y-88950289D01*
X110307617Y-88974480D01*
X110291976Y-89053112D01*
X110273462Y-89097811D01*
X110235836Y-89154123D01*
X110201623Y-89188335D01*
X110173688Y-89207001D01*
X110145311Y-89225962D01*
X110100612Y-89244476D01*
X110021980Y-89260117D01*
X109997789Y-89262500D01*
X108834668Y-89262500D01*
X108812377Y-89260480D01*
X108739620Y-89247184D01*
X108697922Y-89231417D01*
X108634568Y-89193248D01*
X108616520Y-89180017D01*
X98621406Y-80360799D01*
X98603681Y-80341459D01*
X98552399Y-80271983D01*
X98548092Y-80262439D01*
X98543200Y-80257525D01*
X98530940Y-80224429D01*
X98512775Y-80140014D01*
X98510000Y-80113928D01*
X98510000Y-78974710D01*
X98512381Y-78950529D01*
X98528025Y-78871879D01*
X98546534Y-78827193D01*
X98584168Y-78770870D01*
X98618370Y-78736668D01*
X98674693Y-78699034D01*
X98719379Y-78680525D01*
X98798028Y-78664881D01*
X98822211Y-78662500D01*
X106510000Y-78662500D01*
X108443245Y-78447695D01*
X110091823Y-78264519D01*
X110095189Y-78264193D01*
X110106608Y-78263243D01*
X110113441Y-78262864D01*
X110122122Y-78262624D01*
X110124920Y-78262547D01*
X110128346Y-78262500D01*
X110597789Y-78262500D01*
X110621971Y-78264881D01*
G37*
%TD.AperFunction*%
%TD*%
%TA.AperFunction,Conductor*%
%TO.N,/Ideal_Diode1/VIN_IDEAL*%
G36*
X128173853Y-94491705D02*
G01*
X128226860Y-94498630D01*
X128257908Y-94506883D01*
X128307364Y-94527196D01*
X128321823Y-94534264D01*
X131885263Y-96572833D01*
X136322622Y-99111353D01*
X136340439Y-99123733D01*
X136395544Y-99169662D01*
X136423417Y-99202702D01*
X136453862Y-99255194D01*
X136468700Y-99295792D01*
X136481205Y-99366434D01*
X136483103Y-99388048D01*
X136483103Y-103264919D01*
X136480664Y-103289390D01*
X136464661Y-103368885D01*
X136445725Y-103414014D01*
X136400212Y-103481123D01*
X136384459Y-103500006D01*
X130217853Y-109554324D01*
X128341738Y-111396275D01*
X128323045Y-111411366D01*
X128256837Y-111454948D01*
X128212570Y-111473046D01*
X128134791Y-111488332D01*
X128110879Y-111490660D01*
X126957814Y-111490660D01*
X126933623Y-111488277D01*
X126854990Y-111472636D01*
X126847288Y-111469446D01*
X126842129Y-111469354D01*
X126810292Y-111454122D01*
X126753976Y-111416493D01*
X126719769Y-111382286D01*
X126682138Y-111325968D01*
X126663627Y-111281278D01*
X126647984Y-111202631D01*
X126645603Y-111178449D01*
X126645603Y-109560813D01*
X126646280Y-109547873D01*
X126650780Y-109504988D01*
X126656153Y-109479669D01*
X126669463Y-109438638D01*
X126674083Y-109426579D01*
X127045603Y-108590660D01*
X127445603Y-107690660D01*
X127445603Y-97490660D01*
X126717891Y-96581020D01*
X126706261Y-96563664D01*
X126672751Y-96503197D01*
X126658969Y-96463909D01*
X126647363Y-96395759D01*
X126645603Y-96374941D01*
X126645603Y-94802870D01*
X126647984Y-94778689D01*
X126663628Y-94700039D01*
X126666815Y-94692344D01*
X126666908Y-94687186D01*
X126682136Y-94655355D01*
X126719771Y-94599030D01*
X126753973Y-94564828D01*
X126810296Y-94527194D01*
X126854982Y-94508685D01*
X126933631Y-94493041D01*
X126957814Y-94490660D01*
X128157790Y-94490660D01*
X128173853Y-94491705D01*
G37*
%TD.AperFunction*%
%TD*%
%TA.AperFunction,Conductor*%
%TO.N,Net-(C1-Pad2)*%
G36*
X125421971Y-73064881D02*
G01*
X125500618Y-73080524D01*
X125545308Y-73099035D01*
X125601626Y-73136666D01*
X125607519Y-73142559D01*
X125612251Y-73144619D01*
X125635832Y-73170871D01*
X125673462Y-73227188D01*
X125691976Y-73271887D01*
X125707617Y-73350519D01*
X125710000Y-73374710D01*
X125710000Y-82950289D01*
X125707617Y-82974480D01*
X125691976Y-83053112D01*
X125688786Y-83060813D01*
X125688694Y-83065973D01*
X125673462Y-83097811D01*
X125635836Y-83154123D01*
X125601623Y-83188336D01*
X125545311Y-83225962D01*
X125500612Y-83244476D01*
X125421980Y-83260117D01*
X125397789Y-83262500D01*
X121611178Y-83262500D01*
X121592808Y-83261132D01*
X121582096Y-83259527D01*
X121532403Y-83252083D01*
X121497279Y-83241318D01*
X121442177Y-83214968D01*
X121426194Y-83205808D01*
X121066521Y-82962500D01*
X114710001Y-78662500D01*
X114710000Y-78662500D01*
X114618060Y-78662500D01*
X113822211Y-78662500D01*
X113798020Y-78660117D01*
X113719387Y-78644476D01*
X113674689Y-78625962D01*
X113618373Y-78588333D01*
X113584166Y-78554126D01*
X113546535Y-78497808D01*
X113528024Y-78453118D01*
X113512381Y-78374471D01*
X113510000Y-78350289D01*
X113510000Y-77974710D01*
X113512381Y-77950529D01*
X113528025Y-77871879D01*
X113546534Y-77827193D01*
X113584168Y-77770870D01*
X113618370Y-77736668D01*
X113674693Y-77699034D01*
X113719379Y-77680525D01*
X113798028Y-77664881D01*
X113822211Y-77662500D01*
X114510001Y-77662500D01*
X116053750Y-76606249D01*
X118310000Y-75062500D01*
X118310000Y-73374710D01*
X118312381Y-73350529D01*
X118328025Y-73271879D01*
X118346534Y-73227193D01*
X118384168Y-73170870D01*
X118418370Y-73136668D01*
X118474693Y-73099034D01*
X118519379Y-73080525D01*
X118598028Y-73064881D01*
X118622211Y-73062500D01*
X125397789Y-73062500D01*
X125421971Y-73064881D01*
G37*
%TD.AperFunction*%
%TD*%
%TA.AperFunction,Conductor*%
%TO.N,Net-(C17-Pad2)*%
G36*
X125441971Y-97432575D02*
G01*
X125520618Y-97448218D01*
X125565308Y-97466729D01*
X125621626Y-97504360D01*
X125627519Y-97510253D01*
X125632251Y-97512313D01*
X125655832Y-97538565D01*
X125693462Y-97594882D01*
X125711976Y-97639581D01*
X125727617Y-97718213D01*
X125730000Y-97742404D01*
X125730000Y-107317983D01*
X125727617Y-107342174D01*
X125711976Y-107420806D01*
X125708786Y-107428507D01*
X125708694Y-107433667D01*
X125693462Y-107465505D01*
X125655836Y-107521817D01*
X125621623Y-107556030D01*
X125565311Y-107593656D01*
X125520612Y-107612170D01*
X125441980Y-107627811D01*
X125417789Y-107630194D01*
X121631178Y-107630194D01*
X121612808Y-107628826D01*
X121602096Y-107627221D01*
X121552403Y-107619777D01*
X121517279Y-107609012D01*
X121462177Y-107582662D01*
X121446194Y-107573502D01*
X121086521Y-107330194D01*
X115912166Y-103829893D01*
X115873512Y-103787877D01*
X115865895Y-103774307D01*
X115853892Y-103729508D01*
X115788000Y-103615380D01*
X115762233Y-103589613D01*
X115753868Y-103574709D01*
X115749716Y-103556643D01*
X115740834Y-103540376D01*
X115738000Y-103514018D01*
X115738000Y-101269072D01*
X115757685Y-101202033D01*
X115791977Y-101166736D01*
X118330000Y-99430194D01*
X118330000Y-97742404D01*
X118332381Y-97718223D01*
X118348025Y-97639573D01*
X118366534Y-97594887D01*
X118404168Y-97538564D01*
X118438370Y-97504362D01*
X118494693Y-97466728D01*
X118539379Y-97448219D01*
X118618028Y-97432575D01*
X118642211Y-97430194D01*
X125417789Y-97430194D01*
X125441971Y-97432575D01*
G37*
%TD.AperFunction*%
%TD*%
%TA.AperFunction,Conductor*%
%TO.N,/TPS54620_Buck1/VIN_BUCK*%
G36*
X110641971Y-102632575D02*
G01*
X110720618Y-102648218D01*
X110765308Y-102666729D01*
X110821626Y-102704360D01*
X110827519Y-102710253D01*
X110832251Y-102712313D01*
X110855832Y-102738565D01*
X110893462Y-102794882D01*
X110911976Y-102839581D01*
X110927617Y-102918213D01*
X110930000Y-102942404D01*
X110930000Y-103717983D01*
X110927617Y-103742174D01*
X110911976Y-103820806D01*
X110908786Y-103828507D01*
X110908694Y-103833667D01*
X110893462Y-103865505D01*
X110855836Y-103921817D01*
X110821623Y-103956030D01*
X110765311Y-103993656D01*
X110720612Y-104012170D01*
X110641980Y-104027811D01*
X110617789Y-104030194D01*
X110129999Y-104030194D01*
X108530000Y-105630193D01*
X108530000Y-105630194D01*
X108530000Y-107630194D01*
X110017789Y-107630194D01*
X110041971Y-107632575D01*
X110120618Y-107648218D01*
X110165308Y-107666729D01*
X110221626Y-107704360D01*
X110255833Y-107738567D01*
X110293462Y-107794882D01*
X110311976Y-107839581D01*
X110327617Y-107918213D01*
X110330000Y-107942404D01*
X110330000Y-113317983D01*
X110327617Y-113342174D01*
X110311976Y-113420806D01*
X110293462Y-113465505D01*
X110255836Y-113521817D01*
X110221623Y-113556029D01*
X110193688Y-113574695D01*
X110165311Y-113593656D01*
X110120612Y-113612170D01*
X110041980Y-113627811D01*
X110017789Y-113630194D01*
X108854668Y-113630194D01*
X108832377Y-113628174D01*
X108759620Y-113614878D01*
X108717922Y-113599111D01*
X108654568Y-113560942D01*
X108636520Y-113547711D01*
X98641406Y-104728493D01*
X98623681Y-104709153D01*
X98572399Y-104639677D01*
X98568092Y-104630133D01*
X98563200Y-104625219D01*
X98550940Y-104592123D01*
X98532775Y-104507708D01*
X98530000Y-104481622D01*
X98530000Y-103342404D01*
X98532381Y-103318223D01*
X98548025Y-103239573D01*
X98566534Y-103194887D01*
X98604168Y-103138564D01*
X98638370Y-103104362D01*
X98694693Y-103066728D01*
X98739379Y-103048219D01*
X98818028Y-103032575D01*
X98842211Y-103030194D01*
X106530000Y-103030194D01*
X108463245Y-102815389D01*
X110111823Y-102632213D01*
X110115189Y-102631887D01*
X110126608Y-102630937D01*
X110133441Y-102630558D01*
X110142122Y-102630318D01*
X110144920Y-102630241D01*
X110148346Y-102630194D01*
X110617789Y-102630194D01*
X110641971Y-102632575D01*
G37*
%TD.AperFunction*%
%TD*%
%TA.AperFunction,Conductor*%
%TO.N,/Ideal_Diode/VIN_IDEAL*%
G36*
X128033567Y-70063677D02*
G01*
X128089744Y-70071474D01*
X128122547Y-70080758D01*
X128174481Y-70103562D01*
X128189599Y-70111484D01*
X131506835Y-72152860D01*
X135758238Y-74769108D01*
X135775154Y-74781613D01*
X135827413Y-74827587D01*
X135853753Y-74860197D01*
X135882481Y-74911608D01*
X135896448Y-74951130D01*
X135908215Y-75019736D01*
X135910000Y-75040698D01*
X135910000Y-78730784D01*
X135907766Y-78754216D01*
X135893085Y-78830508D01*
X135875695Y-78874021D01*
X135833752Y-78939415D01*
X135819221Y-78957933D01*
X128207374Y-86960132D01*
X128188340Y-86976462D01*
X128120490Y-87023661D01*
X128074630Y-87043332D01*
X127993665Y-87059964D01*
X127968714Y-87062500D01*
X126822211Y-87062500D01*
X126798020Y-87060117D01*
X126719387Y-87044476D01*
X126674689Y-87025962D01*
X126618373Y-86988333D01*
X126584166Y-86954126D01*
X126546535Y-86897808D01*
X126528024Y-86853118D01*
X126512381Y-86774471D01*
X126510000Y-86750289D01*
X126510000Y-85132653D01*
X126510677Y-85119713D01*
X126515177Y-85076828D01*
X126520550Y-85051509D01*
X126533860Y-85010478D01*
X126538480Y-84998419D01*
X126910000Y-84162500D01*
X127310000Y-83262500D01*
X127310000Y-73062500D01*
X126582288Y-72152860D01*
X126570658Y-72135504D01*
X126537148Y-72075037D01*
X126523366Y-72035749D01*
X126511760Y-71967599D01*
X126510000Y-71946781D01*
X126510000Y-70374710D01*
X126512381Y-70350529D01*
X126528025Y-70271879D01*
X126531212Y-70264184D01*
X126531305Y-70259026D01*
X126546533Y-70227195D01*
X126584168Y-70170870D01*
X126618370Y-70136668D01*
X126674693Y-70099034D01*
X126719379Y-70080525D01*
X126798028Y-70064881D01*
X126822211Y-70062500D01*
X128016520Y-70062500D01*
X128033567Y-70063677D01*
G37*
%TD.AperFunction*%
%TD*%
%TA.AperFunction,Conductor*%
%TO.N,GND*%
G36*
X166998084Y-50500556D02*
G01*
X167001848Y-50500669D01*
X167005575Y-50500837D01*
X167290069Y-50518045D01*
X167297505Y-50518721D01*
X167304951Y-50519625D01*
X167312324Y-50520747D01*
X167587134Y-50571108D01*
X167594431Y-50572675D01*
X167601691Y-50574465D01*
X167601703Y-50574468D01*
X167608909Y-50576477D01*
X167875613Y-50659586D01*
X167882663Y-50662018D01*
X167889671Y-50664675D01*
X167896567Y-50667532D01*
X168151322Y-50782188D01*
X168158048Y-50785464D01*
X168164684Y-50788947D01*
X168171191Y-50792617D01*
X168410260Y-50937137D01*
X168416534Y-50941194D01*
X168422686Y-50945440D01*
X168428711Y-50949872D01*
X168648621Y-51122161D01*
X168654379Y-51126960D01*
X168659984Y-51131926D01*
X168665434Y-51137057D01*
X168862941Y-51334564D01*
X168868072Y-51340014D01*
X168873038Y-51345619D01*
X168877837Y-51351377D01*
X169050117Y-51571275D01*
X169054538Y-51577283D01*
X169058817Y-51583483D01*
X169062854Y-51589727D01*
X169207389Y-51828820D01*
X169211062Y-51835333D01*
X169214543Y-51841967D01*
X169217816Y-51848690D01*
X169332452Y-52103398D01*
X169335321Y-52110323D01*
X169337980Y-52117335D01*
X169340421Y-52124412D01*
X169423520Y-52391087D01*
X169425526Y-52398282D01*
X169427322Y-52405566D01*
X169428893Y-52412881D01*
X169479247Y-52687655D01*
X169480373Y-52695051D01*
X169481275Y-52702475D01*
X169481954Y-52709944D01*
X169499160Y-52994384D01*
X169499329Y-52998117D01*
X169499443Y-53001881D01*
X169499500Y-53005635D01*
X169499500Y-131994363D01*
X169499443Y-131998117D01*
X169499329Y-132001881D01*
X169499160Y-132005614D01*
X169481954Y-132290054D01*
X169481275Y-132297523D01*
X169480373Y-132304947D01*
X169479247Y-132312343D01*
X169428893Y-132587117D01*
X169427319Y-132594449D01*
X169425530Y-132601705D01*
X169423520Y-132608911D01*
X169340421Y-132875586D01*
X169337980Y-132882663D01*
X169335321Y-132889675D01*
X169332452Y-132896600D01*
X169217816Y-133151308D01*
X169214543Y-133158031D01*
X169211062Y-133164665D01*
X169207377Y-133171200D01*
X169062863Y-133410257D01*
X169058807Y-133416530D01*
X169054549Y-133422699D01*
X169050117Y-133428723D01*
X168877837Y-133648621D01*
X168873038Y-133654379D01*
X168868072Y-133659984D01*
X168862941Y-133665434D01*
X168665434Y-133862941D01*
X168659984Y-133868072D01*
X168654379Y-133873038D01*
X168648621Y-133877837D01*
X168428723Y-134050117D01*
X168422699Y-134054549D01*
X168416530Y-134058807D01*
X168410255Y-134062863D01*
X168171192Y-134207381D01*
X168164665Y-134211062D01*
X168158031Y-134214543D01*
X168151308Y-134217816D01*
X167896600Y-134332452D01*
X167889675Y-134335321D01*
X167882663Y-134337980D01*
X167875586Y-134340421D01*
X167608911Y-134423520D01*
X167601708Y-134425529D01*
X167594439Y-134427321D01*
X167587117Y-134428893D01*
X167312343Y-134479247D01*
X167304947Y-134480373D01*
X167297523Y-134481275D01*
X167290054Y-134481954D01*
X167005614Y-134499160D01*
X167001881Y-134499329D01*
X166998117Y-134499443D01*
X166994363Y-134499500D01*
X53005637Y-134499500D01*
X53001884Y-134499443D01*
X52998119Y-134499329D01*
X52994385Y-134499160D01*
X52709944Y-134481954D01*
X52702475Y-134481275D01*
X52695051Y-134480373D01*
X52687655Y-134479247D01*
X52412881Y-134428893D01*
X52405566Y-134427322D01*
X52398282Y-134425526D01*
X52391087Y-134423520D01*
X52124407Y-134340420D01*
X52117334Y-134337980D01*
X52110310Y-134335316D01*
X52103420Y-134332461D01*
X52048880Y-134307915D01*
X51954096Y-134265255D01*
X51954096Y-134265256D01*
X51848683Y-134217813D01*
X51841951Y-134214535D01*
X51835324Y-134211057D01*
X51828820Y-134207389D01*
X51589727Y-134062854D01*
X51583483Y-134058817D01*
X51577283Y-134054538D01*
X51571275Y-134050117D01*
X51351377Y-133877837D01*
X51345619Y-133873038D01*
X51340014Y-133868072D01*
X51334564Y-133862941D01*
X51137057Y-133665434D01*
X51131926Y-133659984D01*
X51126960Y-133654379D01*
X51122161Y-133648621D01*
X50949872Y-133428711D01*
X50945444Y-133422691D01*
X50941192Y-133416532D01*
X50937147Y-133410275D01*
X50792602Y-133171167D01*
X50788941Y-133164674D01*
X50785463Y-133158047D01*
X50782191Y-133151329D01*
X50667532Y-132896567D01*
X50664672Y-132889662D01*
X50662018Y-132882663D01*
X50659581Y-132875599D01*
X50576479Y-132608916D01*
X50574468Y-132601703D01*
X50572677Y-132594437D01*
X50571108Y-132587134D01*
X50520750Y-132312339D01*
X50519627Y-132304965D01*
X50518719Y-132297487D01*
X50518046Y-132290082D01*
X50500837Y-132005575D01*
X50500669Y-132001848D01*
X50500556Y-131998084D01*
X50500500Y-131994363D01*
X50500500Y-108359796D01*
X70287000Y-108359796D01*
X70287000Y-108596002D01*
X70323945Y-108829262D01*
X70323946Y-108829268D01*
X70396933Y-109053896D01*
X70504157Y-109264333D01*
X70642983Y-109455410D01*
X70809990Y-109622417D01*
X71001067Y-109761243D01*
X71064130Y-109793375D01*
X71205059Y-109865183D01*
X71206652Y-109866115D01*
X71210365Y-109867914D01*
X71212362Y-109868907D01*
X71216130Y-109869970D01*
X71263835Y-109885469D01*
X71331910Y-109907588D01*
X71331911Y-109907589D01*
X71331912Y-109907589D01*
X71436131Y-109941453D01*
X71669403Y-109978400D01*
X71669408Y-109978400D01*
X71905596Y-109978400D01*
X71905597Y-109978400D01*
X72138868Y-109941453D01*
X72363492Y-109868468D01*
X72573933Y-109761243D01*
X72765010Y-109622417D01*
X72932017Y-109455410D01*
X73070843Y-109264333D01*
X73178068Y-109053892D01*
X73251053Y-108829268D01*
X73288000Y-108595997D01*
X73288000Y-108359802D01*
X73251053Y-108126531D01*
X73178066Y-107901903D01*
X73070842Y-107691466D01*
X72932017Y-107500390D01*
X72765010Y-107333383D01*
X72573933Y-107194557D01*
X72363496Y-107087333D01*
X72138868Y-107014346D01*
X72138862Y-107014345D01*
X71905602Y-106977400D01*
X71905597Y-106977400D01*
X71905592Y-106977400D01*
X71669408Y-106977400D01*
X71669403Y-106977400D01*
X71669398Y-106977400D01*
X71436136Y-107014345D01*
X71436134Y-107014345D01*
X71436131Y-107014346D01*
X71211503Y-107087333D01*
X71140472Y-107123525D01*
X71001066Y-107194556D01*
X70897594Y-107269735D01*
X70821858Y-107324759D01*
X70814479Y-107328892D01*
X70638491Y-107504880D01*
X70634358Y-107512261D01*
X70583362Y-107582450D01*
X70583361Y-107582449D01*
X70504159Y-107691462D01*
X70504157Y-107691466D01*
X70396933Y-107901903D01*
X70323946Y-108126531D01*
X70323945Y-108126534D01*
X70323945Y-108126536D01*
X70287000Y-108359796D01*
X50500500Y-108359796D01*
X50500500Y-84755032D01*
X50749500Y-84755032D01*
X50749500Y-86244966D01*
X50764627Y-86379230D01*
X50764630Y-86379252D01*
X50764631Y-86379255D01*
X50824210Y-86549522D01*
X50824213Y-86549528D01*
X50907882Y-86682684D01*
X50920182Y-86702260D01*
X50920184Y-86702262D01*
X51047738Y-86829816D01*
X51100550Y-86863000D01*
X51100549Y-86863000D01*
X51136387Y-86885518D01*
X51136389Y-86885519D01*
X51163297Y-86908358D01*
X51172492Y-86918753D01*
X51202165Y-86982008D01*
X51192929Y-87051265D01*
X51192925Y-87051273D01*
X51191272Y-87054992D01*
X51159064Y-87098427D01*
X51158569Y-87098855D01*
X51143439Y-87110049D01*
X51047739Y-87170182D01*
X51047736Y-87170184D01*
X50920183Y-87297737D01*
X50824212Y-87450473D01*
X50824210Y-87450476D01*
X50764631Y-87620743D01*
X50764630Y-87620746D01*
X50764627Y-87620768D01*
X50749500Y-87755032D01*
X50749500Y-89244966D01*
X50764627Y-89379230D01*
X50764630Y-89379252D01*
X50764631Y-89379254D01*
X50824211Y-89549523D01*
X50896400Y-89664409D01*
X50899761Y-89669758D01*
X50899761Y-89669759D01*
X50917962Y-89698727D01*
X50920184Y-89702262D01*
X50984317Y-89766395D01*
X51047738Y-89829816D01*
X51048418Y-89830243D01*
X51048448Y-89830262D01*
X51066545Y-89841633D01*
X51136393Y-89885521D01*
X51163297Y-89908358D01*
X51172492Y-89918753D01*
X51180064Y-89934895D01*
X51182682Y-89937855D01*
X51183284Y-89941758D01*
X51202165Y-89982008D01*
X51192929Y-90051265D01*
X51192925Y-90051273D01*
X51191272Y-90054992D01*
X51159064Y-90098427D01*
X51158569Y-90098855D01*
X51143439Y-90110049D01*
X51047739Y-90170182D01*
X51047736Y-90170184D01*
X50920183Y-90297737D01*
X50824212Y-90450473D01*
X50824210Y-90450476D01*
X50764631Y-90620743D01*
X50764630Y-90620746D01*
X50764627Y-90620768D01*
X50749500Y-90755032D01*
X50749500Y-92244966D01*
X50764627Y-92379230D01*
X50764630Y-92379252D01*
X50764631Y-92379255D01*
X50824210Y-92549522D01*
X50824213Y-92549527D01*
X50843245Y-92579816D01*
X50903549Y-92675788D01*
X50920184Y-92702262D01*
X51047738Y-92829816D01*
X51200478Y-92925789D01*
X51370745Y-92985368D01*
X51370750Y-92985369D01*
X51370759Y-92985370D01*
X51370770Y-92985372D01*
X51418724Y-92990774D01*
X51461246Y-92995565D01*
X51502068Y-93000164D01*
X51504511Y-93000500D01*
X52994957Y-93000500D01*
X53004750Y-93000500D01*
X53012345Y-92998540D01*
X53062104Y-92992934D01*
X53122348Y-92986146D01*
X53125808Y-92985952D01*
X53125813Y-92985952D01*
X53128781Y-92985533D01*
X53129253Y-92985368D01*
X53129255Y-92985368D01*
X53299522Y-92925789D01*
X53452262Y-92829816D01*
X53579816Y-92702262D01*
X53675789Y-92549522D01*
X53735368Y-92379255D01*
X53750500Y-92244954D01*
X53750500Y-90755046D01*
X53750499Y-90755039D01*
X53745565Y-90711248D01*
X53745565Y-90711245D01*
X53735372Y-90620770D01*
X53735370Y-90620759D01*
X53735369Y-90620750D01*
X53735368Y-90620745D01*
X53675788Y-90450476D01*
X53636582Y-90388080D01*
X53579816Y-90297738D01*
X53452262Y-90170184D01*
X53363604Y-90114476D01*
X53363602Y-90114474D01*
X53363600Y-90114474D01*
X53336696Y-90091635D01*
X53327500Y-90081239D01*
X53297833Y-90017982D01*
X53307070Y-89948734D01*
X53308725Y-89945010D01*
X53340869Y-89901627D01*
X53341366Y-89901196D01*
X53356548Y-89889955D01*
X53452262Y-89829816D01*
X53579816Y-89702262D01*
X53675789Y-89549522D01*
X53735368Y-89379255D01*
X53735437Y-89378649D01*
X53750320Y-89246550D01*
X53750500Y-89244954D01*
X53750500Y-87755046D01*
X53735368Y-87620745D01*
X53675789Y-87450478D01*
X53673139Y-87446261D01*
X53625704Y-87370768D01*
X53579816Y-87297738D01*
X53506866Y-87224788D01*
X53485717Y-87196538D01*
X53480295Y-87186608D01*
X53465442Y-87118338D01*
X53489856Y-87052873D01*
X53545786Y-87011001D01*
X53549665Y-87009554D01*
X53553001Y-87008311D01*
X53596315Y-87000500D01*
X53618096Y-87000500D01*
X53618097Y-87000500D01*
X53851368Y-86963553D01*
X53901263Y-86947341D01*
X54075992Y-86890568D01*
X54286434Y-86783343D01*
X54477510Y-86644517D01*
X55394517Y-85727510D01*
X55533343Y-85536434D01*
X55640568Y-85325992D01*
X55713553Y-85101369D01*
X55725795Y-85024070D01*
X55729973Y-84997694D01*
X55729973Y-84997687D01*
X55738070Y-84946573D01*
X55750500Y-84868097D01*
X55750500Y-82440718D01*
X55755522Y-82405785D01*
X55762934Y-82380540D01*
X55794228Y-82327798D01*
X57322603Y-80799423D01*
X57350853Y-80778275D01*
X57373945Y-80765667D01*
X57433370Y-80750500D01*
X72309281Y-80750500D01*
X72344213Y-80755521D01*
X72369457Y-80762934D01*
X72422203Y-80794230D01*
X88428473Y-96800500D01*
X88449623Y-96828752D01*
X88462231Y-96851841D01*
X88477400Y-96911270D01*
X88477400Y-117596002D01*
X88514345Y-117829262D01*
X88514346Y-117829268D01*
X88569823Y-118000008D01*
X88587334Y-118053900D01*
X88687219Y-118249932D01*
X88694557Y-118264334D01*
X88833384Y-118455411D01*
X88833385Y-118455412D01*
X90022491Y-119644519D01*
X90022496Y-119644523D01*
X90213565Y-119783342D01*
X90282424Y-119818427D01*
X90283591Y-119819022D01*
X90296758Y-119826789D01*
X90307118Y-119833796D01*
X90325324Y-119848824D01*
X90425966Y-119949466D01*
X90460326Y-119972423D01*
X90485040Y-119988936D01*
X90573453Y-120048013D01*
X90655393Y-120081953D01*
X90661480Y-120084474D01*
X90661485Y-120084477D01*
X90697940Y-120099577D01*
X90737334Y-120115895D01*
X90872597Y-120142800D01*
X90908332Y-120149908D01*
X90910567Y-120150409D01*
X90911305Y-120150500D01*
X90911307Y-120150500D01*
X91735571Y-120150500D01*
X91770506Y-120155523D01*
X91785504Y-120159927D01*
X91844255Y-120197672D01*
X91844279Y-120197700D01*
X91844282Y-120197702D01*
X91844283Y-120197704D01*
X91845442Y-120199041D01*
X91872918Y-120253902D01*
X91874563Y-120261460D01*
X91877400Y-120287831D01*
X91877400Y-123548604D01*
X91877399Y-123548605D01*
X91877400Y-123548606D01*
X91872376Y-123583541D01*
X91863036Y-123615348D01*
X91847162Y-123649302D01*
X91768513Y-123767007D01*
X91768503Y-123767024D01*
X91768498Y-123767033D01*
X91708164Y-123912696D01*
X91708157Y-123912727D01*
X91677400Y-124067350D01*
X91677400Y-124067353D01*
X91677400Y-124225046D01*
X91677400Y-124225048D01*
X91677399Y-124225048D01*
X91708157Y-124379671D01*
X91708164Y-124379702D01*
X91768498Y-124525365D01*
X91768503Y-124525374D01*
X91768513Y-124525391D01*
X91856111Y-124656490D01*
X91856112Y-124656491D01*
X91856117Y-124656497D01*
X91967601Y-124767981D01*
X91967607Y-124767986D01*
X91967611Y-124767989D01*
X92098714Y-124855590D01*
X92098727Y-124855597D01*
X92244398Y-124915935D01*
X92244403Y-124915937D01*
X92399053Y-124946699D01*
X92399056Y-124946700D01*
X92399058Y-124946700D01*
X92556744Y-124946700D01*
X92556745Y-124946699D01*
X92711397Y-124915937D01*
X92857079Y-124855594D01*
X92988189Y-124767989D01*
X93099689Y-124656489D01*
X93187294Y-124525379D01*
X93247637Y-124379697D01*
X93278400Y-124225042D01*
X93278400Y-124067358D01*
X93278400Y-124067355D01*
X93278400Y-124067173D01*
X93277965Y-124065172D01*
X93248297Y-123916024D01*
X93247894Y-123913667D01*
X93247638Y-123912708D01*
X93247637Y-123912706D01*
X93247637Y-123912703D01*
X93247635Y-123912698D01*
X93187297Y-123767027D01*
X93187290Y-123767014D01*
X93187279Y-123766997D01*
X93109205Y-123650150D01*
X93109203Y-123650149D01*
X93093971Y-123618311D01*
X93084065Y-123586674D01*
X93078400Y-123549622D01*
X93078400Y-116863552D01*
X93078401Y-116863501D01*
X93078401Y-116693046D01*
X93078401Y-116693044D01*
X93037476Y-116540314D01*
X93037473Y-116540309D01*
X93037473Y-116540308D01*
X93037449Y-116540251D01*
X93036968Y-116539434D01*
X93019753Y-116509617D01*
X92958424Y-116403390D01*
X92958418Y-116403382D01*
X92958414Y-116403378D01*
X92958413Y-116403376D01*
X92825084Y-116270047D01*
X92825082Y-116270046D01*
X92803930Y-116241792D01*
X92788040Y-116212692D01*
X92775257Y-116177460D01*
X92748297Y-116041923D01*
X92747894Y-116039568D01*
X92747638Y-116038608D01*
X92747637Y-116038606D01*
X92747637Y-116038603D01*
X92747635Y-116038598D01*
X92687297Y-115892927D01*
X92687290Y-115892914D01*
X92599689Y-115761811D01*
X92599686Y-115761807D01*
X92599681Y-115761801D01*
X92488197Y-115650317D01*
X92488191Y-115650312D01*
X92488190Y-115650311D01*
X92357091Y-115562713D01*
X92357090Y-115562712D01*
X92357085Y-115562709D01*
X92357072Y-115562702D01*
X92357065Y-115562698D01*
X92211402Y-115502364D01*
X92211371Y-115502357D01*
X92056747Y-115471600D01*
X92056745Y-115471600D01*
X92056742Y-115471600D01*
X91899058Y-115471600D01*
X91899055Y-115471600D01*
X91899053Y-115471600D01*
X91765951Y-115498076D01*
X91765949Y-115498076D01*
X91744410Y-115502361D01*
X91744407Y-115502361D01*
X91664073Y-115535636D01*
X91661766Y-115536487D01*
X91658456Y-115536711D01*
X91632130Y-115543431D01*
X91618330Y-115544915D01*
X91596218Y-115540926D01*
X91592056Y-115541208D01*
X91589269Y-115539672D01*
X91549570Y-115532511D01*
X91498432Y-115484902D01*
X91498427Y-115484893D01*
X91495755Y-115480389D01*
X91478400Y-115417122D01*
X91478400Y-103342404D01*
X98024500Y-103342404D01*
X98024500Y-103342416D01*
X98024500Y-104481640D01*
X98026183Y-104513361D01*
X98027336Y-104535095D01*
X98028335Y-104544483D01*
X98030111Y-104561182D01*
X98038587Y-104614053D01*
X98056753Y-104698471D01*
X98056753Y-104698472D01*
X98076918Y-104767719D01*
X98076919Y-104767721D01*
X98089171Y-104800796D01*
X98089187Y-104800835D01*
X98118987Y-104866477D01*
X98118992Y-104866485D01*
X98132249Y-104884278D01*
X98139801Y-104895677D01*
X98165693Y-104939877D01*
X98216975Y-105009353D01*
X98216980Y-105009360D01*
X98216983Y-105009363D01*
X98251018Y-105050698D01*
X98268752Y-105070047D01*
X98268753Y-105070048D01*
X98306944Y-105107525D01*
X98306950Y-105107531D01*
X104977015Y-110992882D01*
X108161424Y-113802655D01*
X108302069Y-113926753D01*
X108337629Y-113955381D01*
X108337647Y-113955394D01*
X108355695Y-113968625D01*
X108393704Y-113993932D01*
X108457058Y-114032101D01*
X108488761Y-114047488D01*
X108539113Y-114071928D01*
X108539120Y-114071931D01*
X108539135Y-114071938D01*
X108580833Y-114087705D01*
X108580836Y-114087706D01*
X108580842Y-114087708D01*
X108641793Y-114104650D01*
X108668737Y-114112140D01*
X108668739Y-114112141D01*
X108668741Y-114112141D01*
X108668747Y-114112143D01*
X108741504Y-114125439D01*
X108786756Y-114131611D01*
X108809047Y-114133631D01*
X108854668Y-114135694D01*
X110017775Y-114135694D01*
X110017789Y-114135694D01*
X110067345Y-114133259D01*
X110091536Y-114130876D01*
X110130935Y-114125031D01*
X110140580Y-114123601D01*
X110140583Y-114123600D01*
X110140599Y-114123598D01*
X110219231Y-114107957D01*
X110314050Y-114079195D01*
X110358749Y-114060681D01*
X110446153Y-114013963D01*
X110474530Y-113995002D01*
X110474533Y-113995000D01*
X110502468Y-113976334D01*
X110579060Y-113913477D01*
X110613273Y-113879265D01*
X110676146Y-113802655D01*
X110713772Y-113746343D01*
X110760487Y-113658943D01*
X110779001Y-113614244D01*
X110807763Y-113519425D01*
X110823404Y-113440793D01*
X110830682Y-113391730D01*
X110833065Y-113367539D01*
X110835500Y-113317983D01*
X110835500Y-107942404D01*
X110833065Y-107892848D01*
X110830682Y-107868657D01*
X110823404Y-107819594D01*
X110807763Y-107740962D01*
X110779001Y-107646143D01*
X110778997Y-107646133D01*
X110760488Y-107601446D01*
X110713774Y-107514050D01*
X110713773Y-107514048D01*
X110713768Y-107514039D01*
X110676139Y-107457724D01*
X110613275Y-107381125D01*
X110613274Y-107381124D01*
X110613270Y-107381119D01*
X110579073Y-107346922D01*
X110562576Y-107333383D01*
X110502469Y-107284054D01*
X110446151Y-107246423D01*
X110446150Y-107246422D01*
X110446148Y-107246421D01*
X110358751Y-107199706D01*
X110358748Y-107199705D01*
X110314071Y-107181199D01*
X110314068Y-107181198D01*
X110314063Y-107181196D01*
X110277416Y-107170079D01*
X110219234Y-107152430D01*
X110140580Y-107136786D01*
X110091513Y-107129508D01*
X110067329Y-107127127D01*
X110049073Y-107126230D01*
X110017789Y-107124694D01*
X110017777Y-107124694D01*
X109159500Y-107124694D01*
X109092461Y-107105009D01*
X109046706Y-107052205D01*
X109035500Y-107000694D01*
X109035500Y-105890939D01*
X109055185Y-105823900D01*
X109071819Y-105803258D01*
X109855319Y-105019758D01*
X109916642Y-104986273D01*
X109986334Y-104991257D01*
X110042267Y-105033129D01*
X110066684Y-105098593D01*
X110067000Y-105107439D01*
X110067000Y-105246540D01*
X110067000Y-105246542D01*
X110066999Y-105246542D01*
X110097757Y-105401165D01*
X110097764Y-105401196D01*
X110158098Y-105546859D01*
X110158103Y-105546868D01*
X110158113Y-105546885D01*
X110245711Y-105677984D01*
X110245712Y-105677985D01*
X110245717Y-105677991D01*
X110357201Y-105789475D01*
X110357207Y-105789480D01*
X110357211Y-105789483D01*
X110488314Y-105877084D01*
X110488327Y-105877091D01*
X110594716Y-105921158D01*
X110634003Y-105937431D01*
X110698647Y-105950289D01*
X110771864Y-105964853D01*
X110805144Y-105976595D01*
X110834521Y-105991962D01*
X110864727Y-106014156D01*
X115644085Y-110793514D01*
X115644106Y-110793536D01*
X115645149Y-110794579D01*
X115649479Y-110798909D01*
X115649480Y-110798910D01*
X115761284Y-110910714D01*
X115845601Y-110959394D01*
X115845602Y-110959395D01*
X115884075Y-110981607D01*
X115890605Y-110986618D01*
X115896364Y-110989004D01*
X115900031Y-110990593D01*
X115903177Y-110992016D01*
X115905727Y-110992882D01*
X115905819Y-110992920D01*
X115913974Y-110993993D01*
X116050943Y-111030695D01*
X116050946Y-111030695D01*
X116216653Y-111030695D01*
X116218557Y-111030695D01*
X116218620Y-111030694D01*
X122732404Y-111030694D01*
X122767336Y-111035715D01*
X122799150Y-111045057D01*
X122833098Y-111060929D01*
X122950814Y-111139584D01*
X122950827Y-111139591D01*
X123096498Y-111199929D01*
X123096503Y-111199931D01*
X123251153Y-111230693D01*
X123251156Y-111230694D01*
X123251158Y-111230694D01*
X123408844Y-111230694D01*
X123408845Y-111230693D01*
X123563497Y-111199931D01*
X123709179Y-111139588D01*
X123840289Y-111051983D01*
X123951789Y-110940483D01*
X124039394Y-110809373D01*
X124099737Y-110663691D01*
X124130500Y-110509036D01*
X124130500Y-110351352D01*
X124130500Y-110351349D01*
X124130500Y-110351167D01*
X124130065Y-110349166D01*
X124100397Y-110200018D01*
X124099994Y-110197661D01*
X124099738Y-110196702D01*
X124099737Y-110196700D01*
X124099737Y-110196697D01*
X124099735Y-110196692D01*
X124039397Y-110051021D01*
X124039390Y-110051008D01*
X123951789Y-109919905D01*
X123951786Y-109919901D01*
X123951781Y-109919895D01*
X123840297Y-109808411D01*
X123840291Y-109808406D01*
X123840290Y-109808405D01*
X123709191Y-109720807D01*
X123709190Y-109720806D01*
X123709185Y-109720803D01*
X123709172Y-109720796D01*
X123709165Y-109720792D01*
X123563502Y-109660458D01*
X123563471Y-109660451D01*
X123408847Y-109629694D01*
X123408845Y-109629694D01*
X123408842Y-109629694D01*
X123251158Y-109629694D01*
X123251155Y-109629694D01*
X123251153Y-109629694D01*
X123096527Y-109660451D01*
X123096496Y-109660458D01*
X122950833Y-109720792D01*
X122950824Y-109720797D01*
X122950797Y-109720813D01*
X122833953Y-109798885D01*
X122833952Y-109798888D01*
X122802115Y-109814121D01*
X122770478Y-109824028D01*
X122733422Y-109829694D01*
X116447927Y-109829694D01*
X116412991Y-109824671D01*
X116387749Y-109817259D01*
X116335004Y-109785963D01*
X111714682Y-105165641D01*
X111699057Y-105146544D01*
X111696093Y-105142079D01*
X111693011Y-105136435D01*
X111690878Y-105134225D01*
X111684636Y-105124822D01*
X111677545Y-105101939D01*
X111666325Y-105080429D01*
X111652187Y-105009353D01*
X111638244Y-104939257D01*
X111637896Y-104937511D01*
X111637484Y-104935099D01*
X111637237Y-104934198D01*
X111593598Y-104828842D01*
X111593597Y-104828840D01*
X111581997Y-104800835D01*
X111576897Y-104788521D01*
X111576890Y-104788508D01*
X111489289Y-104657405D01*
X111489286Y-104657401D01*
X111489281Y-104657395D01*
X111377797Y-104545911D01*
X111377791Y-104545906D01*
X111377790Y-104545905D01*
X111281584Y-104481622D01*
X111246685Y-104458303D01*
X111246682Y-104458301D01*
X111244233Y-104456665D01*
X111245062Y-104455423D01*
X111201661Y-104408295D01*
X111189631Y-104339469D01*
X111216720Y-104275065D01*
X111216729Y-104275052D01*
X111276146Y-104202655D01*
X111313772Y-104146343D01*
X111349462Y-104083666D01*
X111364694Y-104051828D01*
X111384478Y-104001542D01*
X114586999Y-104001542D01*
X114617757Y-104156165D01*
X114617764Y-104156196D01*
X114678098Y-104301859D01*
X114678103Y-104301868D01*
X114678113Y-104301885D01*
X114765711Y-104432984D01*
X114765712Y-104432985D01*
X114765717Y-104432991D01*
X114877201Y-104544475D01*
X114877207Y-104544480D01*
X114877211Y-104544483D01*
X115008314Y-104632084D01*
X115008327Y-104632091D01*
X115153998Y-104692429D01*
X115154003Y-104692431D01*
X115254992Y-104712519D01*
X115301032Y-104721677D01*
X115303754Y-104722398D01*
X115308655Y-104723194D01*
X115466344Y-104723194D01*
X115470464Y-104723194D01*
X115478314Y-104720812D01*
X115620997Y-104692431D01*
X115766679Y-104632088D01*
X115897789Y-104544483D01*
X115897798Y-104544473D01*
X115902420Y-104540681D01*
X115966727Y-104513361D01*
X116035596Y-104525145D01*
X116050571Y-104533818D01*
X120803285Y-107748891D01*
X121162958Y-107992199D01*
X121194840Y-108012081D01*
X121194847Y-108012085D01*
X121210812Y-108021235D01*
X121210818Y-108021238D01*
X121210823Y-108021241D01*
X121244097Y-108038701D01*
X121299199Y-108065051D01*
X121369151Y-108092322D01*
X121404275Y-108103087D01*
X121477515Y-108119699D01*
X121501124Y-108123235D01*
X121527192Y-108127140D01*
X121527192Y-108127141D01*
X121537904Y-108128746D01*
X121575268Y-108132930D01*
X121593638Y-108134298D01*
X121599413Y-108134512D01*
X121631167Y-108135694D01*
X121631178Y-108135694D01*
X125417775Y-108135694D01*
X125417789Y-108135694D01*
X125467345Y-108133259D01*
X125491536Y-108130876D01*
X125530935Y-108125031D01*
X125540580Y-108123601D01*
X125540583Y-108123600D01*
X125540599Y-108123598D01*
X125619231Y-108107957D01*
X125714050Y-108079195D01*
X125758749Y-108060681D01*
X125846149Y-108013966D01*
X125902461Y-107976340D01*
X125979065Y-107913472D01*
X126013278Y-107879259D01*
X126076146Y-107802655D01*
X126113772Y-107746343D01*
X126149462Y-107683666D01*
X126164694Y-107651828D01*
X126191102Y-107584707D01*
X126193376Y-107570667D01*
X126197113Y-107554527D01*
X126207763Y-107519425D01*
X126223404Y-107440793D01*
X126230682Y-107391730D01*
X126233065Y-107367539D01*
X126235500Y-107317983D01*
X126235500Y-97742404D01*
X126233065Y-97692848D01*
X126230682Y-97668657D01*
X126223404Y-97619594D01*
X126207763Y-97540962D01*
X126179001Y-97446143D01*
X126160487Y-97401444D01*
X126113769Y-97314040D01*
X126076139Y-97257723D01*
X126076136Y-97257718D01*
X126076129Y-97257709D01*
X126031904Y-97200780D01*
X126031886Y-97200758D01*
X126008321Y-97174523D01*
X126008312Y-97174514D01*
X125956428Y-97124447D01*
X125956425Y-97124445D01*
X125944324Y-97116969D01*
X125930830Y-97107329D01*
X125902476Y-97084059D01*
X125902466Y-97084051D01*
X125860514Y-97056020D01*
X125846151Y-97046423D01*
X125846148Y-97046421D01*
X125846146Y-97046420D01*
X125758751Y-96999706D01*
X125758748Y-96999705D01*
X125714071Y-96981199D01*
X125714068Y-96981198D01*
X125714063Y-96981196D01*
X125677416Y-96970079D01*
X125619234Y-96952430D01*
X125540580Y-96936786D01*
X125491513Y-96929508D01*
X125467329Y-96927127D01*
X125449073Y-96926230D01*
X125417789Y-96924694D01*
X125417777Y-96924694D01*
X118642223Y-96924694D01*
X118642211Y-96924694D01*
X118615647Y-96925998D01*
X118592690Y-96927125D01*
X118592652Y-96927128D01*
X118568528Y-96929503D01*
X118568500Y-96929506D01*
X118568497Y-96929507D01*
X118568488Y-96929508D01*
X118568483Y-96929509D01*
X118519433Y-96936784D01*
X118519418Y-96936786D01*
X118519411Y-96936788D01*
X118481475Y-96944333D01*
X118440765Y-96952431D01*
X118440763Y-96952431D01*
X118345936Y-96981196D01*
X118301264Y-96999698D01*
X118213847Y-97046423D01*
X118213844Y-97046425D01*
X118157536Y-97084049D01*
X118157523Y-97084059D01*
X118080922Y-97146924D01*
X118046730Y-97181116D01*
X117983865Y-97257717D01*
X117983855Y-97257730D01*
X117946231Y-97314038D01*
X117946229Y-97314041D01*
X117899504Y-97401458D01*
X117881004Y-97446126D01*
X117880999Y-97446139D01*
X117852236Y-97540959D01*
X117852232Y-97540977D01*
X117836596Y-97619586D01*
X117836593Y-97619604D01*
X117829314Y-97668678D01*
X117826933Y-97692861D01*
X117826019Y-97711475D01*
X117824500Y-97742404D01*
X117824500Y-97742416D01*
X117824500Y-99098156D01*
X117804815Y-99165195D01*
X117770521Y-99200494D01*
X116232021Y-100253152D01*
X116165577Y-100274762D01*
X116097998Y-100257020D01*
X116050739Y-100205558D01*
X116038000Y-100150814D01*
X116038000Y-94802870D01*
X126140103Y-94802870D01*
X126140103Y-94802882D01*
X126140103Y-96374933D01*
X126141901Y-96417543D01*
X126143658Y-96438329D01*
X126149039Y-96480631D01*
X126160641Y-96548759D01*
X126160644Y-96548773D01*
X126181966Y-96631235D01*
X126195748Y-96670526D01*
X126230601Y-96748213D01*
X126230606Y-96748223D01*
X126230608Y-96748227D01*
X126264118Y-96808694D01*
X126286323Y-96845058D01*
X126297953Y-96862414D01*
X126323162Y-96896803D01*
X126912931Y-97634015D01*
X126939439Y-97698659D01*
X126940103Y-97711475D01*
X126940103Y-107557069D01*
X126929416Y-107607430D01*
X126583671Y-108385357D01*
X126212150Y-109221279D01*
X126202036Y-109245741D01*
X126197424Y-109257777D01*
X126188630Y-109282659D01*
X126175319Y-109323688D01*
X126161667Y-109374723D01*
X126161667Y-109374724D01*
X126156289Y-109400064D01*
X126148040Y-109452230D01*
X126148038Y-109452249D01*
X126143540Y-109495115D01*
X126143540Y-109495120D01*
X126141470Y-109521462D01*
X126140793Y-109534402D01*
X126140103Y-109560813D01*
X126140103Y-111178449D01*
X126141158Y-111199929D01*
X126142536Y-111227989D01*
X126144917Y-111252173D01*
X126152195Y-111301240D01*
X126167839Y-111379894D01*
X126185488Y-111438076D01*
X126196605Y-111474723D01*
X126215116Y-111519413D01*
X126261832Y-111606811D01*
X126299463Y-111663129D01*
X126354407Y-111730077D01*
X126362331Y-111739733D01*
X126396528Y-111773930D01*
X126396533Y-111773934D01*
X126396534Y-111773935D01*
X126473136Y-111836801D01*
X126529452Y-111874430D01*
X126592126Y-111910120D01*
X126592141Y-111910127D01*
X126623954Y-111925348D01*
X126623957Y-111925349D01*
X126623963Y-111925352D01*
X126691088Y-111951761D01*
X126691092Y-111951761D01*
X126691093Y-111951762D01*
X126705105Y-111954032D01*
X126721272Y-111957776D01*
X126756364Y-111968421D01*
X126756368Y-111968421D01*
X126756372Y-111968423D01*
X126835005Y-111984064D01*
X126884067Y-111991342D01*
X126884077Y-111991343D01*
X126884084Y-111991344D01*
X126894792Y-111992398D01*
X126908258Y-111993725D01*
X126957814Y-111996160D01*
X128110859Y-111996160D01*
X128110879Y-111996160D01*
X128159861Y-111993781D01*
X128183773Y-111991453D01*
X128232273Y-111984344D01*
X128310052Y-111969058D01*
X128403867Y-111940952D01*
X128448134Y-111922854D01*
X128534775Y-111877181D01*
X128600983Y-111833599D01*
X128640578Y-111804689D01*
X128659271Y-111789598D01*
X128695881Y-111756987D01*
X130571996Y-109915036D01*
X130571996Y-109915035D01*
X130589805Y-109897551D01*
X130589809Y-109897546D01*
X136738602Y-103860717D01*
X136772621Y-103823827D01*
X136788374Y-103804944D01*
X136818574Y-103764854D01*
X136864087Y-103697745D01*
X136911854Y-103609600D01*
X136930790Y-103564471D01*
X136960219Y-103468645D01*
X136976222Y-103389150D01*
X136983672Y-103339524D01*
X136986111Y-103315053D01*
X136988416Y-103268688D01*
X136988603Y-103264930D01*
X136988603Y-99388046D01*
X136986665Y-99343834D01*
X136986665Y-99343828D01*
X136984767Y-99322214D01*
X136978966Y-99278321D01*
X136966461Y-99207679D01*
X136943483Y-99122266D01*
X136928645Y-99081668D01*
X136891137Y-99001578D01*
X136860692Y-98949086D01*
X136809792Y-98876750D01*
X136809783Y-98876739D01*
X136809775Y-98876729D01*
X136781920Y-98843711D01*
X136781918Y-98843709D01*
X136719181Y-98781344D01*
X136719177Y-98781341D01*
X136664085Y-98735423D01*
X136628891Y-98708612D01*
X136611071Y-98696229D01*
X136573633Y-98672577D01*
X132136276Y-96134059D01*
X128572838Y-94095491D01*
X128543803Y-94080109D01*
X128529366Y-94073052D01*
X128499433Y-94059606D01*
X128449973Y-94039292D01*
X128449971Y-94039291D01*
X128449963Y-94039288D01*
X128408935Y-94025474D01*
X128387766Y-94018347D01*
X128356730Y-94010097D01*
X128356727Y-94010096D01*
X128292356Y-93997391D01*
X128292346Y-93997389D01*
X128292344Y-93997389D01*
X128292340Y-93997388D01*
X128292337Y-93997388D01*
X128239346Y-93990465D01*
X128239340Y-93990464D01*
X128239337Y-93990464D01*
X128232892Y-93989834D01*
X128206675Y-93987271D01*
X128190608Y-93986226D01*
X128188262Y-93986149D01*
X128157790Y-93985160D01*
X128157777Y-93985160D01*
X126957826Y-93985160D01*
X126957814Y-93985160D01*
X126931250Y-93986464D01*
X126908293Y-93987591D01*
X126908255Y-93987594D01*
X126884131Y-93989969D01*
X126884103Y-93989972D01*
X126884100Y-93989973D01*
X126884091Y-93989974D01*
X126884086Y-93989975D01*
X126835036Y-93997250D01*
X126835021Y-93997252D01*
X126835014Y-93997254D01*
X126797078Y-94004799D01*
X126756368Y-94012897D01*
X126756366Y-94012897D01*
X126661539Y-94041662D01*
X126616867Y-94060164D01*
X126529450Y-94106889D01*
X126529447Y-94106891D01*
X126473139Y-94144515D01*
X126473126Y-94144525D01*
X126396525Y-94207390D01*
X126362333Y-94241582D01*
X126299467Y-94318184D01*
X126299460Y-94318193D01*
X126261828Y-94374515D01*
X126226128Y-94437209D01*
X126226120Y-94437224D01*
X126210912Y-94469015D01*
X126210892Y-94469061D01*
X126184529Y-94536048D01*
X126184529Y-94536050D01*
X126182248Y-94550111D01*
X126178511Y-94566240D01*
X126167839Y-94601425D01*
X126152199Y-94680053D01*
X126152196Y-94680070D01*
X126144917Y-94729144D01*
X126142536Y-94753327D01*
X126142536Y-94753335D01*
X126140103Y-94802870D01*
X116038000Y-94802870D01*
X116038000Y-94523637D01*
X116043022Y-94488704D01*
X116050434Y-94463459D01*
X116081728Y-94410717D01*
X118930522Y-91561923D01*
X118958772Y-91540775D01*
X118981864Y-91528167D01*
X119041289Y-91513000D01*
X123587235Y-91513000D01*
X123622170Y-91518023D01*
X123653979Y-91527363D01*
X123687934Y-91543237D01*
X123730821Y-91571894D01*
X123730823Y-91571895D01*
X123730827Y-91571897D01*
X123876498Y-91632235D01*
X123876503Y-91632237D01*
X124031153Y-91662999D01*
X124031156Y-91663000D01*
X124031158Y-91663000D01*
X124188844Y-91663000D01*
X124188845Y-91662999D01*
X124343497Y-91632237D01*
X124489179Y-91571894D01*
X124620289Y-91484289D01*
X124731789Y-91372789D01*
X124819394Y-91241679D01*
X124879737Y-91095997D01*
X124910500Y-90941342D01*
X124910500Y-90783658D01*
X124910500Y-90783655D01*
X124910500Y-90783473D01*
X124910065Y-90781472D01*
X124904808Y-90755046D01*
X124880397Y-90632327D01*
X124879983Y-90629902D01*
X124879737Y-90629004D01*
X124876319Y-90620750D01*
X124876319Y-90620749D01*
X124819400Y-90483333D01*
X124819395Y-90483324D01*
X124819390Y-90483314D01*
X124731789Y-90352211D01*
X124731786Y-90352207D01*
X124731781Y-90352201D01*
X124620297Y-90240717D01*
X124620291Y-90240712D01*
X124620288Y-90240710D01*
X124489191Y-90153113D01*
X124489190Y-90153112D01*
X124489185Y-90153109D01*
X124489172Y-90153102D01*
X124489165Y-90153098D01*
X124343502Y-90092764D01*
X124343471Y-90092757D01*
X124188847Y-90062000D01*
X124188845Y-90062000D01*
X124188842Y-90062000D01*
X124031158Y-90062000D01*
X124031155Y-90062000D01*
X124031153Y-90062000D01*
X123876527Y-90092757D01*
X123876496Y-90092764D01*
X123730836Y-90153097D01*
X123730825Y-90153102D01*
X123705260Y-90170185D01*
X123705257Y-90170187D01*
X123688777Y-90181198D01*
X123656946Y-90196427D01*
X123625313Y-90206333D01*
X123588256Y-90212000D01*
X118645927Y-90212000D01*
X118520266Y-90236995D01*
X118520250Y-90237000D01*
X118520247Y-90237001D01*
X118484448Y-90251830D01*
X118471220Y-90257310D01*
X118401879Y-90286030D01*
X118401861Y-90286041D01*
X118295329Y-90357223D01*
X118295316Y-90357235D01*
X114882230Y-93770320D01*
X114882229Y-93770321D01*
X114811033Y-93876875D01*
X114762002Y-93995245D01*
X114761995Y-93995265D01*
X114761993Y-93995273D01*
X114737000Y-94120923D01*
X114737000Y-103399928D01*
X114736999Y-103399931D01*
X114737000Y-103399933D01*
X114731976Y-103434867D01*
X114722635Y-103466675D01*
X114706762Y-103500625D01*
X114678112Y-103543503D01*
X114678097Y-103543530D01*
X114617764Y-103689190D01*
X114617757Y-103689221D01*
X114587000Y-103843844D01*
X114587000Y-103843847D01*
X114587000Y-104001540D01*
X114587000Y-104001542D01*
X114586999Y-104001542D01*
X111384478Y-104001542D01*
X111391102Y-103984707D01*
X111393379Y-103970647D01*
X111394647Y-103963989D01*
X111395692Y-103959210D01*
X111407763Y-103919425D01*
X111423404Y-103840793D01*
X111430682Y-103791730D01*
X111433065Y-103767539D01*
X111435500Y-103717983D01*
X111435500Y-102942404D01*
X111433065Y-102892848D01*
X111430682Y-102868657D01*
X111423404Y-102819594D01*
X111407763Y-102740962D01*
X111379001Y-102646143D01*
X111360487Y-102601444D01*
X111359557Y-102599705D01*
X111313775Y-102514051D01*
X111313774Y-102514049D01*
X111313769Y-102514040D01*
X111276139Y-102457723D01*
X111276136Y-102457718D01*
X111276129Y-102457709D01*
X111231896Y-102400769D01*
X111231886Y-102400758D01*
X111208321Y-102374523D01*
X111208312Y-102374514D01*
X111156428Y-102324447D01*
X111156425Y-102324445D01*
X111144324Y-102316969D01*
X111130830Y-102307329D01*
X111102476Y-102284059D01*
X111102466Y-102284051D01*
X111060514Y-102256020D01*
X111046151Y-102246423D01*
X111046148Y-102246421D01*
X111046146Y-102246420D01*
X110958751Y-102199706D01*
X110958748Y-102199705D01*
X110914071Y-102181199D01*
X110914068Y-102181198D01*
X110914063Y-102181196D01*
X110877416Y-102170079D01*
X110819234Y-102152430D01*
X110740580Y-102136786D01*
X110691513Y-102129508D01*
X110667329Y-102127127D01*
X110648714Y-102126213D01*
X110617789Y-102124694D01*
X110617777Y-102124694D01*
X110148344Y-102124694D01*
X110141474Y-102124741D01*
X110137949Y-102124789D01*
X110132109Y-102124909D01*
X110131014Y-102124932D01*
X110130993Y-102124932D01*
X110130924Y-102124934D01*
X110127974Y-102125015D01*
X110127928Y-102125015D01*
X110119507Y-102125249D01*
X110105466Y-102125833D01*
X110105453Y-102125833D01*
X110105446Y-102125834D01*
X110102747Y-102125983D01*
X110098610Y-102126213D01*
X110084666Y-102127179D01*
X110073296Y-102128125D01*
X110066380Y-102128748D01*
X110063100Y-102129065D01*
X110056116Y-102129792D01*
X108407421Y-102312980D01*
X108407422Y-102312981D01*
X106508827Y-102523936D01*
X106495133Y-102524694D01*
X98842211Y-102524694D01*
X98815647Y-102525998D01*
X98792690Y-102527125D01*
X98792652Y-102527128D01*
X98768528Y-102529503D01*
X98768500Y-102529506D01*
X98768497Y-102529507D01*
X98768488Y-102529508D01*
X98768483Y-102529509D01*
X98719433Y-102536784D01*
X98719418Y-102536786D01*
X98719411Y-102536788D01*
X98681475Y-102544333D01*
X98640765Y-102552431D01*
X98640763Y-102552431D01*
X98545936Y-102581196D01*
X98501264Y-102599698D01*
X98413847Y-102646423D01*
X98413844Y-102646425D01*
X98357536Y-102684049D01*
X98357523Y-102684059D01*
X98280922Y-102746924D01*
X98246730Y-102781116D01*
X98183865Y-102857717D01*
X98183855Y-102857730D01*
X98146231Y-102914038D01*
X98146229Y-102914041D01*
X98099504Y-103001458D01*
X98081004Y-103046126D01*
X98080999Y-103046139D01*
X98052236Y-103140959D01*
X98052232Y-103140977D01*
X98036596Y-103219586D01*
X98036593Y-103219604D01*
X98029314Y-103268678D01*
X98026933Y-103292861D01*
X98026933Y-103292869D01*
X98024500Y-103342404D01*
X91478400Y-103342404D01*
X91478400Y-96109802D01*
X91441453Y-95876534D01*
X91441453Y-95876531D01*
X91370721Y-95658844D01*
X91369325Y-95654244D01*
X91368912Y-95652780D01*
X91368909Y-95652775D01*
X91368909Y-95652773D01*
X91261242Y-95441465D01*
X91122417Y-95250390D01*
X75222315Y-79350288D01*
X75201163Y-79322032D01*
X75193671Y-79308311D01*
X75193002Y-79305236D01*
X75178819Y-79240051D01*
X75178948Y-79238242D01*
X75198314Y-79180047D01*
X75202507Y-79173523D01*
X75219128Y-79152898D01*
X80072603Y-74299423D01*
X80100853Y-74278275D01*
X80123945Y-74265667D01*
X80183370Y-74250500D01*
X88059282Y-74250500D01*
X88094214Y-74255522D01*
X88097620Y-74256522D01*
X88156399Y-74294295D01*
X88185425Y-74357850D01*
X88175484Y-74427009D01*
X88129730Y-74479814D01*
X88062691Y-74499500D01*
X87005032Y-74499500D01*
X86870768Y-74514627D01*
X86870746Y-74514630D01*
X86870743Y-74514631D01*
X86700476Y-74574210D01*
X86700473Y-74574212D01*
X86547737Y-74670183D01*
X86420184Y-74797736D01*
X86364479Y-74886391D01*
X86361076Y-74890400D01*
X86341641Y-74913297D01*
X86331246Y-74922492D01*
X86267991Y-74952165D01*
X86198734Y-74942929D01*
X86198726Y-74942925D01*
X86195007Y-74941272D01*
X86151666Y-74909172D01*
X86151237Y-74908677D01*
X86139948Y-74893438D01*
X86138039Y-74890400D01*
X86079815Y-74797737D01*
X85952262Y-74670184D01*
X85952261Y-74670183D01*
X85799525Y-74574212D01*
X85799522Y-74574210D01*
X85629255Y-74514631D01*
X85629252Y-74514630D01*
X85629253Y-74514630D01*
X85629230Y-74514627D01*
X85494966Y-74499500D01*
X85494960Y-74499500D01*
X85494954Y-74499500D01*
X84005046Y-74499500D01*
X84005039Y-74499500D01*
X84005032Y-74499500D01*
X83870768Y-74514627D01*
X83870746Y-74514630D01*
X83870743Y-74514631D01*
X83700476Y-74574210D01*
X83700473Y-74574212D01*
X83547737Y-74670183D01*
X83420183Y-74797737D01*
X83324212Y-74950473D01*
X83324210Y-74950476D01*
X83264631Y-75120743D01*
X83264630Y-75120746D01*
X83264627Y-75120768D01*
X83249500Y-75255032D01*
X83249500Y-76744966D01*
X83264627Y-76879230D01*
X83264630Y-76879252D01*
X83264631Y-76879255D01*
X83324210Y-77049521D01*
X83324211Y-77049523D01*
X83409173Y-77184738D01*
X83418440Y-77199485D01*
X83418445Y-77199504D01*
X83418450Y-77199502D01*
X83418451Y-77199504D01*
X83420184Y-77202262D01*
X83547738Y-77329816D01*
X83614533Y-77371786D01*
X83636393Y-77385521D01*
X83663292Y-77408353D01*
X83672493Y-77418755D01*
X83680065Y-77434896D01*
X83682682Y-77437855D01*
X83683283Y-77441757D01*
X83702165Y-77482008D01*
X83692929Y-77551264D01*
X83692925Y-77551273D01*
X83691272Y-77554992D01*
X83659064Y-77598427D01*
X83658569Y-77598855D01*
X83643439Y-77610049D01*
X83547739Y-77670182D01*
X83547736Y-77670184D01*
X83420183Y-77797737D01*
X83324212Y-77950473D01*
X83324210Y-77950476D01*
X83264631Y-78120743D01*
X83264630Y-78120746D01*
X83264627Y-78120768D01*
X83249500Y-78255032D01*
X83249500Y-79744966D01*
X83264627Y-79879230D01*
X83264630Y-79879252D01*
X83264631Y-79879255D01*
X83275937Y-79911565D01*
X83324211Y-80049523D01*
X83350441Y-80091267D01*
X83383898Y-80144514D01*
X83420182Y-80202260D01*
X83420184Y-80202262D01*
X83547738Y-80329816D01*
X83612986Y-80370814D01*
X83612985Y-80370814D01*
X83636387Y-80385518D01*
X83636389Y-80385519D01*
X83663297Y-80408358D01*
X83672492Y-80418753D01*
X83702165Y-80482008D01*
X83692929Y-80551265D01*
X83692925Y-80551273D01*
X83691272Y-80554992D01*
X83659064Y-80598427D01*
X83658569Y-80598855D01*
X83643439Y-80610049D01*
X83547739Y-80670182D01*
X83547736Y-80670184D01*
X83420183Y-80797737D01*
X83324212Y-80950473D01*
X83324210Y-80950476D01*
X83264631Y-81120743D01*
X83264630Y-81120746D01*
X83264627Y-81120768D01*
X83249500Y-81255032D01*
X83249500Y-83618102D01*
X83272479Y-83763182D01*
X83286446Y-83851368D01*
X83329649Y-83984330D01*
X83359434Y-84076000D01*
X83407424Y-84170184D01*
X83466657Y-84286434D01*
X83605483Y-84477510D01*
X85772490Y-86644517D01*
X85963566Y-86783343D01*
X86174008Y-86890568D01*
X86398631Y-86963553D01*
X86398634Y-86963553D01*
X86398635Y-86963554D01*
X86486108Y-86977408D01*
X86486109Y-86977408D01*
X86631903Y-87000500D01*
X86631908Y-87000500D01*
X92868096Y-87000500D01*
X92868097Y-87000500D01*
X93101368Y-86963553D01*
X93151263Y-86947341D01*
X93325992Y-86890568D01*
X93536434Y-86783343D01*
X93727510Y-86644517D01*
X98919237Y-81452788D01*
X98980558Y-81419305D01*
X99050250Y-81424289D01*
X99088957Y-81447491D01*
X105789932Y-87360115D01*
X108271261Y-89549523D01*
X108282069Y-89559059D01*
X108317629Y-89587687D01*
X108317647Y-89587700D01*
X108335695Y-89600931D01*
X108373704Y-89626238D01*
X108437058Y-89664407D01*
X108448081Y-89669757D01*
X108519113Y-89704234D01*
X108519120Y-89704237D01*
X108519135Y-89704244D01*
X108560833Y-89720011D01*
X108560836Y-89720012D01*
X108560842Y-89720014D01*
X108609740Y-89733606D01*
X108648737Y-89744446D01*
X108648739Y-89744447D01*
X108648741Y-89744447D01*
X108648747Y-89744449D01*
X108721504Y-89757745D01*
X108766756Y-89763917D01*
X108789047Y-89765937D01*
X108834668Y-89768000D01*
X109997775Y-89768000D01*
X109997789Y-89768000D01*
X110047345Y-89765565D01*
X110071536Y-89763182D01*
X110110935Y-89757337D01*
X110120580Y-89755907D01*
X110120583Y-89755906D01*
X110120599Y-89755904D01*
X110199231Y-89740263D01*
X110294050Y-89711501D01*
X110338749Y-89692987D01*
X110426153Y-89646269D01*
X110454530Y-89627308D01*
X110454533Y-89627306D01*
X110482468Y-89608640D01*
X110559060Y-89545783D01*
X110593273Y-89511571D01*
X110656146Y-89434961D01*
X110693772Y-89378649D01*
X110740487Y-89291249D01*
X110759001Y-89246550D01*
X110787763Y-89151731D01*
X110803404Y-89073099D01*
X110810682Y-89024036D01*
X110813065Y-88999845D01*
X110815500Y-88950289D01*
X110815500Y-83574710D01*
X110813065Y-83525154D01*
X110810682Y-83500963D01*
X110803404Y-83451900D01*
X110787763Y-83373268D01*
X110759001Y-83278449D01*
X110740487Y-83233750D01*
X110711367Y-83179270D01*
X110693774Y-83146356D01*
X110693773Y-83146354D01*
X110693768Y-83146345D01*
X110656139Y-83090030D01*
X110593275Y-83013431D01*
X110593274Y-83013430D01*
X110593270Y-83013425D01*
X110559073Y-82979228D01*
X110523794Y-82950275D01*
X110482469Y-82916360D01*
X110426151Y-82878729D01*
X110426150Y-82878728D01*
X110426148Y-82878727D01*
X110338751Y-82832012D01*
X110338748Y-82832011D01*
X110294071Y-82813505D01*
X110294068Y-82813504D01*
X110294063Y-82813502D01*
X110257416Y-82802385D01*
X110199234Y-82784736D01*
X110120580Y-82769092D01*
X110071513Y-82761814D01*
X110047329Y-82759433D01*
X110029073Y-82758536D01*
X109997789Y-82757000D01*
X109997777Y-82757000D01*
X109139500Y-82757000D01*
X109072461Y-82737315D01*
X109026706Y-82684511D01*
X109015500Y-82633000D01*
X109015500Y-81523245D01*
X109035185Y-81456206D01*
X109051819Y-81435564D01*
X109835319Y-80652064D01*
X109896642Y-80618579D01*
X109966334Y-80623563D01*
X110022267Y-80665435D01*
X110046684Y-80730899D01*
X110047000Y-80739745D01*
X110047000Y-80878846D01*
X110047000Y-80878848D01*
X110046999Y-80878848D01*
X110077757Y-81033471D01*
X110077761Y-81033489D01*
X110077764Y-81033500D01*
X110077763Y-81033500D01*
X110138098Y-81179165D01*
X110138103Y-81179174D01*
X110138113Y-81179191D01*
X110225711Y-81310290D01*
X110225712Y-81310291D01*
X110225717Y-81310297D01*
X110337201Y-81421781D01*
X110337207Y-81421786D01*
X110337211Y-81421789D01*
X110468314Y-81509390D01*
X110468327Y-81509397D01*
X110567560Y-81550500D01*
X110614003Y-81569737D01*
X110678647Y-81582595D01*
X110751864Y-81597159D01*
X110785144Y-81608901D01*
X110814521Y-81624268D01*
X110844727Y-81646462D01*
X115624085Y-86425820D01*
X115624106Y-86425842D01*
X115625149Y-86426885D01*
X115629479Y-86431215D01*
X115629480Y-86431216D01*
X115741284Y-86543020D01*
X115792845Y-86572788D01*
X115828095Y-86593139D01*
X115828097Y-86593141D01*
X115866146Y-86615108D01*
X115866149Y-86615111D01*
X115866150Y-86615111D01*
X115878211Y-86622075D01*
X115878212Y-86622075D01*
X115878215Y-86622077D01*
X116030943Y-86663001D01*
X116030946Y-86663001D01*
X116196653Y-86663001D01*
X116198557Y-86663001D01*
X116198620Y-86663000D01*
X122712404Y-86663000D01*
X122747336Y-86668021D01*
X122779150Y-86677363D01*
X122813098Y-86693235D01*
X122930814Y-86771890D01*
X122930827Y-86771897D01*
X122930829Y-86771897D01*
X122930833Y-86771900D01*
X122958460Y-86783343D01*
X123057126Y-86824211D01*
X123076503Y-86832237D01*
X123225551Y-86861884D01*
X123227542Y-86862350D01*
X123227699Y-86862439D01*
X123231155Y-86863000D01*
X123388844Y-86863000D01*
X123392964Y-86863000D01*
X123400814Y-86860618D01*
X123543497Y-86832237D01*
X123689179Y-86771894D01*
X123820289Y-86684289D01*
X123931789Y-86572789D01*
X124019394Y-86441679D01*
X124079737Y-86295997D01*
X124110500Y-86141342D01*
X124110500Y-85983658D01*
X124110500Y-85983655D01*
X124110500Y-85983473D01*
X124110065Y-85981472D01*
X124080398Y-85832330D01*
X124079983Y-85829903D01*
X124079737Y-85829004D01*
X124037698Y-85727510D01*
X124019397Y-85683327D01*
X124019390Y-85683314D01*
X123931789Y-85552211D01*
X123931786Y-85552207D01*
X123931781Y-85552201D01*
X123820297Y-85440717D01*
X123820291Y-85440712D01*
X123820290Y-85440711D01*
X123689191Y-85353113D01*
X123689190Y-85353112D01*
X123689185Y-85353109D01*
X123689172Y-85353102D01*
X123689165Y-85353098D01*
X123543502Y-85292764D01*
X123543471Y-85292757D01*
X123388847Y-85262000D01*
X123388845Y-85262000D01*
X123388842Y-85262000D01*
X123231158Y-85262000D01*
X123231155Y-85262000D01*
X123231153Y-85262000D01*
X123076527Y-85292757D01*
X123076496Y-85292764D01*
X122930833Y-85353098D01*
X122930824Y-85353103D01*
X122930797Y-85353119D01*
X122813953Y-85431191D01*
X122813952Y-85431194D01*
X122782115Y-85446427D01*
X122750478Y-85456334D01*
X122713422Y-85462000D01*
X116427927Y-85462000D01*
X116392991Y-85456977D01*
X116367749Y-85449565D01*
X116315004Y-85418269D01*
X111694682Y-80797947D01*
X111679057Y-80778850D01*
X111676093Y-80774385D01*
X111673011Y-80768741D01*
X111670878Y-80766531D01*
X111664636Y-80757128D01*
X111657546Y-80734247D01*
X111646325Y-80712736D01*
X111641655Y-80689257D01*
X111627595Y-80618579D01*
X111624893Y-80604993D01*
X111624893Y-80604992D01*
X111617238Y-80566507D01*
X111617237Y-80566506D01*
X111617237Y-80566503D01*
X111611503Y-80552659D01*
X111611502Y-80552656D01*
X111611502Y-80552655D01*
X111556900Y-80420833D01*
X111556895Y-80420824D01*
X111556890Y-80420814D01*
X111469289Y-80289711D01*
X111469286Y-80289707D01*
X111469281Y-80289701D01*
X111357797Y-80178217D01*
X111357791Y-80178212D01*
X111357790Y-80178211D01*
X111261105Y-80113608D01*
X111226685Y-80090609D01*
X111226682Y-80090607D01*
X111224233Y-80088971D01*
X111225062Y-80087729D01*
X111181661Y-80040601D01*
X111169631Y-79971775D01*
X111196720Y-79907371D01*
X111196729Y-79907358D01*
X111256146Y-79834961D01*
X111293772Y-79778649D01*
X111329462Y-79715972D01*
X111344694Y-79684134D01*
X111371102Y-79617013D01*
X111373376Y-79602973D01*
X111377113Y-79586833D01*
X111387763Y-79551731D01*
X111403404Y-79473099D01*
X111410682Y-79424036D01*
X111413065Y-79399845D01*
X111415500Y-79350289D01*
X111415500Y-78574710D01*
X111413065Y-78525154D01*
X111410682Y-78500963D01*
X111403404Y-78451900D01*
X111387763Y-78373268D01*
X111359001Y-78278449D01*
X111340487Y-78233750D01*
X111299058Y-78156242D01*
X111293775Y-78146357D01*
X111293774Y-78146355D01*
X111293769Y-78146346D01*
X111256139Y-78090029D01*
X111211893Y-78033072D01*
X111188312Y-78006820D01*
X111155037Y-77974710D01*
X113004500Y-77974710D01*
X113004500Y-78350289D01*
X113005629Y-78373268D01*
X113006933Y-78399829D01*
X113009314Y-78424013D01*
X113016592Y-78473080D01*
X113032236Y-78551734D01*
X113039206Y-78574710D01*
X113061002Y-78646563D01*
X113079513Y-78691253D01*
X113126229Y-78778651D01*
X113163860Y-78834969D01*
X113218804Y-78901917D01*
X113226728Y-78911573D01*
X113260925Y-78945770D01*
X113337527Y-79008636D01*
X113337541Y-79008647D01*
X113393835Y-79046261D01*
X113393852Y-79046272D01*
X113422546Y-79061609D01*
X113481247Y-79092985D01*
X113525945Y-79111499D01*
X113620769Y-79140263D01*
X113699402Y-79155904D01*
X113748464Y-79163182D01*
X113748474Y-79163183D01*
X113748481Y-79163184D01*
X113759189Y-79164238D01*
X113772655Y-79165565D01*
X113822211Y-79168000D01*
X114517081Y-79168000D01*
X114584120Y-79187685D01*
X114586543Y-79189282D01*
X120783285Y-83381197D01*
X121142958Y-83624505D01*
X121174840Y-83644387D01*
X121174847Y-83644391D01*
X121190812Y-83653541D01*
X121190818Y-83653544D01*
X121190823Y-83653547D01*
X121224097Y-83671007D01*
X121279199Y-83697357D01*
X121349151Y-83724628D01*
X121384275Y-83735393D01*
X121457515Y-83752005D01*
X121481124Y-83755541D01*
X121507192Y-83759446D01*
X121507192Y-83759447D01*
X121517904Y-83761052D01*
X121555268Y-83765236D01*
X121573638Y-83766604D01*
X121579413Y-83766818D01*
X121611167Y-83768000D01*
X121611178Y-83768000D01*
X125397775Y-83768000D01*
X125397789Y-83768000D01*
X125447345Y-83765565D01*
X125471536Y-83763182D01*
X125510935Y-83757337D01*
X125520580Y-83755907D01*
X125520583Y-83755906D01*
X125520599Y-83755904D01*
X125599231Y-83740263D01*
X125694050Y-83711501D01*
X125738749Y-83692987D01*
X125826149Y-83646272D01*
X125882461Y-83608646D01*
X125959065Y-83545778D01*
X125993278Y-83511565D01*
X126056146Y-83434961D01*
X126093772Y-83378649D01*
X126129462Y-83315972D01*
X126144694Y-83284134D01*
X126171102Y-83217013D01*
X126173376Y-83202973D01*
X126177113Y-83186833D01*
X126187763Y-83151731D01*
X126203404Y-83073099D01*
X126210682Y-83024036D01*
X126213065Y-82999845D01*
X126215500Y-82950289D01*
X126215500Y-73374710D01*
X126213065Y-73325154D01*
X126210682Y-73300963D01*
X126203404Y-73251900D01*
X126187763Y-73173268D01*
X126159001Y-73078449D01*
X126140487Y-73033750D01*
X126093769Y-72946346D01*
X126056139Y-72890029D01*
X126056136Y-72890024D01*
X126056129Y-72890015D01*
X126011904Y-72833086D01*
X126011886Y-72833064D01*
X125988321Y-72806829D01*
X125988312Y-72806820D01*
X125936428Y-72756753D01*
X125936425Y-72756751D01*
X125924324Y-72749275D01*
X125910830Y-72739635D01*
X125882476Y-72716365D01*
X125882466Y-72716357D01*
X125840514Y-72688326D01*
X125826151Y-72678729D01*
X125826148Y-72678727D01*
X125826146Y-72678726D01*
X125738751Y-72632012D01*
X125738748Y-72632011D01*
X125694071Y-72613505D01*
X125694068Y-72613504D01*
X125694063Y-72613502D01*
X125657416Y-72602385D01*
X125599234Y-72584736D01*
X125520580Y-72569092D01*
X125471513Y-72561814D01*
X125447329Y-72559433D01*
X125429073Y-72558536D01*
X125397789Y-72557000D01*
X125397777Y-72557000D01*
X118622223Y-72557000D01*
X118622211Y-72557000D01*
X118595647Y-72558304D01*
X118572690Y-72559431D01*
X118572652Y-72559434D01*
X118548528Y-72561809D01*
X118548500Y-72561812D01*
X118548497Y-72561813D01*
X118548488Y-72561814D01*
X118548483Y-72561815D01*
X118499433Y-72569090D01*
X118499418Y-72569092D01*
X118499411Y-72569094D01*
X118461475Y-72576639D01*
X118420765Y-72584737D01*
X118420763Y-72584737D01*
X118325936Y-72613502D01*
X118281264Y-72632004D01*
X118193847Y-72678729D01*
X118193844Y-72678731D01*
X118137536Y-72716355D01*
X118137523Y-72716365D01*
X118060922Y-72779230D01*
X118026730Y-72813422D01*
X117963865Y-72890023D01*
X117963855Y-72890036D01*
X117926231Y-72946344D01*
X117926229Y-72946347D01*
X117879504Y-73033764D01*
X117861004Y-73078432D01*
X117860999Y-73078445D01*
X117832236Y-73173265D01*
X117832232Y-73173283D01*
X117816596Y-73251892D01*
X117816593Y-73251910D01*
X117809314Y-73300984D01*
X117806933Y-73325167D01*
X117806933Y-73325175D01*
X117804500Y-73374710D01*
X117804500Y-73374722D01*
X117804500Y-74730462D01*
X117784815Y-74797501D01*
X117750521Y-74832800D01*
X115768302Y-76189056D01*
X114417019Y-77113620D01*
X114385277Y-77135338D01*
X114318833Y-77156948D01*
X114315256Y-77157000D01*
X113822211Y-77157000D01*
X113795647Y-77158304D01*
X113772690Y-77159431D01*
X113772652Y-77159434D01*
X113748528Y-77161809D01*
X113748500Y-77161812D01*
X113748497Y-77161813D01*
X113748488Y-77161814D01*
X113748483Y-77161815D01*
X113699433Y-77169090D01*
X113699418Y-77169092D01*
X113699411Y-77169094D01*
X113661475Y-77176639D01*
X113620765Y-77184737D01*
X113620763Y-77184737D01*
X113525936Y-77213502D01*
X113481264Y-77232004D01*
X113393847Y-77278729D01*
X113393844Y-77278731D01*
X113337536Y-77316355D01*
X113337523Y-77316365D01*
X113260922Y-77379230D01*
X113226730Y-77413422D01*
X113163865Y-77490023D01*
X113163855Y-77490036D01*
X113126231Y-77546344D01*
X113126229Y-77546347D01*
X113079504Y-77633764D01*
X113061004Y-77678432D01*
X113060999Y-77678445D01*
X113032236Y-77773265D01*
X113032232Y-77773283D01*
X113016596Y-77851892D01*
X113016593Y-77851910D01*
X113009314Y-77900984D01*
X113006933Y-77925167D01*
X113006387Y-77936293D01*
X113004500Y-77974710D01*
X111155037Y-77974710D01*
X111136428Y-77956753D01*
X111117254Y-77944908D01*
X111106764Y-77936299D01*
X111106758Y-77936293D01*
X111082476Y-77916365D01*
X111082466Y-77916357D01*
X111037618Y-77886391D01*
X111026151Y-77878729D01*
X111026148Y-77878727D01*
X111026146Y-77878726D01*
X110938751Y-77832012D01*
X110938748Y-77832011D01*
X110894071Y-77813505D01*
X110894068Y-77813504D01*
X110894063Y-77813502D01*
X110857416Y-77802385D01*
X110799234Y-77784736D01*
X110720580Y-77769092D01*
X110671513Y-77761814D01*
X110647329Y-77759433D01*
X110628714Y-77758519D01*
X110597789Y-77757000D01*
X110597777Y-77757000D01*
X110128344Y-77757000D01*
X110121474Y-77757047D01*
X110117949Y-77757095D01*
X110112109Y-77757215D01*
X110111014Y-77757238D01*
X110110993Y-77757238D01*
X110110924Y-77757240D01*
X110107974Y-77757321D01*
X110107928Y-77757321D01*
X110099507Y-77757555D01*
X110085466Y-77758139D01*
X110085453Y-77758139D01*
X110085446Y-77758140D01*
X110082747Y-77758289D01*
X110078610Y-77758519D01*
X110064666Y-77759485D01*
X110053296Y-77760431D01*
X110046380Y-77761054D01*
X110043100Y-77761371D01*
X110036116Y-77762098D01*
X108387421Y-77945286D01*
X108387422Y-77945287D01*
X106488827Y-78156242D01*
X106475133Y-78157000D01*
X106199122Y-78157000D01*
X106142827Y-78143485D01*
X106076000Y-78109434D01*
X106016271Y-78090027D01*
X105851368Y-78036446D01*
X105851362Y-78036445D01*
X105618102Y-77999500D01*
X105618097Y-77999500D01*
X105618092Y-77999500D01*
X98631908Y-77999500D01*
X98631903Y-77999500D01*
X98631898Y-77999500D01*
X98398634Y-78036445D01*
X98398633Y-78036445D01*
X98228008Y-78091884D01*
X98228009Y-78091885D01*
X98228006Y-78091886D01*
X98186162Y-78105483D01*
X98186159Y-78105484D01*
X98174008Y-78109431D01*
X98174007Y-78109432D01*
X98164452Y-78114300D01*
X98164443Y-78114304D01*
X97963564Y-78216657D01*
X97772486Y-78355485D01*
X97772485Y-78355486D01*
X92177399Y-83950573D01*
X92149148Y-83971722D01*
X92126060Y-83984330D01*
X92066630Y-83999500D01*
X87440719Y-83999500D01*
X87405783Y-83994477D01*
X87380541Y-83987065D01*
X87327796Y-83955769D01*
X87096815Y-83724788D01*
X87075666Y-83696538D01*
X87073727Y-83692987D01*
X87070244Y-83686608D01*
X87055391Y-83618338D01*
X87079805Y-83552873D01*
X87135735Y-83511001D01*
X87139614Y-83509554D01*
X87142950Y-83508311D01*
X87186264Y-83500500D01*
X88504750Y-83500500D01*
X88512345Y-83498540D01*
X88562104Y-83492934D01*
X88622348Y-83486146D01*
X88625808Y-83485952D01*
X88625813Y-83485952D01*
X88628781Y-83485533D01*
X88629253Y-83485368D01*
X88629255Y-83485368D01*
X88799522Y-83425789D01*
X88952262Y-83329816D01*
X89079816Y-83202262D01*
X89175789Y-83049522D01*
X89235368Y-82879255D01*
X89235428Y-82878729D01*
X89248600Y-82761814D01*
X89250500Y-82744954D01*
X89250500Y-81255046D01*
X89238761Y-81150858D01*
X89235369Y-81120750D01*
X89235368Y-81120745D01*
X89204840Y-81033501D01*
X89204840Y-81033500D01*
X89204840Y-81033499D01*
X89175792Y-80950487D01*
X89175789Y-80950478D01*
X89175200Y-80949542D01*
X89175186Y-80949492D01*
X89175174Y-80949500D01*
X89079815Y-80797737D01*
X89006866Y-80724788D01*
X88985717Y-80696538D01*
X88980295Y-80686608D01*
X88965442Y-80618338D01*
X88989856Y-80552873D01*
X89045786Y-80511001D01*
X89049665Y-80509554D01*
X89053001Y-80508311D01*
X89096315Y-80500500D01*
X89368096Y-80500500D01*
X89368097Y-80500500D01*
X89601368Y-80463553D01*
X89651263Y-80447341D01*
X89825992Y-80390568D01*
X90036434Y-80283343D01*
X90227510Y-80144517D01*
X91644517Y-78727510D01*
X91783343Y-78536434D01*
X91890568Y-78325992D01*
X91963553Y-78101368D01*
X91967121Y-78078842D01*
X92000500Y-77868097D01*
X92000500Y-74381902D01*
X91963553Y-74148631D01*
X91920624Y-74016510D01*
X91890568Y-73924008D01*
X91890566Y-73924005D01*
X91890566Y-73924003D01*
X91888326Y-73919607D01*
X91888016Y-73918812D01*
X91887286Y-73917566D01*
X91796662Y-73739707D01*
X91783343Y-73713567D01*
X91777269Y-73705207D01*
X91724057Y-73631966D01*
X91703537Y-73603724D01*
X91703536Y-73603721D01*
X91703534Y-73603719D01*
X91690604Y-73585922D01*
X91644521Y-73522493D01*
X91644519Y-73522491D01*
X89727512Y-71605485D01*
X89727511Y-71605484D01*
X89536434Y-71466657D01*
X89522032Y-71459319D01*
X89326000Y-71359434D01*
X89272108Y-71341923D01*
X89101368Y-71286446D01*
X89101362Y-71286445D01*
X88868102Y-71249500D01*
X88868097Y-71249500D01*
X88868092Y-71249500D01*
X79618092Y-71249500D01*
X79381908Y-71249500D01*
X79381903Y-71249500D01*
X79381898Y-71249500D01*
X79148637Y-71286445D01*
X78924002Y-71359434D01*
X78713564Y-71466657D01*
X78522485Y-71605486D01*
X72427399Y-77700573D01*
X72403296Y-77718617D01*
X72399148Y-77721722D01*
X72376060Y-77734330D01*
X72316630Y-77749500D01*
X56631898Y-77749500D01*
X56398636Y-77786445D01*
X56398634Y-77786445D01*
X56398631Y-77786446D01*
X56174003Y-77859433D01*
X56092436Y-77900994D01*
X55963565Y-77966657D01*
X55872154Y-78033072D01*
X55772487Y-78105485D01*
X55772485Y-78105487D01*
X55772484Y-78105487D01*
X53105485Y-80772486D01*
X52966655Y-80963566D01*
X52886572Y-81120743D01*
X52879763Y-81134106D01*
X52859433Y-81174003D01*
X52859432Y-81174005D01*
X52859431Y-81174008D01*
X52786445Y-81398634D01*
X52749500Y-81631896D01*
X52749500Y-83857670D01*
X52749499Y-83857676D01*
X52749500Y-83857679D01*
X52744475Y-83892614D01*
X52740070Y-83907612D01*
X52702327Y-83966355D01*
X52702292Y-83966385D01*
X52702291Y-83966387D01*
X52702289Y-83966387D01*
X52700958Y-83967542D01*
X52646097Y-83995018D01*
X52638539Y-83996663D01*
X52612168Y-83999500D01*
X51505032Y-83999500D01*
X51370768Y-84014627D01*
X51370746Y-84014630D01*
X51370743Y-84014631D01*
X51200476Y-84074210D01*
X51200473Y-84074212D01*
X51047737Y-84170183D01*
X50920183Y-84297737D01*
X50824212Y-84450473D01*
X50824210Y-84450476D01*
X50764631Y-84620743D01*
X50764630Y-84620746D01*
X50764627Y-84620768D01*
X50749500Y-84755032D01*
X50500500Y-84755032D01*
X50500500Y-70374710D01*
X126004500Y-70374710D01*
X126004500Y-70374722D01*
X126004500Y-71946773D01*
X126006298Y-71989383D01*
X126008055Y-72010169D01*
X126013436Y-72052471D01*
X126025038Y-72120599D01*
X126025041Y-72120613D01*
X126046363Y-72203075D01*
X126060145Y-72242366D01*
X126094998Y-72320053D01*
X126095003Y-72320063D01*
X126095005Y-72320067D01*
X126128515Y-72380534D01*
X126150720Y-72416898D01*
X126162350Y-72434254D01*
X126187559Y-72468643D01*
X126777328Y-73205855D01*
X126803836Y-73270499D01*
X126804500Y-73283315D01*
X126804500Y-83128909D01*
X126793813Y-83179270D01*
X126495106Y-83851362D01*
X126448068Y-83957197D01*
X126093475Y-84755032D01*
X126076547Y-84793119D01*
X126066433Y-84817581D01*
X126061821Y-84829617D01*
X126053027Y-84854499D01*
X126039716Y-84895528D01*
X126026064Y-84946563D01*
X126026064Y-84946564D01*
X126020686Y-84971904D01*
X126012437Y-85024070D01*
X126012435Y-85024089D01*
X126007937Y-85066955D01*
X126007937Y-85066960D01*
X126005867Y-85093302D01*
X126005190Y-85106242D01*
X126004500Y-85132653D01*
X126004500Y-86750289D01*
X126005562Y-86771900D01*
X126006933Y-86799829D01*
X126009314Y-86824013D01*
X126016592Y-86873080D01*
X126032236Y-86951734D01*
X126041420Y-86982008D01*
X126061002Y-87046563D01*
X126061004Y-87046568D01*
X126061005Y-87046571D01*
X126064493Y-87054992D01*
X126079513Y-87091253D01*
X126126229Y-87178651D01*
X126163860Y-87234969D01*
X126215373Y-87297737D01*
X126226728Y-87311573D01*
X126260925Y-87345770D01*
X126260930Y-87345774D01*
X126260931Y-87345775D01*
X126291355Y-87370743D01*
X126337527Y-87408636D01*
X126337541Y-87408647D01*
X126393835Y-87446261D01*
X126393852Y-87446272D01*
X126426266Y-87463597D01*
X126481247Y-87492985D01*
X126525945Y-87511499D01*
X126620769Y-87540263D01*
X126699402Y-87555904D01*
X126748464Y-87563182D01*
X126748474Y-87563183D01*
X126748481Y-87563184D01*
X126759189Y-87564238D01*
X126772655Y-87565565D01*
X126822211Y-87568000D01*
X127968695Y-87568000D01*
X127968714Y-87568000D01*
X128019829Y-87565409D01*
X128044780Y-87562873D01*
X128095382Y-87555124D01*
X128176347Y-87538492D01*
X128273899Y-87507898D01*
X128280581Y-87505032D01*
X165249500Y-87505032D01*
X165249500Y-88994966D01*
X165264627Y-89129230D01*
X165264630Y-89129252D01*
X165264631Y-89129255D01*
X165324210Y-89299522D01*
X165324212Y-89299525D01*
X165420182Y-89452260D01*
X165420184Y-89452262D01*
X165547738Y-89579816D01*
X165626696Y-89629428D01*
X165636392Y-89635520D01*
X165663294Y-89658355D01*
X165672491Y-89668752D01*
X165680064Y-89684895D01*
X165682681Y-89687854D01*
X165683282Y-89691756D01*
X165702165Y-89732007D01*
X165692930Y-89801264D01*
X165692925Y-89801273D01*
X165691272Y-89804992D01*
X165659064Y-89848427D01*
X165658569Y-89848855D01*
X165643439Y-89860049D01*
X165547739Y-89920182D01*
X165547736Y-89920184D01*
X165420183Y-90047737D01*
X165324212Y-90200473D01*
X165324210Y-90200476D01*
X165264631Y-90370743D01*
X165264630Y-90370746D01*
X165264627Y-90370768D01*
X165249500Y-90505032D01*
X165249500Y-91994966D01*
X165264627Y-92129230D01*
X165264630Y-92129252D01*
X165264631Y-92129255D01*
X165324210Y-92299522D01*
X165324212Y-92299525D01*
X165374309Y-92379254D01*
X165420184Y-92452262D01*
X165547738Y-92579816D01*
X165700478Y-92675789D01*
X165870745Y-92735368D01*
X165870750Y-92735369D01*
X165870759Y-92735370D01*
X165870770Y-92735372D01*
X165918724Y-92740774D01*
X165961246Y-92745565D01*
X166002068Y-92750164D01*
X166004511Y-92750500D01*
X167494957Y-92750500D01*
X167504750Y-92750500D01*
X167512345Y-92748540D01*
X167562104Y-92742934D01*
X167622348Y-92736146D01*
X167625808Y-92735952D01*
X167625813Y-92735952D01*
X167628781Y-92735533D01*
X167629253Y-92735368D01*
X167629255Y-92735368D01*
X167799522Y-92675789D01*
X167952262Y-92579816D01*
X168079816Y-92452262D01*
X168175789Y-92299522D01*
X168235368Y-92129255D01*
X168250500Y-91994954D01*
X168250500Y-90505046D01*
X168244352Y-90450478D01*
X168244352Y-90450476D01*
X168235372Y-90370770D01*
X168235369Y-90370750D01*
X168235368Y-90370746D01*
X168235368Y-90370745D01*
X168189867Y-90240710D01*
X168175789Y-90200478D01*
X168079816Y-90047738D01*
X167952262Y-89920184D01*
X167863604Y-89864476D01*
X167863602Y-89864474D01*
X167863600Y-89864474D01*
X167836696Y-89841635D01*
X167827500Y-89831239D01*
X167797833Y-89767982D01*
X167807070Y-89698734D01*
X167808725Y-89695010D01*
X167840869Y-89651627D01*
X167841366Y-89651196D01*
X167856548Y-89639955D01*
X167952262Y-89579816D01*
X168079816Y-89452262D01*
X168175789Y-89299522D01*
X168235368Y-89129255D01*
X168250500Y-88994954D01*
X168250500Y-87505046D01*
X168244352Y-87450478D01*
X168244352Y-87450476D01*
X168235372Y-87370770D01*
X168235368Y-87370746D01*
X168235367Y-87370743D01*
X168231656Y-87360139D01*
X168175788Y-87200476D01*
X168079815Y-87047737D01*
X167952262Y-86920184D01*
X167952261Y-86920183D01*
X167799523Y-86824211D01*
X167799522Y-86824210D01*
X167629255Y-86764631D01*
X167629252Y-86764630D01*
X167629253Y-86764630D01*
X167629230Y-86764627D01*
X167494966Y-86749500D01*
X167494960Y-86749500D01*
X167494954Y-86749500D01*
X166005046Y-86749500D01*
X166005039Y-86749500D01*
X166005032Y-86749500D01*
X165870768Y-86764627D01*
X165870746Y-86764630D01*
X165870743Y-86764631D01*
X165700476Y-86824210D01*
X165700476Y-86824211D01*
X165547737Y-86920183D01*
X165420183Y-87047737D01*
X165324212Y-87200473D01*
X165324210Y-87200476D01*
X165264631Y-87370743D01*
X165264630Y-87370746D01*
X165264627Y-87370768D01*
X165249500Y-87505032D01*
X128280581Y-87505032D01*
X128319759Y-87488227D01*
X128409159Y-87438631D01*
X128477009Y-87391432D01*
X128517491Y-87360115D01*
X128536525Y-87343785D01*
X128573638Y-87308530D01*
X128643620Y-87234960D01*
X134019255Y-81583650D01*
X136185485Y-79306331D01*
X136216902Y-79269991D01*
X136231433Y-79251473D01*
X136259252Y-79212326D01*
X136301195Y-79146932D01*
X136345096Y-79061618D01*
X136362486Y-79018105D01*
X136389478Y-78926030D01*
X136404159Y-78849738D01*
X136410984Y-78802193D01*
X136413218Y-78778761D01*
X136415500Y-78730784D01*
X136415500Y-75040698D01*
X136413677Y-74997808D01*
X136411892Y-74976846D01*
X136408169Y-74947778D01*
X136406440Y-74934279D01*
X136398226Y-74886391D01*
X136394673Y-74865677D01*
X136373061Y-74782696D01*
X136359094Y-74743174D01*
X136323760Y-74665025D01*
X136295032Y-74613614D01*
X136246995Y-74542564D01*
X136220655Y-74509954D01*
X136210329Y-74499184D01*
X136161313Y-74448060D01*
X136161286Y-74448035D01*
X136109051Y-74402083D01*
X136075647Y-74375122D01*
X136058732Y-74362618D01*
X136023175Y-74338599D01*
X136023174Y-74338598D01*
X136023169Y-74338595D01*
X128454530Y-69680971D01*
X128424225Y-69663733D01*
X128421104Y-69662097D01*
X128409103Y-69655808D01*
X128377715Y-69640716D01*
X128325785Y-69617913D01*
X128260208Y-69594363D01*
X128260195Y-69594359D01*
X128227408Y-69585079D01*
X128159240Y-69570774D01*
X128103063Y-69562977D01*
X128084461Y-69561046D01*
X128068386Y-69559378D01*
X128068380Y-69559377D01*
X128068365Y-69559376D01*
X128051336Y-69558200D01*
X128016531Y-69557000D01*
X128016520Y-69557000D01*
X126822211Y-69557000D01*
X126795647Y-69558304D01*
X126772690Y-69559431D01*
X126772652Y-69559434D01*
X126748528Y-69561809D01*
X126748500Y-69561812D01*
X126748497Y-69561813D01*
X126748488Y-69561814D01*
X126748483Y-69561815D01*
X126699433Y-69569090D01*
X126699418Y-69569092D01*
X126699411Y-69569094D01*
X126661475Y-69576639D01*
X126620765Y-69584737D01*
X126620763Y-69584737D01*
X126525936Y-69613502D01*
X126481264Y-69632004D01*
X126393847Y-69678729D01*
X126393844Y-69678731D01*
X126337536Y-69716355D01*
X126337523Y-69716365D01*
X126260922Y-69779230D01*
X126226730Y-69813422D01*
X126163864Y-69890024D01*
X126163857Y-69890033D01*
X126126225Y-69946355D01*
X126090525Y-70009049D01*
X126090517Y-70009064D01*
X126075309Y-70040855D01*
X126075289Y-70040901D01*
X126048926Y-70107888D01*
X126048926Y-70107890D01*
X126046645Y-70121951D01*
X126042908Y-70138080D01*
X126032236Y-70173265D01*
X126016596Y-70251893D01*
X126016593Y-70251910D01*
X126009314Y-70300984D01*
X126006933Y-70325167D01*
X126006933Y-70325175D01*
X126004500Y-70374710D01*
X50500500Y-70374710D01*
X50500500Y-59251102D01*
X105399499Y-59251102D01*
X105402252Y-59268478D01*
X105430159Y-59444683D01*
X105430160Y-59444683D01*
X105431523Y-59453285D01*
X105494781Y-59647972D01*
X105549588Y-59755536D01*
X105587713Y-59830361D01*
X105708034Y-59995969D01*
X105852781Y-60140716D01*
X106018389Y-60261037D01*
X106200782Y-60353970D01*
X106395465Y-60417227D01*
X106597648Y-60449250D01*
X106597649Y-60449250D01*
X106802351Y-60449250D01*
X106802352Y-60449250D01*
X107004535Y-60417227D01*
X107199218Y-60353970D01*
X107381611Y-60261037D01*
X107547219Y-60140716D01*
X108572706Y-59115229D01*
X108574844Y-59112287D01*
X108650087Y-59008721D01*
X108653508Y-59004013D01*
X108693027Y-58949620D01*
X108735369Y-58866515D01*
X108737663Y-58862715D01*
X108742645Y-58858145D01*
X108759260Y-58836095D01*
X108765090Y-58830659D01*
X108781682Y-58822338D01*
X108789153Y-58815486D01*
X108798599Y-58813854D01*
X108827541Y-58799339D01*
X108897016Y-58806753D01*
X108951454Y-58850551D01*
X108971351Y-58897567D01*
X108972198Y-58901901D01*
X108974500Y-58925685D01*
X108974500Y-59437080D01*
X108974499Y-59437098D01*
X108974499Y-59540253D01*
X108974499Y-59560711D01*
X108968601Y-59580796D01*
X109015423Y-59755536D01*
X109020951Y-59765110D01*
X109020955Y-59765118D01*
X109058625Y-59830365D01*
X109094475Y-59892459D01*
X109094481Y-59892467D01*
X109094485Y-59892472D01*
X109215314Y-60013301D01*
X109215359Y-60013344D01*
X109727817Y-60525802D01*
X109737827Y-60539174D01*
X109748967Y-60554055D01*
X109764854Y-60583149D01*
X109777640Y-60618385D01*
X109805259Y-60757234D01*
X109805260Y-60757238D01*
X109805261Y-60757241D01*
X109805264Y-60757251D01*
X109805267Y-60757259D01*
X109805272Y-60757273D01*
X109865598Y-60902915D01*
X109865603Y-60902924D01*
X109865613Y-60902941D01*
X109953211Y-61034040D01*
X109953212Y-61034041D01*
X109953217Y-61034047D01*
X110064701Y-61145531D01*
X110064707Y-61145536D01*
X110064711Y-61145539D01*
X110195814Y-61233140D01*
X110195827Y-61233147D01*
X110341498Y-61293485D01*
X110341503Y-61293487D01*
X110496153Y-61324249D01*
X110496156Y-61324250D01*
X110496158Y-61324250D01*
X110653844Y-61324250D01*
X110653845Y-61324249D01*
X110808497Y-61293487D01*
X110954179Y-61233144D01*
X111085289Y-61145539D01*
X111196789Y-61034039D01*
X111284394Y-60902929D01*
X111344737Y-60757247D01*
X111372359Y-60618385D01*
X111376689Y-60596618D01*
X111377181Y-60596715D01*
X111379377Y-60585381D01*
X111384927Y-60566481D01*
X111422698Y-60507707D01*
X111435504Y-60496611D01*
X111449444Y-60487031D01*
X111449110Y-60486531D01*
X111585289Y-60395539D01*
X111696786Y-60284042D01*
X111696789Y-60284039D01*
X111784394Y-60152929D01*
X111844737Y-60007247D01*
X111875500Y-59852592D01*
X111875500Y-59694908D01*
X111875500Y-59694905D01*
X111875500Y-59694723D01*
X111875065Y-59692722D01*
X111845395Y-59543565D01*
X111844983Y-59541153D01*
X111844737Y-59540254D01*
X111808714Y-59453285D01*
X111808713Y-59453283D01*
X111784397Y-59394577D01*
X111784390Y-59394564D01*
X111696789Y-59263461D01*
X111696786Y-59263457D01*
X111696781Y-59263451D01*
X111585297Y-59151967D01*
X111585291Y-59151962D01*
X111585290Y-59151961D01*
X111454191Y-59064363D01*
X111454190Y-59064362D01*
X111454185Y-59064359D01*
X111454172Y-59064352D01*
X111454165Y-59064348D01*
X111308502Y-59004014D01*
X111308471Y-59004007D01*
X111153847Y-58973250D01*
X111153845Y-58973250D01*
X111153842Y-58973250D01*
X110996158Y-58973250D01*
X110996155Y-58973250D01*
X110846258Y-59003066D01*
X110823167Y-59005443D01*
X110808057Y-59005577D01*
X110740845Y-58986488D01*
X110694624Y-58934092D01*
X110684066Y-58865037D01*
X110684925Y-58858660D01*
X110700427Y-58813210D01*
X110734577Y-58754063D01*
X110775500Y-58601336D01*
X110775500Y-58601333D01*
X110776552Y-58597407D01*
X110812917Y-58537746D01*
X110875764Y-58507217D01*
X110896327Y-58505500D01*
X111456395Y-58505500D01*
X111523434Y-58525185D01*
X111556713Y-58556615D01*
X111604691Y-58622651D01*
X111974006Y-58991966D01*
X112139614Y-59112287D01*
X112210194Y-59148249D01*
X112315558Y-59201935D01*
X112317150Y-59202867D01*
X112320863Y-59204666D01*
X112322860Y-59205659D01*
X112326626Y-59206721D01*
X112390860Y-59227592D01*
X112516690Y-59268477D01*
X112718873Y-59300500D01*
X112718874Y-59300500D01*
X114102351Y-59300500D01*
X114102352Y-59300500D01*
X114304534Y-59268477D01*
X114499219Y-59205220D01*
X114681610Y-59112287D01*
X114824158Y-59008721D01*
X114847213Y-58991971D01*
X114847215Y-58991968D01*
X114847219Y-58991966D01*
X114847221Y-58991963D01*
X114847274Y-58991925D01*
X114848032Y-58991152D01*
X114991966Y-58847219D01*
X114991968Y-58847215D01*
X114991971Y-58847213D01*
X115059648Y-58754062D01*
X115112287Y-58681610D01*
X115205220Y-58499219D01*
X115268477Y-58304534D01*
X115300500Y-58102352D01*
X115300500Y-57897648D01*
X115268477Y-57695466D01*
X115261203Y-57673080D01*
X115222792Y-57554862D01*
X115206714Y-57505381D01*
X115205658Y-57501633D01*
X115204677Y-57499659D01*
X115202871Y-57495931D01*
X115201930Y-57494323D01*
X115161466Y-57414910D01*
X115161465Y-57414909D01*
X115112285Y-57318387D01*
X115081645Y-57276214D01*
X114991972Y-57152787D01*
X114847211Y-57008026D01*
X114692209Y-56895413D01*
X114692205Y-56895410D01*
X114681613Y-56887715D01*
X114681612Y-56887714D01*
X114681610Y-56887713D01*
X114653171Y-56873222D01*
X114624654Y-56858691D01*
X114624653Y-56858691D01*
X114499223Y-56794781D01*
X114304534Y-56731522D01*
X114304532Y-56731521D01*
X114304530Y-56731521D01*
X114304529Y-56731520D01*
X114129995Y-56703878D01*
X114113409Y-56701251D01*
X114102354Y-56699500D01*
X114102352Y-56699500D01*
X114102351Y-56699500D01*
X113878216Y-56699500D01*
X113875441Y-56698685D01*
X113872633Y-56699374D01*
X113842124Y-56688902D01*
X113811177Y-56679815D01*
X113809283Y-56677629D01*
X113806548Y-56676691D01*
X113786538Y-56651380D01*
X113765422Y-56627011D01*
X113764465Y-56623460D01*
X113763217Y-56621881D01*
X113759995Y-56606864D01*
X113754808Y-56587603D01*
X113754453Y-56583991D01*
X113753941Y-56570942D01*
X113752573Y-56553566D01*
X113751478Y-56553651D01*
X113748926Y-56527642D01*
X113748911Y-56519775D01*
X113748807Y-56519062D01*
X113747877Y-56512946D01*
X113727271Y-56382850D01*
X113726069Y-56372416D01*
X113724716Y-56353736D01*
X113723420Y-56344846D01*
X113691654Y-56227784D01*
X113685007Y-56211393D01*
X113669454Y-56173037D01*
X113669453Y-56173035D01*
X113658051Y-56152435D01*
X113617706Y-56079544D01*
X113602464Y-56011359D01*
X113626506Y-55945756D01*
X113627824Y-55944007D01*
X113628887Y-55942622D01*
X113635286Y-55934283D01*
X113684233Y-55849503D01*
X113702531Y-55805328D01*
X113734725Y-55727604D01*
X113734725Y-55727601D01*
X113734731Y-55727589D01*
X113734732Y-55727583D01*
X113735037Y-55726848D01*
X113735759Y-55723749D01*
X113760068Y-55633030D01*
X113777292Y-55502197D01*
X113777292Y-55404303D01*
X113760068Y-55273470D01*
X113734731Y-55178911D01*
X113734730Y-55178907D01*
X113733052Y-55174857D01*
X113687339Y-55064495D01*
X113685593Y-55059351D01*
X113633948Y-54969898D01*
X113617475Y-54901998D01*
X113640328Y-54835971D01*
X113647624Y-54826694D01*
X113655567Y-54817528D01*
X113715338Y-54686651D01*
X113735023Y-54619612D01*
X113735024Y-54619608D01*
X113755500Y-54477192D01*
X113755500Y-52874000D01*
X113743947Y-52766544D01*
X113732741Y-52715033D01*
X113723629Y-52687655D01*
X113698616Y-52612502D01*
X113698613Y-52612496D01*
X113620828Y-52491462D01*
X113620825Y-52491457D01*
X113620820Y-52491451D01*
X113575076Y-52438659D01*
X113575072Y-52438656D01*
X113575070Y-52438653D01*
X113466336Y-52344433D01*
X113466333Y-52344431D01*
X113466331Y-52344430D01*
X113335465Y-52284664D01*
X113335460Y-52284662D01*
X113335459Y-52284662D01*
X113268420Y-52264977D01*
X113268422Y-52264977D01*
X113268417Y-52264976D01*
X113206347Y-52256052D01*
X113126000Y-52244500D01*
X113125998Y-52244500D01*
X106874010Y-52244500D01*
X106874000Y-52244500D01*
X106873991Y-52244500D01*
X106873990Y-52244501D01*
X106766549Y-52256052D01*
X106766537Y-52256054D01*
X106715027Y-52267260D01*
X106612502Y-52301383D01*
X106612496Y-52301386D01*
X106491462Y-52379171D01*
X106491451Y-52379179D01*
X106438659Y-52424923D01*
X106344433Y-52533664D01*
X106344430Y-52533668D01*
X106284664Y-52664534D01*
X106264976Y-52731582D01*
X106259949Y-52766549D01*
X106244502Y-52873990D01*
X106244500Y-52874001D01*
X106244500Y-54477198D01*
X106245392Y-54507224D01*
X106246045Y-54518200D01*
X106246269Y-54521947D01*
X106248948Y-54551894D01*
X106286180Y-54690873D01*
X106313681Y-54755103D01*
X106313683Y-54755108D01*
X106366409Y-54841620D01*
X106366811Y-54842298D01*
X106375256Y-54875450D01*
X106384106Y-54908481D01*
X106383865Y-54909241D01*
X106384060Y-54910005D01*
X106375649Y-54935236D01*
X106365331Y-54967881D01*
X106366745Y-54968698D01*
X106315770Y-55056990D01*
X106315762Y-55057004D01*
X106265277Y-55178886D01*
X106265270Y-55178906D01*
X106239934Y-55273459D01*
X106239931Y-55273476D01*
X106239928Y-55273491D01*
X106222708Y-55404300D01*
X106222708Y-55502198D01*
X106239928Y-55633009D01*
X106239929Y-55633017D01*
X106239930Y-55633019D01*
X106239931Y-55633024D01*
X106239932Y-55633030D01*
X106263349Y-55720424D01*
X106265270Y-55727592D01*
X106265276Y-55727609D01*
X106315762Y-55849494D01*
X106315770Y-55849508D01*
X106364714Y-55934284D01*
X106371112Y-55942622D01*
X106396304Y-56007792D01*
X106382587Y-56075624D01*
X106375895Y-56088404D01*
X106369941Y-56095277D01*
X106353840Y-56130526D01*
X106352289Y-56133490D01*
X106351493Y-56134314D01*
X106346632Y-56143197D01*
X106346538Y-56143342D01*
X106346537Y-56143344D01*
X106342365Y-56152435D01*
X106342359Y-56152448D01*
X106322664Y-56195348D01*
X106322629Y-56195435D01*
X106317373Y-56206888D01*
X106315335Y-56213777D01*
X106313244Y-56219038D01*
X106312671Y-56219769D01*
X106310822Y-56224713D01*
X106310174Y-56226132D01*
X106310165Y-56226155D01*
X106292435Y-56286528D01*
X106291601Y-56292538D01*
X106290553Y-56297585D01*
X106276580Y-56344846D01*
X106275284Y-56353739D01*
X106273549Y-56377663D01*
X106272271Y-56385729D01*
X106272263Y-56385770D01*
X106252138Y-56512841D01*
X106251091Y-56519755D01*
X106250989Y-56520463D01*
X106247118Y-56556204D01*
X106245823Y-56574062D01*
X106244500Y-56610621D01*
X106244500Y-57713702D01*
X106224815Y-57780741D01*
X106208181Y-57801383D01*
X105708038Y-58301525D01*
X105708038Y-58301526D01*
X105708036Y-58301528D01*
X105665497Y-58360076D01*
X105587715Y-58467134D01*
X105494782Y-58649526D01*
X105431521Y-58844221D01*
X105403093Y-59023708D01*
X105403087Y-59023747D01*
X105402887Y-59025014D01*
X105399500Y-59046398D01*
X105399500Y-59049970D01*
X105399500Y-59251102D01*
X105399499Y-59251102D01*
X50500500Y-59251102D01*
X50500500Y-53005635D01*
X50500556Y-53001914D01*
X50500669Y-52998150D01*
X50500837Y-52994426D01*
X50518046Y-52709913D01*
X50518719Y-52702514D01*
X50519628Y-52695028D01*
X50520751Y-52687655D01*
X50524988Y-52664534D01*
X50571110Y-52412855D01*
X50572668Y-52405598D01*
X50574479Y-52398250D01*
X50576463Y-52391136D01*
X50659603Y-52124328D01*
X50662010Y-52117354D01*
X50664686Y-52110297D01*
X50667515Y-52103467D01*
X50782210Y-51848627D01*
X50785454Y-51841967D01*
X50788963Y-51835282D01*
X50792602Y-51828832D01*
X50830959Y-51765381D01*
X50937147Y-51589722D01*
X50941201Y-51583453D01*
X50945449Y-51577297D01*
X50949874Y-51571285D01*
X50949882Y-51571275D01*
X51122185Y-51351347D01*
X51126938Y-51345643D01*
X51131946Y-51339990D01*
X51137032Y-51334589D01*
X51334589Y-51137032D01*
X51339990Y-51131946D01*
X51345643Y-51126938D01*
X51351347Y-51122185D01*
X51571290Y-50949869D01*
X51577311Y-50945440D01*
X51583463Y-50941194D01*
X51589719Y-50937149D01*
X51828846Y-50792593D01*
X51835282Y-50788963D01*
X51841984Y-50785445D01*
X51848627Y-50782210D01*
X52103467Y-50667515D01*
X52110297Y-50664686D01*
X52117354Y-50662010D01*
X52124358Y-50659593D01*
X52391106Y-50576471D01*
X52398267Y-50574474D01*
X52405582Y-50572671D01*
X52412856Y-50571109D01*
X52687673Y-50520747D01*
X52695042Y-50519625D01*
X52702500Y-50518720D01*
X52709909Y-50518046D01*
X52994427Y-50500837D01*
X52998152Y-50500669D01*
X53001917Y-50500556D01*
X53005637Y-50500500D01*
X166994363Y-50500500D01*
X166998084Y-50500556D01*
G37*
%TD.AperFunction*%
%TD*%
%TA.AperFunction,Conductor*%
%TO.N,/USBPD/VBUS*%
G36*
X113193039Y-52769685D02*
G01*
X113238794Y-52822489D01*
X113250000Y-52874000D01*
X113250000Y-54477192D01*
X113230315Y-54544231D01*
X113177511Y-54589986D01*
X113108353Y-54599930D01*
X113093912Y-54596968D01*
X113079790Y-54593184D01*
X113079769Y-54593180D01*
X112948948Y-54575958D01*
X112948947Y-54575958D01*
X112851053Y-54575958D01*
X112851052Y-54575958D01*
X112720230Y-54593180D01*
X112720223Y-54593181D01*
X112720220Y-54593182D01*
X112649923Y-54612018D01*
X112625661Y-54618519D01*
X112625645Y-54618524D01*
X112503758Y-54669011D01*
X112503748Y-54669016D01*
X112418964Y-54717965D01*
X112314271Y-54798300D01*
X112245050Y-54867521D01*
X112164715Y-54972214D01*
X112115766Y-55056998D01*
X112115761Y-55057008D01*
X112065274Y-55178895D01*
X112065269Y-55178911D01*
X112039933Y-55273467D01*
X112039930Y-55273480D01*
X112022708Y-55404302D01*
X112022708Y-55502197D01*
X112039930Y-55633019D01*
X112039931Y-55633024D01*
X112039932Y-55633030D01*
X112039933Y-55633032D01*
X112065269Y-55727588D01*
X112065274Y-55727604D01*
X112115761Y-55849491D01*
X112115766Y-55849501D01*
X112164715Y-55934285D01*
X112245050Y-56038978D01*
X112245058Y-56038987D01*
X112314263Y-56108192D01*
X112314271Y-56108199D01*
X112314272Y-56108200D01*
X112418967Y-56188536D01*
X112503747Y-56237483D01*
X112503752Y-56237485D01*
X112503758Y-56237488D01*
X112625645Y-56287975D01*
X112625651Y-56287976D01*
X112625661Y-56287981D01*
X112720220Y-56313318D01*
X112812620Y-56325482D01*
X112851052Y-56330542D01*
X112851053Y-56330542D01*
X112948948Y-56330542D01*
X113027596Y-56320188D01*
X113079780Y-56313318D01*
X113079780Y-56313317D01*
X113083805Y-56312788D01*
X113084060Y-56314729D01*
X113145780Y-56320188D01*
X113201002Y-56362993D01*
X113223204Y-56417744D01*
X113224500Y-56426637D01*
X113224500Y-56439861D01*
X113248600Y-56592023D01*
X113248704Y-56592736D01*
X113248632Y-56593241D01*
X113250000Y-56610617D01*
X113250000Y-57876000D01*
X113230315Y-57943039D01*
X113177511Y-57988794D01*
X113126000Y-58000000D01*
X110885074Y-58000000D01*
X110818035Y-57980315D01*
X110772280Y-57927511D01*
X110765299Y-57908094D01*
X110734577Y-57793437D01*
X110692112Y-57719884D01*
X110675500Y-57657885D01*
X110675500Y-55853515D01*
X110695185Y-55786476D01*
X110696398Y-55784624D01*
X110784390Y-55652935D01*
X110784390Y-55652934D01*
X110784394Y-55652929D01*
X110844737Y-55507247D01*
X110875500Y-55352592D01*
X110875500Y-55194908D01*
X110875500Y-55194905D01*
X110875499Y-55194903D01*
X110862749Y-55130805D01*
X110844737Y-55040253D01*
X110816555Y-54972214D01*
X110784397Y-54894577D01*
X110784390Y-54894564D01*
X110696789Y-54763461D01*
X110696786Y-54763457D01*
X110585292Y-54651963D01*
X110585288Y-54651960D01*
X110454185Y-54564359D01*
X110454172Y-54564352D01*
X110308501Y-54504014D01*
X110308489Y-54504011D01*
X110153845Y-54473250D01*
X110153842Y-54473250D01*
X109996158Y-54473250D01*
X109996155Y-54473250D01*
X109841510Y-54504011D01*
X109841498Y-54504014D01*
X109695827Y-54564352D01*
X109695814Y-54564359D01*
X109564711Y-54651960D01*
X109564707Y-54651963D01*
X109453213Y-54763457D01*
X109453210Y-54763461D01*
X109365609Y-54894564D01*
X109365602Y-54894577D01*
X109305264Y-55040248D01*
X109305261Y-55040260D01*
X109274500Y-55194903D01*
X109274500Y-55352596D01*
X109305261Y-55507239D01*
X109305264Y-55507251D01*
X109365602Y-55652922D01*
X109365609Y-55652935D01*
X109453602Y-55784624D01*
X109474480Y-55851301D01*
X109474500Y-55853515D01*
X109474500Y-57375794D01*
X109454815Y-57442833D01*
X109402011Y-57488588D01*
X109374691Y-57497411D01*
X109341510Y-57504011D01*
X109341498Y-57504014D01*
X109195827Y-57564352D01*
X109195814Y-57564359D01*
X109064711Y-57651960D01*
X109064707Y-57651963D01*
X108953213Y-57763457D01*
X108953210Y-57763461D01*
X108865609Y-57894564D01*
X108865605Y-57894571D01*
X108853644Y-57923451D01*
X108809803Y-57977855D01*
X108743509Y-57999921D01*
X108739082Y-58000000D01*
X106874000Y-58000000D01*
X106806961Y-57980315D01*
X106761206Y-57927511D01*
X106750000Y-57876000D01*
X106750000Y-56610617D01*
X106751296Y-56592736D01*
X106751399Y-56592023D01*
X106775500Y-56439861D01*
X106775500Y-56426637D01*
X106776796Y-56417744D01*
X106787772Y-56393829D01*
X106795185Y-56368586D01*
X106802115Y-56362580D01*
X106805942Y-56354244D01*
X106828105Y-56340059D01*
X106847989Y-56322831D01*
X106857067Y-56321525D01*
X106864792Y-56316582D01*
X106891100Y-56316632D01*
X106916163Y-56313028D01*
X106916195Y-56312788D01*
X106917051Y-56312900D01*
X106917147Y-56312887D01*
X106917803Y-56312999D01*
X106920214Y-56313316D01*
X106920220Y-56313318D01*
X107032323Y-56328076D01*
X107051052Y-56330542D01*
X107051053Y-56330542D01*
X107148948Y-56330542D01*
X107178652Y-56326631D01*
X107279780Y-56313318D01*
X107374339Y-56287981D01*
X107374351Y-56287975D01*
X107374354Y-56287975D01*
X107496241Y-56237488D01*
X107496241Y-56237487D01*
X107496253Y-56237483D01*
X107581033Y-56188536D01*
X107685728Y-56108200D01*
X107685732Y-56108195D01*
X107685737Y-56108192D01*
X107754942Y-56038987D01*
X107754945Y-56038982D01*
X107754950Y-56038978D01*
X107835286Y-55934283D01*
X107884233Y-55849503D01*
X107902531Y-55805328D01*
X107934725Y-55727604D01*
X107934725Y-55727601D01*
X107934731Y-55727589D01*
X107960068Y-55633030D01*
X107977292Y-55502197D01*
X107977292Y-55404303D01*
X107960068Y-55273470D01*
X107934731Y-55178911D01*
X107934726Y-55178901D01*
X107934725Y-55178895D01*
X107884238Y-55057008D01*
X107884233Y-55056998D01*
X107884233Y-55056997D01*
X107835286Y-54972217D01*
X107754950Y-54867522D01*
X107754949Y-54867521D01*
X107754942Y-54867513D01*
X107685737Y-54798308D01*
X107685728Y-54798300D01*
X107581035Y-54717965D01*
X107496251Y-54669016D01*
X107496241Y-54669011D01*
X107374354Y-54618524D01*
X107374342Y-54618520D01*
X107374339Y-54618519D01*
X107279780Y-54593182D01*
X107279774Y-54593181D01*
X107279769Y-54593180D01*
X107148948Y-54575958D01*
X107148947Y-54575958D01*
X107051053Y-54575958D01*
X107051052Y-54575958D01*
X106920230Y-54593180D01*
X106920209Y-54593184D01*
X106906088Y-54596968D01*
X106836238Y-54595302D01*
X106778377Y-54556137D01*
X106750876Y-54491907D01*
X106750000Y-54477192D01*
X106750000Y-52874000D01*
X106769685Y-52806961D01*
X106822489Y-52761206D01*
X106874000Y-52750000D01*
X113126000Y-52750000D01*
X113193039Y-52769685D01*
G37*
%TD.AperFunction*%
%TD*%
M02*
