M48
; DRILL file KiCad 10.0.1 date 2026-05-27T20:12:27
; FORMAT={-:-/ absolute / metric / decimal}
; #@! TF.CreationDate,2026-05-27T20:12:27+10:00
; #@! TF.GenerationSoftware,Kicad,Pcbnew,10.0.1
; #@! TF.FileFunction,Plated,1,2,PTH
FMAT,2
METRIC
; #@! TA.AperFunction,Plated,PTH,ViaDrill
T1C0.300
; #@! TA.AperFunction,Plated,PTH,ComponentDrill
T2C0.800
; #@! TA.AperFunction,Plated,PTH,ComponentDrill
T3C3.200
%
G90
G05
T1
X52.75Y-99.25
X54.25Y-81.0
X54.25Y-81.75
X54.25Y-82.5
X54.25Y-83.25
X54.25Y-84.0
X54.25Y-84.75
X54.25Y-85.5
X55.0Y-120.0
X55.5Y-112.0
X57.0Y-102.25
X57.75Y-68.0
X59.0Y-115.75
X59.25Y-109.25
X59.25Y-122.5
X64.25Y-104.0
X64.5Y-127.0
X65.25Y-56.75
X66.5Y-68.0
X67.5Y-96.5
X68.475Y-101.725
X69.75Y-96.5
X69.75Y-99.0
X71.25Y-63.25
X77.5Y-56.0
X79.94Y-123.978
X79.978Y-114.228
X79.978Y-117.228
X79.978Y-119.478
X79.978Y-121.728
X83.478Y-111.928
X85.448Y-111.978
X86.0Y-55.0
X88.478Y-117.522
X90.434Y-118.5
X91.0Y-118.5
X91.0Y-119.25
X91.75Y-118.5
X91.75Y-119.25
X91.978Y-116.272
X92.478Y-124.146
X92.728Y-111.985
X95.75Y-74.75
X96.75Y-117.25
X98.0Y-109.5
X98.0Y-125.5
X98.75Y-79.5
X99.0Y-118.0
X99.5Y-79.5
X99.75Y-89.75
X100.75Y-79.5
X101.5Y-79.5
X101.5Y-95.5
X102.0Y-105.75
X102.0Y-113.25
X102.5Y-79.5
X103.0Y-81.75
X103.0Y-129.75
X103.25Y-79.5
X104.0Y-79.5
X104.75Y-79.5
X105.5Y-79.5
X106.7Y-59.149
X106.75Y-58.5
X107.25Y-118.75
X107.5Y-58.5
X107.5Y-86.0
X107.5Y-110.25
X107.581Y-57.75
X108.0Y-104.0
X108.25Y-79.75
X109.575Y-58.274
X110.075Y-55.274
X110.575Y-60.524
X110.847Y-80.8
X110.867Y-105.168
X111.075Y-59.774
X111.51Y-85.862
X111.51Y-86.662
X111.53Y-110.23
X111.53Y-111.03
X112.26Y-78.412
X112.28Y-102.78
X112.597Y-57.775
X113.25Y-58.0
X114.0Y-58.0
X115.387Y-103.923
X116.5Y-124.25
X116.75Y-78.25
X116.75Y-102.5
X118.5Y-77.0
X118.5Y-79.5
X118.5Y-101.25
X118.5Y-103.75
X120.25Y-75.75
X120.25Y-78.25
X120.25Y-80.75
X120.25Y-100.25
X120.25Y-102.5
X120.25Y-105.0
X120.75Y-70.75
X121.0Y-95.25
X122.5Y-74.5
X122.5Y-82.0
X122.5Y-98.75
X122.5Y-106.5
X123.31Y-86.062
X123.33Y-110.43
X124.11Y-90.862
X124.5Y-74.5
X124.5Y-78.0
X124.5Y-82.0
X124.5Y-98.75
X124.5Y-102.75
X124.5Y-106.5
X126.5Y-56.25
X126.5Y-78.25
X126.5Y-103.5
X128.5Y-74.25
X128.5Y-78.25
X128.5Y-81.75
X128.75Y-99.0
X128.75Y-102.5
X128.75Y-106.0
X128.75Y-129.25
X129.25Y-119.0
X130.5Y-74.25
X130.5Y-81.75
X130.5Y-99.0
X130.5Y-106.0
X132.0Y-63.0
X132.75Y-74.5
X132.75Y-76.75
X132.75Y-79.5
X133.0Y-100.75
X133.0Y-102.5
X133.0Y-104.75
X140.75Y-124.25
X143.75Y-55.75
X143.75Y-93.0
X148.75Y-64.75
X152.75Y-84.5
X154.5Y-114.25
X155.5Y-91.5
X161.25Y-67.5
T2
X52.25Y-85.5
X52.25Y-88.5
X52.25Y-91.5
X71.787Y-108.478
X76.787Y-108.478
X84.75Y-76.0
X84.75Y-79.0
X84.75Y-82.0
X87.75Y-76.0
X87.75Y-79.0
X87.75Y-82.0
X166.75Y-88.25
X166.75Y-91.25
X166.75Y-95.5
X166.75Y-98.5
T3
X53.75Y-53.75
X53.75Y-131.25
X166.25Y-53.75
X166.25Y-131.25
T2
G00X105.675Y-52.074
M15
G01X105.675Y-51.474
M16
G05
G00X105.675Y-56.353
M15
G01X105.675Y-55.553
M16
G05
G00X114.325Y-52.074
M15
G01X114.325Y-51.474
M16
G05
G00X114.325Y-56.353
M15
G01X114.325Y-55.553
M16
G05
M30
