%TF.GenerationSoftware,KiCad,Pcbnew,10.0.1*%
%TF.CreationDate,2026-06-12T21:37:13+10:00*%
%TF.ProjectId,PowerBox_PCB,506f7765-7242-46f7-985f-5043422e6b69,rev?*%
%TF.SameCoordinates,Original*%
%TF.FileFunction,Copper,L2,Bot*%
%TF.FilePolarity,Positive*%
%FSLAX46Y46*%
G04 Gerber Fmt 4.6, Leading zero omitted, Abs format (unit mm)*
G04 Created by KiCad (PCBNEW 10.0.1) date 2026-06-12 21:37:13*
%MOMM*%
%LPD*%
G01*
G04 APERTURE LIST*
G04 Aperture macros list*
%AMRoundRect*
0 Rectangle with rounded corners*
0 $1 Rounding radius*
0 $2 $3 $4 $5 $6 $7 $8 $9 X,Y pos of 4 corners*
0 Add a 4 corners polygon primitive as box body*
4,1,4,$2,$3,$4,$5,$6,$7,$8,$9,$2,$3,0*
0 Add four circle primitives for the rounded corners*
1,1,$1+$1,$2,$3*
1,1,$1+$1,$4,$5*
1,1,$1+$1,$6,$7*
1,1,$1+$1,$8,$9*
0 Add four rect primitives between the rounded corners*
20,1,$1+$1,$2,$3,$4,$5,0*
20,1,$1+$1,$4,$5,$6,$7,0*
20,1,$1+$1,$6,$7,$8,$9,0*
20,1,$1+$1,$8,$9,$2,$3,0*%
G04 Aperture macros list end*
%TA.AperFunction,ComponentPad*%
%ADD10C,5.750000*%
%TD*%
%TA.AperFunction,ComponentPad*%
%ADD11RoundRect,0.300000X-0.700000X-0.700000X0.700000X-0.700000X0.700000X0.700000X-0.700000X0.700000X0*%
%TD*%
%TA.AperFunction,ComponentPad*%
%ADD12RoundRect,0.300000X0.700000X-0.700000X0.700000X0.700000X-0.700000X0.700000X-0.700000X-0.700000X0*%
%TD*%
%TA.AperFunction,ComponentPad*%
%ADD13O,1.200000X2.000000*%
%TD*%
%TA.AperFunction,ComponentPad*%
%ADD14O,1.200000X1.800000*%
%TD*%
%TA.AperFunction,ComponentPad*%
%ADD15C,2.000000*%
%TD*%
%TA.AperFunction,ViaPad*%
%ADD16C,0.600000*%
%TD*%
%TA.AperFunction,ViaPad*%
%ADD17C,0.500000*%
%TD*%
%TA.AperFunction,Conductor*%
%ADD18C,2.000000*%
%TD*%
%TA.AperFunction,Conductor*%
%ADD19C,0.200000*%
%TD*%
%TA.AperFunction,Conductor*%
%ADD20C,0.800000*%
%TD*%
%TA.AperFunction,Conductor*%
%ADD21C,0.300000*%
%TD*%
%TA.AperFunction,Conductor*%
%ADD22C,1.600000*%
%TD*%
%TA.AperFunction,Conductor*%
%ADD23C,0.500000*%
%TD*%
G04 APERTURE END LIST*
D10*
%TO.P,TP15,1,PAD_1*%
%TO.N,GND*%
X151250000Y-53750000D03*
%TD*%
D11*
%TO.P,TP18,1,PAD_1*%
%TO.N,/Ideal_Diode/VOUT_IDEAL*%
X152250000Y-84250000D03*
%TD*%
D10*
%TO.P,TP17,1,PAD_1*%
%TO.N,GND*%
X151250000Y-121250000D03*
%TD*%
D11*
%TO.P,B1,1,B+_1*%
%TO.N,P+*%
X60037500Y-77212500D03*
%TO.P,B1,2,BM_2*%
%TO.N,/BMS/BM*%
X60037500Y-80212500D03*
%TO.P,B1,3,B-_3*%
%TO.N,/BMS/B-*%
X60037500Y-83212500D03*
%TD*%
D12*
%TO.P,SW1,1,A_1*%
%TO.N,/VUSBPDSWITCHED*%
X84750000Y-82000000D03*
%TO.P,SW1,2,B_2*%
%TO.N,VUSBPD*%
X84750000Y-79000000D03*
%TO.P,SW1,3,C_3*%
%TO.N,unconnected-(SW1A-C-Pad3)*%
X84750000Y-76000000D03*
%TO.P,SW1,4,A_4*%
%TO.N,/TPS54620_Buck1/VIN_BUCK*%
X87750000Y-82000000D03*
%TO.P,SW1,5,B_5*%
%TO.N,P+*%
X87750000Y-79000000D03*
%TO.P,SW1,6,C_6*%
%TO.N,unconnected-(SW1B-C-Pad6)*%
X87750000Y-76000000D03*
%TD*%
D10*
%TO.P,TP14,1,PAD_1*%
%TO.N,GND*%
X58750000Y-53750000D03*
%TD*%
%TO.P,TP16,1,PAD_1*%
%TO.N,GND*%
X58750000Y-121000000D03*
%TD*%
D11*
%TO.P,TP19,1,PAD_1*%
%TO.N,/Ideal_Diode/VOUT_IDEAL*%
X152250000Y-87250000D03*
%TD*%
D13*
%TO.P,USBC2,1,EH_1*%
%TO.N,GND*%
X100675000Y-55953250D03*
D14*
%TO.P,USBC2,2,EH_2*%
X100675000Y-51773750D03*
%TO.P,USBC2,3,EH_3*%
X109325000Y-51773750D03*
D13*
%TO.P,USBC2,4,EH_4*%
X109325000Y-55953250D03*
%TD*%
D15*
%TO.P,TR1,1*%
%TO.N,/Batt Charger/TS*%
X71784600Y-101375000D03*
%TO.P,TR1,2*%
%TO.N,GND*%
X76784600Y-101375000D03*
%TD*%
D16*
%TO.N,/VUSBOUT*%
X128000000Y-83000000D03*
X128750000Y-83000000D03*
X129500000Y-83000000D03*
X130250000Y-83000000D03*
X130250000Y-83750000D03*
X129500000Y-83750000D03*
X128750000Y-83750000D03*
X128000000Y-83750000D03*
X89822100Y-90572100D03*
X90197100Y-90197100D03*
X92250000Y-90000000D03*
X90750000Y-90000000D03*
X91750000Y-90000000D03*
X91250000Y-90000000D03*
%TO.N,/Ideal_Diode1/VIN_IDEAL*%
X133000000Y-102500000D03*
X128250000Y-102500000D03*
X129500000Y-105500000D03*
X128750000Y-106000000D03*
X128750000Y-99000000D03*
X133000000Y-104750000D03*
X129750000Y-99000000D03*
X133000000Y-100750000D03*
%TO.N,Net-(U5-VSENSE)*%
X123330000Y-110430194D03*
X110867500Y-105167694D03*
D17*
%TO.N,P+*%
X62037500Y-74212500D03*
X62037500Y-74962500D03*
X62037500Y-72712500D03*
D16*
X90997100Y-111397100D03*
X91747100Y-112147100D03*
D17*
X62037500Y-76462500D03*
D16*
X90430800Y-111397100D03*
D17*
X62037500Y-75712500D03*
X62037500Y-73462500D03*
D16*
X90997100Y-112147100D03*
D17*
X62037500Y-77212500D03*
D16*
X91747100Y-111397100D03*
%TO.N,/TPS54620_Buck1/VIN_BUCK*%
X108000000Y-104000000D03*
X107500000Y-110250000D03*
X102000000Y-105750000D03*
%TO.N,PM*%
X86000000Y-122500000D03*
X79787500Y-82712500D03*
X79500000Y-81500000D03*
X77787500Y-81362500D03*
X84799997Y-121175000D03*
X86700003Y-121175000D03*
X79000000Y-84000000D03*
X84500000Y-122750000D03*
X78237503Y-82712500D03*
%TO.N,GND*%
X59250000Y-112250000D03*
X66500000Y-121000000D03*
X79975000Y-107125000D03*
X150500000Y-80500000D03*
X57750000Y-68000000D03*
X90500000Y-107750000D03*
X111510000Y-86662500D03*
X79937500Y-116875000D03*
X148750000Y-72250000D03*
X77500000Y-56000000D03*
X75287500Y-88212500D03*
X97997100Y-118397100D03*
X91500000Y-108000000D03*
X143750000Y-93000000D03*
X112260000Y-78412500D03*
X111510000Y-85862500D03*
X95750000Y-74750000D03*
X143750000Y-55750000D03*
X88475000Y-110419200D03*
X121000000Y-95250000D03*
X129250000Y-119000000D03*
X76262500Y-93437500D03*
X107500000Y-70000000D03*
X151250000Y-114000000D03*
X94750000Y-93000000D03*
X77537500Y-90712500D03*
X132000000Y-63000000D03*
X146750000Y-89000000D03*
X79975000Y-112375000D03*
X71000000Y-60750000D03*
X147750000Y-117750000D03*
X92500000Y-108250000D03*
X88500000Y-55000000D03*
X79975000Y-110125000D03*
X60500000Y-89250000D03*
X101500000Y-95500000D03*
X59250000Y-109250000D03*
X114000000Y-118500000D03*
X120750000Y-70750000D03*
X112280000Y-102780194D03*
X72037500Y-95712500D03*
X126500000Y-103500000D03*
X57000000Y-102250000D03*
X79975000Y-114625000D03*
X59000000Y-115750000D03*
X126500000Y-78250000D03*
X64250000Y-111500000D03*
X93500000Y-108250000D03*
X148750000Y-64750000D03*
X83475000Y-104825000D03*
X66500000Y-68000000D03*
X139750000Y-118000000D03*
X66750000Y-118000000D03*
X107250000Y-118750000D03*
X77537500Y-88212500D03*
X111530000Y-111030194D03*
X92000000Y-121750000D03*
X103500000Y-115750000D03*
X85445000Y-104875000D03*
X122250000Y-118750000D03*
X126500000Y-56250000D03*
X111530000Y-110230194D03*
X92725000Y-104881700D03*
%TO.N,/VUSBPDSWITCHED*%
X98750000Y-79500000D03*
X108250000Y-79750000D03*
X105500000Y-79500000D03*
X101500000Y-79500000D03*
X104000000Y-79500000D03*
X103250000Y-79500000D03*
X102500000Y-79500000D03*
X100750000Y-79500000D03*
X104750000Y-79500000D03*
X99500000Y-79500000D03*
X107500000Y-86000000D03*
X103000000Y-81750000D03*
%TO.N,Net-(U1-VSENSE)*%
X110847500Y-80800000D03*
X120575000Y-86000000D03*
%TO.N,Net-(C1-Pad2)*%
X118500000Y-77000000D03*
X124500000Y-82000000D03*
X125000000Y-78250000D03*
X120250000Y-75750000D03*
X124500000Y-74500000D03*
X120250000Y-80750000D03*
X118500000Y-79500000D03*
X122500000Y-74500000D03*
X120250000Y-78250000D03*
X122500000Y-82000000D03*
X116750000Y-78250000D03*
%TO.N,/TPS54620_Buck/PWRGD_BUCK*%
X140000000Y-90500000D03*
X129500000Y-90000000D03*
X113500000Y-74250000D03*
%TO.N,/TPS54620_Buck1/EN_BUCK*%
X121375000Y-90800000D03*
X115387500Y-103922694D03*
%TO.N,Net-(C17-Pad2)*%
X124500000Y-99250000D03*
X118500000Y-101250000D03*
X124500000Y-105750000D03*
X125000000Y-102750000D03*
X120250000Y-105000000D03*
X120250000Y-100250000D03*
X116750000Y-102500000D03*
X120250000Y-102500000D03*
X123250000Y-99250000D03*
X118500000Y-103750000D03*
X123000000Y-105750000D03*
%TO.N,/USBPD/VBUS*%
X109000000Y-58000000D03*
X108250000Y-58000000D03*
X101700000Y-59148750D03*
X102500000Y-58500000D03*
X107596657Y-57775432D03*
X101750000Y-58500000D03*
X102580740Y-57750000D03*
%TO.N,/Batt Charger/SW*%
X92475000Y-117043300D03*
X91975000Y-109169200D03*
%TO.N,/VUSBOUT*%
X129750000Y-81750000D03*
X132750000Y-74500000D03*
X132750000Y-79500000D03*
X128000000Y-78250000D03*
X128500000Y-81750000D03*
X129750000Y-74750000D03*
X128500000Y-74750000D03*
X132750000Y-76750000D03*
%TD*%
%TO.N,/VUSBOUT*%
D18*
X92250000Y-90000000D02*
X90394200Y-90000000D01*
X90394200Y-90000000D02*
X89822100Y-90572100D01*
X128000000Y-83750000D02*
X135371321Y-83750000D01*
X141500000Y-91121321D02*
X140621321Y-92000000D01*
X135371321Y-83750000D02*
X141500000Y-89878679D01*
X141500000Y-89878679D02*
X141500000Y-91121321D01*
X140621321Y-92000000D02*
X124696321Y-92000000D01*
X124696321Y-92000000D02*
X121996321Y-89300000D01*
X92950000Y-89300000D02*
X92250000Y-90000000D01*
X121996321Y-89300000D02*
X92950000Y-89300000D01*
X130250000Y-83750000D02*
X128000000Y-83750000D01*
X130250000Y-83000000D02*
X128000000Y-83000000D01*
%TO.N,Net-(U5-VSENSE)*%
D19*
X116130000Y-110430194D02*
X123330000Y-110430194D01*
X110867500Y-105167694D02*
X116130000Y-110430194D01*
%TO.N,P+*%
D18*
X90500000Y-77750000D02*
X90500000Y-74500000D01*
X93456700Y-118543300D02*
X91853679Y-118543300D01*
X60037500Y-77212500D02*
X61287500Y-77212500D01*
X90500000Y-74500000D02*
X88750000Y-72750000D01*
X89250000Y-79000000D02*
X90500000Y-77750000D01*
X82000000Y-72750000D02*
X62750000Y-72750000D01*
X62037500Y-76462500D02*
X62037500Y-73462500D01*
X61287500Y-77212500D02*
X62037500Y-76462500D01*
X97000000Y-103250000D02*
X97000000Y-115000000D01*
D20*
X91747100Y-112147100D02*
X90997100Y-111397100D01*
D18*
X88750000Y-72750000D02*
X82000000Y-72750000D01*
X62750000Y-72750000D02*
X62037500Y-73462500D01*
X87750000Y-79000000D02*
X89250000Y-79000000D01*
X82000000Y-88250000D02*
X97000000Y-103250000D01*
X90975000Y-111597100D02*
X91175000Y-111397100D01*
X91853679Y-118543300D02*
X90975000Y-117664621D01*
X82000000Y-72750000D02*
X82000000Y-88250000D01*
D20*
X90997100Y-112147100D02*
X91747100Y-112147100D01*
X90997100Y-112147100D02*
X91747100Y-111397100D01*
D18*
X97000000Y-115000000D02*
X93456700Y-118543300D01*
X90975000Y-117664621D02*
X90975000Y-111597100D01*
%TO.N,PM*%
X77787500Y-82787500D02*
X79000000Y-84000000D01*
X79281579Y-121152900D02*
X84777897Y-121152900D01*
X84799997Y-121175000D02*
X86700003Y-121175000D01*
X86000000Y-122500000D02*
X86000000Y-121875003D01*
X79787500Y-83212500D02*
X79787500Y-82712500D01*
X66000000Y-107871321D02*
X79281579Y-121152900D01*
X79450003Y-81500000D02*
X78237503Y-82712500D01*
X84500000Y-122750000D02*
X84500000Y-121474997D01*
X79000000Y-84000000D02*
X79787500Y-83212500D01*
X66000000Y-94250000D02*
X66000000Y-107871321D01*
X84777897Y-121152900D02*
X84799997Y-121175000D01*
X84500000Y-121474997D02*
X84799997Y-121175000D01*
X79000000Y-84000000D02*
X76250000Y-84000000D01*
X86000000Y-121875003D02*
X86700003Y-121175000D01*
X76250000Y-84000000D02*
X66000000Y-94250000D01*
X77787500Y-81362500D02*
X77787500Y-82787500D01*
X79500000Y-81500000D02*
X79450003Y-81500000D01*
%TO.N,/VUSBPDSWITCHED*%
X86750000Y-85500000D02*
X84750000Y-83500000D01*
X84750000Y-83500000D02*
X84750000Y-82000000D01*
X105500000Y-79500000D02*
X98750000Y-79500000D01*
X98750000Y-79500000D02*
X92750000Y-85500000D01*
X92750000Y-85500000D02*
X86750000Y-85500000D01*
%TO.N,Net-(U1-VSENSE)*%
D19*
X110847500Y-80800000D02*
X116110000Y-86062500D01*
X116110000Y-86062500D02*
X120512500Y-86062500D01*
X120512500Y-86062500D02*
X120575000Y-86000000D01*
%TO.N,/TPS54620_Buck/PWRGD_BUCK*%
X129500000Y-90000000D02*
X139500000Y-90000000D01*
X119500000Y-83750000D02*
X123250000Y-83750000D01*
X114500000Y-79750000D02*
X115500000Y-79750000D01*
X139500000Y-90000000D02*
X140000000Y-90500000D01*
X115500000Y-79750000D02*
X119500000Y-83750000D01*
X113500000Y-74250000D02*
X113500000Y-78750000D01*
X123250000Y-83750000D02*
X129500000Y-90000000D01*
X113500000Y-78750000D02*
X114500000Y-79750000D01*
%TO.N,/TPS54620_Buck1/EN_BUCK*%
D21*
X115387500Y-103922694D02*
X115387500Y-94185000D01*
X118710000Y-90862500D02*
X121312500Y-90862500D01*
X115387500Y-94185000D02*
X118710000Y-90862500D01*
X121312500Y-90862500D02*
X121375000Y-90800000D01*
%TO.N,/USBPD/VBUS*%
D22*
X107821225Y-58000000D02*
X109000000Y-58000000D01*
X102580740Y-57750000D02*
X102580740Y-57336782D01*
X102580740Y-57336782D02*
X102599500Y-57318022D01*
X102580740Y-57750000D02*
X102580740Y-58268010D01*
D23*
X102580740Y-57750000D02*
X102580740Y-56740510D01*
D22*
X107596657Y-57775432D02*
X107821225Y-58000000D01*
D23*
X107596657Y-57707583D02*
X107400000Y-57510926D01*
X107596657Y-57775432D02*
X107596657Y-57707583D01*
D22*
X102580740Y-58268010D02*
X101700000Y-59148750D01*
X102599500Y-57125042D02*
X102792480Y-57125042D01*
X102599500Y-57318022D02*
X102599500Y-57125042D01*
D23*
X102580740Y-56740510D02*
X102599500Y-56721750D01*
%TO.N,/Batt Charger/SW*%
D19*
X92475000Y-117043300D02*
X92475000Y-109669200D01*
X92475000Y-109669200D02*
X91975000Y-109169200D01*
%TD*%
%TA.AperFunction,Conductor*%
%TO.N,/VUSBPDSWITCHED*%
G36*
X110621971Y-78264881D02*
G01*
X110700618Y-78280524D01*
X110745308Y-78299035D01*
X110801626Y-78336666D01*
X110807519Y-78342559D01*
X110812251Y-78344619D01*
X110835832Y-78370871D01*
X110873462Y-78427188D01*
X110891976Y-78471887D01*
X110907617Y-78550519D01*
X110910000Y-78574710D01*
X110910000Y-79350289D01*
X110907617Y-79374480D01*
X110891976Y-79453112D01*
X110888786Y-79460813D01*
X110888694Y-79465973D01*
X110873462Y-79497811D01*
X110835836Y-79554123D01*
X110801623Y-79588336D01*
X110745311Y-79625962D01*
X110700612Y-79644476D01*
X110621980Y-79660117D01*
X110597789Y-79662500D01*
X110109999Y-79662500D01*
X108510000Y-81262499D01*
X108510000Y-81262500D01*
X108510000Y-83262500D01*
X109997789Y-83262500D01*
X110021971Y-83264881D01*
X110100618Y-83280524D01*
X110145308Y-83299035D01*
X110201626Y-83336666D01*
X110235833Y-83370873D01*
X110273462Y-83427188D01*
X110291976Y-83471887D01*
X110307617Y-83550519D01*
X110310000Y-83574710D01*
X110310000Y-87975500D01*
X110290315Y-88042539D01*
X110237511Y-88088294D01*
X110186000Y-88099500D01*
X107438819Y-88099500D01*
X107371780Y-88079815D01*
X107356778Y-88068480D01*
X98621406Y-80360799D01*
X98603681Y-80341459D01*
X98552399Y-80271983D01*
X98530940Y-80224429D01*
X98512775Y-80140014D01*
X98510000Y-80113928D01*
X98510000Y-78974710D01*
X98512381Y-78950529D01*
X98528025Y-78871879D01*
X98531212Y-78864184D01*
X98531305Y-78859026D01*
X98546533Y-78827195D01*
X98584168Y-78770870D01*
X98618370Y-78736668D01*
X98674693Y-78699034D01*
X98719379Y-78680525D01*
X98798028Y-78664881D01*
X98822211Y-78662500D01*
X106510000Y-78662500D01*
X108443245Y-78447695D01*
X110091823Y-78264519D01*
X110095189Y-78264193D01*
X110106608Y-78263243D01*
X110113441Y-78262864D01*
X110122122Y-78262624D01*
X110124920Y-78262547D01*
X110128346Y-78262500D01*
X110597789Y-78262500D01*
X110621971Y-78264881D01*
G37*
%TD.AperFunction*%
%TD*%
%TA.AperFunction,Conductor*%
%TO.N,GND*%
G36*
X151998084Y-50500556D02*
G01*
X152001848Y-50500669D01*
X152005575Y-50500837D01*
X152290069Y-50518045D01*
X152297505Y-50518721D01*
X152304951Y-50519625D01*
X152312324Y-50520747D01*
X152587134Y-50571108D01*
X152594431Y-50572675D01*
X152601691Y-50574465D01*
X152601703Y-50574468D01*
X152608909Y-50576477D01*
X152875613Y-50659586D01*
X152882663Y-50662018D01*
X152889671Y-50664675D01*
X152896567Y-50667532D01*
X153151322Y-50782188D01*
X153158048Y-50785464D01*
X153164684Y-50788947D01*
X153171191Y-50792617D01*
X153410260Y-50937137D01*
X153416534Y-50941194D01*
X153422686Y-50945440D01*
X153428711Y-50949872D01*
X153648621Y-51122161D01*
X153654379Y-51126960D01*
X153659984Y-51131926D01*
X153665434Y-51137057D01*
X153862941Y-51334564D01*
X153868072Y-51340014D01*
X153873038Y-51345619D01*
X153877837Y-51351377D01*
X154050117Y-51571275D01*
X154054538Y-51577283D01*
X154058817Y-51583483D01*
X154062854Y-51589727D01*
X154207389Y-51828820D01*
X154211062Y-51835333D01*
X154214543Y-51841967D01*
X154217816Y-51848690D01*
X154332452Y-52103398D01*
X154335321Y-52110323D01*
X154337980Y-52117335D01*
X154340421Y-52124412D01*
X154423520Y-52391087D01*
X154425526Y-52398282D01*
X154427322Y-52405566D01*
X154428893Y-52412881D01*
X154479247Y-52687655D01*
X154480373Y-52695051D01*
X154481275Y-52702475D01*
X154481954Y-52709944D01*
X154499160Y-52994384D01*
X154499329Y-52998117D01*
X154499443Y-53001881D01*
X154499500Y-53005635D01*
X154499500Y-121994363D01*
X154499443Y-121998117D01*
X154499329Y-122001881D01*
X154499160Y-122005614D01*
X154481954Y-122290054D01*
X154481275Y-122297523D01*
X154480373Y-122304947D01*
X154479247Y-122312343D01*
X154428893Y-122587117D01*
X154427319Y-122594449D01*
X154425530Y-122601705D01*
X154423520Y-122608911D01*
X154340421Y-122875586D01*
X154337980Y-122882663D01*
X154335321Y-122889675D01*
X154332452Y-122896600D01*
X154217816Y-123151308D01*
X154214543Y-123158031D01*
X154211062Y-123164665D01*
X154207377Y-123171200D01*
X154062863Y-123410257D01*
X154058807Y-123416530D01*
X154054549Y-123422699D01*
X154050117Y-123428723D01*
X153877837Y-123648621D01*
X153873038Y-123654379D01*
X153868072Y-123659984D01*
X153862941Y-123665434D01*
X153665434Y-123862941D01*
X153659986Y-123868070D01*
X153659984Y-123868072D01*
X153654379Y-123873038D01*
X153648621Y-123877837D01*
X153428723Y-124050117D01*
X153422699Y-124054549D01*
X153416530Y-124058807D01*
X153410255Y-124062863D01*
X153171192Y-124207381D01*
X153164665Y-124211062D01*
X153158031Y-124214543D01*
X153151308Y-124217816D01*
X152896600Y-124332452D01*
X152889675Y-124335321D01*
X152882663Y-124337980D01*
X152875586Y-124340421D01*
X152608911Y-124423520D01*
X152601708Y-124425529D01*
X152594439Y-124427321D01*
X152587117Y-124428893D01*
X152312343Y-124479247D01*
X152304947Y-124480373D01*
X152297523Y-124481275D01*
X152290054Y-124481954D01*
X152005614Y-124499160D01*
X152001881Y-124499329D01*
X151998117Y-124499443D01*
X151994363Y-124499500D01*
X58005637Y-124499500D01*
X58001884Y-124499443D01*
X57998119Y-124499329D01*
X57994385Y-124499160D01*
X57709944Y-124481954D01*
X57702475Y-124481275D01*
X57695051Y-124480373D01*
X57687655Y-124479247D01*
X57412881Y-124428893D01*
X57405566Y-124427322D01*
X57398282Y-124425526D01*
X57391087Y-124423520D01*
X57124407Y-124340420D01*
X57117328Y-124337977D01*
X57110331Y-124335324D01*
X57103419Y-124332461D01*
X56921309Y-124250500D01*
X56848678Y-124217811D01*
X56841962Y-124214541D01*
X56835322Y-124211056D01*
X56828820Y-124207389D01*
X56589727Y-124062854D01*
X56583483Y-124058817D01*
X56577283Y-124054538D01*
X56571276Y-124050117D01*
X56549864Y-124033342D01*
X56549863Y-124033342D01*
X56372667Y-123894517D01*
X56372663Y-123894514D01*
X56351370Y-123877831D01*
X56345619Y-123873038D01*
X56340012Y-123868070D01*
X56334564Y-123862941D01*
X56137057Y-123665434D01*
X56131926Y-123659984D01*
X56126960Y-123654379D01*
X56122161Y-123648621D01*
X56118943Y-123644514D01*
X56034267Y-123536433D01*
X55949872Y-123428711D01*
X55945444Y-123422691D01*
X55941192Y-123416532D01*
X55937147Y-123410275D01*
X55792602Y-123171167D01*
X55788941Y-123164674D01*
X55785463Y-123158047D01*
X55782191Y-123151329D01*
X55667532Y-122896567D01*
X55664672Y-122889662D01*
X55662018Y-122882663D01*
X55659581Y-122875599D01*
X55657243Y-122868097D01*
X55576477Y-122608909D01*
X55574468Y-122601703D01*
X55572677Y-122594437D01*
X55571108Y-122587134D01*
X55520750Y-122312339D01*
X55519627Y-122304965D01*
X55518720Y-122297496D01*
X55518046Y-122290082D01*
X55500837Y-122005575D01*
X55500669Y-122001848D01*
X55500556Y-121998084D01*
X55500500Y-121994363D01*
X55500500Y-76467532D01*
X58537000Y-76467532D01*
X58537000Y-77957466D01*
X58552127Y-78091730D01*
X58552130Y-78091752D01*
X58552131Y-78091755D01*
X58611710Y-78262021D01*
X58611711Y-78262023D01*
X58653698Y-78328844D01*
X58707684Y-78414762D01*
X58835238Y-78542316D01*
X58914196Y-78591928D01*
X58923892Y-78598020D01*
X58950794Y-78620855D01*
X58959991Y-78631252D01*
X58967564Y-78647395D01*
X58970181Y-78650354D01*
X58970782Y-78654256D01*
X58989665Y-78694507D01*
X58980430Y-78763764D01*
X58980425Y-78763773D01*
X58978772Y-78767492D01*
X58946564Y-78810927D01*
X58946069Y-78811355D01*
X58930939Y-78822549D01*
X58835239Y-78882682D01*
X58835236Y-78882684D01*
X58707683Y-79010237D01*
X58611712Y-79162973D01*
X58611710Y-79162976D01*
X58552131Y-79333243D01*
X58552130Y-79333246D01*
X58552127Y-79333268D01*
X58537000Y-79467532D01*
X58537000Y-80957466D01*
X58552127Y-81091730D01*
X58552130Y-81091752D01*
X58552131Y-81091755D01*
X58582727Y-81179191D01*
X58611711Y-81262023D01*
X58680074Y-81370821D01*
X58680073Y-81370821D01*
X58707679Y-81414756D01*
X58707684Y-81414762D01*
X58835238Y-81542316D01*
X58848263Y-81550500D01*
X58923893Y-81598021D01*
X58950797Y-81620858D01*
X58959992Y-81631253D01*
X58967565Y-81647397D01*
X58970182Y-81650356D01*
X58970783Y-81654258D01*
X58989665Y-81694508D01*
X58980429Y-81763765D01*
X58980425Y-81763773D01*
X58978772Y-81767492D01*
X58946564Y-81810927D01*
X58946069Y-81811355D01*
X58930939Y-81822549D01*
X58835239Y-81882682D01*
X58835236Y-81882684D01*
X58707683Y-82010237D01*
X58611712Y-82162973D01*
X58611710Y-82162976D01*
X58552131Y-82333243D01*
X58552130Y-82333246D01*
X58552127Y-82333268D01*
X58537000Y-82467532D01*
X58537000Y-83957466D01*
X58552127Y-84091730D01*
X58552130Y-84091753D01*
X58552131Y-84091755D01*
X58561566Y-84118716D01*
X58611711Y-84262022D01*
X58707684Y-84414762D01*
X58835238Y-84542316D01*
X58987978Y-84638289D01*
X59158245Y-84697868D01*
X59158250Y-84697869D01*
X59158259Y-84697870D01*
X59158270Y-84697872D01*
X59206224Y-84703274D01*
X59248746Y-84708065D01*
X59289568Y-84712664D01*
X59292011Y-84713000D01*
X60782457Y-84713000D01*
X60792250Y-84713000D01*
X60799845Y-84711040D01*
X60849604Y-84705434D01*
X60909848Y-84698646D01*
X60913308Y-84698452D01*
X60913313Y-84698452D01*
X60916281Y-84698033D01*
X60916753Y-84697868D01*
X60916755Y-84697868D01*
X61087022Y-84638289D01*
X61239762Y-84542316D01*
X61367316Y-84414762D01*
X61463289Y-84262022D01*
X61522868Y-84091755D01*
X61538000Y-83957454D01*
X61538000Y-82467546D01*
X61537999Y-82467539D01*
X61528044Y-82379188D01*
X61528044Y-82379183D01*
X61522871Y-82333263D01*
X61522869Y-82333258D01*
X61522869Y-82333250D01*
X61522868Y-82333245D01*
X61506492Y-82286445D01*
X61497342Y-82260293D01*
X61480991Y-82213566D01*
X61463289Y-82162978D01*
X61463287Y-82162975D01*
X61463287Y-82162974D01*
X61442055Y-82129185D01*
X61442054Y-82129184D01*
X61375013Y-82022488D01*
X61375013Y-82022487D01*
X61372447Y-82018404D01*
X61367316Y-82010238D01*
X61239762Y-81882684D01*
X61151104Y-81826976D01*
X61151102Y-81826974D01*
X61151100Y-81826974D01*
X61124196Y-81804135D01*
X61115000Y-81793739D01*
X61085333Y-81730482D01*
X61094570Y-81661234D01*
X61096225Y-81657510D01*
X61128369Y-81614127D01*
X61128866Y-81613696D01*
X61144048Y-81602455D01*
X61239762Y-81542316D01*
X61367316Y-81414762D01*
X61463289Y-81262022D01*
X61522868Y-81091755D01*
X61524983Y-81072989D01*
X61531952Y-81011131D01*
X61533968Y-80993238D01*
X61538000Y-80957456D01*
X61538000Y-79467543D01*
X61537999Y-79467542D01*
X61532773Y-79421153D01*
X61532773Y-79421152D01*
X61522872Y-79333270D01*
X61522870Y-79333259D01*
X61522869Y-79333250D01*
X61522868Y-79333245D01*
X61494255Y-79251473D01*
X61490139Y-79239710D01*
X61490139Y-79239709D01*
X61463289Y-79162979D01*
X61463289Y-79162978D01*
X61441443Y-79128211D01*
X61392614Y-79050500D01*
X61367316Y-79010238D01*
X61294366Y-78937288D01*
X61273217Y-78909038D01*
X61267795Y-78899108D01*
X61252942Y-78830838D01*
X61277356Y-78765373D01*
X61333286Y-78723501D01*
X61337165Y-78722054D01*
X61340501Y-78720811D01*
X61383815Y-78713000D01*
X61405596Y-78713000D01*
X61405597Y-78713000D01*
X61638868Y-78676053D01*
X61654607Y-78670939D01*
X61863492Y-78603068D01*
X62073934Y-78495843D01*
X62265010Y-78357017D01*
X63182017Y-77440010D01*
X63320843Y-77248934D01*
X63428068Y-77038492D01*
X63501053Y-76813869D01*
X63523656Y-76671158D01*
X63538000Y-76580597D01*
X63538000Y-74392329D01*
X63540364Y-74375890D01*
X63543023Y-74357393D01*
X63547427Y-74342395D01*
X63585172Y-74283644D01*
X63585200Y-74283619D01*
X63585199Y-74283619D01*
X63586541Y-74282456D01*
X63641420Y-74254977D01*
X63648979Y-74253333D01*
X63675332Y-74250500D01*
X80357671Y-74250500D01*
X80392606Y-74255523D01*
X80407604Y-74259927D01*
X80466355Y-74297672D01*
X80466379Y-74297700D01*
X80466382Y-74297702D01*
X80466383Y-74297704D01*
X80467542Y-74299041D01*
X80495018Y-74353902D01*
X80496663Y-74361460D01*
X80499500Y-74387831D01*
X80499500Y-80110265D01*
X80499499Y-80110267D01*
X80499500Y-80110269D01*
X80494914Y-80142158D01*
X80494476Y-80145203D01*
X80490827Y-80157629D01*
X80453051Y-80216406D01*
X80389494Y-80245429D01*
X80325216Y-80237587D01*
X80316627Y-80234101D01*
X80290379Y-80219524D01*
X80286431Y-80216655D01*
X80076000Y-80109434D01*
X80022108Y-80091923D01*
X79851368Y-80036446D01*
X79851362Y-80036445D01*
X79618102Y-79999500D01*
X79618097Y-79999500D01*
X79618092Y-79999500D01*
X79568095Y-79999500D01*
X79331911Y-79999500D01*
X79331906Y-79999500D01*
X79108274Y-80034920D01*
X79108266Y-80034920D01*
X79108267Y-80034921D01*
X79098626Y-80036447D01*
X78886586Y-80105343D01*
X78886570Y-80105350D01*
X78874012Y-80109431D01*
X78874011Y-80109431D01*
X78804457Y-80144869D01*
X78803192Y-80145479D01*
X78800979Y-80145842D01*
X78772304Y-80155615D01*
X78755525Y-80158766D01*
X78688473Y-80152764D01*
X78676035Y-80148023D01*
X78647324Y-80132479D01*
X78642791Y-80129186D01*
X78642790Y-80129184D01*
X78642790Y-80129185D01*
X78573933Y-80079157D01*
X78555859Y-80069948D01*
X78555856Y-80069946D01*
X78487113Y-80034920D01*
X78363496Y-79971933D01*
X78138868Y-79898946D01*
X78138862Y-79898945D01*
X77905602Y-79862000D01*
X77905597Y-79862000D01*
X77905592Y-79862000D01*
X77669408Y-79862000D01*
X77669403Y-79862000D01*
X77669398Y-79862000D01*
X77436136Y-79898945D01*
X77436134Y-79898945D01*
X77436131Y-79898946D01*
X77211503Y-79971933D01*
X77157400Y-79999500D01*
X77001066Y-80079156D01*
X76914354Y-80142158D01*
X76914353Y-80142158D01*
X76821860Y-80209358D01*
X76814481Y-80213490D01*
X76638489Y-80389482D01*
X76634359Y-80396857D01*
X76616951Y-80420818D01*
X76616950Y-80420821D01*
X76504157Y-80576065D01*
X76484585Y-80614477D01*
X76396933Y-80786503D01*
X76323946Y-81011131D01*
X76323946Y-81011133D01*
X76287000Y-81244396D01*
X76287000Y-82357670D01*
X76286999Y-82357676D01*
X76287000Y-82357679D01*
X76281975Y-82392614D01*
X76277570Y-82407612D01*
X76239827Y-82466355D01*
X76239792Y-82466385D01*
X76239791Y-82466387D01*
X76239789Y-82466387D01*
X76238458Y-82467542D01*
X76183597Y-82495018D01*
X76176039Y-82496663D01*
X76149668Y-82499500D01*
X76131898Y-82499500D01*
X75898636Y-82536445D01*
X75898634Y-82536445D01*
X75898631Y-82536446D01*
X75831508Y-82558256D01*
X75673998Y-82609434D01*
X75463572Y-82716653D01*
X75463569Y-82716654D01*
X75463565Y-82716657D01*
X75332202Y-82812099D01*
X75272485Y-82855486D01*
X64855485Y-93272486D01*
X64716657Y-93463564D01*
X64716646Y-93463581D01*
X64716442Y-93463988D01*
X64680517Y-93534497D01*
X64680515Y-93534500D01*
X64609435Y-93673997D01*
X64609433Y-93674001D01*
X64609433Y-93674003D01*
X64536446Y-93898631D01*
X64536445Y-93898634D01*
X64536445Y-93898636D01*
X64499500Y-94131896D01*
X64499500Y-107989423D01*
X64536445Y-108222683D01*
X64536446Y-108222689D01*
X64609433Y-108447317D01*
X64660434Y-108547411D01*
X64716657Y-108657755D01*
X64855483Y-108848831D01*
X78304069Y-122297417D01*
X78495145Y-122436243D01*
X78705587Y-122543468D01*
X78930210Y-122616453D01*
X78930213Y-122616453D01*
X78930214Y-122616454D01*
X79017687Y-122630308D01*
X79017688Y-122630308D01*
X79163482Y-122653400D01*
X79163487Y-122653400D01*
X79399671Y-122653400D01*
X82857671Y-122653400D01*
X82892606Y-122658423D01*
X82907604Y-122662827D01*
X82966355Y-122700572D01*
X82966379Y-122700600D01*
X82966382Y-122700602D01*
X82966383Y-122700604D01*
X82967542Y-122701941D01*
X82995018Y-122756802D01*
X82996663Y-122764360D01*
X82999500Y-122790731D01*
X82999500Y-122868102D01*
X83004014Y-122896600D01*
X83036446Y-123101368D01*
X83109433Y-123325996D01*
X83186635Y-123477512D01*
X83216657Y-123536433D01*
X83355483Y-123727510D01*
X83522490Y-123894517D01*
X83713567Y-124033343D01*
X83751012Y-124052422D01*
X83917560Y-124137283D01*
X83919152Y-124138215D01*
X83922865Y-124140014D01*
X83924862Y-124141007D01*
X83928630Y-124142070D01*
X83976335Y-124157569D01*
X84044410Y-124179688D01*
X84044411Y-124179689D01*
X84044412Y-124179689D01*
X84148631Y-124213553D01*
X84381903Y-124250500D01*
X84381908Y-124250500D01*
X84618096Y-124250500D01*
X84618097Y-124250500D01*
X84851368Y-124213553D01*
X84859053Y-124211056D01*
X84864397Y-124209320D01*
X84864399Y-124209319D01*
X84870376Y-124207377D01*
X85075992Y-124140568D01*
X85286433Y-124033343D01*
X85399198Y-123951412D01*
X85430402Y-123934947D01*
X85451385Y-123927460D01*
X85508948Y-123921272D01*
X85513379Y-123921844D01*
X85520712Y-123923495D01*
X85521137Y-123923471D01*
X85521489Y-123923670D01*
X85535799Y-123926891D01*
X85600566Y-123947936D01*
X85600567Y-123947936D01*
X85611281Y-123951417D01*
X85648631Y-123963553D01*
X85881903Y-124000500D01*
X85881908Y-124000500D01*
X86118096Y-124000500D01*
X86118097Y-124000500D01*
X86351368Y-123963553D01*
X86575992Y-123890568D01*
X86786433Y-123783343D01*
X86977510Y-123644517D01*
X87144517Y-123477510D01*
X87283343Y-123286433D01*
X87390568Y-123075992D01*
X87463553Y-122851368D01*
X87500500Y-122618097D01*
X87500500Y-122565721D01*
X87505522Y-122530788D01*
X87512934Y-122505543D01*
X87544229Y-122452800D01*
X87560788Y-122436242D01*
X87844521Y-122152510D01*
X87983346Y-121961433D01*
X88090571Y-121750992D01*
X88163556Y-121526368D01*
X88200503Y-121293097D01*
X88200503Y-121056902D01*
X88163556Y-120823634D01*
X88163556Y-120823631D01*
X88090571Y-120599008D01*
X88090569Y-120599005D01*
X88090569Y-120599003D01*
X87983345Y-120388565D01*
X87844521Y-120197490D01*
X87677513Y-120030482D01*
X87486437Y-119891657D01*
X87275999Y-119784433D01*
X87064898Y-119715841D01*
X87064887Y-119715838D01*
X87051372Y-119711447D01*
X87051370Y-119711446D01*
X87051368Y-119711446D01*
X87036971Y-119709165D01*
X87036964Y-119709164D01*
X86861965Y-119681447D01*
X86818100Y-119674500D01*
X86818099Y-119674500D01*
X85050159Y-119674500D01*
X85040422Y-119674117D01*
X85030723Y-119673353D01*
X85021062Y-119672209D01*
X84931078Y-119657957D01*
X84895994Y-119652400D01*
X84895993Y-119652400D01*
X79972298Y-119652400D01*
X79972297Y-119652399D01*
X79972297Y-119652400D01*
X79937362Y-119647377D01*
X79912120Y-119639965D01*
X79859375Y-119608669D01*
X67549426Y-107298720D01*
X67528274Y-107270464D01*
X67515667Y-107247375D01*
X67500500Y-107187950D01*
X67500500Y-101256896D01*
X70284100Y-101256896D01*
X70284100Y-101493102D01*
X70321045Y-101726362D01*
X70321046Y-101726368D01*
X70394033Y-101950996D01*
X70501257Y-102161433D01*
X70640083Y-102352510D01*
X70807090Y-102519517D01*
X70998167Y-102658343D01*
X71030623Y-102674880D01*
X71202160Y-102762283D01*
X71203752Y-102763215D01*
X71207465Y-102765014D01*
X71209462Y-102766007D01*
X71213230Y-102767070D01*
X71260935Y-102782569D01*
X71329010Y-102804688D01*
X71329011Y-102804689D01*
X71329012Y-102804689D01*
X71433231Y-102838553D01*
X71666503Y-102875500D01*
X71666508Y-102875500D01*
X71902696Y-102875500D01*
X71902697Y-102875500D01*
X72135968Y-102838553D01*
X72165855Y-102828842D01*
X72360592Y-102765568D01*
X72571033Y-102658343D01*
X72762110Y-102519517D01*
X72929117Y-102352510D01*
X73067943Y-102161433D01*
X73175168Y-101950992D01*
X73248153Y-101726368D01*
X73285100Y-101493097D01*
X73285100Y-101256902D01*
X73248153Y-101023631D01*
X73198503Y-100870827D01*
X73176669Y-100803629D01*
X73175607Y-100799862D01*
X73174614Y-100797865D01*
X73172815Y-100794152D01*
X73171883Y-100792560D01*
X73088632Y-100629172D01*
X73067943Y-100588567D01*
X72929117Y-100397490D01*
X72762110Y-100230483D01*
X72571033Y-100091657D01*
X72360596Y-99984433D01*
X72135968Y-99911446D01*
X72135962Y-99911445D01*
X71902702Y-99874500D01*
X71902697Y-99874500D01*
X71902692Y-99874500D01*
X71666508Y-99874500D01*
X71666503Y-99874500D01*
X71666498Y-99874500D01*
X71433236Y-99911445D01*
X71433234Y-99911445D01*
X71433231Y-99911446D01*
X71208603Y-99984433D01*
X71137572Y-100020625D01*
X70998166Y-100091656D01*
X70947852Y-100128213D01*
X70947851Y-100128213D01*
X70818960Y-100221858D01*
X70811581Y-100225990D01*
X70635591Y-100401980D01*
X70631458Y-100409361D01*
X70580462Y-100479550D01*
X70580461Y-100479549D01*
X70501259Y-100588562D01*
X70501257Y-100588566D01*
X70394033Y-100799003D01*
X70321046Y-101023631D01*
X70321045Y-101023634D01*
X70321045Y-101023636D01*
X70284100Y-101256896D01*
X67500500Y-101256896D01*
X67500500Y-94940718D01*
X67505522Y-94905785D01*
X67512934Y-94880540D01*
X67544228Y-94827798D01*
X76822603Y-85549423D01*
X76850853Y-85528275D01*
X76873945Y-85515667D01*
X76933370Y-85500500D01*
X79118096Y-85500500D01*
X79118097Y-85500500D01*
X79351368Y-85463553D01*
X79386118Y-85452262D01*
X79575992Y-85390568D01*
X79786434Y-85283343D01*
X79977510Y-85144517D01*
X80275214Y-84846812D01*
X80303457Y-84825668D01*
X80313391Y-84820244D01*
X80381661Y-84805391D01*
X80447126Y-84829805D01*
X80488999Y-84885737D01*
X80489001Y-84885741D01*
X80491682Y-84892929D01*
X80499500Y-84936263D01*
X80499500Y-88368102D01*
X80536445Y-88601362D01*
X80536446Y-88601368D01*
X80609433Y-88825996D01*
X80609434Y-88825997D01*
X80647734Y-88901167D01*
X80647735Y-88901167D01*
X80716657Y-89036434D01*
X80835132Y-89199500D01*
X80855484Y-89227511D01*
X80855487Y-89227514D01*
X80855490Y-89227518D01*
X88176732Y-96548759D01*
X95450574Y-103822601D01*
X95471723Y-103850852D01*
X95484331Y-103873941D01*
X95499500Y-103933370D01*
X95499500Y-114309280D01*
X95494476Y-114344217D01*
X95487064Y-114369458D01*
X95455769Y-114422202D01*
X93315641Y-116562329D01*
X93291143Y-116581344D01*
X93289273Y-116582451D01*
X93284541Y-116585035D01*
X93283826Y-116585676D01*
X93278309Y-116588944D01*
X93249126Y-116596365D01*
X93220636Y-116606126D01*
X93215608Y-116604889D01*
X93210595Y-116606165D01*
X93182062Y-116596641D01*
X93162522Y-116591837D01*
X93161723Y-116593673D01*
X93160667Y-116593213D01*
X93157563Y-116590618D01*
X93152801Y-116589447D01*
X93148919Y-116587190D01*
X93149703Y-116585841D01*
X93144319Y-116584044D01*
X93133258Y-116570295D01*
X93107068Y-116548395D01*
X93106270Y-116547201D01*
X93091069Y-116515407D01*
X93081164Y-116483770D01*
X93075500Y-116446721D01*
X93075500Y-109760652D01*
X93075501Y-109760601D01*
X93075501Y-109590144D01*
X93064313Y-109548391D01*
X93034577Y-109437416D01*
X93034573Y-109437409D01*
X92955524Y-109300490D01*
X92955518Y-109300482D01*
X92955514Y-109300478D01*
X92955513Y-109300476D01*
X92822184Y-109167147D01*
X92822182Y-109167146D01*
X92801030Y-109138892D01*
X92785140Y-109109792D01*
X92772357Y-109074560D01*
X92745398Y-108939029D01*
X92744984Y-108936604D01*
X92744737Y-108935704D01*
X92708754Y-108848831D01*
X92684402Y-108790040D01*
X92684399Y-108790033D01*
X92684397Y-108790027D01*
X92684390Y-108790014D01*
X92596789Y-108658911D01*
X92596786Y-108658907D01*
X92596781Y-108658901D01*
X92485297Y-108547417D01*
X92485290Y-108547411D01*
X92354191Y-108459813D01*
X92354190Y-108459812D01*
X92354185Y-108459809D01*
X92354172Y-108459802D01*
X92354165Y-108459798D01*
X92208502Y-108399464D01*
X92208471Y-108399457D01*
X92053847Y-108368700D01*
X92053845Y-108368700D01*
X92053842Y-108368700D01*
X91896158Y-108368700D01*
X91896155Y-108368700D01*
X91896153Y-108368700D01*
X91741527Y-108399457D01*
X91741496Y-108399464D01*
X91595833Y-108459798D01*
X91595824Y-108459803D01*
X91595807Y-108459813D01*
X91464709Y-108547411D01*
X91464701Y-108547417D01*
X91353217Y-108658901D01*
X91353212Y-108658907D01*
X91353211Y-108658908D01*
X91265613Y-108790007D01*
X91265603Y-108790024D01*
X91265598Y-108790033D01*
X91205264Y-108935696D01*
X91205257Y-108935727D01*
X91174500Y-109090350D01*
X91174500Y-109090353D01*
X91174500Y-109248046D01*
X91174500Y-109248048D01*
X91174499Y-109248048D01*
X91205257Y-109402671D01*
X91205264Y-109402702D01*
X91265598Y-109548365D01*
X91265603Y-109548374D01*
X91265613Y-109548391D01*
X91353211Y-109679490D01*
X91353219Y-109679502D01*
X91355855Y-109683016D01*
X91355452Y-109683317D01*
X91366267Y-109698887D01*
X91372603Y-109710490D01*
X91387456Y-109778763D01*
X91363041Y-109844228D01*
X91307108Y-109886100D01*
X91307106Y-109886101D01*
X91299918Y-109888782D01*
X91256584Y-109896600D01*
X91056898Y-109896600D01*
X90823636Y-109933545D01*
X90823634Y-109933545D01*
X90823631Y-109933546D01*
X90599003Y-110006533D01*
X90511696Y-110051019D01*
X90388559Y-110113761D01*
X90197513Y-110252563D01*
X90197487Y-110252583D01*
X89830486Y-110619585D01*
X89830485Y-110619586D01*
X89691659Y-110810661D01*
X89691658Y-110810663D01*
X89604141Y-110982427D01*
X89604139Y-110982429D01*
X89584434Y-111021099D01*
X89584433Y-111021101D01*
X89511445Y-111245734D01*
X89474500Y-111478996D01*
X89474500Y-117782723D01*
X89511445Y-118015983D01*
X89511446Y-118015989D01*
X89566923Y-118186729D01*
X89584434Y-118240621D01*
X89684319Y-118436653D01*
X89691657Y-118451055D01*
X89830484Y-118642132D01*
X89830485Y-118642133D01*
X90876170Y-119687819D01*
X90876175Y-119687823D01*
X91009147Y-119784432D01*
X91067246Y-119826643D01*
X91194843Y-119891657D01*
X91277682Y-119933866D01*
X91278555Y-119934311D01*
X91282309Y-119935370D01*
X91330014Y-119950869D01*
X91398089Y-119972988D01*
X91398090Y-119972989D01*
X91398091Y-119972989D01*
X91502310Y-120006853D01*
X91735582Y-120043800D01*
X91735587Y-120043800D01*
X93574796Y-120043800D01*
X93574797Y-120043800D01*
X93808068Y-120006853D01*
X94032692Y-119933868D01*
X94243134Y-119826643D01*
X94434210Y-119687817D01*
X98144517Y-115977510D01*
X98283343Y-115786433D01*
X98390568Y-115575992D01*
X98463553Y-115351368D01*
X98500500Y-115118097D01*
X98500500Y-105553090D01*
X98520185Y-105486051D01*
X98572989Y-105440296D01*
X98642147Y-105430352D01*
X98705703Y-105459377D01*
X98706426Y-105460009D01*
X108161426Y-113802656D01*
X108302069Y-113926753D01*
X108337629Y-113955381D01*
X108337647Y-113955394D01*
X108355695Y-113968625D01*
X108393704Y-113993932D01*
X108457058Y-114032101D01*
X108488761Y-114047488D01*
X108539113Y-114071928D01*
X108539120Y-114071931D01*
X108539135Y-114071938D01*
X108580833Y-114087705D01*
X108580836Y-114087706D01*
X108580842Y-114087708D01*
X108641793Y-114104650D01*
X108668737Y-114112140D01*
X108668739Y-114112141D01*
X108668741Y-114112141D01*
X108668747Y-114112143D01*
X108741504Y-114125439D01*
X108786756Y-114131611D01*
X108809047Y-114133631D01*
X108854668Y-114135694D01*
X110017775Y-114135694D01*
X110017789Y-114135694D01*
X110067345Y-114133259D01*
X110091536Y-114130876D01*
X110130935Y-114125031D01*
X110140580Y-114123601D01*
X110140583Y-114123600D01*
X110140599Y-114123598D01*
X110219231Y-114107957D01*
X110314050Y-114079195D01*
X110358749Y-114060681D01*
X110446153Y-114013963D01*
X110474530Y-113995002D01*
X110474533Y-113995000D01*
X110502468Y-113976334D01*
X110579060Y-113913477D01*
X110613273Y-113879265D01*
X110676146Y-113802655D01*
X110713772Y-113746343D01*
X110760487Y-113658943D01*
X110779001Y-113614244D01*
X110807763Y-113519425D01*
X110823404Y-113440793D01*
X110830682Y-113391730D01*
X110833065Y-113367539D01*
X110835500Y-113317983D01*
X110835500Y-107942404D01*
X110833065Y-107892848D01*
X110830682Y-107868657D01*
X110825300Y-107832373D01*
X110823407Y-107819612D01*
X110823405Y-107819605D01*
X110823404Y-107819594D01*
X110807763Y-107740962D01*
X110779001Y-107646143D01*
X110773274Y-107632316D01*
X110760488Y-107601446D01*
X110755577Y-107592259D01*
X110733270Y-107550525D01*
X110713774Y-107514050D01*
X110713773Y-107514048D01*
X110713768Y-107514039D01*
X110676139Y-107457724D01*
X110613275Y-107381125D01*
X110613274Y-107381124D01*
X110613270Y-107381119D01*
X110579073Y-107346922D01*
X110520339Y-107298720D01*
X110502469Y-107284054D01*
X110446151Y-107246423D01*
X110446150Y-107246422D01*
X110446148Y-107246421D01*
X110358751Y-107199706D01*
X110358748Y-107199705D01*
X110314071Y-107181199D01*
X110314068Y-107181198D01*
X110314063Y-107181196D01*
X110277416Y-107170079D01*
X110219234Y-107152430D01*
X110140580Y-107136786D01*
X110091513Y-107129508D01*
X110067329Y-107127127D01*
X110049073Y-107126230D01*
X110017789Y-107124694D01*
X110017777Y-107124694D01*
X109159500Y-107124694D01*
X109092461Y-107105009D01*
X109046706Y-107052205D01*
X109035500Y-107000694D01*
X109035500Y-105890939D01*
X109055185Y-105823900D01*
X109071819Y-105803258D01*
X109855319Y-105019758D01*
X109916642Y-104986273D01*
X109986334Y-104991257D01*
X110042267Y-105033129D01*
X110066684Y-105098593D01*
X110067000Y-105107439D01*
X110067000Y-105246540D01*
X110067000Y-105246542D01*
X110066999Y-105246542D01*
X110097757Y-105401165D01*
X110097764Y-105401196D01*
X110158098Y-105546859D01*
X110158103Y-105546868D01*
X110158113Y-105546885D01*
X110245711Y-105677984D01*
X110245712Y-105677985D01*
X110245717Y-105677991D01*
X110357201Y-105789475D01*
X110357207Y-105789480D01*
X110357211Y-105789483D01*
X110488314Y-105877084D01*
X110488327Y-105877091D01*
X110594704Y-105921153D01*
X110634003Y-105937431D01*
X110698647Y-105950289D01*
X110771864Y-105964853D01*
X110805144Y-105976595D01*
X110834521Y-105991962D01*
X110864727Y-106014156D01*
X115644085Y-110793514D01*
X115644106Y-110793536D01*
X115645149Y-110794579D01*
X115649479Y-110798909D01*
X115649480Y-110798910D01*
X115761284Y-110910714D01*
X115845601Y-110959394D01*
X115845602Y-110959395D01*
X115884075Y-110981607D01*
X115890605Y-110986618D01*
X115896364Y-110989004D01*
X115900031Y-110990593D01*
X115903177Y-110992016D01*
X115905727Y-110992882D01*
X115905819Y-110992920D01*
X115913974Y-110993993D01*
X116050943Y-111030695D01*
X116050946Y-111030695D01*
X116216653Y-111030695D01*
X116218557Y-111030695D01*
X116218620Y-111030694D01*
X122732404Y-111030694D01*
X122767336Y-111035715D01*
X122799150Y-111045057D01*
X122833098Y-111060929D01*
X122950814Y-111139584D01*
X122950827Y-111139591D01*
X123096498Y-111199929D01*
X123096503Y-111199931D01*
X123251153Y-111230693D01*
X123251156Y-111230694D01*
X123251158Y-111230694D01*
X123408844Y-111230694D01*
X123408845Y-111230693D01*
X123563497Y-111199931D01*
X123709179Y-111139588D01*
X123840289Y-111051983D01*
X123951789Y-110940483D01*
X124039394Y-110809373D01*
X124099737Y-110663691D01*
X124130500Y-110509036D01*
X124130500Y-110351352D01*
X124130500Y-110351349D01*
X124130500Y-110351167D01*
X124130065Y-110349166D01*
X124110853Y-110252583D01*
X124100395Y-110200010D01*
X124099994Y-110197661D01*
X124099738Y-110196702D01*
X124099737Y-110196700D01*
X124099737Y-110196697D01*
X124099735Y-110196692D01*
X124039397Y-110051021D01*
X124039390Y-110051008D01*
X123951789Y-109919905D01*
X123951786Y-109919901D01*
X123951781Y-109919895D01*
X123840297Y-109808411D01*
X123840291Y-109808406D01*
X123840290Y-109808405D01*
X123709191Y-109720807D01*
X123709190Y-109720806D01*
X123709185Y-109720803D01*
X123709172Y-109720796D01*
X123709165Y-109720792D01*
X123563502Y-109660458D01*
X123563471Y-109660451D01*
X123408847Y-109629694D01*
X123408845Y-109629694D01*
X123408842Y-109629694D01*
X123251158Y-109629694D01*
X123251155Y-109629694D01*
X123251153Y-109629694D01*
X123096527Y-109660451D01*
X123096496Y-109660458D01*
X122950833Y-109720792D01*
X122950824Y-109720797D01*
X122950797Y-109720813D01*
X122833953Y-109798885D01*
X122833952Y-109798888D01*
X122802115Y-109814121D01*
X122770478Y-109824028D01*
X122733422Y-109829694D01*
X116447927Y-109829694D01*
X116412991Y-109824671D01*
X116387749Y-109817259D01*
X116335004Y-109785963D01*
X111714682Y-105165641D01*
X111699057Y-105146544D01*
X111696093Y-105142079D01*
X111693011Y-105136435D01*
X111690878Y-105134225D01*
X111684636Y-105124822D01*
X111677545Y-105101939D01*
X111666325Y-105080429D01*
X111654257Y-105019758D01*
X111638244Y-104939257D01*
X111637896Y-104937511D01*
X111637484Y-104935099D01*
X111637237Y-104934198D01*
X111593598Y-104828842D01*
X111593597Y-104828840D01*
X111576897Y-104788521D01*
X111576890Y-104788508D01*
X111489289Y-104657405D01*
X111489286Y-104657401D01*
X111489281Y-104657395D01*
X111377797Y-104545911D01*
X111377791Y-104545906D01*
X111377790Y-104545905D01*
X111315816Y-104504495D01*
X111246685Y-104458303D01*
X111246682Y-104458301D01*
X111244233Y-104456665D01*
X111245062Y-104455423D01*
X111201661Y-104408295D01*
X111189631Y-104339469D01*
X111216720Y-104275065D01*
X111216729Y-104275052D01*
X111276146Y-104202655D01*
X111313772Y-104146343D01*
X111349462Y-104083666D01*
X111364694Y-104051828D01*
X111391102Y-103984707D01*
X111393376Y-103970667D01*
X111397113Y-103954527D01*
X111407763Y-103919425D01*
X111423404Y-103840793D01*
X111430682Y-103791730D01*
X111433065Y-103767539D01*
X111435500Y-103717983D01*
X111435500Y-102942404D01*
X111433065Y-102892848D01*
X111430682Y-102868657D01*
X111423404Y-102819594D01*
X111407763Y-102740962D01*
X111379001Y-102646143D01*
X111360487Y-102601444D01*
X111359557Y-102599705D01*
X111313775Y-102514051D01*
X111313774Y-102514049D01*
X111313769Y-102514040D01*
X111276139Y-102457723D01*
X111276136Y-102457718D01*
X111276129Y-102457709D01*
X111231896Y-102400769D01*
X111231886Y-102400758D01*
X111208321Y-102374523D01*
X111208312Y-102374514D01*
X111156428Y-102324447D01*
X111156425Y-102324445D01*
X111144324Y-102316969D01*
X111130830Y-102307329D01*
X111102476Y-102284059D01*
X111102466Y-102284051D01*
X111060514Y-102256020D01*
X111046151Y-102246423D01*
X111046148Y-102246421D01*
X111046146Y-102246420D01*
X110958751Y-102199706D01*
X110958748Y-102199705D01*
X110914071Y-102181199D01*
X110914068Y-102181198D01*
X110914063Y-102181196D01*
X110877416Y-102170079D01*
X110819234Y-102152430D01*
X110740580Y-102136786D01*
X110691513Y-102129508D01*
X110667329Y-102127127D01*
X110648714Y-102126213D01*
X110617789Y-102124694D01*
X110617777Y-102124694D01*
X110148344Y-102124694D01*
X110141474Y-102124741D01*
X110137949Y-102124789D01*
X110132109Y-102124909D01*
X110131014Y-102124932D01*
X110130993Y-102124932D01*
X110130924Y-102124934D01*
X110127974Y-102125015D01*
X110127928Y-102125015D01*
X110119507Y-102125249D01*
X110105466Y-102125833D01*
X110105453Y-102125833D01*
X110105446Y-102125834D01*
X110102747Y-102125983D01*
X110098610Y-102126213D01*
X110084666Y-102127179D01*
X110073296Y-102128125D01*
X110066380Y-102128748D01*
X110063100Y-102129065D01*
X110056116Y-102129792D01*
X108407421Y-102312980D01*
X108407422Y-102312981D01*
X106508827Y-102523936D01*
X106495133Y-102524694D01*
X98842211Y-102524694D01*
X98815647Y-102525998D01*
X98792690Y-102527125D01*
X98792652Y-102527128D01*
X98768528Y-102529503D01*
X98768500Y-102529506D01*
X98768497Y-102529507D01*
X98768488Y-102529508D01*
X98768483Y-102529509D01*
X98719433Y-102536784D01*
X98719418Y-102536786D01*
X98719411Y-102536788D01*
X98681475Y-102544333D01*
X98640765Y-102552431D01*
X98640763Y-102552431D01*
X98545936Y-102581196D01*
X98501257Y-102599701D01*
X98496017Y-102602502D01*
X98427612Y-102616735D01*
X98362372Y-102591726D01*
X98327093Y-102549431D01*
X98311851Y-102519517D01*
X98283343Y-102463566D01*
X98144517Y-102272490D01*
X83549421Y-87677394D01*
X83528274Y-87649143D01*
X83515667Y-87626054D01*
X83500500Y-87566629D01*
X83500500Y-84689718D01*
X83505521Y-84654791D01*
X83508707Y-84643938D01*
X83546477Y-84585157D01*
X83610031Y-84556128D01*
X83679186Y-84566066D01*
X83686172Y-84569256D01*
X83722342Y-84594369D01*
X85772490Y-86644517D01*
X85963566Y-86783343D01*
X86174008Y-86890568D01*
X86398631Y-86963553D01*
X86398634Y-86963553D01*
X86398635Y-86963554D01*
X86486108Y-86977408D01*
X86486109Y-86977408D01*
X86631903Y-87000500D01*
X86631908Y-87000500D01*
X92868096Y-87000500D01*
X92868097Y-87000500D01*
X93101368Y-86963553D01*
X93325992Y-86890568D01*
X93536434Y-86783343D01*
X93727510Y-86644517D01*
X98919237Y-81452788D01*
X98980558Y-81419305D01*
X99050250Y-81424289D01*
X99088957Y-81447491D01*
X106041991Y-87582520D01*
X106079236Y-87641635D01*
X106078609Y-87711502D01*
X106040308Y-87769938D01*
X105976494Y-87798391D01*
X105959950Y-87799500D01*
X92831908Y-87799500D01*
X92831903Y-87799500D01*
X92754145Y-87811815D01*
X92598628Y-87836447D01*
X92433035Y-87890251D01*
X92391087Y-87903881D01*
X92374007Y-87909432D01*
X92374001Y-87909434D01*
X92373998Y-87909435D01*
X92373996Y-87909436D01*
X92163572Y-88016653D01*
X92163569Y-88016654D01*
X92163565Y-88016657D01*
X92010365Y-88127963D01*
X91972485Y-88155486D01*
X91677399Y-88450573D01*
X91649148Y-88471722D01*
X91626060Y-88484330D01*
X91566630Y-88499500D01*
X90276100Y-88499500D01*
X90205054Y-88510752D01*
X90205055Y-88510753D01*
X90187290Y-88513567D01*
X90187288Y-88513567D01*
X90042830Y-88536447D01*
X89818206Y-88609432D01*
X89818203Y-88609433D01*
X89687976Y-88675788D01*
X89607759Y-88716661D01*
X89416713Y-88855463D01*
X89416687Y-88855483D01*
X88677586Y-89594585D01*
X88677585Y-89594587D01*
X88677584Y-89594588D01*
X88538757Y-89785665D01*
X88538754Y-89785669D01*
X88538753Y-89785672D01*
X88431534Y-89996098D01*
X88405578Y-90075983D01*
X88358546Y-90220731D01*
X88358545Y-90220734D01*
X88358545Y-90220736D01*
X88321600Y-90453996D01*
X88321600Y-90690202D01*
X88346819Y-90849426D01*
X88358546Y-90923468D01*
X88431533Y-91148096D01*
X88500445Y-91283342D01*
X88538757Y-91358534D01*
X88677583Y-91549610D01*
X88844590Y-91716617D01*
X89035666Y-91855443D01*
X89135092Y-91906103D01*
X89239654Y-91959380D01*
X89239653Y-91959380D01*
X89246977Y-91963111D01*
X89250730Y-91964170D01*
X89298435Y-91979669D01*
X89366510Y-92001788D01*
X89366511Y-92001789D01*
X89366512Y-92001789D01*
X89470731Y-92035653D01*
X89704003Y-92072600D01*
X89704008Y-92072600D01*
X89940196Y-92072600D01*
X89940197Y-92072600D01*
X90173468Y-92035653D01*
X90398092Y-91962668D01*
X90608534Y-91855443D01*
X90799610Y-91716617D01*
X90966808Y-91549418D01*
X90995053Y-91528275D01*
X91018145Y-91515667D01*
X91077570Y-91500500D01*
X92368096Y-91500500D01*
X92368097Y-91500500D01*
X92601368Y-91463553D01*
X92825992Y-91390568D01*
X93036434Y-91283343D01*
X93227510Y-91144517D01*
X93522608Y-90849418D01*
X93550853Y-90828275D01*
X93573945Y-90815667D01*
X93633370Y-90800500D01*
X117534862Y-90800500D01*
X117569789Y-90805521D01*
X117580642Y-90808707D01*
X117639423Y-90846477D01*
X117668452Y-90910031D01*
X117658513Y-90979190D01*
X117658512Y-90979192D01*
X117655327Y-90986167D01*
X117630211Y-91022342D01*
X114882228Y-93770323D01*
X114811033Y-93876875D01*
X114762002Y-93995245D01*
X114761995Y-93995265D01*
X114761993Y-93995273D01*
X114737000Y-94120923D01*
X114737000Y-103399928D01*
X114736999Y-103399931D01*
X114737000Y-103399933D01*
X114731976Y-103434867D01*
X114722635Y-103466675D01*
X114706762Y-103500625D01*
X114678112Y-103543503D01*
X114678097Y-103543530D01*
X114617764Y-103689190D01*
X114617757Y-103689221D01*
X114587000Y-103843844D01*
X114587000Y-103843847D01*
X114587000Y-104001540D01*
X114587000Y-104001542D01*
X114586999Y-104001542D01*
X114617757Y-104156165D01*
X114617764Y-104156196D01*
X114678098Y-104301859D01*
X114678103Y-104301868D01*
X114678113Y-104301885D01*
X114765711Y-104432984D01*
X114765712Y-104432985D01*
X114765717Y-104432991D01*
X114877201Y-104544475D01*
X114877207Y-104544480D01*
X114877211Y-104544483D01*
X115008314Y-104632084D01*
X115008327Y-104632091D01*
X115153998Y-104692429D01*
X115154003Y-104692431D01*
X115308653Y-104723193D01*
X115308656Y-104723194D01*
X115308658Y-104723194D01*
X115466344Y-104723194D01*
X115466345Y-104723193D01*
X115620997Y-104692431D01*
X115766679Y-104632088D01*
X115897789Y-104544483D01*
X115897798Y-104544473D01*
X115902420Y-104540681D01*
X115966727Y-104513361D01*
X116035596Y-104525145D01*
X116050571Y-104533818D01*
X118183370Y-105976595D01*
X120798379Y-107745573D01*
X120798386Y-107745578D01*
X121159113Y-107989599D01*
X121159134Y-107989613D01*
X121159139Y-107989616D01*
X121174870Y-107999837D01*
X121174885Y-107999846D01*
X121174886Y-107999847D01*
X121182681Y-108004709D01*
X121198866Y-108014389D01*
X121203803Y-108017218D01*
X121206833Y-108018954D01*
X121223309Y-108027994D01*
X121231468Y-108032275D01*
X121231488Y-108032285D01*
X121248237Y-108040680D01*
X121255483Y-108044145D01*
X121290863Y-108061064D01*
X121325335Y-108076002D01*
X121342493Y-108082691D01*
X121377967Y-108095023D01*
X121395435Y-108100377D01*
X121395442Y-108100379D01*
X121404618Y-108102822D01*
X121431742Y-108110044D01*
X121441852Y-108112337D01*
X121449695Y-108114117D01*
X121449706Y-108114119D01*
X121486635Y-108121064D01*
X121516357Y-108125517D01*
X121516360Y-108125518D01*
X121523818Y-108126635D01*
X121526718Y-108127070D01*
X121526719Y-108127070D01*
X121527200Y-108127142D01*
X121527200Y-108127141D01*
X121527281Y-108127153D01*
X121527301Y-108127157D01*
X121527522Y-108127190D01*
X121568744Y-108133366D01*
X121578435Y-108133139D01*
X121579797Y-108133266D01*
X121588983Y-108133951D01*
X121607784Y-108135002D01*
X121617005Y-108135345D01*
X121635795Y-108135694D01*
X125411676Y-108135694D01*
X125411693Y-108135694D01*
X125436522Y-108135084D01*
X125448682Y-108134486D01*
X125448686Y-108134485D01*
X125448700Y-108134485D01*
X125459807Y-108133664D01*
X125473426Y-108132659D01*
X125485502Y-108131469D01*
X125510116Y-108128432D01*
X125510126Y-108128430D01*
X125510130Y-108128430D01*
X125512515Y-108128076D01*
X125522147Y-108126647D01*
X125546576Y-108122408D01*
X125607247Y-108110340D01*
X125655375Y-108098285D01*
X125678638Y-108091228D01*
X125725347Y-108074514D01*
X125725361Y-108074507D01*
X125725372Y-108074504D01*
X125732823Y-108071416D01*
X125747482Y-108065345D01*
X125792316Y-108044140D01*
X125813751Y-108032683D01*
X125856299Y-108007182D01*
X125874489Y-107995027D01*
X125892272Y-107983147D01*
X125892287Y-107983135D01*
X125892304Y-107983125D01*
X125932152Y-107953572D01*
X125950944Y-107938150D01*
X125987703Y-107904833D01*
X126004639Y-107887897D01*
X126037947Y-107851149D01*
X126053369Y-107832358D01*
X126082928Y-107792502D01*
X126108843Y-107753717D01*
X126127800Y-107723030D01*
X126136550Y-107707665D01*
X126153265Y-107675714D01*
X126156452Y-107669054D01*
X126162286Y-107654700D01*
X126174224Y-107625785D01*
X126174316Y-107625564D01*
X126185687Y-107598169D01*
X126187177Y-107592259D01*
X126188060Y-107589538D01*
X126189559Y-107584924D01*
X126189584Y-107584844D01*
X126189702Y-107584482D01*
X126189702Y-107584481D01*
X126189718Y-107584432D01*
X126191406Y-107579240D01*
X126191412Y-107579221D01*
X126199804Y-107550550D01*
X126203487Y-107536433D01*
X126210146Y-107507442D01*
X126222214Y-107446772D01*
X126226453Y-107422341D01*
X126228238Y-107410310D01*
X126231275Y-107385696D01*
X126232465Y-107373620D01*
X126234292Y-107348876D01*
X126234890Y-107336716D01*
X126235500Y-107311887D01*
X126235500Y-97748499D01*
X126234890Y-97723670D01*
X126234292Y-97711510D01*
X126234291Y-97711498D01*
X126234290Y-97711475D01*
X126232468Y-97686811D01*
X126232465Y-97686766D01*
X126231275Y-97674690D01*
X126228238Y-97650076D01*
X126226453Y-97638045D01*
X126222214Y-97613616D01*
X126210146Y-97552945D01*
X126198095Y-97504831D01*
X126191039Y-97481569D01*
X126174324Y-97434853D01*
X126174322Y-97434849D01*
X126170779Y-97426295D01*
X126165155Y-97412717D01*
X126143944Y-97367870D01*
X126132485Y-97346432D01*
X126106981Y-97303882D01*
X126081064Y-97265095D01*
X126059972Y-97235844D01*
X126049123Y-97221877D01*
X126025973Y-97194175D01*
X126024137Y-97192131D01*
X126021047Y-97188691D01*
X126005831Y-97173677D01*
X126005242Y-97173092D01*
X125987702Y-97155552D01*
X125986736Y-97154677D01*
X125982889Y-97151039D01*
X125977705Y-97145924D01*
X125977701Y-97145920D01*
X125960832Y-97131171D01*
X125960829Y-97131169D01*
X125960004Y-97130447D01*
X125950953Y-97122244D01*
X125945551Y-97117810D01*
X125944075Y-97116520D01*
X125944074Y-97116519D01*
X125935294Y-97108843D01*
X125933486Y-97107614D01*
X125933369Y-97107765D01*
X125932182Y-97106839D01*
X125932163Y-97106823D01*
X125921170Y-97098669D01*
X125892335Y-97077282D01*
X125892323Y-97077274D01*
X125892315Y-97077268D01*
X125869097Y-97061754D01*
X125856315Y-97053213D01*
X125856305Y-97053207D01*
X125856304Y-97053206D01*
X125834866Y-97040357D01*
X125813753Y-97027702D01*
X125813734Y-97027691D01*
X125792327Y-97016249D01*
X125792318Y-97016244D01*
X125747458Y-96995028D01*
X125747447Y-96995023D01*
X125725354Y-96985872D01*
X125725311Y-96985856D01*
X125678656Y-96969163D01*
X125655400Y-96962109D01*
X125655384Y-96962104D01*
X125655381Y-96962103D01*
X125655377Y-96962102D01*
X125655368Y-96962099D01*
X125607249Y-96950046D01*
X125607238Y-96950044D01*
X125546545Y-96937972D01*
X125522083Y-96933730D01*
X125522085Y-96933730D01*
X125522066Y-96933727D01*
X125510025Y-96931942D01*
X125510018Y-96931941D01*
X125509997Y-96931938D01*
X125485424Y-96928909D01*
X125473391Y-96927724D01*
X125448671Y-96925900D01*
X125436515Y-96925303D01*
X125432377Y-96925201D01*
X125411702Y-96924694D01*
X125411687Y-96924694D01*
X118648303Y-96924694D01*
X118648297Y-96924694D01*
X118644747Y-96924780D01*
X118623535Y-96925300D01*
X118614935Y-96925722D01*
X118611380Y-96925897D01*
X118611367Y-96925897D01*
X118611366Y-96925898D01*
X118586603Y-96927724D01*
X118574507Y-96928915D01*
X118549950Y-96931943D01*
X118537952Y-96933721D01*
X118513434Y-96937975D01*
X118452766Y-96950042D01*
X118452722Y-96950052D01*
X118404606Y-96962105D01*
X118404591Y-96962109D01*
X118381358Y-96969157D01*
X118334708Y-96985847D01*
X118334690Y-96985854D01*
X118312543Y-96995026D01*
X118267687Y-97016240D01*
X118246261Y-97027692D01*
X118203671Y-97053220D01*
X118203670Y-97053221D01*
X118167690Y-97077262D01*
X118167673Y-97077275D01*
X118127834Y-97106822D01*
X118127812Y-97106839D01*
X118109053Y-97122235D01*
X118072279Y-97155566D01*
X118055372Y-97172473D01*
X118022041Y-97209247D01*
X118006645Y-97228006D01*
X118006628Y-97228028D01*
X117977081Y-97267867D01*
X117977075Y-97267874D01*
X117953013Y-97303886D01*
X117953002Y-97303904D01*
X117927495Y-97346463D01*
X117916032Y-97367911D01*
X117916019Y-97367937D01*
X117894853Y-97412693D01*
X117894826Y-97412755D01*
X117885685Y-97434821D01*
X117885675Y-97434849D01*
X117868964Y-97481553D01*
X117861920Y-97504773D01*
X117861911Y-97504804D01*
X117849855Y-97552930D01*
X117849849Y-97552956D01*
X117831463Y-97645402D01*
X117830837Y-97657552D01*
X117828713Y-97674783D01*
X117827529Y-97686802D01*
X117825707Y-97711517D01*
X117825109Y-97723679D01*
X117824500Y-97748506D01*
X117824500Y-99098156D01*
X117804815Y-99165195D01*
X117770521Y-99200494D01*
X116232021Y-100253151D01*
X116165577Y-100274761D01*
X116097998Y-100257019D01*
X116050739Y-100205557D01*
X116038000Y-100150813D01*
X116038000Y-94802870D01*
X126140103Y-94802870D01*
X126140103Y-94802882D01*
X126140103Y-96374933D01*
X126141901Y-96417543D01*
X126143658Y-96438329D01*
X126149039Y-96480631D01*
X126160641Y-96548759D01*
X126160644Y-96548773D01*
X126181966Y-96631235D01*
X126195748Y-96670526D01*
X126230601Y-96748213D01*
X126230606Y-96748223D01*
X126230608Y-96748227D01*
X126264118Y-96808694D01*
X126286323Y-96845058D01*
X126297953Y-96862414D01*
X126323162Y-96896803D01*
X126912931Y-97634015D01*
X126939439Y-97698659D01*
X126940103Y-97711475D01*
X126940103Y-107557069D01*
X126929416Y-107607430D01*
X126655968Y-108222689D01*
X126583671Y-108385357D01*
X126236209Y-109167147D01*
X126212150Y-109221279D01*
X126202036Y-109245741D01*
X126197424Y-109257777D01*
X126188630Y-109282659D01*
X126175319Y-109323688D01*
X126161667Y-109374723D01*
X126161667Y-109374724D01*
X126156289Y-109400064D01*
X126148040Y-109452230D01*
X126148038Y-109452249D01*
X126143540Y-109495115D01*
X126143540Y-109495120D01*
X126141470Y-109521462D01*
X126140793Y-109534402D01*
X126140103Y-109560813D01*
X126140103Y-111178449D01*
X126141158Y-111199929D01*
X126142536Y-111227989D01*
X126144917Y-111252173D01*
X126152195Y-111301240D01*
X126167839Y-111379894D01*
X126185488Y-111438076D01*
X126196605Y-111474723D01*
X126215116Y-111519413D01*
X126261832Y-111606811D01*
X126299463Y-111663129D01*
X126354407Y-111730077D01*
X126362331Y-111739733D01*
X126396528Y-111773930D01*
X126396533Y-111773934D01*
X126396534Y-111773935D01*
X126473136Y-111836801D01*
X126529452Y-111874430D01*
X126592126Y-111910120D01*
X126592141Y-111910127D01*
X126623954Y-111925348D01*
X126623957Y-111925349D01*
X126623963Y-111925352D01*
X126691088Y-111951761D01*
X126691092Y-111951761D01*
X126691093Y-111951762D01*
X126705105Y-111954032D01*
X126721272Y-111957776D01*
X126756364Y-111968421D01*
X126756368Y-111968421D01*
X126756372Y-111968423D01*
X126835005Y-111984064D01*
X126884067Y-111991342D01*
X126884077Y-111991343D01*
X126884084Y-111991344D01*
X126894792Y-111992398D01*
X126908258Y-111993725D01*
X126957814Y-111996160D01*
X128110859Y-111996160D01*
X128110879Y-111996160D01*
X128159861Y-111993781D01*
X128183773Y-111991453D01*
X128232273Y-111984344D01*
X128310052Y-111969058D01*
X128403867Y-111940952D01*
X128448134Y-111922854D01*
X128534775Y-111877181D01*
X128600983Y-111833599D01*
X128640578Y-111804689D01*
X128659271Y-111789598D01*
X128695881Y-111756987D01*
X130571996Y-109915036D01*
X130571996Y-109915035D01*
X130589805Y-109897551D01*
X130589809Y-109897546D01*
X130590773Y-109896600D01*
X136738602Y-103860717D01*
X136772621Y-103823827D01*
X136788374Y-103804944D01*
X136818574Y-103764854D01*
X136864087Y-103697745D01*
X136911854Y-103609600D01*
X136930790Y-103564471D01*
X136960219Y-103468645D01*
X136976222Y-103389150D01*
X136983672Y-103339524D01*
X136986111Y-103315053D01*
X136986475Y-103307711D01*
X136988603Y-103264930D01*
X136988603Y-99388046D01*
X136986665Y-99343834D01*
X136986665Y-99343828D01*
X136984767Y-99322214D01*
X136978966Y-99278321D01*
X136966461Y-99207679D01*
X136943483Y-99122266D01*
X136928645Y-99081668D01*
X136891137Y-99001578D01*
X136860692Y-98949086D01*
X136809792Y-98876750D01*
X136809783Y-98876739D01*
X136809775Y-98876729D01*
X136781920Y-98843711D01*
X136781918Y-98843709D01*
X136719181Y-98781344D01*
X136719177Y-98781341D01*
X136664085Y-98735423D01*
X136628891Y-98708612D01*
X136611071Y-98696229D01*
X136573633Y-98672577D01*
X132136276Y-96134059D01*
X128572838Y-94095491D01*
X128543803Y-94080109D01*
X128529366Y-94073052D01*
X128499433Y-94059606D01*
X128449973Y-94039292D01*
X128449971Y-94039291D01*
X128449963Y-94039288D01*
X128408935Y-94025474D01*
X128387766Y-94018347D01*
X128356730Y-94010097D01*
X128356727Y-94010096D01*
X128292356Y-93997391D01*
X128292346Y-93997389D01*
X128292344Y-93997389D01*
X128292340Y-93997388D01*
X128292337Y-93997388D01*
X128239346Y-93990465D01*
X128239340Y-93990464D01*
X128239337Y-93990464D01*
X128232892Y-93989834D01*
X128206675Y-93987271D01*
X128190608Y-93986226D01*
X128188262Y-93986149D01*
X128157790Y-93985160D01*
X128157777Y-93985160D01*
X126957826Y-93985160D01*
X126957814Y-93985160D01*
X126931250Y-93986464D01*
X126908293Y-93987591D01*
X126908255Y-93987594D01*
X126884131Y-93989969D01*
X126884103Y-93989972D01*
X126884100Y-93989973D01*
X126884091Y-93989974D01*
X126884086Y-93989975D01*
X126835036Y-93997250D01*
X126835021Y-93997252D01*
X126835014Y-93997254D01*
X126797078Y-94004799D01*
X126756368Y-94012897D01*
X126756366Y-94012897D01*
X126661539Y-94041662D01*
X126616867Y-94060164D01*
X126529450Y-94106889D01*
X126529447Y-94106891D01*
X126473139Y-94144515D01*
X126473126Y-94144525D01*
X126396525Y-94207390D01*
X126362333Y-94241582D01*
X126299467Y-94318184D01*
X126299460Y-94318193D01*
X126261828Y-94374515D01*
X126226128Y-94437209D01*
X126226120Y-94437224D01*
X126210912Y-94469015D01*
X126210892Y-94469061D01*
X126184529Y-94536048D01*
X126184529Y-94536050D01*
X126182248Y-94550111D01*
X126178511Y-94566240D01*
X126167839Y-94601425D01*
X126152199Y-94680053D01*
X126152196Y-94680070D01*
X126144917Y-94729144D01*
X126142536Y-94753327D01*
X126142536Y-94753335D01*
X126140103Y-94802870D01*
X116038000Y-94802870D01*
X116038000Y-94523637D01*
X116043022Y-94488704D01*
X116050434Y-94463459D01*
X116081728Y-94410717D01*
X118930522Y-91561923D01*
X118958772Y-91540775D01*
X118981864Y-91528167D01*
X119041289Y-91513000D01*
X120967650Y-91513000D01*
X120991834Y-91515381D01*
X121015343Y-91520057D01*
X121038589Y-91527109D01*
X121092914Y-91549611D01*
X121141503Y-91569737D01*
X121141505Y-91569737D01*
X121141510Y-91569739D01*
X121225279Y-91586401D01*
X121296153Y-91600499D01*
X121296156Y-91600500D01*
X121296158Y-91600500D01*
X121453844Y-91600500D01*
X121453845Y-91600499D01*
X121608497Y-91569737D01*
X121754179Y-91509394D01*
X121754183Y-91509390D01*
X121754706Y-91509174D01*
X121755820Y-91508474D01*
X121758578Y-91506454D01*
X121786409Y-91487858D01*
X121852272Y-91443849D01*
X121884094Y-91428623D01*
X121899020Y-91423949D01*
X121968871Y-91422700D01*
X121975973Y-91424648D01*
X122030839Y-91456546D01*
X123718803Y-93144511D01*
X123718808Y-93144515D01*
X123718812Y-93144519D01*
X123718817Y-93144523D01*
X123885476Y-93265606D01*
X123909888Y-93283343D01*
X124043980Y-93351666D01*
X124113877Y-93387281D01*
X124115473Y-93388216D01*
X124119171Y-93390007D01*
X124121186Y-93391008D01*
X124124954Y-93392071D01*
X124175427Y-93408470D01*
X124240731Y-93429688D01*
X124240732Y-93429689D01*
X124240733Y-93429689D01*
X124344952Y-93463553D01*
X124578224Y-93500500D01*
X124578229Y-93500500D01*
X140739417Y-93500500D01*
X140739418Y-93500500D01*
X140972689Y-93463553D01*
X141197313Y-93390568D01*
X141407755Y-93283343D01*
X141598831Y-93144517D01*
X142644518Y-92098831D01*
X142783343Y-91907754D01*
X142890568Y-91697313D01*
X142963553Y-91472689D01*
X142965000Y-91463553D01*
X143000500Y-91239418D01*
X143000500Y-89760581D01*
X142963553Y-89527310D01*
X142929689Y-89423091D01*
X142921921Y-89399184D01*
X142892071Y-89307313D01*
X142891008Y-89303543D01*
X142890002Y-89301518D01*
X142888217Y-89297834D01*
X142887282Y-89296235D01*
X142853671Y-89230272D01*
X142853666Y-89230263D01*
X142853665Y-89230262D01*
X142849239Y-89221575D01*
X142849235Y-89221569D01*
X142783343Y-89092245D01*
X142644517Y-88901169D01*
X137248380Y-83505032D01*
X150749500Y-83505032D01*
X150749500Y-84994966D01*
X150764627Y-85129230D01*
X150764630Y-85129252D01*
X150764631Y-85129255D01*
X150821092Y-85290609D01*
X150824211Y-85299523D01*
X150873656Y-85378213D01*
X150920184Y-85452262D01*
X151047738Y-85579816D01*
X151112986Y-85620814D01*
X151112985Y-85620814D01*
X151136387Y-85635518D01*
X151136389Y-85635519D01*
X151163297Y-85658358D01*
X151172492Y-85668753D01*
X151202165Y-85732008D01*
X151192929Y-85801265D01*
X151192925Y-85801273D01*
X151191272Y-85804992D01*
X151159064Y-85848427D01*
X151158569Y-85848855D01*
X151143439Y-85860049D01*
X151047739Y-85920182D01*
X151047736Y-85920184D01*
X150920183Y-86047737D01*
X150824212Y-86200473D01*
X150824210Y-86200476D01*
X150764631Y-86370743D01*
X150764631Y-86370744D01*
X150764627Y-86370768D01*
X150749500Y-86505032D01*
X150749500Y-87994966D01*
X150764627Y-88129230D01*
X150764630Y-88129252D01*
X150764631Y-88129254D01*
X150824210Y-88299522D01*
X150824212Y-88299525D01*
X150919122Y-88450573D01*
X150920184Y-88452262D01*
X151047738Y-88579816D01*
X151200478Y-88675789D01*
X151317272Y-88716657D01*
X151317271Y-88716657D01*
X151344008Y-88726012D01*
X151370745Y-88735368D01*
X151370750Y-88735369D01*
X151370756Y-88735369D01*
X151370770Y-88735372D01*
X151418724Y-88740774D01*
X151461246Y-88745565D01*
X151502068Y-88750164D01*
X151504511Y-88750500D01*
X152994957Y-88750500D01*
X153004750Y-88750500D01*
X153012345Y-88748540D01*
X153062104Y-88742934D01*
X153122348Y-88736146D01*
X153125808Y-88735952D01*
X153125813Y-88735952D01*
X153128781Y-88735533D01*
X153129253Y-88735368D01*
X153129255Y-88735368D01*
X153299522Y-88675789D01*
X153452262Y-88579816D01*
X153579816Y-88452262D01*
X153675789Y-88299522D01*
X153735368Y-88129255D01*
X153750500Y-87994954D01*
X153750500Y-86505046D01*
X153750499Y-86505039D01*
X153745565Y-86461248D01*
X153745565Y-86461245D01*
X153735372Y-86370770D01*
X153735368Y-86370744D01*
X153735367Y-86370743D01*
X153675788Y-86200476D01*
X153675786Y-86200473D01*
X153579815Y-86047737D01*
X153452262Y-85920184D01*
X153363605Y-85864477D01*
X153363602Y-85864474D01*
X153363600Y-85864474D01*
X153336696Y-85841635D01*
X153327500Y-85831239D01*
X153297833Y-85767982D01*
X153307070Y-85698734D01*
X153308725Y-85695010D01*
X153340869Y-85651627D01*
X153341366Y-85651196D01*
X153356548Y-85639955D01*
X153452262Y-85579816D01*
X153579816Y-85452262D01*
X153675789Y-85299522D01*
X153735368Y-85129255D01*
X153742388Y-85066955D01*
X153747219Y-85024070D01*
X153750500Y-84994954D01*
X153750500Y-83505046D01*
X153738033Y-83394398D01*
X153735369Y-83370750D01*
X153735368Y-83370745D01*
X153687431Y-83233750D01*
X153680371Y-83213572D01*
X153679630Y-83211456D01*
X153675789Y-83200478D01*
X153669470Y-83190422D01*
X153631388Y-83129815D01*
X153579816Y-83047738D01*
X153452262Y-82920184D01*
X153419805Y-82899790D01*
X153299523Y-82824211D01*
X153264909Y-82812099D01*
X153129255Y-82764631D01*
X153129252Y-82764630D01*
X153129253Y-82764630D01*
X153129230Y-82764627D01*
X152994966Y-82749500D01*
X152994960Y-82749500D01*
X152994954Y-82749500D01*
X151505046Y-82749500D01*
X151505039Y-82749500D01*
X151505032Y-82749500D01*
X151370768Y-82764627D01*
X151370746Y-82764630D01*
X151370743Y-82764631D01*
X151200476Y-82824210D01*
X151200473Y-82824212D01*
X151047737Y-82920183D01*
X150920183Y-83047737D01*
X150824212Y-83200473D01*
X150824210Y-83200476D01*
X150764631Y-83370743D01*
X150764630Y-83370746D01*
X150764627Y-83370768D01*
X150749500Y-83505032D01*
X137248380Y-83505032D01*
X136348831Y-82605483D01*
X136157755Y-82466657D01*
X136090976Y-82432631D01*
X135947321Y-82359434D01*
X135866735Y-82333250D01*
X135722689Y-82286446D01*
X135722683Y-82286445D01*
X135489423Y-82249500D01*
X135489418Y-82249500D01*
X135489413Y-82249500D01*
X133674975Y-82249500D01*
X133607936Y-82229815D01*
X133562181Y-82177011D01*
X133552237Y-82107853D01*
X133581262Y-82044297D01*
X133585104Y-82040065D01*
X136185485Y-79306331D01*
X136216902Y-79269991D01*
X136231433Y-79251473D01*
X136259252Y-79212326D01*
X136301195Y-79146932D01*
X136345096Y-79061618D01*
X136362486Y-79018105D01*
X136389478Y-78926030D01*
X136404159Y-78849738D01*
X136410984Y-78802193D01*
X136413218Y-78778761D01*
X136415500Y-78730784D01*
X136415500Y-75040698D01*
X136413677Y-74997808D01*
X136411892Y-74976846D01*
X136408169Y-74947778D01*
X136406440Y-74934279D01*
X136398226Y-74886391D01*
X136394673Y-74865677D01*
X136373061Y-74782696D01*
X136359094Y-74743174D01*
X136323760Y-74665025D01*
X136295032Y-74613614D01*
X136246995Y-74542564D01*
X136220655Y-74509954D01*
X136206521Y-74495212D01*
X136161313Y-74448060D01*
X136161286Y-74448035D01*
X136109051Y-74402083D01*
X136075647Y-74375122D01*
X136058732Y-74362618D01*
X136023175Y-74338599D01*
X136023174Y-74338598D01*
X136023169Y-74338595D01*
X128454530Y-69680971D01*
X128424225Y-69663733D01*
X128421104Y-69662097D01*
X128409103Y-69655808D01*
X128377715Y-69640716D01*
X128325785Y-69617913D01*
X128260208Y-69594363D01*
X128260195Y-69594359D01*
X128227408Y-69585079D01*
X128159240Y-69570774D01*
X128103063Y-69562977D01*
X128084461Y-69561046D01*
X128068386Y-69559378D01*
X128068380Y-69559377D01*
X128068365Y-69559376D01*
X128051336Y-69558200D01*
X128016531Y-69557000D01*
X128016520Y-69557000D01*
X126822211Y-69557000D01*
X126795647Y-69558304D01*
X126772690Y-69559431D01*
X126772652Y-69559434D01*
X126748528Y-69561809D01*
X126748500Y-69561812D01*
X126748497Y-69561813D01*
X126748488Y-69561814D01*
X126748483Y-69561815D01*
X126699433Y-69569090D01*
X126699418Y-69569092D01*
X126699411Y-69569094D01*
X126661475Y-69576639D01*
X126620765Y-69584737D01*
X126620763Y-69584737D01*
X126525936Y-69613502D01*
X126481264Y-69632004D01*
X126393847Y-69678729D01*
X126393844Y-69678731D01*
X126337536Y-69716355D01*
X126337523Y-69716365D01*
X126260922Y-69779230D01*
X126226730Y-69813422D01*
X126163864Y-69890024D01*
X126163857Y-69890033D01*
X126126225Y-69946355D01*
X126090525Y-70009049D01*
X126090517Y-70009064D01*
X126075309Y-70040855D01*
X126075289Y-70040901D01*
X126048926Y-70107888D01*
X126048926Y-70107890D01*
X126046645Y-70121951D01*
X126042908Y-70138080D01*
X126032236Y-70173265D01*
X126016596Y-70251893D01*
X126016593Y-70251910D01*
X126009314Y-70300984D01*
X126006933Y-70325167D01*
X126006933Y-70325175D01*
X126004500Y-70374710D01*
X126004500Y-70374722D01*
X126004500Y-71946773D01*
X126006298Y-71989383D01*
X126008055Y-72010169D01*
X126013436Y-72052471D01*
X126025038Y-72120599D01*
X126025041Y-72120613D01*
X126046363Y-72203075D01*
X126060145Y-72242366D01*
X126094998Y-72320053D01*
X126095003Y-72320063D01*
X126095005Y-72320067D01*
X126128515Y-72380534D01*
X126150720Y-72416898D01*
X126162350Y-72434254D01*
X126187559Y-72468643D01*
X126777328Y-73205855D01*
X126803836Y-73270499D01*
X126804500Y-73283315D01*
X126804500Y-82052371D01*
X126784815Y-82119410D01*
X126780818Y-82125256D01*
X126716661Y-82213560D01*
X126716653Y-82213573D01*
X126692848Y-82260293D01*
X126609433Y-82424003D01*
X126536446Y-82648631D01*
X126536445Y-82648634D01*
X126536445Y-82648636D01*
X126499500Y-82881896D01*
X126499500Y-83118102D01*
X126535590Y-83345961D01*
X126537117Y-83365359D01*
X126537117Y-83384641D01*
X126535590Y-83404039D01*
X126499500Y-83631902D01*
X126499500Y-83815159D01*
X126497405Y-83825031D01*
X126498411Y-83831556D01*
X126488813Y-83865520D01*
X126448068Y-83957197D01*
X126114349Y-84708065D01*
X126076547Y-84793119D01*
X126066433Y-84817581D01*
X126061821Y-84829617D01*
X126053027Y-84854499D01*
X126039716Y-84895528D01*
X126026064Y-84946563D01*
X126026064Y-84946564D01*
X126020686Y-84971904D01*
X126012437Y-85024070D01*
X126012435Y-85024089D01*
X126007937Y-85066955D01*
X126007937Y-85066960D01*
X126005867Y-85093302D01*
X126005190Y-85106242D01*
X126004590Y-85129230D01*
X126004500Y-85132666D01*
X126004500Y-85355902D01*
X125984815Y-85422941D01*
X125932011Y-85468696D01*
X125862853Y-85478640D01*
X125799297Y-85449615D01*
X125792819Y-85443583D01*
X124328916Y-83979681D01*
X124295431Y-83918358D01*
X124300415Y-83848666D01*
X124342287Y-83792733D01*
X124407751Y-83768316D01*
X124416597Y-83768000D01*
X125391676Y-83768000D01*
X125391693Y-83768000D01*
X125416522Y-83767390D01*
X125428682Y-83766792D01*
X125428686Y-83766791D01*
X125428700Y-83766791D01*
X125439807Y-83765970D01*
X125453426Y-83764965D01*
X125465502Y-83763775D01*
X125490116Y-83760738D01*
X125490126Y-83760736D01*
X125490130Y-83760736D01*
X125491435Y-83760542D01*
X125502147Y-83758953D01*
X125526576Y-83754714D01*
X125587247Y-83742646D01*
X125635375Y-83730591D01*
X125658638Y-83723534D01*
X125705347Y-83706820D01*
X125705361Y-83706813D01*
X125705372Y-83706810D01*
X125712823Y-83703722D01*
X125727482Y-83697651D01*
X125772316Y-83676446D01*
X125793751Y-83664989D01*
X125836299Y-83639488D01*
X125854489Y-83627333D01*
X125872272Y-83615453D01*
X125872287Y-83615441D01*
X125872304Y-83615431D01*
X125912152Y-83585878D01*
X125930944Y-83570456D01*
X125967703Y-83537139D01*
X125984639Y-83520203D01*
X126017947Y-83483455D01*
X126033369Y-83464664D01*
X126062928Y-83424808D01*
X126088843Y-83386023D01*
X126107800Y-83355336D01*
X126116550Y-83339971D01*
X126133265Y-83308020D01*
X126136452Y-83301360D01*
X126142286Y-83287006D01*
X126154224Y-83258091D01*
X126154316Y-83257870D01*
X126165687Y-83230475D01*
X126167177Y-83224565D01*
X126168060Y-83221844D01*
X126169559Y-83217230D01*
X126169584Y-83217150D01*
X126169702Y-83216788D01*
X126169702Y-83216787D01*
X126169718Y-83216738D01*
X126171406Y-83211546D01*
X126171412Y-83211527D01*
X126179804Y-83182856D01*
X126183487Y-83168739D01*
X126190146Y-83139748D01*
X126202214Y-83079078D01*
X126206453Y-83054647D01*
X126208238Y-83042616D01*
X126211275Y-83018002D01*
X126212465Y-83005926D01*
X126214292Y-82981182D01*
X126214890Y-82969022D01*
X126215500Y-82944193D01*
X126215500Y-73380805D01*
X126214890Y-73355976D01*
X126214292Y-73343816D01*
X126212465Y-73319072D01*
X126211275Y-73306996D01*
X126208238Y-73282382D01*
X126206453Y-73270351D01*
X126202214Y-73245922D01*
X126190146Y-73185251D01*
X126178095Y-73137137D01*
X126171039Y-73113875D01*
X126154324Y-73067159D01*
X126154322Y-73067155D01*
X126150779Y-73058601D01*
X126145155Y-73045023D01*
X126123944Y-73000176D01*
X126112485Y-72978738D01*
X126086981Y-72936188D01*
X126061064Y-72897401D01*
X126039972Y-72868150D01*
X126029123Y-72854183D01*
X126005973Y-72826481D01*
X126004137Y-72824437D01*
X126001047Y-72820997D01*
X125985831Y-72805983D01*
X125985242Y-72805398D01*
X125967702Y-72787858D01*
X125966736Y-72786983D01*
X125962889Y-72783345D01*
X125957705Y-72778230D01*
X125957701Y-72778226D01*
X125940832Y-72763477D01*
X125940829Y-72763475D01*
X125940004Y-72762753D01*
X125930953Y-72754550D01*
X125925551Y-72750116D01*
X125924075Y-72748826D01*
X125924074Y-72748825D01*
X125915294Y-72741149D01*
X125913486Y-72739920D01*
X125913369Y-72740071D01*
X125912182Y-72739145D01*
X125912163Y-72739129D01*
X125901170Y-72730975D01*
X125872335Y-72709588D01*
X125872323Y-72709580D01*
X125872315Y-72709574D01*
X125849097Y-72694060D01*
X125836315Y-72685519D01*
X125836305Y-72685513D01*
X125836304Y-72685512D01*
X125814866Y-72672663D01*
X125793753Y-72660008D01*
X125793734Y-72659997D01*
X125772327Y-72648555D01*
X125772318Y-72648550D01*
X125727458Y-72627334D01*
X125727447Y-72627329D01*
X125705354Y-72618178D01*
X125705311Y-72618162D01*
X125658656Y-72601469D01*
X125635400Y-72594415D01*
X125635384Y-72594410D01*
X125635381Y-72594409D01*
X125635377Y-72594408D01*
X125635368Y-72594405D01*
X125587249Y-72582352D01*
X125587238Y-72582350D01*
X125526545Y-72570278D01*
X125502083Y-72566036D01*
X125502085Y-72566036D01*
X125502066Y-72566033D01*
X125490025Y-72564248D01*
X125490018Y-72564247D01*
X125489997Y-72564244D01*
X125465424Y-72561215D01*
X125453391Y-72560030D01*
X125428671Y-72558206D01*
X125416515Y-72557609D01*
X125412377Y-72557507D01*
X125391702Y-72557000D01*
X125391687Y-72557000D01*
X118628303Y-72557000D01*
X118628297Y-72557000D01*
X118624747Y-72557086D01*
X118603535Y-72557606D01*
X118594935Y-72558028D01*
X118591380Y-72558203D01*
X118591367Y-72558203D01*
X118591366Y-72558204D01*
X118566603Y-72560030D01*
X118554507Y-72561221D01*
X118529950Y-72564249D01*
X118517952Y-72566027D01*
X118493434Y-72570281D01*
X118432766Y-72582348D01*
X118432722Y-72582358D01*
X118384606Y-72594411D01*
X118384591Y-72594415D01*
X118361358Y-72601463D01*
X118314708Y-72618153D01*
X118314690Y-72618160D01*
X118292543Y-72627332D01*
X118247687Y-72648546D01*
X118226261Y-72659998D01*
X118183671Y-72685526D01*
X118183670Y-72685527D01*
X118147690Y-72709568D01*
X118147673Y-72709581D01*
X118107834Y-72739128D01*
X118107812Y-72739145D01*
X118089053Y-72754541D01*
X118052279Y-72787872D01*
X118035372Y-72804779D01*
X118002041Y-72841553D01*
X117986645Y-72860312D01*
X117986628Y-72860334D01*
X117957081Y-72900173D01*
X117957075Y-72900180D01*
X117933013Y-72936192D01*
X117933002Y-72936210D01*
X117907495Y-72978769D01*
X117896032Y-73000217D01*
X117896019Y-73000243D01*
X117874853Y-73044999D01*
X117874826Y-73045061D01*
X117865685Y-73067127D01*
X117865675Y-73067155D01*
X117848964Y-73113859D01*
X117841920Y-73137079D01*
X117841911Y-73137110D01*
X117829855Y-73185236D01*
X117829849Y-73185262D01*
X117811463Y-73277708D01*
X117810837Y-73289858D01*
X117808713Y-73307089D01*
X117807529Y-73319108D01*
X117805709Y-73343797D01*
X117805706Y-73343839D01*
X117805395Y-73350160D01*
X117805109Y-73355985D01*
X117804500Y-73380812D01*
X117804500Y-74730462D01*
X117784815Y-74797501D01*
X117750521Y-74832800D01*
X116356343Y-75786712D01*
X115768302Y-76189056D01*
X114417020Y-77113620D01*
X114385278Y-77135338D01*
X114366661Y-77141392D01*
X114350192Y-77151977D01*
X114321381Y-77156119D01*
X114318834Y-77156948D01*
X114315257Y-77157000D01*
X114224500Y-77157000D01*
X114157461Y-77137315D01*
X114111706Y-77084511D01*
X114100500Y-77033000D01*
X114100500Y-74847594D01*
X114105521Y-74812664D01*
X114114864Y-74780845D01*
X114130736Y-74746897D01*
X114181347Y-74671155D01*
X114209394Y-74629179D01*
X114269737Y-74483497D01*
X114288161Y-74390874D01*
X114294821Y-74357393D01*
X114300500Y-74328845D01*
X114300500Y-74170973D01*
X114300065Y-74168972D01*
X114296019Y-74148634D01*
X114274531Y-74040606D01*
X114269737Y-74016503D01*
X114269735Y-74016498D01*
X114209397Y-73870827D01*
X114209390Y-73870814D01*
X114121789Y-73739711D01*
X114121786Y-73739707D01*
X114121781Y-73739701D01*
X114010297Y-73628217D01*
X114010291Y-73628212D01*
X114010290Y-73628211D01*
X113879191Y-73540613D01*
X113879190Y-73540612D01*
X113879185Y-73540609D01*
X113879172Y-73540602D01*
X113879165Y-73540598D01*
X113733502Y-73480264D01*
X113733471Y-73480257D01*
X113578847Y-73449500D01*
X113578845Y-73449500D01*
X113578842Y-73449500D01*
X113421158Y-73449500D01*
X113421155Y-73449500D01*
X113421153Y-73449500D01*
X113266527Y-73480257D01*
X113266496Y-73480264D01*
X113120833Y-73540598D01*
X113120824Y-73540603D01*
X113120807Y-73540613D01*
X112989708Y-73628211D01*
X112989707Y-73628212D01*
X112989701Y-73628217D01*
X112878217Y-73739701D01*
X112878212Y-73739707D01*
X112790613Y-73870807D01*
X112790603Y-73870824D01*
X112790598Y-73870833D01*
X112730264Y-74016496D01*
X112730261Y-74016510D01*
X112699500Y-74171150D01*
X112699500Y-74171153D01*
X112699500Y-74328846D01*
X112699500Y-74328848D01*
X112699499Y-74328848D01*
X112730257Y-74483471D01*
X112730264Y-74483502D01*
X112790598Y-74629165D01*
X112790602Y-74629172D01*
X112790609Y-74629185D01*
X112868697Y-74746050D01*
X112883928Y-74777886D01*
X112893834Y-74809522D01*
X112899500Y-74846575D01*
X112899500Y-78661590D01*
X112899499Y-78661664D01*
X112899499Y-78786960D01*
X112893600Y-78807046D01*
X112924940Y-78924003D01*
X112924939Y-78924003D01*
X112940421Y-78981782D01*
X112940422Y-78981783D01*
X112940423Y-78981785D01*
X112956851Y-79010238D01*
X112980096Y-79050500D01*
X113019477Y-79118713D01*
X113140775Y-79240011D01*
X113140794Y-79240029D01*
X114131287Y-80230523D01*
X114131969Y-80231014D01*
X114134475Y-80232363D01*
X114213155Y-80277788D01*
X114252491Y-80300499D01*
X114265631Y-80308084D01*
X114268216Y-80309577D01*
X114420943Y-80350501D01*
X114420945Y-80350501D01*
X114586654Y-80350501D01*
X114588558Y-80350501D01*
X114588621Y-80350500D01*
X115182073Y-80350500D01*
X115209027Y-80354375D01*
X115217005Y-80355521D01*
X115242249Y-80362934D01*
X115294995Y-80394230D01*
X119014085Y-84113320D01*
X119014106Y-84113342D01*
X119015149Y-84114385D01*
X119019479Y-84118715D01*
X119019480Y-84118716D01*
X119131284Y-84230520D01*
X119131286Y-84230521D01*
X119185848Y-84262022D01*
X119185847Y-84262022D01*
X119185850Y-84262023D01*
X119267400Y-84309107D01*
X119268185Y-84309569D01*
X119268215Y-84309577D01*
X119420942Y-84350500D01*
X119420943Y-84350500D01*
X122932073Y-84350500D01*
X122967005Y-84355521D01*
X122992249Y-84362934D01*
X123044995Y-84394230D01*
X128652817Y-90002052D01*
X128673967Y-90030305D01*
X128689854Y-90059399D01*
X128702640Y-90094635D01*
X128730258Y-90233481D01*
X128730259Y-90233486D01*
X128730266Y-90233506D01*
X128762605Y-90311577D01*
X128762605Y-90311579D01*
X128762606Y-90311580D01*
X128771332Y-90345773D01*
X128772817Y-90359575D01*
X128760410Y-90428334D01*
X128712802Y-90479468D01*
X128708297Y-90482141D01*
X128645022Y-90499500D01*
X125387041Y-90499500D01*
X125352105Y-90494477D01*
X125326863Y-90487065D01*
X125274118Y-90455769D01*
X122973833Y-88155485D01*
X122973831Y-88155483D01*
X122937731Y-88129255D01*
X122782755Y-88016657D01*
X122740172Y-87994960D01*
X122740160Y-87994954D01*
X122572317Y-87909433D01*
X122347689Y-87836446D01*
X122347683Y-87836445D01*
X122114423Y-87799500D01*
X122114418Y-87799500D01*
X122114413Y-87799500D01*
X110939500Y-87799500D01*
X110872461Y-87779815D01*
X110826706Y-87727011D01*
X110815500Y-87675500D01*
X110815500Y-83574723D01*
X110815500Y-83574710D01*
X110813065Y-83525154D01*
X110810682Y-83500963D01*
X110805300Y-83464679D01*
X110803407Y-83451918D01*
X110803405Y-83451911D01*
X110803404Y-83451900D01*
X110787763Y-83373268D01*
X110759001Y-83278449D01*
X110753274Y-83264622D01*
X110740488Y-83233752D01*
X110735577Y-83224565D01*
X110713270Y-83182831D01*
X110693774Y-83146356D01*
X110693773Y-83146354D01*
X110693768Y-83146345D01*
X110656139Y-83090030D01*
X110593275Y-83013431D01*
X110593274Y-83013430D01*
X110593270Y-83013425D01*
X110559073Y-82979228D01*
X110516361Y-82944175D01*
X110482469Y-82916360D01*
X110426151Y-82878729D01*
X110426150Y-82878728D01*
X110426148Y-82878727D01*
X110338751Y-82832012D01*
X110338748Y-82832011D01*
X110294071Y-82813505D01*
X110294068Y-82813504D01*
X110294063Y-82813502D01*
X110257416Y-82802385D01*
X110199234Y-82784736D01*
X110120580Y-82769092D01*
X110071513Y-82761814D01*
X110047329Y-82759433D01*
X110029073Y-82758536D01*
X109997789Y-82757000D01*
X109997777Y-82757000D01*
X109139500Y-82757000D01*
X109072461Y-82737315D01*
X109026706Y-82684511D01*
X109015500Y-82633000D01*
X109015500Y-81523245D01*
X109035185Y-81456206D01*
X109051819Y-81435564D01*
X109835319Y-80652064D01*
X109896642Y-80618579D01*
X109966334Y-80623563D01*
X110022267Y-80665435D01*
X110046684Y-80730899D01*
X110047000Y-80739745D01*
X110047000Y-80878846D01*
X110047000Y-80878848D01*
X110046999Y-80878848D01*
X110077757Y-81033471D01*
X110077761Y-81033489D01*
X110077764Y-81033500D01*
X110077763Y-81033500D01*
X110138098Y-81179165D01*
X110138103Y-81179174D01*
X110138113Y-81179191D01*
X110225711Y-81310290D01*
X110225712Y-81310291D01*
X110225717Y-81310297D01*
X110337201Y-81421781D01*
X110337207Y-81421786D01*
X110337211Y-81421789D01*
X110468314Y-81509390D01*
X110468327Y-81509397D01*
X110567560Y-81550500D01*
X110614003Y-81569737D01*
X110678647Y-81582595D01*
X110751864Y-81597159D01*
X110785144Y-81608901D01*
X110814521Y-81624268D01*
X110844727Y-81646462D01*
X115624085Y-86425820D01*
X115624106Y-86425842D01*
X115625149Y-86426885D01*
X115629479Y-86431215D01*
X115629480Y-86431216D01*
X115741284Y-86543020D01*
X115828095Y-86593139D01*
X115828097Y-86593141D01*
X115866146Y-86615108D01*
X115866149Y-86615111D01*
X115866150Y-86615111D01*
X115878211Y-86622075D01*
X115878212Y-86622075D01*
X115878215Y-86622077D01*
X116030943Y-86663001D01*
X116030946Y-86663001D01*
X116196653Y-86663001D01*
X116198557Y-86663001D01*
X116198620Y-86663000D01*
X120070943Y-86663000D01*
X120105875Y-86668021D01*
X120137689Y-86677363D01*
X120171640Y-86693236D01*
X120193997Y-86708175D01*
X120196622Y-86709997D01*
X120201428Y-86711717D01*
X120341498Y-86769735D01*
X120341503Y-86769737D01*
X120341506Y-86769737D01*
X120341507Y-86769738D01*
X120389459Y-86779276D01*
X120496153Y-86800499D01*
X120496156Y-86800500D01*
X120496158Y-86800500D01*
X120653844Y-86800500D01*
X120653845Y-86800499D01*
X120808497Y-86769737D01*
X120954179Y-86709394D01*
X121085289Y-86621789D01*
X121196789Y-86510289D01*
X121284394Y-86379179D01*
X121287888Y-86370745D01*
X121343060Y-86237544D01*
X121344222Y-86234997D01*
X121344730Y-86233510D01*
X121344735Y-86233501D01*
X121344737Y-86233497D01*
X121375500Y-86078842D01*
X121375500Y-85921158D01*
X121375500Y-85921155D01*
X121375500Y-85920973D01*
X121375065Y-85918972D01*
X121364225Y-85864477D01*
X121345395Y-85769815D01*
X121344984Y-85767406D01*
X121344737Y-85766508D01*
X121344737Y-85766503D01*
X121331111Y-85733606D01*
X121316664Y-85698727D01*
X121284400Y-85620833D01*
X121284395Y-85620824D01*
X121284390Y-85620814D01*
X121196789Y-85489711D01*
X121196786Y-85489707D01*
X121196781Y-85489701D01*
X121085297Y-85378217D01*
X121085290Y-85378211D01*
X120954191Y-85290613D01*
X120954190Y-85290612D01*
X120954185Y-85290609D01*
X120954172Y-85290602D01*
X120954165Y-85290598D01*
X120808502Y-85230264D01*
X120808471Y-85230257D01*
X120653847Y-85199500D01*
X120653845Y-85199500D01*
X120653842Y-85199500D01*
X120496158Y-85199500D01*
X120496155Y-85199500D01*
X120496153Y-85199500D01*
X120341527Y-85230257D01*
X120341496Y-85230264D01*
X120195833Y-85290598D01*
X120195824Y-85290603D01*
X120195807Y-85290613D01*
X120064715Y-85378207D01*
X120064706Y-85378213D01*
X120064698Y-85378220D01*
X120029850Y-85413069D01*
X120029849Y-85413072D01*
X120001594Y-85434224D01*
X119978509Y-85446830D01*
X119919080Y-85462000D01*
X116427927Y-85462000D01*
X116392991Y-85456977D01*
X116367749Y-85449565D01*
X116315004Y-85418269D01*
X111694681Y-80797946D01*
X111673531Y-80769693D01*
X111657644Y-80740599D01*
X111644859Y-80705366D01*
X111624893Y-80604994D01*
X111617237Y-80566503D01*
X111611503Y-80552659D01*
X111611502Y-80552656D01*
X111611502Y-80552655D01*
X111556899Y-80420832D01*
X111556898Y-80420829D01*
X111556897Y-80420827D01*
X111556890Y-80420814D01*
X111469289Y-80289711D01*
X111469286Y-80289707D01*
X111469281Y-80289701D01*
X111357797Y-80178217D01*
X111357791Y-80178212D01*
X111357790Y-80178211D01*
X111289344Y-80132477D01*
X111226685Y-80090609D01*
X111226682Y-80090607D01*
X111224233Y-80088971D01*
X111225062Y-80087729D01*
X111181661Y-80040601D01*
X111169631Y-79971775D01*
X111196720Y-79907371D01*
X111196729Y-79907358D01*
X111256146Y-79834961D01*
X111293772Y-79778649D01*
X111329462Y-79715972D01*
X111344694Y-79684134D01*
X111371102Y-79617013D01*
X111373376Y-79602973D01*
X111377113Y-79586833D01*
X111387763Y-79551731D01*
X111403404Y-79473099D01*
X111410682Y-79424036D01*
X111413065Y-79399845D01*
X111415500Y-79350289D01*
X111415500Y-78574710D01*
X111413065Y-78525154D01*
X111410682Y-78500963D01*
X111403404Y-78451900D01*
X111387763Y-78373268D01*
X111359001Y-78278449D01*
X111352197Y-78262023D01*
X111340489Y-78233755D01*
X111340480Y-78233736D01*
X111293775Y-78146357D01*
X111293774Y-78146355D01*
X111293769Y-78146346D01*
X111269105Y-78109434D01*
X111256136Y-78090024D01*
X111256129Y-78090015D01*
X111211904Y-78033086D01*
X111211886Y-78033064D01*
X111188321Y-78006829D01*
X111180726Y-77999500D01*
X111136428Y-77956753D01*
X111136425Y-77956751D01*
X111124324Y-77949275D01*
X111110830Y-77939635D01*
X111082476Y-77916365D01*
X111082466Y-77916357D01*
X111037618Y-77886391D01*
X111026151Y-77878729D01*
X111026148Y-77878727D01*
X111026146Y-77878726D01*
X110938751Y-77832012D01*
X110938748Y-77832011D01*
X110894071Y-77813505D01*
X110894068Y-77813504D01*
X110894063Y-77813502D01*
X110857416Y-77802385D01*
X110799234Y-77784736D01*
X110720580Y-77769092D01*
X110671513Y-77761814D01*
X110647329Y-77759433D01*
X110628714Y-77758519D01*
X110597789Y-77757000D01*
X110597777Y-77757000D01*
X110128344Y-77757000D01*
X110121474Y-77757047D01*
X110117949Y-77757095D01*
X110112109Y-77757215D01*
X110111014Y-77757238D01*
X110110993Y-77757238D01*
X110110924Y-77757240D01*
X110107974Y-77757321D01*
X110107928Y-77757321D01*
X110099507Y-77757555D01*
X110085466Y-77758139D01*
X110085453Y-77758139D01*
X110085446Y-77758140D01*
X110082747Y-77758289D01*
X110078610Y-77758519D01*
X110064666Y-77759485D01*
X110053296Y-77760431D01*
X110046380Y-77761054D01*
X110043100Y-77761371D01*
X110036116Y-77762098D01*
X108387421Y-77945286D01*
X108387422Y-77945287D01*
X106488827Y-78156242D01*
X106475133Y-78157000D01*
X106199122Y-78157000D01*
X106142827Y-78143485D01*
X106076000Y-78109434D01*
X106016234Y-78090015D01*
X105851368Y-78036446D01*
X105830154Y-78033086D01*
X105618102Y-77999500D01*
X105618097Y-77999500D01*
X105618092Y-77999500D01*
X98631908Y-77999500D01*
X98631903Y-77999500D01*
X98631898Y-77999500D01*
X98398636Y-78036445D01*
X98398634Y-78036445D01*
X98398631Y-78036446D01*
X98286317Y-78072939D01*
X98173998Y-78109434D01*
X97963572Y-78216653D01*
X97963569Y-78216654D01*
X97963565Y-78216657D01*
X97772488Y-78355484D01*
X97772487Y-78355485D01*
X97772486Y-78355486D01*
X97772485Y-78355486D01*
X92177399Y-83950573D01*
X92163564Y-83960930D01*
X92149148Y-83971722D01*
X92126060Y-83984330D01*
X92066630Y-83999500D01*
X87440719Y-83999500D01*
X87405783Y-83994477D01*
X87380541Y-83987065D01*
X87327796Y-83955769D01*
X87096815Y-83724788D01*
X87075666Y-83696538D01*
X87070244Y-83686608D01*
X87055391Y-83618338D01*
X87079805Y-83552873D01*
X87135735Y-83511001D01*
X87139614Y-83509554D01*
X87142950Y-83508311D01*
X87186264Y-83500500D01*
X88504750Y-83500500D01*
X88512345Y-83498540D01*
X88562104Y-83492934D01*
X88622348Y-83486146D01*
X88625808Y-83485952D01*
X88625813Y-83485952D01*
X88628781Y-83485533D01*
X88629253Y-83485368D01*
X88629255Y-83485368D01*
X88799522Y-83425789D01*
X88952262Y-83329816D01*
X89079816Y-83202262D01*
X89175789Y-83049522D01*
X89235368Y-82879255D01*
X89238047Y-82855484D01*
X89242934Y-82812104D01*
X89250500Y-82744954D01*
X89250500Y-81255046D01*
X89244242Y-81199500D01*
X89241951Y-81179165D01*
X89235372Y-81120771D01*
X89235370Y-81120760D01*
X89235369Y-81120750D01*
X89235368Y-81120745D01*
X89204840Y-81033501D01*
X89204840Y-81033500D01*
X89204840Y-81033499D01*
X89175792Y-80950487D01*
X89175789Y-80950478D01*
X89175200Y-80949542D01*
X89175186Y-80949492D01*
X89175174Y-80949500D01*
X89079815Y-80797737D01*
X89006866Y-80724788D01*
X88985717Y-80696538D01*
X88980295Y-80686608D01*
X88965442Y-80618338D01*
X88989856Y-80552873D01*
X89045786Y-80511001D01*
X89049665Y-80509554D01*
X89053001Y-80508311D01*
X89096315Y-80500500D01*
X89368096Y-80500500D01*
X89368097Y-80500500D01*
X89601368Y-80463553D01*
X89651263Y-80447341D01*
X89825992Y-80390568D01*
X90036434Y-80283343D01*
X90227510Y-80144517D01*
X91644517Y-78727510D01*
X91783343Y-78536434D01*
X91890568Y-78325992D01*
X91963553Y-78101368D01*
X91965076Y-78091754D01*
X91965077Y-78091752D01*
X91994090Y-77908569D01*
X92000500Y-77868097D01*
X92000500Y-74381902D01*
X91963553Y-74148631D01*
X91920624Y-74016510D01*
X91890568Y-73924008D01*
X91890566Y-73924005D01*
X91890566Y-73924003D01*
X91888326Y-73919607D01*
X91888016Y-73918812D01*
X91887286Y-73917566D01*
X91796662Y-73739707D01*
X91783343Y-73713567D01*
X91779746Y-73708617D01*
X91741516Y-73655996D01*
X91720997Y-73627754D01*
X91701083Y-73600344D01*
X91701079Y-73600341D01*
X91644521Y-73522493D01*
X91644519Y-73522491D01*
X89727512Y-71605485D01*
X89727511Y-71605484D01*
X89536434Y-71466657D01*
X89522032Y-71459319D01*
X89326000Y-71359434D01*
X89272108Y-71341923D01*
X89101368Y-71286446D01*
X89101362Y-71286445D01*
X88868102Y-71249500D01*
X88868097Y-71249500D01*
X88868092Y-71249500D01*
X82118092Y-71249500D01*
X62868092Y-71249500D01*
X62631908Y-71249500D01*
X62631903Y-71249500D01*
X62631898Y-71249500D01*
X62398637Y-71286445D01*
X62174002Y-71359434D01*
X61963564Y-71466657D01*
X61772485Y-71605486D01*
X60892985Y-72484986D01*
X60754157Y-72676064D01*
X60754143Y-72676086D01*
X60753941Y-72676488D01*
X60684897Y-72811997D01*
X60684896Y-72812000D01*
X60646933Y-72886502D01*
X60646932Y-72886503D01*
X60573945Y-73111134D01*
X60537000Y-73344396D01*
X60537000Y-75570170D01*
X60536999Y-75570176D01*
X60537000Y-75570179D01*
X60531975Y-75605114D01*
X60527570Y-75620112D01*
X60489827Y-75678855D01*
X60489792Y-75678885D01*
X60489791Y-75678887D01*
X60489789Y-75678887D01*
X60488458Y-75680042D01*
X60433597Y-75707518D01*
X60426039Y-75709163D01*
X60399668Y-75712000D01*
X59292532Y-75712000D01*
X59158268Y-75727127D01*
X59158246Y-75727130D01*
X59158243Y-75727131D01*
X58987976Y-75786710D01*
X58987973Y-75786712D01*
X58835237Y-75882683D01*
X58707683Y-76010237D01*
X58611712Y-76162973D01*
X58611710Y-76162976D01*
X58552131Y-76333243D01*
X58552130Y-76333246D01*
X58552127Y-76333268D01*
X58537000Y-76467532D01*
X55500500Y-76467532D01*
X55500500Y-59046398D01*
X100399500Y-59046398D01*
X100399500Y-59251102D01*
X100431523Y-59453285D01*
X100494780Y-59647968D01*
X100587713Y-59830361D01*
X100708034Y-59995969D01*
X100852781Y-60140716D01*
X101018389Y-60261037D01*
X101200782Y-60353970D01*
X101395465Y-60417227D01*
X101597648Y-60449250D01*
X101597649Y-60449250D01*
X101802351Y-60449250D01*
X101802352Y-60449250D01*
X102004535Y-60417227D01*
X102199218Y-60353970D01*
X102381611Y-60261037D01*
X102547219Y-60140716D01*
X103572706Y-59115229D01*
X103574844Y-59112287D01*
X103662260Y-58991967D01*
X103662261Y-58991966D01*
X103693027Y-58949620D01*
X103785960Y-58767229D01*
X103843161Y-58591181D01*
X103882599Y-58533506D01*
X103946957Y-58506308D01*
X103961092Y-58505500D01*
X106456395Y-58505500D01*
X106523434Y-58525185D01*
X106556713Y-58556615D01*
X106604691Y-58622651D01*
X106974006Y-58991966D01*
X107139614Y-59112287D01*
X107214612Y-59150500D01*
X107315557Y-59201935D01*
X107317152Y-59202868D01*
X107320857Y-59204663D01*
X107322862Y-59205659D01*
X107326626Y-59206721D01*
X107390860Y-59227592D01*
X107516690Y-59268477D01*
X107718873Y-59300500D01*
X107718874Y-59300500D01*
X109102351Y-59300500D01*
X109102352Y-59300500D01*
X109304534Y-59268477D01*
X109499219Y-59205220D01*
X109681610Y-59112287D01*
X109774590Y-59044732D01*
X109847213Y-58991971D01*
X109847220Y-58991965D01*
X109889565Y-58949620D01*
X109991966Y-58847219D01*
X109991968Y-58847215D01*
X109991971Y-58847213D01*
X110050082Y-58767229D01*
X110112287Y-58681610D01*
X110205220Y-58499219D01*
X110268477Y-58304534D01*
X110300500Y-58102352D01*
X110300500Y-57897648D01*
X110268477Y-57695466D01*
X110261203Y-57673080D01*
X110205218Y-57500776D01*
X110168939Y-57429576D01*
X110112287Y-57318390D01*
X110081645Y-57276214D01*
X109991971Y-57152786D01*
X109847213Y-57008028D01*
X109847211Y-57008026D01*
X109692209Y-56895413D01*
X109692205Y-56895410D01*
X109681613Y-56887715D01*
X109681612Y-56887714D01*
X109681610Y-56887713D01*
X109653171Y-56873222D01*
X109624654Y-56858691D01*
X109624653Y-56858691D01*
X109499223Y-56794781D01*
X109304534Y-56731522D01*
X109304532Y-56731521D01*
X109304530Y-56731521D01*
X109304529Y-56731520D01*
X109129995Y-56703878D01*
X109113409Y-56701251D01*
X109102354Y-56699500D01*
X109102352Y-56699500D01*
X109102351Y-56699500D01*
X108878216Y-56699500D01*
X108875441Y-56698685D01*
X108872633Y-56699374D01*
X108842124Y-56688902D01*
X108811177Y-56679815D01*
X108809283Y-56677629D01*
X108806548Y-56676691D01*
X108786538Y-56651380D01*
X108765422Y-56627011D01*
X108764465Y-56623460D01*
X108763217Y-56621881D01*
X108759995Y-56606864D01*
X108754808Y-56587603D01*
X108754453Y-56583991D01*
X108753941Y-56570942D01*
X108752573Y-56553566D01*
X108751478Y-56553651D01*
X108748926Y-56527642D01*
X108748911Y-56519775D01*
X108748807Y-56519062D01*
X108747877Y-56512946D01*
X108727271Y-56382850D01*
X108726069Y-56372416D01*
X108724716Y-56353736D01*
X108723420Y-56344846D01*
X108691654Y-56227784D01*
X108685007Y-56211393D01*
X108669454Y-56173037D01*
X108669453Y-56173035D01*
X108658051Y-56152435D01*
X108617706Y-56079544D01*
X108602464Y-56011359D01*
X108626506Y-55945756D01*
X108627824Y-55944007D01*
X108628887Y-55942622D01*
X108635286Y-55934283D01*
X108684233Y-55849503D01*
X108734731Y-55727589D01*
X108760068Y-55633030D01*
X108777292Y-55502197D01*
X108777292Y-55404303D01*
X108760068Y-55273470D01*
X108734731Y-55178911D01*
X108734730Y-55178907D01*
X108733052Y-55174857D01*
X108687339Y-55064495D01*
X108685593Y-55059351D01*
X108633948Y-54969898D01*
X108617475Y-54901998D01*
X108640328Y-54835971D01*
X108647624Y-54826694D01*
X108655567Y-54817528D01*
X108715338Y-54686651D01*
X108735023Y-54619612D01*
X108735024Y-54619608D01*
X108755500Y-54477192D01*
X108755500Y-52874000D01*
X108743947Y-52766544D01*
X108732741Y-52715033D01*
X108723629Y-52687655D01*
X108698616Y-52612502D01*
X108698613Y-52612496D01*
X108620828Y-52491462D01*
X108620825Y-52491457D01*
X108620820Y-52491451D01*
X108575076Y-52438659D01*
X108575072Y-52438656D01*
X108575070Y-52438653D01*
X108466336Y-52344433D01*
X108466333Y-52344431D01*
X108466331Y-52344430D01*
X108335465Y-52284664D01*
X108335460Y-52284662D01*
X108335459Y-52284662D01*
X108268420Y-52264977D01*
X108268422Y-52264977D01*
X108268417Y-52264976D01*
X108206347Y-52256052D01*
X108126000Y-52244500D01*
X108125998Y-52244500D01*
X101874010Y-52244500D01*
X101874000Y-52244500D01*
X101873991Y-52244500D01*
X101873990Y-52244501D01*
X101766549Y-52256052D01*
X101766537Y-52256054D01*
X101715027Y-52267260D01*
X101612502Y-52301383D01*
X101612496Y-52301386D01*
X101491462Y-52379171D01*
X101491451Y-52379179D01*
X101438659Y-52424923D01*
X101344433Y-52533664D01*
X101344430Y-52533668D01*
X101284664Y-52664534D01*
X101264976Y-52731582D01*
X101259949Y-52766549D01*
X101244502Y-52873990D01*
X101244500Y-52874001D01*
X101244500Y-54477198D01*
X101245392Y-54507224D01*
X101246045Y-54518200D01*
X101246269Y-54521947D01*
X101248948Y-54551894D01*
X101286180Y-54690873D01*
X101313681Y-54755103D01*
X101313683Y-54755108D01*
X101366409Y-54841620D01*
X101366811Y-54842298D01*
X101375256Y-54875450D01*
X101384106Y-54908481D01*
X101383865Y-54909241D01*
X101384060Y-54910005D01*
X101375649Y-54935236D01*
X101365331Y-54967881D01*
X101366745Y-54968698D01*
X101315770Y-55056990D01*
X101315762Y-55057004D01*
X101265277Y-55178886D01*
X101265270Y-55178906D01*
X101239934Y-55273459D01*
X101239931Y-55273476D01*
X101239928Y-55273491D01*
X101222708Y-55404300D01*
X101222708Y-55502198D01*
X101239928Y-55633009D01*
X101239929Y-55633017D01*
X101239930Y-55633019D01*
X101239931Y-55633024D01*
X101239932Y-55633030D01*
X101239933Y-55633032D01*
X101265270Y-55727592D01*
X101265276Y-55727609D01*
X101315762Y-55849494D01*
X101315770Y-55849508D01*
X101364714Y-55934284D01*
X101371112Y-55942622D01*
X101396304Y-56007792D01*
X101382587Y-56075624D01*
X101375895Y-56088404D01*
X101369941Y-56095277D01*
X101353840Y-56130526D01*
X101352289Y-56133490D01*
X101351493Y-56134314D01*
X101346632Y-56143197D01*
X101346538Y-56143342D01*
X101346537Y-56143344D01*
X101342365Y-56152435D01*
X101342359Y-56152448D01*
X101322664Y-56195348D01*
X101322629Y-56195435D01*
X101317373Y-56206888D01*
X101315335Y-56213777D01*
X101313244Y-56219038D01*
X101312671Y-56219769D01*
X101310822Y-56224713D01*
X101310174Y-56226132D01*
X101310165Y-56226155D01*
X101292435Y-56286528D01*
X101291601Y-56292538D01*
X101290553Y-56297585D01*
X101276580Y-56344846D01*
X101275284Y-56353739D01*
X101273549Y-56377663D01*
X101272271Y-56385729D01*
X101272263Y-56385770D01*
X101252138Y-56512841D01*
X101251091Y-56519755D01*
X101250989Y-56520463D01*
X101247118Y-56556204D01*
X101245823Y-56574062D01*
X101244500Y-56610621D01*
X101244500Y-57713702D01*
X101224815Y-57780741D01*
X101208181Y-57801383D01*
X100708038Y-58301525D01*
X100708038Y-58301526D01*
X100708036Y-58301528D01*
X100665497Y-58360076D01*
X100587715Y-58467134D01*
X100494782Y-58649526D01*
X100456538Y-58767229D01*
X100431522Y-58844218D01*
X100431047Y-58847219D01*
X100399500Y-59046398D01*
X55500500Y-59046398D01*
X55500500Y-53005635D01*
X55500556Y-53001914D01*
X55500669Y-52998150D01*
X55500837Y-52994426D01*
X55518046Y-52709913D01*
X55518719Y-52702514D01*
X55519628Y-52695028D01*
X55520751Y-52687655D01*
X55524988Y-52664534D01*
X55571110Y-52412855D01*
X55572668Y-52405598D01*
X55574479Y-52398250D01*
X55576463Y-52391136D01*
X55659603Y-52124328D01*
X55662010Y-52117354D01*
X55664686Y-52110297D01*
X55667515Y-52103467D01*
X55782210Y-51848627D01*
X55785454Y-51841967D01*
X55788963Y-51835282D01*
X55792602Y-51828832D01*
X55830959Y-51765381D01*
X55937147Y-51589722D01*
X55941201Y-51583453D01*
X55945449Y-51577297D01*
X55949874Y-51571285D01*
X55949882Y-51571275D01*
X56122185Y-51351347D01*
X56126938Y-51345643D01*
X56131946Y-51339990D01*
X56137032Y-51334589D01*
X56334589Y-51137032D01*
X56339990Y-51131946D01*
X56345643Y-51126938D01*
X56351347Y-51122185D01*
X56571290Y-50949869D01*
X56577311Y-50945440D01*
X56583463Y-50941194D01*
X56589719Y-50937149D01*
X56828846Y-50792593D01*
X56835282Y-50788963D01*
X56841984Y-50785445D01*
X56848627Y-50782210D01*
X57103467Y-50667515D01*
X57110297Y-50664686D01*
X57117354Y-50662010D01*
X57124358Y-50659593D01*
X57391106Y-50576471D01*
X57398267Y-50574474D01*
X57405582Y-50572671D01*
X57412856Y-50571109D01*
X57687673Y-50520747D01*
X57695042Y-50519625D01*
X57702500Y-50518720D01*
X57709909Y-50518046D01*
X57994427Y-50500837D01*
X57998152Y-50500669D01*
X58001917Y-50500556D01*
X58005637Y-50500500D01*
X151994363Y-50500500D01*
X151998084Y-50500556D01*
G37*
%TD.AperFunction*%
%TD*%
%TA.AperFunction,NonConductor*%
G36*
X134715534Y-85255521D02*
G01*
X134740778Y-85262934D01*
X134793524Y-85294230D01*
X138674505Y-89175211D01*
X138690527Y-89196613D01*
X138695654Y-89203461D01*
X138701075Y-89213388D01*
X138715929Y-89281661D01*
X138691515Y-89347126D01*
X138635583Y-89388999D01*
X138635579Y-89389001D01*
X138628391Y-89391682D01*
X138585057Y-89399500D01*
X130097596Y-89399500D01*
X130062661Y-89394477D01*
X130030852Y-89385137D01*
X129996898Y-89369263D01*
X129879185Y-89290609D01*
X129879172Y-89290602D01*
X129879165Y-89290598D01*
X129733523Y-89230272D01*
X129733509Y-89230267D01*
X129733501Y-89230264D01*
X129733491Y-89230261D01*
X129733488Y-89230260D01*
X129733484Y-89230259D01*
X129595638Y-89202840D01*
X129595637Y-89202839D01*
X129595637Y-89202840D01*
X129562353Y-89191098D01*
X129532980Y-89175733D01*
X129502775Y-89153539D01*
X128099726Y-87750490D01*
X128066241Y-87689167D01*
X128071225Y-87619475D01*
X128113097Y-87563542D01*
X128162457Y-87541345D01*
X128176347Y-87538492D01*
X128273899Y-87507898D01*
X128319759Y-87488227D01*
X128409159Y-87438631D01*
X128477009Y-87391432D01*
X128517491Y-87360115D01*
X128536525Y-87343785D01*
X128573638Y-87308530D01*
X128573667Y-87308500D01*
X130494619Y-85289038D01*
X130555086Y-85254030D01*
X130584464Y-85250500D01*
X134680602Y-85250500D01*
X134715534Y-85255521D01*
G37*
%TD.AperFunction*%
%TA.AperFunction,Conductor*%
%TO.N,/Ideal_Diode1/VIN_IDEAL*%
G36*
X128173853Y-94491705D02*
G01*
X128226860Y-94498630D01*
X128257908Y-94506883D01*
X128307364Y-94527196D01*
X128321823Y-94534264D01*
X131885263Y-96572833D01*
X136322622Y-99111353D01*
X136340439Y-99123733D01*
X136395544Y-99169662D01*
X136423417Y-99202702D01*
X136453862Y-99255194D01*
X136468700Y-99295792D01*
X136481205Y-99366434D01*
X136483103Y-99388048D01*
X136483103Y-103264919D01*
X136480664Y-103289390D01*
X136464661Y-103368885D01*
X136445725Y-103414014D01*
X136400212Y-103481123D01*
X136384459Y-103500006D01*
X130217853Y-109554324D01*
X128341738Y-111396275D01*
X128323045Y-111411366D01*
X128256837Y-111454948D01*
X128212570Y-111473046D01*
X128134791Y-111488332D01*
X128110879Y-111490660D01*
X126957814Y-111490660D01*
X126933623Y-111488277D01*
X126854990Y-111472636D01*
X126847288Y-111469446D01*
X126842129Y-111469354D01*
X126810292Y-111454122D01*
X126753976Y-111416493D01*
X126719769Y-111382286D01*
X126682138Y-111325968D01*
X126663627Y-111281278D01*
X126647984Y-111202631D01*
X126645603Y-111178449D01*
X126645603Y-109560813D01*
X126646280Y-109547873D01*
X126650780Y-109504988D01*
X126656153Y-109479669D01*
X126669463Y-109438638D01*
X126674083Y-109426579D01*
X127045603Y-108590660D01*
X127445603Y-107690660D01*
X127445603Y-97490660D01*
X126717891Y-96581020D01*
X126706261Y-96563664D01*
X126672751Y-96503197D01*
X126658969Y-96463909D01*
X126647363Y-96395759D01*
X126645603Y-96374941D01*
X126645603Y-94802870D01*
X126647984Y-94778689D01*
X126663628Y-94700039D01*
X126666815Y-94692344D01*
X126666908Y-94687186D01*
X126682136Y-94655355D01*
X126719771Y-94599030D01*
X126753973Y-94564828D01*
X126810296Y-94527194D01*
X126854982Y-94508685D01*
X126933631Y-94493041D01*
X126957814Y-94490660D01*
X128157790Y-94490660D01*
X128173853Y-94491705D01*
G37*
%TD.AperFunction*%
%TD*%
%TA.AperFunction,Conductor*%
%TO.N,Net-(C1-Pad2)*%
G36*
X125403851Y-73063097D02*
G01*
X125415898Y-73064283D01*
X125427939Y-73066068D01*
X125488642Y-73078142D01*
X125511902Y-73085198D01*
X125534023Y-73094360D01*
X125555461Y-73105819D01*
X125591472Y-73129881D01*
X125610262Y-73145302D01*
X125615180Y-73150220D01*
X125624976Y-73158785D01*
X125628073Y-73162233D01*
X125629909Y-73164277D01*
X125640758Y-73178244D01*
X125666675Y-73217031D01*
X125678134Y-73238469D01*
X125687303Y-73260605D01*
X125694359Y-73283867D01*
X125706427Y-73344538D01*
X125708212Y-73356569D01*
X125709402Y-73368645D01*
X125710000Y-73380805D01*
X125710000Y-82944193D01*
X125709402Y-82956353D01*
X125708212Y-82968429D01*
X125706427Y-82980460D01*
X125694359Y-83041130D01*
X125690676Y-83055247D01*
X125689165Y-83059895D01*
X125688786Y-83060813D01*
X125688781Y-83061080D01*
X125686552Y-83067943D01*
X125684726Y-83070613D01*
X125684638Y-83070825D01*
X125680471Y-83083160D01*
X125677284Y-83089820D01*
X125668534Y-83105185D01*
X125642619Y-83143970D01*
X125627197Y-83162761D01*
X125610261Y-83179697D01*
X125591469Y-83195119D01*
X125555464Y-83219176D01*
X125534029Y-83230633D01*
X125511894Y-83239802D01*
X125488631Y-83246859D01*
X125427960Y-83258927D01*
X125415929Y-83260712D01*
X125403853Y-83261902D01*
X125391693Y-83262500D01*
X121615795Y-83262500D01*
X121606574Y-83262157D01*
X121597388Y-83261472D01*
X121588257Y-83260449D01*
X121582116Y-83259530D01*
X121582096Y-83259527D01*
X121571256Y-83257903D01*
X121541534Y-83253450D01*
X121523570Y-83249375D01*
X121506102Y-83244021D01*
X121488944Y-83237332D01*
X121446335Y-83216956D01*
X121438176Y-83212675D01*
X121430198Y-83208103D01*
X121422375Y-83203224D01*
X121066521Y-82962500D01*
X114710002Y-78662500D01*
X114710001Y-78662500D01*
X114710000Y-78662500D01*
X114618060Y-78662500D01*
X113942330Y-78662500D01*
X113942325Y-78662499D01*
X113942323Y-78662500D01*
X113907389Y-78657475D01*
X113892390Y-78653070D01*
X113833644Y-78615327D01*
X113833615Y-78615293D01*
X113833614Y-78615293D01*
X113833613Y-78615291D01*
X113832457Y-78613958D01*
X113804977Y-78559083D01*
X113803332Y-78551521D01*
X113800500Y-78525168D01*
X113800500Y-77804329D01*
X113805523Y-77769393D01*
X113809927Y-77754395D01*
X113847672Y-77695644D01*
X113847700Y-77695619D01*
X113847699Y-77695619D01*
X113849041Y-77694456D01*
X113903920Y-77666977D01*
X113911479Y-77665333D01*
X113937832Y-77662500D01*
X114510002Y-77662500D01*
X116053750Y-76606249D01*
X118310000Y-75062500D01*
X118310000Y-73380797D01*
X118310597Y-73368647D01*
X118311783Y-73356601D01*
X118313568Y-73344561D01*
X118313573Y-73344538D01*
X118325643Y-73283852D01*
X118332699Y-73260595D01*
X118341862Y-73238473D01*
X118353316Y-73217041D01*
X118377388Y-73181016D01*
X118392799Y-73162238D01*
X118409738Y-73145299D01*
X118428516Y-73129888D01*
X118464541Y-73105816D01*
X118485970Y-73094362D01*
X118508104Y-73085195D01*
X118531347Y-73078144D01*
X118592068Y-73066066D01*
X118604089Y-73064284D01*
X118616147Y-73063096D01*
X118628297Y-73062500D01*
X125391702Y-73062500D01*
X125403851Y-73063097D01*
G37*
%TD.AperFunction*%
%TD*%
%TA.AperFunction,Conductor*%
%TO.N,Net-(C17-Pad2)*%
G36*
X125423851Y-97430791D02*
G01*
X125435898Y-97431977D01*
X125447939Y-97433762D01*
X125508642Y-97445836D01*
X125531902Y-97452892D01*
X125554023Y-97462054D01*
X125575461Y-97473513D01*
X125611472Y-97497575D01*
X125630262Y-97512996D01*
X125635180Y-97517914D01*
X125644976Y-97526479D01*
X125648073Y-97529927D01*
X125649909Y-97531971D01*
X125660758Y-97545938D01*
X125686675Y-97584725D01*
X125698134Y-97606163D01*
X125707303Y-97628299D01*
X125714359Y-97651561D01*
X125726427Y-97712232D01*
X125728212Y-97724263D01*
X125729402Y-97736339D01*
X125730000Y-97748499D01*
X125730000Y-107311887D01*
X125729402Y-107324047D01*
X125728212Y-107336123D01*
X125726427Y-107348154D01*
X125714359Y-107408824D01*
X125710676Y-107422941D01*
X125709165Y-107427589D01*
X125708786Y-107428507D01*
X125708781Y-107428774D01*
X125706552Y-107435637D01*
X125704726Y-107438307D01*
X125704638Y-107438519D01*
X125700471Y-107450854D01*
X125697284Y-107457514D01*
X125688534Y-107472879D01*
X125662619Y-107511664D01*
X125647197Y-107530455D01*
X125630261Y-107547391D01*
X125611469Y-107562813D01*
X125575464Y-107586870D01*
X125554029Y-107598327D01*
X125531894Y-107607496D01*
X125508631Y-107614553D01*
X125447960Y-107626621D01*
X125435929Y-107628406D01*
X125423853Y-107629596D01*
X125411693Y-107630194D01*
X121635795Y-107630194D01*
X121626574Y-107629851D01*
X121617388Y-107629166D01*
X121608257Y-107628143D01*
X121602116Y-107627224D01*
X121602096Y-107627221D01*
X121591256Y-107625597D01*
X121561534Y-107621144D01*
X121543570Y-107617069D01*
X121526102Y-107611715D01*
X121508944Y-107605026D01*
X121466335Y-107584650D01*
X121458176Y-107580369D01*
X121450198Y-107575797D01*
X121442375Y-107570918D01*
X121086521Y-107330194D01*
X115924149Y-103837999D01*
X115902371Y-103819246D01*
X115888527Y-103804198D01*
X115860007Y-103752334D01*
X115853892Y-103729508D01*
X115788000Y-103615380D01*
X115781009Y-103608389D01*
X115753150Y-103565724D01*
X115749865Y-103557294D01*
X115749716Y-103556643D01*
X115749352Y-103555977D01*
X115746460Y-103548553D01*
X115744917Y-103530649D01*
X115738000Y-103503537D01*
X115738000Y-101286901D01*
X115743022Y-101251969D01*
X115749036Y-101231486D01*
X115779076Y-101180014D01*
X115783322Y-101175643D01*
X115802228Y-101159721D01*
X118330000Y-99430194D01*
X118330000Y-97748491D01*
X118330597Y-97736341D01*
X118331783Y-97724295D01*
X118333568Y-97712255D01*
X118333573Y-97712232D01*
X118345643Y-97651546D01*
X118352699Y-97628289D01*
X118361862Y-97606167D01*
X118373316Y-97584735D01*
X118397388Y-97548710D01*
X118412799Y-97529932D01*
X118429738Y-97512993D01*
X118448516Y-97497582D01*
X118484541Y-97473510D01*
X118505970Y-97462056D01*
X118528104Y-97452889D01*
X118551347Y-97445838D01*
X118612068Y-97433760D01*
X118624089Y-97431978D01*
X118636147Y-97430790D01*
X118648297Y-97430194D01*
X125411702Y-97430194D01*
X125423851Y-97430791D01*
G37*
%TD.AperFunction*%
%TD*%
%TA.AperFunction,Conductor*%
%TO.N,/TPS54620_Buck1/VIN_BUCK*%
G36*
X110641971Y-102632575D02*
G01*
X110720618Y-102648218D01*
X110765308Y-102666729D01*
X110821626Y-102704360D01*
X110827519Y-102710253D01*
X110832251Y-102712313D01*
X110855832Y-102738565D01*
X110893462Y-102794882D01*
X110911976Y-102839581D01*
X110927617Y-102918213D01*
X110930000Y-102942404D01*
X110930000Y-103717983D01*
X110927617Y-103742174D01*
X110911976Y-103820806D01*
X110908786Y-103828507D01*
X110908694Y-103833667D01*
X110893462Y-103865505D01*
X110855836Y-103921817D01*
X110821623Y-103956030D01*
X110765311Y-103993656D01*
X110720612Y-104012170D01*
X110641980Y-104027811D01*
X110617789Y-104030194D01*
X110129999Y-104030194D01*
X108530000Y-105630193D01*
X108530000Y-105630194D01*
X108530000Y-107630194D01*
X110017789Y-107630194D01*
X110041971Y-107632575D01*
X110120618Y-107648218D01*
X110165308Y-107666729D01*
X110221626Y-107704360D01*
X110255833Y-107738567D01*
X110293462Y-107794882D01*
X110311976Y-107839581D01*
X110327617Y-107918213D01*
X110330000Y-107942404D01*
X110330000Y-113317983D01*
X110327617Y-113342174D01*
X110311976Y-113420806D01*
X110293462Y-113465505D01*
X110255836Y-113521817D01*
X110221623Y-113556029D01*
X110193688Y-113574695D01*
X110165311Y-113593656D01*
X110120612Y-113612170D01*
X110041980Y-113627811D01*
X110017789Y-113630194D01*
X108854668Y-113630194D01*
X108832377Y-113628174D01*
X108759620Y-113614878D01*
X108717922Y-113599111D01*
X108654568Y-113560942D01*
X108636520Y-113547711D01*
X98641406Y-104728493D01*
X98623681Y-104709153D01*
X98572399Y-104639677D01*
X98568092Y-104630133D01*
X98563200Y-104625219D01*
X98550940Y-104592123D01*
X98532775Y-104507708D01*
X98530000Y-104481622D01*
X98530000Y-103342404D01*
X98532381Y-103318223D01*
X98548025Y-103239573D01*
X98566534Y-103194887D01*
X98604168Y-103138564D01*
X98638370Y-103104362D01*
X98694693Y-103066728D01*
X98739379Y-103048219D01*
X98818028Y-103032575D01*
X98842211Y-103030194D01*
X106530000Y-103030194D01*
X108463245Y-102815389D01*
X110111823Y-102632213D01*
X110115189Y-102631887D01*
X110126608Y-102630937D01*
X110133441Y-102630558D01*
X110142122Y-102630318D01*
X110144920Y-102630241D01*
X110148346Y-102630194D01*
X110617789Y-102630194D01*
X110641971Y-102632575D01*
G37*
%TD.AperFunction*%
%TD*%
%TA.AperFunction,Conductor*%
%TO.N,/VUSBOUT*%
G36*
X128033567Y-70063677D02*
G01*
X128089744Y-70071474D01*
X128122547Y-70080758D01*
X128174481Y-70103562D01*
X128189599Y-70111484D01*
X131506835Y-72152860D01*
X135758238Y-74769108D01*
X135775154Y-74781613D01*
X135827413Y-74827587D01*
X135853753Y-74860197D01*
X135882481Y-74911608D01*
X135896448Y-74951130D01*
X135908215Y-75019736D01*
X135910000Y-75040698D01*
X135910000Y-78730784D01*
X135907766Y-78754216D01*
X135893085Y-78830508D01*
X135875695Y-78874021D01*
X135833752Y-78939415D01*
X135819221Y-78957933D01*
X128207374Y-86960132D01*
X128188340Y-86976462D01*
X128120490Y-87023661D01*
X128074630Y-87043332D01*
X127993665Y-87059964D01*
X127968714Y-87062500D01*
X127038833Y-87062500D01*
X126971794Y-87042815D01*
X126951152Y-87026181D01*
X126546319Y-86621348D01*
X126512834Y-86560025D01*
X126510000Y-86533667D01*
X126510000Y-85132653D01*
X126510677Y-85119713D01*
X126515177Y-85076828D01*
X126520550Y-85051509D01*
X126533860Y-85010478D01*
X126538480Y-84998419D01*
X126910000Y-84162500D01*
X127310000Y-83262500D01*
X127310000Y-73062500D01*
X126582288Y-72152860D01*
X126570658Y-72135504D01*
X126537148Y-72075037D01*
X126523366Y-72035749D01*
X126511760Y-71967599D01*
X126510000Y-71946781D01*
X126510000Y-70374710D01*
X126512381Y-70350529D01*
X126528025Y-70271879D01*
X126531212Y-70264184D01*
X126531305Y-70259026D01*
X126546533Y-70227195D01*
X126584168Y-70170870D01*
X126618370Y-70136668D01*
X126674693Y-70099034D01*
X126719379Y-70080525D01*
X126798028Y-70064881D01*
X126822211Y-70062500D01*
X128016520Y-70062500D01*
X128033567Y-70063677D01*
G37*
%TD.AperFunction*%
%TD*%
%TA.AperFunction,Conductor*%
%TO.N,/USBPD/VBUS*%
G36*
X108193039Y-52769685D02*
G01*
X108238794Y-52822489D01*
X108250000Y-52874000D01*
X108250000Y-54477192D01*
X108230315Y-54544231D01*
X108177511Y-54589986D01*
X108108353Y-54599930D01*
X108093912Y-54596968D01*
X108079790Y-54593184D01*
X108079769Y-54593180D01*
X107948948Y-54575958D01*
X107948947Y-54575958D01*
X107851053Y-54575958D01*
X107851052Y-54575958D01*
X107720230Y-54593180D01*
X107720223Y-54593181D01*
X107720220Y-54593182D01*
X107649923Y-54612018D01*
X107625661Y-54618519D01*
X107625645Y-54618524D01*
X107503758Y-54669011D01*
X107503748Y-54669016D01*
X107418964Y-54717965D01*
X107314271Y-54798300D01*
X107245050Y-54867521D01*
X107164715Y-54972214D01*
X107115766Y-55056998D01*
X107115761Y-55057008D01*
X107065274Y-55178895D01*
X107065269Y-55178911D01*
X107039933Y-55273467D01*
X107039930Y-55273480D01*
X107022708Y-55404302D01*
X107022708Y-55502197D01*
X107039930Y-55633019D01*
X107039931Y-55633024D01*
X107039932Y-55633030D01*
X107039933Y-55633032D01*
X107065269Y-55727588D01*
X107065274Y-55727604D01*
X107115761Y-55849491D01*
X107115766Y-55849501D01*
X107164715Y-55934285D01*
X107245050Y-56038978D01*
X107245058Y-56038987D01*
X107314263Y-56108192D01*
X107314271Y-56108199D01*
X107314272Y-56108200D01*
X107418967Y-56188536D01*
X107503747Y-56237483D01*
X107503752Y-56237485D01*
X107503758Y-56237488D01*
X107625645Y-56287975D01*
X107625651Y-56287976D01*
X107625661Y-56287981D01*
X107720220Y-56313318D01*
X107812620Y-56325482D01*
X107851052Y-56330542D01*
X107851053Y-56330542D01*
X107948948Y-56330542D01*
X108027596Y-56320188D01*
X108079780Y-56313318D01*
X108079780Y-56313317D01*
X108083805Y-56312788D01*
X108084060Y-56314729D01*
X108145780Y-56320188D01*
X108201002Y-56362993D01*
X108223204Y-56417744D01*
X108224500Y-56426637D01*
X108224500Y-56439861D01*
X108248600Y-56592023D01*
X108248704Y-56592736D01*
X108248632Y-56593241D01*
X108250000Y-56610617D01*
X108250000Y-57876000D01*
X108230315Y-57943039D01*
X108177511Y-57988794D01*
X108126000Y-58000000D01*
X101874000Y-58000000D01*
X101806961Y-57980315D01*
X101761206Y-57927511D01*
X101750000Y-57876000D01*
X101750000Y-56610617D01*
X101751296Y-56592736D01*
X101751399Y-56592023D01*
X101775500Y-56439861D01*
X101775500Y-56426637D01*
X101776796Y-56417744D01*
X101787772Y-56393829D01*
X101795185Y-56368586D01*
X101802115Y-56362580D01*
X101805942Y-56354244D01*
X101828105Y-56340059D01*
X101847989Y-56322831D01*
X101857067Y-56321525D01*
X101864792Y-56316582D01*
X101891100Y-56316632D01*
X101916163Y-56313028D01*
X101916195Y-56312788D01*
X101917051Y-56312900D01*
X101917147Y-56312887D01*
X101917803Y-56312999D01*
X101920214Y-56313316D01*
X101920220Y-56313318D01*
X102032323Y-56328076D01*
X102051052Y-56330542D01*
X102051053Y-56330542D01*
X102148948Y-56330542D01*
X102178652Y-56326631D01*
X102279780Y-56313318D01*
X102374339Y-56287981D01*
X102374351Y-56287975D01*
X102374354Y-56287975D01*
X102496241Y-56237488D01*
X102496241Y-56237487D01*
X102496253Y-56237483D01*
X102581033Y-56188536D01*
X102685728Y-56108200D01*
X102685732Y-56108195D01*
X102685737Y-56108192D01*
X102754942Y-56038987D01*
X102754945Y-56038982D01*
X102754950Y-56038978D01*
X102835286Y-55934283D01*
X102884233Y-55849503D01*
X102934731Y-55727589D01*
X102960068Y-55633030D01*
X102977292Y-55502197D01*
X102977292Y-55404303D01*
X102960068Y-55273470D01*
X102934731Y-55178911D01*
X102934726Y-55178901D01*
X102934725Y-55178895D01*
X102884238Y-55057008D01*
X102884233Y-55056998D01*
X102884233Y-55056997D01*
X102835286Y-54972217D01*
X102754950Y-54867522D01*
X102754949Y-54867521D01*
X102754942Y-54867513D01*
X102685737Y-54798308D01*
X102685728Y-54798300D01*
X102581035Y-54717965D01*
X102496251Y-54669016D01*
X102496241Y-54669011D01*
X102374354Y-54618524D01*
X102374342Y-54618520D01*
X102374339Y-54618519D01*
X102279780Y-54593182D01*
X102279774Y-54593181D01*
X102279769Y-54593180D01*
X102148948Y-54575958D01*
X102148947Y-54575958D01*
X102051053Y-54575958D01*
X102051052Y-54575958D01*
X101920230Y-54593180D01*
X101920209Y-54593184D01*
X101906088Y-54596968D01*
X101836238Y-54595302D01*
X101778377Y-54556137D01*
X101750876Y-54491907D01*
X101750000Y-54477192D01*
X101750000Y-52874000D01*
X101769685Y-52806961D01*
X101822489Y-52761206D01*
X101874000Y-52750000D01*
X108126000Y-52750000D01*
X108193039Y-52769685D01*
G37*
%TD.AperFunction*%
%TD*%
M02*
