<?xml version="1.0" encoding="UTF-8"?>
<!DOCTYPE svg PUBLIC "-//W3C//DTD SVG 1.1//EN" "http://www.w3.org/Graphics/SVG/1.1/DTD/svg11.dtd">

<svg xmlns="http://www.w3.org/2000/svg" xmlns:xlink="http://www.w3.org/1999/xlink" width="320.0px" height="254px" viewbox="0 0 320.0 254" version="1.1">
  <title>TPS5462X_BUCK_RHL_A_top: null</title>
  <desc>TPS5462X_BUCK_RHL_A WebTHERM&amp;reg; Board Layout file</desc>
<defs>
<g id="IND_NPI52P">
  <g id="MASK" display="none">
  	<polyline display="inline" stroke="#000000" points="8.801,39.623 4.65,39.623 4.65,43.974 0.5,43.974 0.5,22.026 4.65,22.026 
  		4.65,26.379 8.801,26.379 	"/>
  	<polyline display="inline" stroke="#000000" points="81.6,39.623 85.75,39.623 85.75,43.974 89.9,43.974 89.9,22.026 85.75,22.026 
  		85.75,26.379 81.6,26.379 	"/>
  	<polygon display="inline" stroke="#000000" points="33.734,65.5 9.045,46.462 9.045,19.538 33.734,0.5 57.345,0.5 82.035,19.538 
  		82.035,46.462 57.345,65.5 	"/>
  </g>
  <g id="COLOR">
  	<polyline fill="#666666" stroke="#000000" points="8.801,39.623 4.65,39.623 4.65,43.974 0.5,43.974 0.5,22.026 4.65,22.026 
  		4.65,26.379 8.801,26.379 	"/>
  	<polyline fill="#666666" stroke="#000000" points="81.6,39.623 85.75,39.623 85.75,43.974 89.9,43.974 89.9,22.026 85.75,22.026 
  		85.75,26.379 81.6,26.379 	"/>
  	<polygon fill="#666666" stroke="#000000" points="33.734,65.5 9.045,46.462 9.045,19.538 33.734,0.5 57.345,0.5 82.035,19.538 
  		82.035,46.462 57.345,65.5 	"/>
  	<ellipse fill="none" stroke="#000000" cx="45.2" cy="33" rx="29.8" ry="29.516"/>
  	<ellipse fill="none" stroke="#000000" cx="45.2" cy="33" rx="26.82" ry="26.564"/>
  	<line fill="none" stroke="#000000" x1="15.494" y1="32.924" x2="6.607" y2="32.924"/>
  	<line fill="none" stroke="#000000" x1="6.607" y1="26.294" x2="6.607" y2="39.438"/>
  	<line fill="none" stroke="#000000" x1="75.18" y1="32.924" x2="84.065" y2="32.924"/>
  	<line fill="none" stroke="#000000" x1="84.065" y1="26.294" x2="84.065" y2="39.438"/>
  </g>
  <g id="OUTLINE" display="none">
  	<polygon display="inline" fill="none" stroke="#000000" points="33.734,65.5 9.045,46.462 9.045,19.538 33.734,0.5 57.345,0.5 
  		82.035,19.538 82.035,46.462 57.345,65.5 	"/>
  	<polyline display="inline" fill="none" stroke="#000000" points="8.801,39.623 4.65,39.623 4.65,43.974 0.5,43.974 0.5,22.026 
  		4.65,22.026 4.65,26.379 8.801,26.379 	"/>
  	<polyline display="inline" fill="none" stroke="#000000" points="81.6,39.623 85.75,39.623 85.75,43.974 89.9,43.974 89.9,22.026 
  		85.75,22.026 85.75,26.379 81.6,26.379 	"/>
  	<ellipse display="inline" fill="none" stroke="#000000" cx="45.2" cy="33" rx="29.8" ry="29.516"/>
  	<ellipse display="inline" fill="none" stroke="#000000" cx="45.2" cy="33" rx="26.82" ry="26.564"/>
  	<line display="inline" fill="none" stroke="#000000" x1="15.494" y1="32.924" x2="6.607" y2="32.924"/>
  	<line display="inline" fill="none" stroke="#000000" x1="6.607" y1="26.294" x2="6.607" y2="39.438"/>
  	<line display="inline" fill="none" stroke="#000000" x1="75.18" y1="32.924" x2="84.065" y2="32.924"/>
  	<line display="inline" fill="none" stroke="#000000" x1="84.065" y1="26.294" x2="84.065" y2="39.438"/>
  </g>
</g>
<g id="1206">
  <g>
  	<rect x="0.5" y="0.5" fill="#5B5B5B" stroke="#000000" width="13" height="7"/>
  	<rect x="0.5" y="0.5" fill="#C6C6C6" stroke="#000000" width="3" height="7"/>
  	<rect x="10.5" y="0.501" fill="#C6C6C6" stroke="#000000" width="3" height="6.999"/>
  </g>
</g>
<g id="0805">
  <g id="MASK" style="display:none;">
  	<g style="display:inline;">
  		<rect x="0.279" y="0.279" width="7.442" height="4.442"/>
  		<path d="M7.442,0.558v3.884H0.558V0.558H7.442 M8,0H0v5h8V0L8,0z"/>
  	</g>
  </g>
  <g id="COLOR">
  	<rect style="fill:#CBCBCB;" width="8" height="5"/>
  	<rect x="1.75" style="fill:#363636;" width="4.5" height="5"/>
  </g>
  <g id="OUTLINE" style="display:none;">
  	<g style="display:inline;">
  		<path d="M7.442,0.558v3.884H0.558V0.558H7.442 M8,0H0v5h8V0L8,0z"/>
  	</g>
  	<g style="display:inline;">
  		<path d="M5.656,0.594v3.812H2.344V0.594H5.656 M6.25,0h-4.5v5h4.5V0L6.25,0z"/>
  	</g>
  </g>
</g>
<g id="1812">
  <g id="Mask" style="display:none;">
  	<g style="display:inline;">
  		<rect x="0.25" y="0.25" width="17.5" height="12.3"/>
  		<path d="M17.5,0.5v11.8h-17V0.5H17.5 M18,0H0v12.8h18V0L18,0z"/>
  	</g>
  	<g style="display:inline;">
  		<rect x="2.75" y="0.25" width="12.5" height="12.3"/>
  		<path d="M15,0.5v11.8H3V0.5H15 M15.5,0h-13v12.8h13V0L15.5,0z"/>
  	</g>
  </g>
  <g id="Outline" style="display:none;">
  	<g style="display:inline;">
  		<path d="M17.5,0.5v11.8h-17V0.5H17.5 M18,0H0v12.8h18V0L18,0z"/>
  	</g>
  	<g style="display:inline;">
  		<path d="M15,0.5v11.8H3V0.5H15 M15.5,0h-13v12.8h13V0L15.5,0z"/>
  	</g>
  </g>
  <g id="Color">
  	<g>
  		<rect x="0.25" y="0.25" style="fill:#CCCCCC;" width="17.5" height="12.3"/>
  		<path d="M17.5,0.5v11.8h-17V0.5H17.5 M18,0H0v12.8h18V0L18,0z"/>
  	</g>
  	<g>
  		<rect x="2.75" y="0.25" style="fill:#4D4D4D;" width="12.5" height="12.3"/>
  		<path d="M15,0.5v11.8H3V0.5H15 M15.5,0h-13v12.8h13V0L15.5,0z"/>
  	</g>
  </g>
</g>
<g id="0402">
  <g id="MASK" display="none">
  	<g display="inline">
  		<rect x="0.125" y="0.125" width="3.752" height="1.757"/>
  		<path d="M3.752,0.25v1.507H0.25V0.25H3.752 M4.002,0H0v2.007h4.002V0L4.002,0z"/>
  	</g>
  </g>
  <g id="COLOR">
  	<rect fill="#CBCBCB" width="4.002" height="2.007"/>
  	<rect x="1.008" fill="#363636" width="1.986" height="2.007"/>
  </g>
  <g id="OUTLINE">
  	<g>
  		<path d="M3.752,0.25v1.507H0.25V0.25H3.752 M4.002,0H0v2.007h4.002V0L4.002,0z"/>
  	</g>
  	<g>
  		<path d="M2.744,0.25v1.507H1.258V0.25H2.744 M2.994,0H1.008v2.007h1.986V0L2.994,0z"/>
  	</g>
  </g>
</g>
<g id="1210_280">
  <g id="MASK" style="display:none;">
  	<rect style="display:inline;" width="9.071" height="7.087"/>
  	<rect x="1.701" style="display:inline;" width="5.669" height="7.087"/>
  </g>
  <g id="OUTLINE" style="display:none;">
  	<g style="display:inline;">
  		<path d="M8.571,0.5v6.087H0.5V0.5H8.571 M9.071,0H0v7.087h9.071V0L9.071,0z"/>
  	</g>
  	<g style="display:inline;">
  		<path d="M6.87,0.5v6.087H2.201V0.5H6.87 M7.37,0H1.701v7.087H7.37V0L7.37,0z"/>
  	</g>
  </g>
  <g id="COLOR">
  	<rect style="fill:#CBCBCB;" width="9.071" height="7.087"/>
  	<rect x="1.701" style="fill:#363636;" width="5.669" height="7.087"/>
  </g>
</g>
<g id="0201">
  <g id="Mask" display="none">
  	<rect x="0.5" y="0.5" display="inline" stroke="#000000" width="2.4" height="1.2"/>
  </g>
  <g id="Color">
  	<rect x="0.5" y="0.5" fill="#404040" stroke="#000000" width="2.4" height="1.2"/>
  </g>
  <g id="Outline" display="none">
  	<rect x="0.5" y="0.5" display="inline" fill="none" stroke="#000000" width="2.4" height="1.2"/>
  </g>
</g>
<g id="S-PVQFN-N14">
  <g id="Mask" display="none">
  	<rect x="0.5" y="0.5" display="inline" stroke="#000000" width="14.6" height="14.6"/>
  </g>
  <g id="Color">
  	<rect x="0.5" y="0.5" fill="#404040" stroke="#000000" width="14.6" height="14.6"/>
  	<circle fill="none" stroke="#000000" cx="2.569" cy="2.7" r="0.299"/>
  </g>
  <g id="Outline" display="none">
  	<rect x="0.5" y="0.5" display="inline" fill="none" stroke="#000000" width="14.6" height="14.6"/>
  	<circle display="inline" fill="none" stroke="#000000" cx="2.569" cy="2.7" r="0.299"/>
  </g>
</g>
</defs>
<g id="boardComps">
  <g id="topview_images">
    <rect x="13.0" y="130.0" width="6.0" height="6.0" transform="rotate(-90.0 17.0 134.0)" name="0_VIN_TP-1502" style="fill:white;stroke:black;stroke-width:1;" />
    <rect x="13.0" y="102.0" width="6.0" height="6.0" transform="rotate(-90.0 17.0 105.0)" name="1_GND_TP-1502" style="fill:white;stroke:black;stroke-width:1;" />
    <use x="133.0" y="126.0" width="90.0" height="66.0" name="2_L1_IND_NPI52P" xlink:href="#IND_NPI52P" />
    <use x="86.0" y="115.0" width="14.0" height="8.0" transform="rotate(-90.0 93.0 119.0)" name="3_Cin_1_1206" xlink:href="#1206" />
    <use x="70.0" y="115.0" width="14.0" height="8.0" transform="rotate(-90.0 77.0 119.0)" name="3_Cin_2_1206" xlink:href="#1206" />
    <use x="55.0" y="115.0" width="14.0" height="8.0" transform="rotate(-90.0 62.0 119.0)" name="3_Cin_3_1206" xlink:href="#1206" />
    <use x="127.0" y="108.0" width="8.0" height="5.0" transform="rotate(-90.0 131.0 110.0)" name="4_Cboot_0805" xlink:href="#0805" />
    <use x="107.0" y="141.0" width="18.0" height="12.0" transform="rotate(-180.0 116.0 147.0)" name="5_Ccomp_1812" xlink:href="#1812" />
    <use x="114.0" y="137.0" width="4.0" height="2.0" transform="rotate(-180.0 116.0 138.0)" name="6_Ccomp2_0402" xlink:href="#0402" />
    <use x="223.0" y="110.0" width="9.0" height="7.0" transform="rotate(-90.0 228.0 113.0)" name="7_Cout_1210_280" xlink:href="#1210_280" />
    <use x="99.0" y="135.0" width="8.0" height="5.0" name="8_Cinx_0805" xlink:href="#0805" />
    <use x="112.0" y="154.0" width="8.0" height="5.0" transform="rotate(-180.0 116.0 156.0)" name="9_Css_0805" xlink:href="#0805" />
    <use x="128.0" y="167.0" width="4.0" height="2.0" transform="rotate(-90.0 130.0 168.0)" name="10_Rent_0402" xlink:href="#0402" />
    <use x="115.0" y="164.0" width="3.0" height="2.0" transform="rotate(-180.0 116.0 165.0)" name="11_Renb_0201" xlink:href="#0201" />
    <use x="111.0" y="103.0" width="4.0" height="2.0" name="12_Rt_0402" xlink:href="#0402" />
    <use x="126.0" y="140.0" width="4.0" height="2.0" transform="rotate(-270.0 128.0 141.0)" name="13_Rcomp_0402" xlink:href="#0402" />
    <use x="93.0" y="149.0" width="4.0" height="2.0" transform="rotate(-90.0 95.0 150.0)" name="14_Rfbt_0402" xlink:href="#0402" />
    <use x="103.0" y="148.0" width="3.0" height="2.0" transform="rotate(-270.0 105.0 150.0)" name="15_Rfbb_0201" xlink:href="#0201" />
    <rect x="127.0" y="39.0" width="6.0" height="6.0" transform="rotate(-180.0 130.0 42.0)" name="16_RPG1_TP-1502" style="fill:white;stroke:black;stroke-width:1;" />
    <use x="106.0" y="112.0" width="15.0" height="15.0" name="17_U1_S-PVQFN-N14" xlink:href="#S-PVQFN-N14" />
    <rect x="299.0" y="55.0" width="6.0" height="6.0" transform="rotate(-90.0 302.0 58.0)" name="18_GND1_TP-1502" style="fill:white;stroke:black;stroke-width:1;" />
    <rect x="299.0" y="160.0" width="6.0" height="6.0" transform="rotate(-90.0 302.0 163.0)" name="19_VOUT_TP-1502" style="fill:white;stroke:black;stroke-width:1;" />
    <use x="126.0" y="89.0" width="8.0" height="5.0" transform="rotate(-90.0 130.0 91.0)" name="20_Rpg_0805" xlink:href="#0805" />
  </g>
</g>
</svg>
