<?xml version="1.0" encoding="UTF-8"?>
<!DOCTYPE svg PUBLIC "-//W3C//DTD SVG 1.1//EN" "http://www.w3.org/Graphics/SVG/1.1/DTD/svg11.dtd">

<svg xmlns="http://www.w3.org/2000/svg" xmlns:xlink="http://www.w3.org/1999/xlink" width="320.0px" height="254px" viewbox="0 0 320.0 254" version="1.1">
  <title>TPS5462X_BUCK_RHL_A_mid2: null</title>
  <desc>TPS5462X_BUCK_RHL_A WebTHERM&amp;reg; Board Layout file</desc>
  <g id="board" fill-opacity="1" transform="scale(0.1016,-0.1016) translate(0,-2500.0)">
    <rect x="0" y="0" width="3150" height="2500" stroke="#006600" stroke-width="0" fill="#006600" type="Fill" layer="PCB" />
    <polygon net="0" points="3120,30 30,30 30,2470 3120,2470" stroke-width="0.0" stroke="#ff9900" fill="#ff9900" stroke-linecap="round" stroke-linejoin="round" opacity="1.0" layer="MID2" />
    <polygon net="0" points="1290,2159 1274,2157 1259,2153 1245,2145 1233,2136 1224,2124 1216,2110 1212,2095 1210,2080 1212,2064 1216,2049 1224,2035 1233,2023 1245,2014 1259,2006 1274,2002 1274,2002 1274,1696 1274,1695 1269,1688 1267,1680 1269,1671 1274,1664 1281,1659 1290,1657 1298,1659 1305,1664 1310,1671 1312,1680 1310,1688 1305,1695 1305,1696 1305,2002 1305,2002 1320,2006 1334,2014 1346,2023 1355,2035 1363,2049 1367,2064 1369,2080 1367,2095 1363,2110 1355,2124 1346,2136 1334,2145 1320,2153 1305,2157" stroke-width="0.0" stroke="#006600" fill="#006600" stroke-linecap="round" stroke-linejoin="round" opacity="1.0" layer="MID2" />
    <polygon net="0" points="1071,1217 1062,1216 1055,1211 1050,1204 1049,1195 1050,1186 1055,1179 1062,1174 1071,1173 1080,1174 1087,1179 1092,1186 1093,1195 1092,1204 1087,1211 1080,1216" stroke-width="0.0" stroke="#006600" fill="#006600" stroke-linecap="round" stroke-linejoin="round" opacity="1.0" layer="MID2" />
    <polygon net="0" points="170,1259 154,1257 139,1253 125,1245 113,1236 104,1224 96,1210 92,1195 90,1180 92,1164 96,1149 104,1135 113,1123 125,1114 139,1106 154,1102 170,1100 185,1102 200,1106 214,1114 226,1123 235,1135 243,1149 247,1164 249,1180 247,1195 243,1210 235,1224 226,1236 214,1245 200,1253 185,1257" stroke-width="0.0" stroke="#006600" fill="#006600" stroke-linecap="round" stroke-linejoin="round" opacity="1.0" layer="MID2" />
    <polygon net="0" points="876,1075 867,1074 860,1069 855,1062 854,1053 855,1044 860,1037 867,1032 876,1031 885,1032 892,1037 897,1044 898,1053 897,1062 892,1069 885,1074" stroke-width="0.0" stroke="#006600" fill="#006600" stroke-linecap="round" stroke-linejoin="round" opacity="1.0" layer="MID2" />
    <polygon net="0" points="940,958 931,956 924,951 919,944 917,936 919,927 924,920 931,915 940,913 948,915 955,920 960,927 962,936 960,944 955,951 948,956" stroke-width="0.0" stroke="#006600" fill="#006600" stroke-linecap="round" stroke-linejoin="round" opacity="1.0" layer="MID2" />
    <polygon net="0" points="2979,970 2963,968 2948,964 2934,956 2922,947 2913,935 2905,921 2901,906 2899,891 2901,875 2905,860 2913,846 2922,834 2934,825 2948,817 2963,813 2979,811 2994,813 3009,817 3023,825 3035,834 3044,846 3052,860 3056,875 3058,891 3056,906 3052,921 3044,935 3035,947 3023,956 3009,964 2994,968" stroke-width="0.0" stroke="#006600" fill="#006600" stroke-linecap="round" stroke-linejoin="round" opacity="1.0" layer="MID2" />
    <line net="-1" x1="3150" y1="0" x2="3150" y2="2500" stroke-width="1" stroke="#ff9900" stroke-linecap="round" stroke-linejoin="round" opacity="1.0" layer="MULTILAYER" />
    <line net="-1" x1="2500" y1="2500" x2="2500" y2="2500" stroke-width="1" stroke="#ff9900" stroke-linecap="round" stroke-linejoin="round" opacity="1.0" layer="MULTILAYER" />
    <line net="-1" x1="0" y1="2500" x2="0" y2="2500" stroke-width="1" stroke="#ff9900" stroke-linecap="round" stroke-linejoin="round" opacity="1.0" layer="MULTILAYER" />
    <line net="-1" x1="2500" y1="0" x2="2500" y2="0" stroke-width="1" stroke="#ff9900" stroke-linecap="round" stroke-linejoin="round" opacity="1.0" layer="MULTILAYER" />
    <line net="-1" x1="2500" y1="2500" x2="2500" y2="2500" stroke-width="1" stroke="#ff9900" stroke-linecap="round" stroke-linejoin="round" opacity="1.0" layer="MULTILAYER" />
    <line net="-1" x1="0" y1="0" x2="0" y2="2500" stroke-width="1" stroke="#ff9900" stroke-linecap="round" stroke-linejoin="round" opacity="1.0" layer="MULTILAYER" />
    <line net="-1" x1="0" y1="2500" x2="3150" y2="2500" stroke-width="1" stroke="#ff9900" stroke-linecap="round" stroke-linejoin="round" opacity="1.0" layer="MULTILAYER" />
    <line net="-1" x1="0" y1="0" x2="3150" y2="0" stroke-width="1" stroke="#ff9900" stroke-linecap="round" stroke-linejoin="round" opacity="1.0" layer="MULTILAYER" />
    <line net="23" x1="1290" y1="1680" x2="1290" y2="2080" stroke-width="10" stroke="#ff9900" stroke-linecap="round" stroke-linejoin="round" opacity="1.0" layer="MID2" />
    <circle net="0" cx="1122" cy="1337" r="8" r1="12" r2="5" stroke-width="7" stroke="#ff9900" fill="#ffffff" opacity="1" layer="MULTILAYER" />
    <circle net="0" cx="1121" cy="1290" r="8" r1="12" r2="5" stroke-width="7" stroke="#ff9900" fill="#ffffff" opacity="1" layer="MULTILAYER" />
    <circle net="0" cx="1146" cy="1314" r="8" r1="12" r2="5" stroke-width="7" stroke="#ff9900" fill="#ffffff" opacity="1" layer="MULTILAYER" />
    <circle net="0" cx="1097" cy="1314" r="8" r1="12" r2="5" stroke-width="7" stroke="#ff9900" fill="#ffffff" opacity="1" layer="MULTILAYER" />
    <circle net="0" cx="2142" cy="1819" r="8" r1="12" r2="5" stroke-width="7" stroke="#ff9900" fill="#ffffff" opacity="1" layer="MULTILAYER" />
    <circle net="0" cx="2109" cy="1819" r="8" r1="12" r2="5" stroke-width="7" stroke="#ff9900" fill="#ffffff" opacity="1" layer="MULTILAYER" />
    <circle net="0" cx="2075" cy="1819" r="8" r1="12" r2="5" stroke-width="7" stroke="#ff9900" fill="#ffffff" opacity="1" layer="MULTILAYER" />
    <circle net="0" cx="2042" cy="1819" r="8" r1="12" r2="5" stroke-width="7" stroke="#ff9900" fill="#ffffff" opacity="1" layer="MULTILAYER" />
    <circle net="0" cx="2009" cy="1819" r="8" r1="12" r2="5" stroke-width="7" stroke="#ff9900" fill="#ffffff" opacity="1" layer="MULTILAYER" />
    <circle net="0" cx="1976" cy="1819" r="8" r1="12" r2="5" stroke-width="7" stroke="#ff9900" fill="#ffffff" opacity="1" layer="MULTILAYER" />
    <circle net="0" cx="1943" cy="1819" r="8" r1="12" r2="5" stroke-width="7" stroke="#ff9900" fill="#ffffff" opacity="1" layer="MULTILAYER" />
    <circle net="0" cx="1909" cy="1819" r="8" r1="12" r2="5" stroke-width="7" stroke="#ff9900" fill="#ffffff" opacity="1" layer="MULTILAYER" />
    <circle net="0" cx="1875" cy="1819" r="8" r1="12" r2="5" stroke-width="7" stroke="#ff9900" fill="#ffffff" opacity="1" layer="MULTILAYER" />
    <circle net="0" cx="2176" cy="1819" r="8" r1="12" r2="5" stroke-width="7" stroke="#ff9900" fill="#ffffff" opacity="1" layer="MULTILAYER" />
    <circle net="0" cx="2210" cy="1819" r="8" r1="12" r2="5" stroke-width="7" stroke="#ff9900" fill="#ffffff" opacity="1" layer="MULTILAYER" />
    <circle net="8" cx="940" cy="936" r="8" r1="12" r2="5" stroke-width="7" stroke="#ff9900" fill="#ffffff" opacity="1" layer="MULTILAYER" />
    <circle net="5" cx="876" cy="1053" r="8" r1="12" r2="5" stroke-width="7" stroke="#ff9900" fill="#ffffff" opacity="1" layer="MULTILAYER" />
    <circle net="5" cx="1071" cy="1195" r="8" r1="12" r2="5" stroke-width="7" stroke="#ff9900" fill="#ffffff" opacity="1" layer="MULTILAYER" />
    <circle net="0" cx="1146" cy="1290" r="8" r1="12" r2="5" stroke-width="7" stroke="#ff9900" fill="#ffffff" opacity="1" layer="MULTILAYER" />
    <circle net="0" cx="1034" cy="1540" r="8" r1="12" r2="5" stroke-width="7" stroke="#ff9900" fill="#ffffff" opacity="1" layer="MULTILAYER" />
    <circle net="0" cx="1001" cy="1540" r="8" r1="12" r2="5" stroke-width="7" stroke="#ff9900" fill="#ffffff" opacity="1" layer="MULTILAYER" />
    <circle net="0" cx="968" cy="1540" r="8" r1="12" r2="5" stroke-width="7" stroke="#ff9900" fill="#ffffff" opacity="1" layer="MULTILAYER" />
    <circle net="0" cx="935" cy="1540" r="8" r1="12" r2="5" stroke-width="7" stroke="#ff9900" fill="#ffffff" opacity="1" layer="MULTILAYER" />
    <circle net="0" cx="902" cy="1540" r="8" r1="12" r2="5" stroke-width="7" stroke="#ff9900" fill="#ffffff" opacity="1" layer="MULTILAYER" />
    <circle net="0" cx="869" cy="1540" r="8" r1="12" r2="5" stroke-width="7" stroke="#ff9900" fill="#ffffff" opacity="1" layer="MULTILAYER" />
    <circle net="0" cx="836" cy="1540" r="8" r1="12" r2="5" stroke-width="7" stroke="#ff9900" fill="#ffffff" opacity="1" layer="MULTILAYER" />
    <circle net="0" cx="803" cy="1540" r="8" r1="12" r2="5" stroke-width="7" stroke="#ff9900" fill="#ffffff" opacity="1" layer="MULTILAYER" />
    <circle net="0" cx="771" cy="1540" r="8" r1="12" r2="5" stroke-width="7" stroke="#ff9900" fill="#ffffff" opacity="1" layer="MULTILAYER" />
    <circle net="0" cx="739" cy="1540" r="8" r1="12" r2="5" stroke-width="7" stroke="#ff9900" fill="#ffffff" opacity="1" layer="MULTILAYER" />
    <circle net="0" cx="706" cy="1540" r="8" r1="12" r2="5" stroke-width="7" stroke="#ff9900" fill="#ffffff" opacity="1" layer="MULTILAYER" />
    <circle net="0" cx="639" cy="1540" r="8" r1="12" r2="5" stroke-width="7" stroke="#ff9900" fill="#ffffff" opacity="1" layer="MULTILAYER" />
    <circle net="0" cx="672" cy="1540" r="8" r1="12" r2="5" stroke-width="7" stroke="#ff9900" fill="#ffffff" opacity="1" layer="MULTILAYER" />
    <circle net="0" cx="1097" cy="1290" r="8" r1="12" r2="5" stroke-width="7" stroke="#ff9900" fill="#ffffff" opacity="1" layer="MULTILAYER" />
    <circle net="0" cx="1098" cy="1337" r="8" r1="12" r2="5" stroke-width="7" stroke="#ff9900" fill="#ffffff" opacity="1" layer="MULTILAYER" />
    <circle net="0" cx="1146" cy="1337" r="8" r1="12" r2="5" stroke-width="7" stroke="#ff9900" fill="#ffffff" opacity="1" layer="MULTILAYER" />
    <circle net="0" cx="1121" cy="1314" r="8" r1="12" r2="5" stroke-width="7" stroke="#ff9900" fill="#ffffff" opacity="1" layer="MULTILAYER" />
    <circle net="23" cx="1290" cy="1680" r="8" r1="12" r2="5" stroke-width="7" stroke="#ff9900" fill="#ffffff" opacity="1" layer="MULTILAYER" />
    <circle net="23" cx="1290" cy="2080" r="58.8" r1="68" r2="49" stroke-width="19" stroke="#ff9900" fill="#ffffff" opacity="1" layer="MULTILAYER" />
    <circle net="0" cx="170" cy="1465" r="58.8" r1="68" r2="49" stroke-width="19" stroke="#ff9900" fill="#ffffff" opacity="1" layer="MULTILAYER" />
    <circle net="4" cx="170" cy="1180" r="58.8" r1="68" r2="49" stroke-width="19" stroke="#ff9900" fill="#ffffff" opacity="1" layer="MULTILAYER" />
    <circle net="0" cx="2979" cy="1924" r="58.8" r1="68" r2="49" stroke-width="19" stroke="#ff9900" fill="#ffffff" opacity="1" layer="MULTILAYER" />
    <circle net="8" cx="2979" cy="891" r="58.8" r1="68" r2="49" stroke-width="19" stroke="#ff9900" fill="#ffffff" opacity="1" layer="MULTILAYER" />
  </g>
</svg>

