<?xml version="1.0" encoding="UTF-8"?>
<!DOCTYPE svg PUBLIC "-//W3C//DTD SVG 1.1//EN" "http://www.w3.org/Graphics/SVG/1.1/DTD/svg11.dtd">

<svg xmlns="http://www.w3.org/2000/svg" xmlns:xlink="http://www.w3.org/1999/xlink" width="320.0px" height="254px" viewbox="0 0 320.0 254" version="1.1">
  <title>TPS5462X_BUCK_RHL_A_top: null</title>
  <desc>TPS5462X_BUCK_RHL_A WebTHERM&amp;reg; Board Layout file</desc>
  <g id="board" fill-opacity="1" transform="scale(0.1016,-0.1016) translate(0,-2500.0)">
    <rect x="0" y="0" width="3150" height="2500" stroke="#006600" stroke-width="0" fill="#006600" type="Fill" layer="PCB" />
    <polygon net="3" points="1755,930 1355,930 1355,967 1355,969 1355,1234 1355,1235 1355,1310 1281,1310 1278,1310 1191,1310 1187,1310 1180,1310 1180,1338 1188,1338 1191,1338 1193,1338 1203,1338 1208,1339 1209,1340 1250,1340 1250,1400 1355,1400 1355,1750 1755,1750" stroke-width="0.0" stroke="#ff9900" fill="#ff9900" stroke-linecap="round" stroke-linejoin="round" opacity="1.0" layer="TOP" />
    <polygon net="8" points="2170,1375 3120,1375 3120,560 1355,560 1355,919 1755,919 1755,920 1765,920 1765,929 1765,930 1765,1750 2170,1750" stroke-width="0.0" stroke="#ff9900" fill="#ff9900" stroke-linecap="round" stroke-linejoin="round" opacity="1.0" layer="TOP" />
    <polygon net="4" points="1016,1318 1022,1317 1065,1317 1065,1260 1010,1260 1010,1090 850,1090 850,835 1344,835 1344,560 30,560 30,1320 1014,1320" stroke-width="0.0" stroke="#ff9900" fill="#ff9900" stroke-linecap="round" stroke-linejoin="round" opacity="1.0" layer="TOP" />
    <polygon net="0" points="3120,1385 2180,1385 2180,1750 2180,1750 2180,1760 2170,1760 2170,1760 1765,1760 1764,1760 1755,1760 1755,1760 1355,1760 1354,1760 1180,1760 1180,1420 1179,1420 1135,1420 1135,1365 1110,1365 1110,1440 1130,1440 1130,1525 1005,1525 1005,1390 1070,1390 1070,1360 1160,1360 1160,1270 1130,1270 1130,1165 1145,1165 1145,845 1000,845 1000,1019 1072,1019 1072,1020 1080,1020 1080,1110 1021,1110 1021,1170 1110,1170 1110,1270 1080,1270 1080,1330 1052,1330 1051,1330 1013,1330 1012,1330 30,1330 30,2270 3120,2270" stroke-width="0.0" stroke="#ff9900" fill="#ff9900" stroke-linecap="round" stroke-linejoin="round" opacity="1.0" layer="TOP" />
    <polygon net="0" points="1290,2159 1274,2157 1259,2153 1245,2145 1233,2136 1224,2124 1216,2110 1212,2095 1210,2080 1212,2064 1216,2049 1224,2035 1233,2023 1245,2014 1259,2006 1274,2002 1290,2000 1305,2002 1320,2006 1334,2014 1346,2023 1355,2035 1363,2049 1367,2064 1369,2080 1367,2095 1363,2110 1355,2124 1346,2136 1334,2145 1320,2153 1305,2157" stroke-width="0.0" stroke="#006600" fill="#006600" stroke-linecap="round" stroke-linejoin="round" opacity="1.0" layer="TOP" />
    <line net="0" x1="1175" y1="1785" x2="2196" y2="1785" stroke-width="12" stroke="#ff9900" stroke-linecap="round" stroke-linejoin="round" opacity="1.0" layer="TOP" />
    <line net="0" x1="1154" y1="1764" x2="1175" y2="1785" stroke-width="12" stroke="#ff9900" stroke-linecap="round" stroke-linejoin="round" opacity="1.0" layer="TOP" />
    <line net="0" x1="1154" y1="1454" x2="1154" y2="1764" stroke-width="12" stroke="#ff9900" stroke-linecap="round" stroke-linejoin="round" opacity="1.0" layer="TOP" />
    <line net="3" x1="1239" y1="1314" x2="1295" y2="1370" stroke-width="12" stroke="#ff9900" stroke-linecap="round" stroke-linejoin="round" opacity="1.0" layer="TOP" />
    <line net="3" x1="1220" y1="1314" x2="1239" y2="1314" stroke-width="12" stroke="#ff9900" stroke-linecap="round" stroke-linejoin="round" opacity="1.0" layer="TOP" />
    <line net="10" x1="1247" y1="1427" x2="1247" y2="1445" stroke-width="10" stroke="#ff9900" stroke-linecap="round" stroke-linejoin="round" opacity="1.0" layer="TOP" />
    <line net="10" x1="1191" y1="1371" x2="1247" y2="1427" stroke-width="10" stroke="#ff9900" stroke-linecap="round" stroke-linejoin="round" opacity="1.0" layer="TOP" />
    <line net="10" x1="1191" y1="1353" x2="1191" y2="1371" stroke-width="10" stroke="#ff9900" stroke-linecap="round" stroke-linejoin="round" opacity="1.0" layer="TOP" />
    <line net="3" x1="1340" y1="1370" x2="1370" y2="1340" stroke-width="12" stroke="#ff9900" stroke-linecap="round" stroke-linejoin="round" opacity="1.0" layer="TOP" />
    <line net="3" x1="1370" y1="1340" x2="1498" y2="1340" stroke-width="12" stroke="#ff9900" stroke-linecap="round" stroke-linejoin="round" opacity="1.0" layer="TOP" />
    <line net="3" x1="1295" y1="1370" x2="1340" y2="1370" stroke-width="12" stroke="#ff9900" stroke-linecap="round" stroke-linejoin="round" opacity="1.0" layer="TOP" />
    <line net="10" x1="1247" y1="1445" x2="1252" y2="1450" stroke-width="10" stroke="#ff9900" stroke-linecap="round" stroke-linejoin="round" opacity="1.0" layer="TOP" />
    <line net="10" x1="1252" y1="1450" x2="1295" y2="1450" stroke-width="10" stroke="#ff9900" stroke-linecap="round" stroke-linejoin="round" opacity="1.0" layer="TOP" />
    <line net="4" x1="500" y1="1265" x2="930" y2="1265" stroke-width="12" stroke="#ff9900" stroke-linecap="round" stroke-linejoin="round" opacity="1.0" layer="TOP" />
    <line net="4" x1="415" y1="1180" x2="500" y2="1265" stroke-width="12" stroke="#ff9900" stroke-linecap="round" stroke-linejoin="round" opacity="1.0" layer="TOP" />
    <line net="4" x1="170" y1="1180" x2="415" y2="1180" stroke-width="12" stroke="#ff9900" stroke-linecap="round" stroke-linejoin="round" opacity="1.0" layer="TOP" />
    <line net="0" x1="425" y1="1465" x2="505" y2="1385" stroke-width="12" stroke="#ff9900" stroke-linecap="round" stroke-linejoin="round" opacity="1.0" layer="TOP" />
    <line net="0" x1="170" y1="1465" x2="425" y2="1465" stroke-width="12" stroke="#ff9900" stroke-linecap="round" stroke-linejoin="round" opacity="1.0" layer="TOP" />
    <line net="0" x1="505" y1="1385" x2="930" y2="1385" stroke-width="12" stroke="#ff9900" stroke-linecap="round" stroke-linejoin="round" opacity="1.0" layer="TOP" />
    <line net="4" x1="823" y1="1138" x2="987" y2="1138" stroke-width="12" stroke="#ff9900" stroke-linecap="round" stroke-linejoin="round" opacity="1.0" layer="TOP" />
    <line net="4" x1="785" y1="1100" x2="823" y2="1138" stroke-width="12" stroke="#ff9900" stroke-linecap="round" stroke-linejoin="round" opacity="1.0" layer="TOP" />
    <line net="4" x1="785" y1="835" x2="785" y2="1100" stroke-width="12" stroke="#ff9900" stroke-linecap="round" stroke-linejoin="round" opacity="1.0" layer="TOP" />
    <line net="0" x1="2250" y1="1420" x2="2250" y2="1731" stroke-width="12" stroke="#ff9900" stroke-linecap="round" stroke-linejoin="round" opacity="1.0" layer="TOP" />
    <line net="0" x1="2196" y1="1785" x2="2250" y2="1731" stroke-width="12" stroke="#ff9900" stroke-linecap="round" stroke-linejoin="round" opacity="1.0" layer="TOP" />
    <line net="8" x1="2021" y1="1340" x2="2250" y2="1340" stroke-width="12" stroke="#ff9900" stroke-linecap="round" stroke-linejoin="round" opacity="1.0" layer="TOP" />
    <line net="0" x1="1121" y1="1236" x2="1121" y2="1314" stroke-width="12" stroke="#ff9900" stroke-linecap="round" stroke-linejoin="round" opacity="1.0" layer="TOP" />
    <line net="0" x1="1122" y1="1138" x2="1122" y2="1235" stroke-width="12" stroke="#ff9900" stroke-linecap="round" stroke-linejoin="round" opacity="1.0" layer="TOP" />
    <line net="0" x1="1121" y1="1236" x2="1122" y2="1235" stroke-width="12" stroke="#ff9900" stroke-linecap="round" stroke-linejoin="round" opacity="1.0" layer="TOP" />
    <line net="0" x1="1035" y1="966" x2="1035" y2="994" stroke-width="12" stroke="#ff9900" stroke-linecap="round" stroke-linejoin="round" opacity="1.0" layer="TOP" />
    <line net="0" x1="1035" y1="966" x2="1043" y2="958" stroke-width="12" stroke="#ff9900" stroke-linecap="round" stroke-linejoin="round" opacity="1.0" layer="TOP" />
    <line net="0" x1="1043" y1="958" x2="1122" y2="958" stroke-width="12" stroke="#ff9900" stroke-linecap="round" stroke-linejoin="round" opacity="1.0" layer="TOP" />
    <line net="0" x1="1122" y1="1138" x2="1122" y2="1138" stroke-width="12" stroke="#ff9900" stroke-linecap="round" stroke-linejoin="round" opacity="1.0" layer="TOP" />
    <line net="0" x1="1046" y1="1138" x2="1122" y2="1138" stroke-width="12" stroke="#ff9900" stroke-linecap="round" stroke-linejoin="round" opacity="1.0" layer="TOP" />
    <line net="0" x1="1122" y1="1048" x2="1122" y2="1138" stroke-width="12" stroke="#ff9900" stroke-linecap="round" stroke-linejoin="round" opacity="1.0" layer="TOP" />
    <line net="0" x1="1122" y1="958" x2="1122" y2="1048" stroke-width="12" stroke="#ff9900" stroke-linecap="round" stroke-linejoin="round" opacity="1.0" layer="TOP" />
    <line net="8" x1="940" y1="936" x2="940" y2="936" stroke-width="12" stroke="#ff9900" stroke-linecap="round" stroke-linejoin="round" opacity="1.0" layer="TOP" />
    <line net="8" x1="940" y1="936" x2="940" y2="994" stroke-width="12" stroke="#ff9900" stroke-linecap="round" stroke-linejoin="round" opacity="1.0" layer="TOP" />
    <line net="9" x1="1255" y1="1037" x2="1263" y2="1045" stroke-width="12" stroke="#ff9900" stroke-linecap="round" stroke-linejoin="round" opacity="1.0" layer="TOP" />
    <line net="9" x1="1226" y1="1037" x2="1255" y2="1037" stroke-width="12" stroke="#ff9900" stroke-linecap="round" stroke-linejoin="round" opacity="1.0" layer="TOP" />
    <line net="9" x1="1215" y1="1048" x2="1226" y2="1037" stroke-width="12" stroke="#ff9900" stroke-linecap="round" stroke-linejoin="round" opacity="1.0" layer="TOP" />
    <line net="9" x1="1263" y1="1045" x2="1263" y2="1078" stroke-width="12" stroke="#ff9900" stroke-linecap="round" stroke-linejoin="round" opacity="1.0" layer="TOP" />
    <line net="9" x1="1181" y1="1048" x2="1215" y2="1048" stroke-width="12" stroke="#ff9900" stroke-linecap="round" stroke-linejoin="round" opacity="1.0" layer="TOP" />
    <line net="3" x1="1226" y1="1320" x2="1226" y2="1333" stroke-width="12" stroke="#ff9900" stroke-linecap="round" stroke-linejoin="round" opacity="1.0" layer="TOP" />
    <line net="3" x1="1220" y1="1314" x2="1226" y2="1320" stroke-width="12" stroke="#ff9900" stroke-linecap="round" stroke-linejoin="round" opacity="1.0" layer="TOP" />
    <line net="3" x1="1191" y1="1314" x2="1220" y2="1314" stroke-width="12" stroke="#ff9900" stroke-linecap="round" stroke-linejoin="round" opacity="1.0" layer="TOP" />
    <line net="3" x1="1191" y1="1333" x2="1226" y2="1333" stroke-width="12" stroke="#ff9900" stroke-linecap="round" stroke-linejoin="round" opacity="1.0" layer="TOP" />
    <line net="6" x1="1191" y1="1294" x2="1278" y2="1294" stroke-width="12" stroke="#ff9900" stroke-linecap="round" stroke-linejoin="round" opacity="1.0" layer="TOP" />
    <line net="2" x1="1250" y1="1274" x2="1314" y2="1211" stroke-width="12" stroke="#ff9900" stroke-linecap="round" stroke-linejoin="round" opacity="1.0" layer="TOP" />
    <line net="2" x1="1191" y1="1274" x2="1250" y2="1274" stroke-width="12" stroke="#ff9900" stroke-linecap="round" stroke-linejoin="round" opacity="1.0" layer="TOP" />
    <line net="1" x1="1218" y1="1138" x2="1218" y2="1137" stroke-width="12" stroke="#ff9900" stroke-linecap="round" stroke-linejoin="round" opacity="1.0" layer="TOP" />
    <line net="1" x1="1218" y1="1137" x2="1263" y2="1137" stroke-width="12" stroke="#ff9900" stroke-linecap="round" stroke-linejoin="round" opacity="1.0" layer="TOP" />
    <line net="1" x1="1181" y1="1138" x2="1218" y2="1138" stroke-width="12" stroke="#ff9900" stroke-linecap="round" stroke-linejoin="round" opacity="1.0" layer="TOP" />
    <line net="1" x1="1150" y1="1212" x2="1181" y2="1181" stroke-width="12" stroke="#ff9900" stroke-linecap="round" stroke-linejoin="round" opacity="1.0" layer="TOP" />
    <line net="1" x1="1181" y1="1138" x2="1181" y2="1181" stroke-width="12" stroke="#ff9900" stroke-linecap="round" stroke-linejoin="round" opacity="1.0" layer="TOP" />
    <line net="1" x1="1150" y1="1212" x2="1150" y2="1241" stroke-width="12" stroke="#ff9900" stroke-linecap="round" stroke-linejoin="round" opacity="1.0" layer="TOP" />
    <line net="4" x1="987" y1="1138" x2="987" y2="1190" stroke-width="12" stroke="#ff9900" stroke-linecap="round" stroke-linejoin="round" opacity="1.0" layer="TOP" />
    <line net="5" x1="940" y1="1053" x2="1035" y2="1053" stroke-width="12" stroke="#ff9900" stroke-linecap="round" stroke-linejoin="round" opacity="1.0" layer="TOP" />
    <line net="5" x1="876" y1="1053" x2="940" y2="1053" stroke-width="12" stroke="#ff9900" stroke-linecap="round" stroke-linejoin="round" opacity="1.0" layer="TOP" />
    <line net="0" x1="1051" y1="1333" x2="1094" y2="1333" stroke-width="12" stroke="#ff9900" stroke-linecap="round" stroke-linejoin="round" opacity="1.0" layer="TOP" />
    <line net="4" x1="1013" y1="1274" x2="1051" y2="1274" stroke-width="12" stroke="#ff9900" stroke-linecap="round" stroke-linejoin="round" opacity="1.0" layer="TOP" />
    <line net="4" x1="1007" y1="1294" x2="1007" y2="1308" stroke-width="12" stroke="#ff9900" stroke-linecap="round" stroke-linejoin="round" opacity="1.0" layer="TOP" />
    <line net="4" x1="1007" y1="1308" x2="1013" y2="1314" stroke-width="12" stroke="#ff9900" stroke-linecap="round" stroke-linejoin="round" opacity="1.0" layer="TOP" />
    <line net="4" x1="1013" y1="1314" x2="1051" y2="1314" stroke-width="12" stroke="#ff9900" stroke-linecap="round" stroke-linejoin="round" opacity="1.0" layer="TOP" />
    <line net="4" x1="1007" y1="1294" x2="1051" y2="1294" stroke-width="12" stroke="#ff9900" stroke-linecap="round" stroke-linejoin="round" opacity="1.0" layer="TOP" />
    <line net="0" x1="1022" y1="1333" x2="1051" y2="1333" stroke-width="12" stroke="#ff9900" stroke-linecap="round" stroke-linejoin="round" opacity="1.0" layer="TOP" />
    <line net="0" x1="1015" y1="1340" x2="1022" y2="1333" stroke-width="12" stroke="#ff9900" stroke-linecap="round" stroke-linejoin="round" opacity="1.0" layer="TOP" />
    <line net="0" x1="1015" y1="1340" x2="1015" y2="1353" stroke-width="12" stroke="#ff9900" stroke-linecap="round" stroke-linejoin="round" opacity="1.0" layer="TOP" />
    <line net="0" x1="1007" y1="1362" x2="1015" y2="1353" stroke-width="12" stroke="#ff9900" stroke-linecap="round" stroke-linejoin="round" opacity="1.0" layer="TOP" />
    <line net="0" x1="1015" y1="1353" x2="1051" y2="1353" stroke-width="12" stroke="#ff9900" stroke-linecap="round" stroke-linejoin="round" opacity="1.0" layer="TOP" />
    <line net="2" x1="1181" y1="958" x2="1280" y2="958" stroke-width="12" stroke="#ff9900" stroke-linecap="round" stroke-linejoin="round" opacity="1.0" layer="TOP" />
    <line net="2" x1="1280" y1="958" x2="1314" y2="992" stroke-width="12" stroke="#ff9900" stroke-linecap="round" stroke-linejoin="round" opacity="1.0" layer="TOP" />
    <line net="2" x1="1314" y1="992" x2="1314" y2="1211" stroke-width="12" stroke="#ff9900" stroke-linecap="round" stroke-linejoin="round" opacity="1.0" layer="TOP" />
    <line net="4" x1="1007" y1="1280" x2="1007" y2="1294" stroke-width="12" stroke="#ff9900" stroke-linecap="round" stroke-linejoin="round" opacity="1.0" layer="TOP" />
    <line net="4" x1="930" y1="1265" x2="992" y2="1265" stroke-width="12" stroke="#ff9900" stroke-linecap="round" stroke-linejoin="round" opacity="1.0" layer="TOP" />
    <line net="4" x1="992" y1="1265" x2="1007" y2="1280" stroke-width="12" stroke="#ff9900" stroke-linecap="round" stroke-linejoin="round" opacity="1.0" layer="TOP" />
    <line net="4" x1="930" y1="1215" x2="930" y2="1265" stroke-width="12" stroke="#ff9900" stroke-linecap="round" stroke-linejoin="round" opacity="1.0" layer="TOP" />
    <line net="4" x1="930" y1="1215" x2="945" y2="1200" stroke-width="12" stroke="#ff9900" stroke-linecap="round" stroke-linejoin="round" opacity="1.0" layer="TOP" />
    <line net="4" x1="945" y1="1200" x2="978" y2="1200" stroke-width="12" stroke="#ff9900" stroke-linecap="round" stroke-linejoin="round" opacity="1.0" layer="TOP" />
    <line net="4" x1="978" y1="1200" x2="987" y2="1190" stroke-width="12" stroke="#ff9900" stroke-linecap="round" stroke-linejoin="round" opacity="1.0" layer="TOP" />
    <line net="0" x1="930" y1="1385" x2="995" y2="1385" stroke-width="12" stroke="#ff9900" stroke-linecap="round" stroke-linejoin="round" opacity="1.0" layer="TOP" />
    <line net="0" x1="995" y1="1385" x2="1007" y2="1373" stroke-width="12" stroke="#ff9900" stroke-linecap="round" stroke-linejoin="round" opacity="1.0" layer="TOP" />
    <line net="0" x1="1007" y1="1362" x2="1007" y2="1373" stroke-width="12" stroke="#ff9900" stroke-linecap="round" stroke-linejoin="round" opacity="1.0" layer="TOP" />
    <line net="5" x1="1091" y1="1215" x2="1091" y2="1241" stroke-width="12" stroke="#ff9900" stroke-linecap="round" stroke-linejoin="round" opacity="1.0" layer="TOP" />
    <line net="5" x1="1071" y1="1195" x2="1091" y2="1215" stroke-width="12" stroke="#ff9900" stroke-linecap="round" stroke-linejoin="round" opacity="1.0" layer="TOP" />
    <line net="0" x1="1121" y1="1421" x2="1154" y2="1454" stroke-width="12" stroke="#ff9900" stroke-linecap="round" stroke-linejoin="round" opacity="1.0" layer="TOP" />
    <line net="6" x1="1278" y1="1294" x2="1339" y2="1234" stroke-width="12" stroke="#ff9900" stroke-linecap="round" stroke-linejoin="round" opacity="1.0" layer="TOP" />
    <line net="4" x1="785" y1="835" x2="808" y2="811" stroke-width="12" stroke="#ff9900" stroke-linecap="round" stroke-linejoin="round" opacity="1.0" layer="TOP" />
    <line net="6" x1="1289" y1="870" x2="1289" y2="919" stroke-width="12" stroke="#ff9900" stroke-linecap="round" stroke-linejoin="round" opacity="1.0" layer="TOP" />
    <line net="6" x1="1289" y1="919" x2="1339" y2="969" stroke-width="12" stroke="#ff9900" stroke-linecap="round" stroke-linejoin="round" opacity="1.0" layer="TOP" />
    <line net="6" x1="1339" y1="969" x2="1339" y2="1234" stroke-width="12" stroke="#ff9900" stroke-linecap="round" stroke-linejoin="round" opacity="1.0" layer="TOP" />
    <line net="4" x1="808" y1="811" x2="1289" y2="811" stroke-width="12" stroke="#ff9900" stroke-linecap="round" stroke-linejoin="round" opacity="1.0" layer="TOP" />
    <line net="0" x1="1122" y1="875" x2="1122" y2="958" stroke-width="12" stroke="#ff9900" stroke-linecap="round" stroke-linejoin="round" opacity="1.0" layer="TOP" />
    <line net="6" x1="1181" y1="875" x2="1230" y2="875" stroke-width="12" stroke="#ff9900" stroke-linecap="round" stroke-linejoin="round" opacity="1.0" layer="TOP" />
    <line net="6" x1="1234" y1="870" x2="1289" y2="870" stroke-width="12" stroke="#ff9900" stroke-linecap="round" stroke-linejoin="round" opacity="1.0" layer="TOP" />
    <line net="6" x1="1230" y1="875" x2="1234" y2="870" stroke-width="12" stroke="#ff9900" stroke-linecap="round" stroke-linejoin="round" opacity="1.0" layer="TOP" />
    <line net="7" x1="1091" y1="1417" x2="1092" y2="1418" stroke-width="12" stroke="#ff9900" stroke-linecap="round" stroke-linejoin="round" opacity="1.0" layer="TOP" />
    <line net="7" x1="1091" y1="1385" x2="1091" y2="1417" stroke-width="12" stroke="#ff9900" stroke-linecap="round" stroke-linejoin="round" opacity="1.0" layer="TOP" />
    <line net="7" x1="1092" y1="1418" x2="1092" y2="1478" stroke-width="12" stroke="#ff9900" stroke-linecap="round" stroke-linejoin="round" opacity="1.0" layer="TOP" />
    <line net="21" x1="1150" y1="1385" x2="1166" y2="1385" stroke-width="10" stroke="#ff9900" stroke-linecap="round" stroke-linejoin="round" opacity="1.0" layer="TOP" />
    <line net="0" x1="1146" y1="1337" x2="1146" y2="1341" stroke-width="12" stroke="#ff9900" stroke-linecap="round" stroke-linejoin="round" opacity="1.0" layer="TOP" />
    <line net="0" x1="1129" y1="1358" x2="1146" y2="1341" stroke-width="12" stroke="#ff9900" stroke-linecap="round" stroke-linejoin="round" opacity="1.0" layer="TOP" />
    <line net="0" x1="1129" y1="1358" x2="1129" y2="1365" stroke-width="12" stroke="#ff9900" stroke-linecap="round" stroke-linejoin="round" opacity="1.0" layer="TOP" />
    <line net="0" x1="1114" y1="1353" x2="1115" y2="1353" stroke-width="12" stroke="#ff9900" stroke-linecap="round" stroke-linejoin="round" opacity="1.0" layer="TOP" />
    <line net="0" x1="1115" y1="1353" x2="1115" y2="1369" stroke-width="10" stroke="#ff9900" stroke-linecap="round" stroke-linejoin="round" opacity="1.0" layer="TOP" />
    <line net="0" x1="1098" y1="1337" x2="1114" y2="1353" stroke-width="12" stroke="#ff9900" stroke-linecap="round" stroke-linejoin="round" opacity="1.0" layer="TOP" />
    <line net="0" x1="1094" y1="1333" x2="1098" y2="1337" stroke-width="12" stroke="#ff9900" stroke-linecap="round" stroke-linejoin="round" opacity="1.0" layer="TOP" />
    <line net="0" x1="1121" y1="1314" x2="1121" y2="1421" stroke-width="12" stroke="#ff9900" stroke-linecap="round" stroke-linejoin="round" opacity="1.0" layer="TOP" />
    <line net="21" x1="1166" y1="1385" x2="1210" y2="1429" stroke-width="10" stroke="#ff9900" stroke-linecap="round" stroke-linejoin="round" opacity="1.0" layer="TOP" />
    <line net="21" x1="1210" y1="1429" x2="1210" y2="1540" stroke-width="10" stroke="#ff9900" stroke-linecap="round" stroke-linejoin="round" opacity="1.0" layer="TOP" />
    <line net="21" x1="1240" y1="1570" x2="1290" y2="1570" stroke-width="10" stroke="#ff9900" stroke-linecap="round" stroke-linejoin="round" opacity="1.0" layer="TOP" />
    <line net="21" x1="1210" y1="1540" x2="1240" y2="1570" stroke-width="10" stroke="#ff9900" stroke-linecap="round" stroke-linejoin="round" opacity="1.0" layer="TOP" />
    <line net="23" x1="1290" y1="1629" x2="1290" y2="1680" stroke-width="10" stroke="#ff9900" stroke-linecap="round" stroke-linejoin="round" opacity="1.0" layer="TOP" />
    <line net="23" x1="1290" y1="1680" x2="1290" y2="1680" stroke-width="10" stroke="#ff9900" stroke-linecap="round" stroke-linejoin="round" opacity="1.0" layer="TOP" />
    <line net="0" x1="2979" y1="1514" x2="2979" y2="1924" stroke-width="12" stroke="#ff9900" stroke-linecap="round" stroke-linejoin="round" opacity="1.0" layer="TOP" />
    <line net="0" x1="2250" y1="1420" x2="2885" y2="1420" stroke-width="12" stroke="#ff9900" stroke-linecap="round" stroke-linejoin="round" opacity="1.0" layer="TOP" />
    <line net="0" x1="2885" y1="1420" x2="2979" y2="1514" stroke-width="12" stroke="#ff9900" stroke-linecap="round" stroke-linejoin="round" opacity="1.0" layer="TOP" />
    <line net="8" x1="2250" y1="1340" x2="2880" y2="1340" stroke-width="12" stroke="#ff9900" stroke-linecap="round" stroke-linejoin="round" opacity="1.0" layer="TOP" />
    <line net="8" x1="2880" y1="1340" x2="2979" y2="1241" stroke-width="12" stroke="#ff9900" stroke-linecap="round" stroke-linejoin="round" opacity="1.0" layer="TOP" />
    <line net="8" x1="2979" y1="891" x2="2979" y2="1241" stroke-width="12" stroke="#ff9900" stroke-linecap="round" stroke-linejoin="round" opacity="1.0" layer="TOP" />
    <line net="-1" x1="3150" y1="0" x2="3150" y2="2500" stroke-width="1" stroke="#ff9900" stroke-linecap="round" stroke-linejoin="round" opacity="1.0" layer="MULTILAYER" />
    <line net="-1" x1="2500" y1="2500" x2="2500" y2="2500" stroke-width="1" stroke="#ff9900" stroke-linecap="round" stroke-linejoin="round" opacity="1.0" layer="MULTILAYER" />
    <line net="-1" x1="0" y1="2500" x2="0" y2="2500" stroke-width="1" stroke="#ff9900" stroke-linecap="round" stroke-linejoin="round" opacity="1.0" layer="MULTILAYER" />
    <line net="-1" x1="2500" y1="0" x2="2500" y2="0" stroke-width="1" stroke="#ff9900" stroke-linecap="round" stroke-linejoin="round" opacity="1.0" layer="MULTILAYER" />
    <line net="-1" x1="2500" y1="2500" x2="2500" y2="2500" stroke-width="1" stroke="#ff9900" stroke-linecap="round" stroke-linejoin="round" opacity="1.0" layer="MULTILAYER" />
    <line net="-1" x1="0" y1="0" x2="0" y2="2500" stroke-width="1" stroke="#ff9900" stroke-linecap="round" stroke-linejoin="round" opacity="1.0" layer="MULTILAYER" />
    <line net="-1" x1="0" y1="2500" x2="3150" y2="2500" stroke-width="1" stroke="#ff9900" stroke-linecap="round" stroke-linejoin="round" opacity="1.0" layer="MULTILAYER" />
    <line net="-1" x1="0" y1="0" x2="3150" y2="0" stroke-width="1" stroke="#ff9900" stroke-linecap="round" stroke-linejoin="round" opacity="1.0" layer="MULTILAYER" />
    <line net="10" x1="1294" y1="1424" x2="1294" y2="1485" stroke-width="10" stroke="#ff9900" stroke-linecap="round" stroke-linejoin="round" opacity="1.0" layer="TOP" />
    <line net="3" x1="1294" y1="1334" x2="1294" y2="1395" stroke-width="10" stroke="#ff9900" stroke-linecap="round" stroke-linejoin="round" opacity="1.0" layer="TOP" />
    <line net="0" x1="1034" y1="977" x2="1034" y2="1010" stroke-width="10" stroke="#ff9900" stroke-linecap="round" stroke-linejoin="round" opacity="1.0" layer="TOP" />
    <line net="5" x1="1034" y1="1036" x2="1034" y2="1069" stroke-width="10" stroke="#ff9900" stroke-linecap="round" stroke-linejoin="round" opacity="1.0" layer="TOP" />
    <line net="5" x1="939" y1="1036" x2="939" y2="1069" stroke-width="10" stroke="#ff9900" stroke-linecap="round" stroke-linejoin="round" opacity="1.0" layer="TOP" />
    <line net="8" x1="939" y1="977" x2="939" y2="1010" stroke-width="10" stroke="#ff9900" stroke-linecap="round" stroke-linejoin="round" opacity="1.0" layer="TOP" />
    <line net="9" x1="1262" y1="1061" x2="1262" y2="1094" stroke-width="10" stroke="#ff9900" stroke-linecap="round" stroke-linejoin="round" opacity="1.0" layer="TOP" />
    <line net="1" x1="1262" y1="1120" x2="1262" y2="1153" stroke-width="10" stroke="#ff9900" stroke-linecap="round" stroke-linejoin="round" opacity="1.0" layer="TOP" />
    <line net="7" x1="1075" y1="1477" x2="1108" y2="1477" stroke-width="10" stroke="#ff9900" stroke-linecap="round" stroke-linejoin="round" opacity="1.0" layer="TOP" />
    <line net="0" x1="1134" y1="1477" x2="1167" y2="1477" stroke-width="10" stroke="#ff9900" stroke-linecap="round" stroke-linejoin="round" opacity="1.0" layer="TOP" />
    <line net="0" x1="1105" y1="874" x2="1138" y2="874" stroke-width="10" stroke="#ff9900" stroke-linecap="round" stroke-linejoin="round" opacity="1.0" layer="TOP" />
    <line net="6" x1="1164" y1="874" x2="1197" y2="874" stroke-width="10" stroke="#ff9900" stroke-linecap="round" stroke-linejoin="round" opacity="1.0" layer="TOP" />
    <line net="6" x1="1288" y1="853" x2="1288" y2="886" stroke-width="10" stroke="#ff9900" stroke-linecap="round" stroke-linejoin="round" opacity="1.0" layer="TOP" />
    <line net="4" x1="1288" y1="794" x2="1288" y2="827" stroke-width="10" stroke="#ff9900" stroke-linecap="round" stroke-linejoin="round" opacity="1.0" layer="TOP" />
    <line net="2" x1="1164" y1="957" x2="1197" y2="957" stroke-width="10" stroke="#ff9900" stroke-linecap="round" stroke-linejoin="round" opacity="1.0" layer="TOP" />
    <line net="0" x1="1105" y1="957" x2="1138" y2="957" stroke-width="10" stroke="#ff9900" stroke-linecap="round" stroke-linejoin="round" opacity="1.0" layer="TOP" />
    <line net="4" x1="970" y1="1137" x2="1003" y2="1137" stroke-width="10" stroke="#ff9900" stroke-linecap="round" stroke-linejoin="round" opacity="1.0" layer="TOP" />
    <line net="0" x1="1029" y1="1137" x2="1062" y2="1137" stroke-width="10" stroke="#ff9900" stroke-linecap="round" stroke-linejoin="round" opacity="1.0" layer="TOP" />
    <line net="1" x1="1164" y1="1137" x2="1197" y2="1137" stroke-width="10" stroke="#ff9900" stroke-linecap="round" stroke-linejoin="round" opacity="1.0" layer="TOP" />
    <line net="0" x1="1105" y1="1137" x2="1138" y2="1137" stroke-width="10" stroke="#ff9900" stroke-linecap="round" stroke-linejoin="round" opacity="1.0" layer="TOP" />
    <line net="9" x1="1164" y1="1047" x2="1197" y2="1047" stroke-width="10" stroke="#ff9900" stroke-linecap="round" stroke-linejoin="round" opacity="1.0" layer="TOP" />
    <line net="0" x1="1105" y1="1047" x2="1138" y2="1047" stroke-width="10" stroke="#ff9900" stroke-linecap="round" stroke-linejoin="round" opacity="1.0" layer="TOP" />
    <line net="23" x1="1289" y1="1612" x2="1289" y2="1645" stroke-width="10" stroke="#ff9900" stroke-linecap="round" stroke-linejoin="round" opacity="1.0" layer="TOP" />
    <line net="21" x1="1289" y1="1553" x2="1289" y2="1586" stroke-width="10" stroke="#ff9900" stroke-linecap="round" stroke-linejoin="round" opacity="1.0" layer="TOP" />
    <circle comp="0" net="4" pin="1" cx="168" cy="1179.1" r="32" stroke-width="0" stroke="#ff9900" fill="#ff9900" layer="TOP" opacity="1.0" />
    <circle comp="1" net="0" pin="1" cx="168" cy="1464.5" r="32" stroke-width="0" stroke="#ff9900" fill="#ff9900" layer="TOP" opacity="1.0" />
    <rect comp="2" net="3" pin="1" x="1409.3" y="809.0" width="75" height="252" stroke-width="0" stroke="#ff9900" fill="#ff9900" opacity="1.0" layer="TOP" />
    <rect comp="2" net="8" pin="2" x="2035.3" y="809.0" width="75" height="252" stroke-width="0" stroke="#ff9900" fill="#ff9900" opacity="1.0" layer="TOP" />
    <rect comp="3" net="4" pin="1" x="886.5" y="1244" width="71" height="44" stroke-width="0" stroke="#ff9900" fill="#ff9900" opacity="1.0" layer="TOP" />
    <rect comp="3" net="0" pin="2" x="886.5" y="1362" width="71" height="44" stroke-width="0" stroke="#ff9900" fill="#ff9900" opacity="1.0" layer="TOP" />
    <rect comp="3" net="4" pin="1" x="731.0" y="1244" width="71" height="44" stroke-width="0" stroke="#ff9900" fill="#ff9900" opacity="1.0" layer="TOP" />
    <rect comp="3" net="0" pin="2" x="731.0" y="1362" width="71" height="44" stroke-width="0" stroke="#ff9900" fill="#ff9900" opacity="1.0" layer="TOP" />
    <rect comp="3" net="4" pin="1" x="575.5" y="1244" width="71" height="44" stroke-width="0" stroke="#ff9900" fill="#ff9900" opacity="1.0" layer="TOP" />
    <rect comp="3" net="0" pin="2" x="575.5" y="1362" width="71" height="44" stroke-width="0" stroke="#ff9900" fill="#ff9900" opacity="1.0" layer="TOP" />
    <rect comp="4" net="3" pin="1" x="1266.2" y="1351.9" width="57" height="44" stroke-width="0" stroke="#ff9900" fill="#ff9900" opacity="1.0" layer="TOP" />
    <rect comp="4" net="10" pin="2" x="1266.2" y="1422.9" width="57" height="44" stroke-width="0" stroke="#ff9900" fill="#ff9900" opacity="1.0" layer="TOP" />
    <rect comp="5" net="9" pin="1" x="1218.1" y="976.2" width="42" height="142" stroke-width="0" stroke="#ff9900" fill="#ff9900" opacity="1.0" layer="TOP" />
    <rect comp="5" net="0" pin="2" x="1039.1" y="976.2" width="42" height="142" stroke-width="0" stroke="#ff9900" fill="#ff9900" opacity="1.0" layer="TOP" />
    <rect comp="6" net="1" pin="1" x="1155.1" y="1125" width="22" height="24" stroke-width="0" stroke="#ff9900" fill="#ff9900" opacity="1.0" layer="TOP" />
    <rect comp="6" net="0" pin="2" x="1122.1" y="1125" width="22" height="24" stroke-width="0" stroke="#ff9900" fill="#ff9900" opacity="1.0" layer="TOP" />
    <rect comp="7" net="8" pin="1" x="2195.0" y="1298.5" width="106" height="44" stroke-width="0" stroke="#ff9900" fill="#ff9900" opacity="1.0" layer="TOP" />
    <rect comp="7" net="0" pin="2" x="2195.0" y="1416.5" width="106" height="44" stroke-width="0" stroke="#ff9900" fill="#ff9900" opacity="1.0" layer="TOP" />
    <rect comp="8" net="4" pin="1" x="958.2" y="1109" width="44" height="57" stroke-width="0" stroke="#ff9900" fill="#ff9900" opacity="1.0" layer="TOP" />
    <rect comp="8" net="0" pin="2" x="1029.2" y="1109" width="44" height="57" stroke-width="0" stroke="#ff9900" fill="#ff9900" opacity="1.0" layer="TOP" />
    <rect comp="9" net="2" pin="1" x="1163.1" y="929.1" width="44" height="57" stroke-width="0" stroke="#ff9900" fill="#ff9900" opacity="1.0" layer="TOP" />
    <rect comp="9" net="0" pin="2" x="1092.1" y="929.1" width="44" height="57" stroke-width="0" stroke="#ff9900" fill="#ff9900" opacity="1.0" layer="TOP" />
    <rect comp="10" net="4" pin="1" x="1276.8" y="812.5" width="24" height="22" stroke-width="0" stroke="#ff9900" fill="#ff9900" opacity="1.0" layer="TOP" />
    <rect comp="10" net="6" pin="2" x="1276.8" y="845.5" width="24" height="22" stroke-width="0" stroke="#ff9900" fill="#ff9900" opacity="1.0" layer="TOP" />
    <rect comp="11" net="6" pin="1" x="1154.1" y="867.5" width="14" height="13" stroke-width="0" stroke="#ff9900" fill="#ff9900" opacity="1.0" layer="TOP" />
    <rect comp="11" net="0" pin="2" x="1131.1" y="867.5" width="14" height="13" stroke-width="0" stroke="#ff9900" fill="#ff9900" opacity="1.0" layer="TOP" />
    <rect comp="12" net="7" pin="1" x="1094.5" y="1464.3" width="22" height="24" stroke-width="0" stroke="#ff9900" fill="#ff9900" opacity="1.0" layer="TOP" />
    <rect comp="12" net="0" pin="2" x="1127.5" y="1464.3" width="22" height="24" stroke-width="0" stroke="#ff9900" fill="#ff9900" opacity="1.0" layer="TOP" />
    <rect comp="13" net="1" pin="1" x="1250" y="1113.2" width="24" height="22" stroke-width="0" stroke="#ff9900" fill="#ff9900" opacity="1.0" layer="TOP" />
    <rect comp="13" net="9" pin="2" x="1250" y="1080.2" width="24" height="22" stroke-width="0" stroke="#ff9900" fill="#ff9900" opacity="1.0" layer="TOP" />
    <rect comp="14" net="8" pin="1" x="926.9" y="995.6" width="24" height="22" stroke-width="0" stroke="#ff9900" fill="#ff9900" opacity="1.0" layer="TOP" />
    <rect comp="14" net="5" pin="2" x="926.9" y="1028.6" width="24" height="22" stroke-width="0" stroke="#ff9900" fill="#ff9900" opacity="1.0" layer="TOP" />
    <rect comp="15" net="5" pin="1" x="1027.9" y="1027.6" width="13" height="14" stroke-width="0" stroke="#ff9900" fill="#ff9900" opacity="1.0" layer="TOP" />
    <rect comp="15" net="0" pin="2" x="1027.9" y="1004.6" width="13" height="14" stroke-width="0" stroke="#ff9900" fill="#ff9900" opacity="1.0" layer="TOP" />
    <circle comp="16" net="23" pin="1" cx="1288.8" cy="2078.2" r="32" stroke-width="0" stroke="#ff9900" fill="#ff9900" layer="TOP" opacity="1.0" />
    <rect comp="17" net="7" pin="1" x="1088.4" y="1373.8" width="12" height="24" stroke-width="0" stroke="#ff9900" fill="#ff9900" opacity="1.0" layer="TOP" />
    <rect comp="17" net="0" pin="2" x="1040.1" y="1347.3" width="24" height="12" stroke-width="0" stroke="#ff9900" fill="#ff9900" opacity="1.0" layer="TOP" />
    <rect comp="17" net="0" pin="3" x="1040.1" y="1327.6" width="24" height="12" stroke-width="0" stroke="#ff9900" fill="#ff9900" opacity="1.0" layer="TOP" />
    <rect comp="17" net="4" pin="4" x="1040.1" y="1307.9" width="24" height="12" stroke-width="0" stroke="#ff9900" fill="#ff9900" opacity="1.0" layer="TOP" />
    <rect comp="17" net="4" pin="5" x="1040.1" y="1288" width="24" height="12" stroke-width="0" stroke="#ff9900" fill="#ff9900" opacity="1.0" layer="TOP" />
    <rect comp="17" net="4" pin="6" x="1040.1" y="1268.6" width="24" height="12" stroke-width="0" stroke="#ff9900" fill="#ff9900" opacity="1.0" layer="TOP" />
    <rect comp="17" net="5" pin="7" x="1088.4" y="1230.1" width="12" height="24" stroke-width="0" stroke="#ff9900" fill="#ff9900" opacity="1.0" layer="TOP" />
    <rect comp="17" net="1" pin="8" x="1147.5" y="1230.1" width="12" height="24" stroke-width="0" stroke="#ff9900" fill="#ff9900" opacity="1.0" layer="TOP" />
    <rect comp="17" net="2" pin="9" x="1183.8" y="1268.6" width="24" height="12" stroke-width="0" stroke="#ff9900" fill="#ff9900" opacity="1.0" layer="TOP" />
    <rect comp="17" net="6" pin="10" x="1183.8" y="1288" width="24" height="12" stroke-width="0" stroke="#ff9900" fill="#ff9900" opacity="1.0" layer="TOP" />
    <rect comp="17" net="3" pin="11" x="1183.8" y="1307.9" width="24" height="12" stroke-width="0" stroke="#ff9900" fill="#ff9900" opacity="1.0" layer="TOP" />
    <rect comp="17" net="3" pin="12" x="1183.8" y="1327.6" width="24" height="12" stroke-width="0" stroke="#ff9900" fill="#ff9900" opacity="1.0" layer="TOP" />
    <rect comp="17" net="10" pin="13" x="1183.8" y="1347.3" width="24" height="12" stroke-width="0" stroke="#ff9900" fill="#ff9900" opacity="1.0" layer="TOP" />
    <rect comp="17" net="21" pin="14" x="1147.5" y="1373.8" width="12" height="24" stroke-width="0" stroke="#ff9900" fill="#ff9900" opacity="1.0" layer="TOP" />
    <rect comp="17" net="0" pin="15" x="1083.6" y="1273.6" width="80.7" height="80.7" stroke-width="0" stroke="#ff9900" fill="#ff9900" opacity="1.0" layer="TOP" />
    <circle comp="18" net="0" pin="1" cx="2978.3" cy="1923.2" r="32" stroke-width="0" stroke="#ff9900" fill="#ff9900" layer="TOP" opacity="1.0" />
    <circle comp="19" net="8" pin="1" cx="2978.3" cy="890.7" r="32" stroke-width="0" stroke="#ff9900" fill="#ff9900" layer="TOP" opacity="1.0" />
    <rect comp="20" net="21" pin="1" x="1260.3" y="1541.9" width="57" height="44" stroke-width="0" stroke="#ff9900" fill="#ff9900" opacity="1.0" layer="TOP" />
    <rect comp="20" net="23" pin="2" x="1260.3" y="1612.9" width="57" height="44" stroke-width="0" stroke="#ff9900" fill="#ff9900" opacity="1.0" layer="TOP" />
    <circle net="0" cx="1122" cy="1337" r="8" r1="12" r2="5" stroke-width="7" stroke="#ff9900" fill="#ffffff" opacity="1" layer="MULTILAYER" />
    <circle net="0" cx="1121" cy="1290" r="8" r1="12" r2="5" stroke-width="7" stroke="#ff9900" fill="#ffffff" opacity="1" layer="MULTILAYER" />
    <circle net="0" cx="1146" cy="1314" r="8" r1="12" r2="5" stroke-width="7" stroke="#ff9900" fill="#ffffff" opacity="1" layer="MULTILAYER" />
    <circle net="0" cx="1097" cy="1314" r="8" r1="12" r2="5" stroke-width="7" stroke="#ff9900" fill="#ffffff" opacity="1" layer="MULTILAYER" />
    <circle net="0" cx="2142" cy="1819" r="8" r1="12" r2="5" stroke-width="7" stroke="#ff9900" fill="#ffffff" opacity="1" layer="MULTILAYER" />
    <circle net="0" cx="2109" cy="1819" r="8" r1="12" r2="5" stroke-width="7" stroke="#ff9900" fill="#ffffff" opacity="1" layer="MULTILAYER" />
    <circle net="0" cx="2075" cy="1819" r="8" r1="12" r2="5" stroke-width="7" stroke="#ff9900" fill="#ffffff" opacity="1" layer="MULTILAYER" />
    <circle net="0" cx="2042" cy="1819" r="8" r1="12" r2="5" stroke-width="7" stroke="#ff9900" fill="#ffffff" opacity="1" layer="MULTILAYER" />
    <circle net="0" cx="2009" cy="1819" r="8" r1="12" r2="5" stroke-width="7" stroke="#ff9900" fill="#ffffff" opacity="1" layer="MULTILAYER" />
    <circle net="0" cx="1976" cy="1819" r="8" r1="12" r2="5" stroke-width="7" stroke="#ff9900" fill="#ffffff" opacity="1" layer="MULTILAYER" />
    <circle net="0" cx="1943" cy="1819" r="8" r1="12" r2="5" stroke-width="7" stroke="#ff9900" fill="#ffffff" opacity="1" layer="MULTILAYER" />
    <circle net="0" cx="1909" cy="1819" r="8" r1="12" r2="5" stroke-width="7" stroke="#ff9900" fill="#ffffff" opacity="1" layer="MULTILAYER" />
    <circle net="0" cx="1875" cy="1819" r="8" r1="12" r2="5" stroke-width="7" stroke="#ff9900" fill="#ffffff" opacity="1" layer="MULTILAYER" />
    <circle net="0" cx="2176" cy="1819" r="8" r1="12" r2="5" stroke-width="7" stroke="#ff9900" fill="#ffffff" opacity="1" layer="MULTILAYER" />
    <circle net="0" cx="2210" cy="1819" r="8" r1="12" r2="5" stroke-width="7" stroke="#ff9900" fill="#ffffff" opacity="1" layer="MULTILAYER" />
    <circle net="8" cx="940" cy="936" r="8" r1="12" r2="5" stroke-width="7" stroke="#ff9900" fill="#ffffff" opacity="1" layer="MULTILAYER" />
    <circle net="5" cx="876" cy="1053" r="8" r1="12" r2="5" stroke-width="7" stroke="#ff9900" fill="#ffffff" opacity="1" layer="MULTILAYER" />
    <circle net="5" cx="1071" cy="1195" r="8" r1="12" r2="5" stroke-width="7" stroke="#ff9900" fill="#ffffff" opacity="1" layer="MULTILAYER" />
    <circle net="0" cx="1146" cy="1290" r="8" r1="12" r2="5" stroke-width="7" stroke="#ff9900" fill="#ffffff" opacity="1" layer="MULTILAYER" />
    <circle net="0" cx="1034" cy="1540" r="8" r1="12" r2="5" stroke-width="7" stroke="#ff9900" fill="#ffffff" opacity="1" layer="MULTILAYER" />
    <circle net="0" cx="1001" cy="1540" r="8" r1="12" r2="5" stroke-width="7" stroke="#ff9900" fill="#ffffff" opacity="1" layer="MULTILAYER" />
    <circle net="0" cx="968" cy="1540" r="8" r1="12" r2="5" stroke-width="7" stroke="#ff9900" fill="#ffffff" opacity="1" layer="MULTILAYER" />
    <circle net="0" cx="935" cy="1540" r="8" r1="12" r2="5" stroke-width="7" stroke="#ff9900" fill="#ffffff" opacity="1" layer="MULTILAYER" />
    <circle net="0" cx="902" cy="1540" r="8" r1="12" r2="5" stroke-width="7" stroke="#ff9900" fill="#ffffff" opacity="1" layer="MULTILAYER" />
    <circle net="0" cx="869" cy="1540" r="8" r1="12" r2="5" stroke-width="7" stroke="#ff9900" fill="#ffffff" opacity="1" layer="MULTILAYER" />
    <circle net="0" cx="836" cy="1540" r="8" r1="12" r2="5" stroke-width="7" stroke="#ff9900" fill="#ffffff" opacity="1" layer="MULTILAYER" />
    <circle net="0" cx="803" cy="1540" r="8" r1="12" r2="5" stroke-width="7" stroke="#ff9900" fill="#ffffff" opacity="1" layer="MULTILAYER" />
    <circle net="0" cx="771" cy="1540" r="8" r1="12" r2="5" stroke-width="7" stroke="#ff9900" fill="#ffffff" opacity="1" layer="MULTILAYER" />
    <circle net="0" cx="739" cy="1540" r="8" r1="12" r2="5" stroke-width="7" stroke="#ff9900" fill="#ffffff" opacity="1" layer="MULTILAYER" />
    <circle net="0" cx="706" cy="1540" r="8" r1="12" r2="5" stroke-width="7" stroke="#ff9900" fill="#ffffff" opacity="1" layer="MULTILAYER" />
    <circle net="0" cx="639" cy="1540" r="8" r1="12" r2="5" stroke-width="7" stroke="#ff9900" fill="#ffffff" opacity="1" layer="MULTILAYER" />
    <circle net="0" cx="672" cy="1540" r="8" r1="12" r2="5" stroke-width="7" stroke="#ff9900" fill="#ffffff" opacity="1" layer="MULTILAYER" />
    <circle net="0" cx="1097" cy="1290" r="8" r1="12" r2="5" stroke-width="7" stroke="#ff9900" fill="#ffffff" opacity="1" layer="MULTILAYER" />
    <circle net="0" cx="1098" cy="1337" r="8" r1="12" r2="5" stroke-width="7" stroke="#ff9900" fill="#ffffff" opacity="1" layer="MULTILAYER" />
    <circle net="0" cx="1146" cy="1337" r="8" r1="12" r2="5" stroke-width="7" stroke="#ff9900" fill="#ffffff" opacity="1" layer="MULTILAYER" />
    <circle net="0" cx="1121" cy="1314" r="8" r1="12" r2="5" stroke-width="7" stroke="#ff9900" fill="#ffffff" opacity="1" layer="MULTILAYER" />
    <circle net="23" cx="1290" cy="1680" r="8" r1="12" r2="5" stroke-width="7" stroke="#ff9900" fill="#ffffff" opacity="1" layer="MULTILAYER" />
    <circle net="23" cx="1290" cy="2080" r="58.8" r1="68" r2="49" stroke-width="19" stroke="#ff9900" fill="#ffffff" opacity="1" layer="MULTILAYER" />
    <circle net="0" cx="170" cy="1465" r="58.8" r1="68" r2="49" stroke-width="19" stroke="#ff9900" fill="#ffffff" opacity="1" layer="MULTILAYER" />
    <circle net="4" cx="170" cy="1180" r="58.8" r1="68" r2="49" stroke-width="19" stroke="#ff9900" fill="#ffffff" opacity="1" layer="MULTILAYER" />
    <circle net="0" cx="2979" cy="1924" r="58.8" r1="68" r2="49" stroke-width="19" stroke="#ff9900" fill="#ffffff" opacity="1" layer="MULTILAYER" />
    <circle net="8" cx="2979" cy="891" r="58.8" r1="68" r2="49" stroke-width="19" stroke="#ff9900" fill="#ffffff" opacity="1" layer="MULTILAYER" />
  </g>
</svg>

