%TF.GenerationSoftware,KiCad,Pcbnew,10.0.1*%
%TF.CreationDate,2026-05-28T20:16:35+10:00*%
%TF.ProjectId,PowerBox_PCB,506f7765-7242-46f7-985f-5043422e6b69,rev?*%
%TF.SameCoordinates,Original*%
%TF.FileFunction,Legend,Top*%
%TF.FilePolarity,Positive*%
%FSLAX46Y46*%
G04 Gerber Fmt 4.6, Leading zero omitted, Abs format (unit mm)*
G04 Created by KiCad (PCBNEW 10.0.1) date 2026-05-28 20:16:35*
%MOMM*%
%LPD*%
G01*
G04 APERTURE LIST*
%ADD10C,0.100000*%
%ADD11C,0.150000*%
%ADD12C,0.120000*%
%ADD13C,0.200000*%
%ADD14C,0.254000*%
%ADD15C,0.152500*%
%ADD16C,0.152400*%
%ADD17C,0.000000*%
G04 APERTURE END LIST*
D10*
X56553884Y-77241466D02*
X57315789Y-77241466D01*
X56934836Y-77622419D02*
X56934836Y-76860514D01*
X56553884Y-80622419D02*
X56553884Y-79622419D01*
X56553884Y-79622419D02*
X56887217Y-80336704D01*
X56887217Y-80336704D02*
X57220550Y-79622419D01*
X57220550Y-79622419D02*
X57220550Y-80622419D01*
X56553884Y-83241466D02*
X57315789Y-83241466D01*
X153670038Y-94422306D02*
X153622419Y-94517544D01*
X153622419Y-94517544D02*
X153622419Y-94660401D01*
X153622419Y-94660401D02*
X153670038Y-94803258D01*
X153670038Y-94803258D02*
X153765276Y-94898496D01*
X153765276Y-94898496D02*
X153860514Y-94946115D01*
X153860514Y-94946115D02*
X154050990Y-94993734D01*
X154050990Y-94993734D02*
X154193847Y-94993734D01*
X154193847Y-94993734D02*
X154384323Y-94946115D01*
X154384323Y-94946115D02*
X154479561Y-94898496D01*
X154479561Y-94898496D02*
X154574800Y-94803258D01*
X154574800Y-94803258D02*
X154622419Y-94660401D01*
X154622419Y-94660401D02*
X154622419Y-94565163D01*
X154622419Y-94565163D02*
X154574800Y-94422306D01*
X154574800Y-94422306D02*
X154527180Y-94374687D01*
X154527180Y-94374687D02*
X154193847Y-94374687D01*
X154193847Y-94374687D02*
X154193847Y-94565163D01*
X154622419Y-93946115D02*
X153622419Y-93946115D01*
X153622419Y-93946115D02*
X154622419Y-93374687D01*
X154622419Y-93374687D02*
X153622419Y-93374687D01*
X154622419Y-92898496D02*
X153622419Y-92898496D01*
X153622419Y-92898496D02*
X153622419Y-92660401D01*
X153622419Y-92660401D02*
X153670038Y-92517544D01*
X153670038Y-92517544D02*
X153765276Y-92422306D01*
X153765276Y-92422306D02*
X153860514Y-92374687D01*
X153860514Y-92374687D02*
X154050990Y-92327068D01*
X154050990Y-92327068D02*
X154193847Y-92327068D01*
X154193847Y-92327068D02*
X154384323Y-92374687D01*
X154384323Y-92374687D02*
X154479561Y-92422306D01*
X154479561Y-92422306D02*
X154574800Y-92517544D01*
X154574800Y-92517544D02*
X154622419Y-92660401D01*
X154622419Y-92660401D02*
X154622419Y-92898496D01*
X153872419Y-87838972D02*
X154872419Y-87505639D01*
X154872419Y-87505639D02*
X153872419Y-87172306D01*
X153872419Y-86648496D02*
X153872419Y-86458020D01*
X153872419Y-86458020D02*
X153920038Y-86362782D01*
X153920038Y-86362782D02*
X154015276Y-86267544D01*
X154015276Y-86267544D02*
X154205752Y-86219925D01*
X154205752Y-86219925D02*
X154539085Y-86219925D01*
X154539085Y-86219925D02*
X154729561Y-86267544D01*
X154729561Y-86267544D02*
X154824800Y-86362782D01*
X154824800Y-86362782D02*
X154872419Y-86458020D01*
X154872419Y-86458020D02*
X154872419Y-86648496D01*
X154872419Y-86648496D02*
X154824800Y-86743734D01*
X154824800Y-86743734D02*
X154729561Y-86838972D01*
X154729561Y-86838972D02*
X154539085Y-86886591D01*
X154539085Y-86886591D02*
X154205752Y-86886591D01*
X154205752Y-86886591D02*
X154015276Y-86838972D01*
X154015276Y-86838972D02*
X153920038Y-86743734D01*
X153920038Y-86743734D02*
X153872419Y-86648496D01*
X153872419Y-85791353D02*
X154681942Y-85791353D01*
X154681942Y-85791353D02*
X154777180Y-85743734D01*
X154777180Y-85743734D02*
X154824800Y-85696115D01*
X154824800Y-85696115D02*
X154872419Y-85600877D01*
X154872419Y-85600877D02*
X154872419Y-85410401D01*
X154872419Y-85410401D02*
X154824800Y-85315163D01*
X154824800Y-85315163D02*
X154777180Y-85267544D01*
X154777180Y-85267544D02*
X154681942Y-85219925D01*
X154681942Y-85219925D02*
X153872419Y-85219925D01*
X153872419Y-84886591D02*
X153872419Y-84315163D01*
X154872419Y-84600877D02*
X153872419Y-84600877D01*
D11*
X125687142Y-112535013D02*
X125353809Y-112058822D01*
X125115714Y-112535013D02*
X125115714Y-111535013D01*
X125115714Y-111535013D02*
X125496666Y-111535013D01*
X125496666Y-111535013D02*
X125591904Y-111582632D01*
X125591904Y-111582632D02*
X125639523Y-111630251D01*
X125639523Y-111630251D02*
X125687142Y-111725489D01*
X125687142Y-111725489D02*
X125687142Y-111868346D01*
X125687142Y-111868346D02*
X125639523Y-111963584D01*
X125639523Y-111963584D02*
X125591904Y-112011203D01*
X125591904Y-112011203D02*
X125496666Y-112058822D01*
X125496666Y-112058822D02*
X125115714Y-112058822D01*
X126639523Y-112535013D02*
X126068095Y-112535013D01*
X126353809Y-112535013D02*
X126353809Y-111535013D01*
X126353809Y-111535013D02*
X126258571Y-111677870D01*
X126258571Y-111677870D02*
X126163333Y-111773108D01*
X126163333Y-111773108D02*
X126068095Y-111820727D01*
X126972857Y-111535013D02*
X127591904Y-111535013D01*
X127591904Y-111535013D02*
X127258571Y-111915965D01*
X127258571Y-111915965D02*
X127401428Y-111915965D01*
X127401428Y-111915965D02*
X127496666Y-111963584D01*
X127496666Y-111963584D02*
X127544285Y-112011203D01*
X127544285Y-112011203D02*
X127591904Y-112106441D01*
X127591904Y-112106441D02*
X127591904Y-112344536D01*
X127591904Y-112344536D02*
X127544285Y-112439774D01*
X127544285Y-112439774D02*
X127496666Y-112487394D01*
X127496666Y-112487394D02*
X127401428Y-112535013D01*
X127401428Y-112535013D02*
X127115714Y-112535013D01*
X127115714Y-112535013D02*
X127020476Y-112487394D01*
X127020476Y-112487394D02*
X126972857Y-112439774D01*
X64742319Y-73605357D02*
X64266128Y-73938690D01*
X64742319Y-74176785D02*
X63742319Y-74176785D01*
X63742319Y-74176785D02*
X63742319Y-73795833D01*
X63742319Y-73795833D02*
X63789938Y-73700595D01*
X63789938Y-73700595D02*
X63837557Y-73652976D01*
X63837557Y-73652976D02*
X63932795Y-73605357D01*
X63932795Y-73605357D02*
X64075652Y-73605357D01*
X64075652Y-73605357D02*
X64170890Y-73652976D01*
X64170890Y-73652976D02*
X64218509Y-73700595D01*
X64218509Y-73700595D02*
X64266128Y-73795833D01*
X64266128Y-73795833D02*
X64266128Y-74176785D01*
X63837557Y-73224404D02*
X63789938Y-73176785D01*
X63789938Y-73176785D02*
X63742319Y-73081547D01*
X63742319Y-73081547D02*
X63742319Y-72843452D01*
X63742319Y-72843452D02*
X63789938Y-72748214D01*
X63789938Y-72748214D02*
X63837557Y-72700595D01*
X63837557Y-72700595D02*
X63932795Y-72652976D01*
X63932795Y-72652976D02*
X64028033Y-72652976D01*
X64028033Y-72652976D02*
X64170890Y-72700595D01*
X64170890Y-72700595D02*
X64742319Y-73272023D01*
X64742319Y-73272023D02*
X64742319Y-72652976D01*
X63837557Y-72272023D02*
X63789938Y-72224404D01*
X63789938Y-72224404D02*
X63742319Y-72129166D01*
X63742319Y-72129166D02*
X63742319Y-71891071D01*
X63742319Y-71891071D02*
X63789938Y-71795833D01*
X63789938Y-71795833D02*
X63837557Y-71748214D01*
X63837557Y-71748214D02*
X63932795Y-71700595D01*
X63932795Y-71700595D02*
X64028033Y-71700595D01*
X64028033Y-71700595D02*
X64170890Y-71748214D01*
X64170890Y-71748214D02*
X64742319Y-72319642D01*
X64742319Y-72319642D02*
X64742319Y-71700595D01*
D10*
X101738095Y-106207419D02*
X102309523Y-106207419D01*
X102023809Y-107207419D02*
X102023809Y-106207419D01*
X102642857Y-107207419D02*
X102642857Y-106207419D01*
X102642857Y-106207419D02*
X103023809Y-106207419D01*
X103023809Y-106207419D02*
X103119047Y-106255038D01*
X103119047Y-106255038D02*
X103166666Y-106302657D01*
X103166666Y-106302657D02*
X103214285Y-106397895D01*
X103214285Y-106397895D02*
X103214285Y-106540752D01*
X103214285Y-106540752D02*
X103166666Y-106635990D01*
X103166666Y-106635990D02*
X103119047Y-106683609D01*
X103119047Y-106683609D02*
X103023809Y-106731228D01*
X103023809Y-106731228D02*
X102642857Y-106731228D01*
X104119047Y-106207419D02*
X103642857Y-106207419D01*
X103642857Y-106207419D02*
X103595238Y-106683609D01*
X103595238Y-106683609D02*
X103642857Y-106635990D01*
X103642857Y-106635990D02*
X103738095Y-106588371D01*
X103738095Y-106588371D02*
X103976190Y-106588371D01*
X103976190Y-106588371D02*
X104071428Y-106635990D01*
X104071428Y-106635990D02*
X104119047Y-106683609D01*
X104119047Y-106683609D02*
X104166666Y-106778847D01*
X104166666Y-106778847D02*
X104166666Y-107016942D01*
X104166666Y-107016942D02*
X104119047Y-107112180D01*
X104119047Y-107112180D02*
X104071428Y-107159800D01*
X104071428Y-107159800D02*
X103976190Y-107207419D01*
X103976190Y-107207419D02*
X103738095Y-107207419D01*
X103738095Y-107207419D02*
X103642857Y-107159800D01*
X103642857Y-107159800D02*
X103595238Y-107112180D01*
D11*
X77592319Y-75855357D02*
X77116128Y-76188690D01*
X77592319Y-76426785D02*
X76592319Y-76426785D01*
X76592319Y-76426785D02*
X76592319Y-76045833D01*
X76592319Y-76045833D02*
X76639938Y-75950595D01*
X76639938Y-75950595D02*
X76687557Y-75902976D01*
X76687557Y-75902976D02*
X76782795Y-75855357D01*
X76782795Y-75855357D02*
X76925652Y-75855357D01*
X76925652Y-75855357D02*
X77020890Y-75902976D01*
X77020890Y-75902976D02*
X77068509Y-75950595D01*
X77068509Y-75950595D02*
X77116128Y-76045833D01*
X77116128Y-76045833D02*
X77116128Y-76426785D01*
X77592319Y-74902976D02*
X77592319Y-75474404D01*
X77592319Y-75188690D02*
X76592319Y-75188690D01*
X76592319Y-75188690D02*
X76735176Y-75283928D01*
X76735176Y-75283928D02*
X76830414Y-75379166D01*
X76830414Y-75379166D02*
X76878033Y-75474404D01*
X77592319Y-74426785D02*
X77592319Y-74236309D01*
X77592319Y-74236309D02*
X77544700Y-74141071D01*
X77544700Y-74141071D02*
X77497080Y-74093452D01*
X77497080Y-74093452D02*
X77354223Y-73998214D01*
X77354223Y-73998214D02*
X77163747Y-73950595D01*
X77163747Y-73950595D02*
X76782795Y-73950595D01*
X76782795Y-73950595D02*
X76687557Y-73998214D01*
X76687557Y-73998214D02*
X76639938Y-74045833D01*
X76639938Y-74045833D02*
X76592319Y-74141071D01*
X76592319Y-74141071D02*
X76592319Y-74331547D01*
X76592319Y-74331547D02*
X76639938Y-74426785D01*
X76639938Y-74426785D02*
X76687557Y-74474404D01*
X76687557Y-74474404D02*
X76782795Y-74522023D01*
X76782795Y-74522023D02*
X77020890Y-74522023D01*
X77020890Y-74522023D02*
X77116128Y-74474404D01*
X77116128Y-74474404D02*
X77163747Y-74426785D01*
X77163747Y-74426785D02*
X77211366Y-74331547D01*
X77211366Y-74331547D02*
X77211366Y-74141071D01*
X77211366Y-74141071D02*
X77163747Y-74045833D01*
X77163747Y-74045833D02*
X77116128Y-73998214D01*
X77116128Y-73998214D02*
X77020890Y-73950595D01*
X93106680Y-102789957D02*
X93154300Y-102837576D01*
X93154300Y-102837576D02*
X93201919Y-102980433D01*
X93201919Y-102980433D02*
X93201919Y-103075671D01*
X93201919Y-103075671D02*
X93154300Y-103218528D01*
X93154300Y-103218528D02*
X93059061Y-103313766D01*
X93059061Y-103313766D02*
X92963823Y-103361385D01*
X92963823Y-103361385D02*
X92773347Y-103409004D01*
X92773347Y-103409004D02*
X92630490Y-103409004D01*
X92630490Y-103409004D02*
X92440014Y-103361385D01*
X92440014Y-103361385D02*
X92344776Y-103313766D01*
X92344776Y-103313766D02*
X92249538Y-103218528D01*
X92249538Y-103218528D02*
X92201919Y-103075671D01*
X92201919Y-103075671D02*
X92201919Y-102980433D01*
X92201919Y-102980433D02*
X92249538Y-102837576D01*
X92249538Y-102837576D02*
X92297157Y-102789957D01*
X92297157Y-102409004D02*
X92249538Y-102361385D01*
X92249538Y-102361385D02*
X92201919Y-102266147D01*
X92201919Y-102266147D02*
X92201919Y-102028052D01*
X92201919Y-102028052D02*
X92249538Y-101932814D01*
X92249538Y-101932814D02*
X92297157Y-101885195D01*
X92297157Y-101885195D02*
X92392395Y-101837576D01*
X92392395Y-101837576D02*
X92487633Y-101837576D01*
X92487633Y-101837576D02*
X92630490Y-101885195D01*
X92630490Y-101885195D02*
X93201919Y-102456623D01*
X93201919Y-102456623D02*
X93201919Y-101837576D01*
X92201919Y-101504242D02*
X92201919Y-100837576D01*
X92201919Y-100837576D02*
X93201919Y-101266147D01*
D10*
X145511905Y-56957419D02*
X146083333Y-56957419D01*
X145797619Y-57957419D02*
X145797619Y-56957419D01*
X146416667Y-57957419D02*
X146416667Y-56957419D01*
X146416667Y-56957419D02*
X146797619Y-56957419D01*
X146797619Y-56957419D02*
X146892857Y-57005038D01*
X146892857Y-57005038D02*
X146940476Y-57052657D01*
X146940476Y-57052657D02*
X146988095Y-57147895D01*
X146988095Y-57147895D02*
X146988095Y-57290752D01*
X146988095Y-57290752D02*
X146940476Y-57385990D01*
X146940476Y-57385990D02*
X146892857Y-57433609D01*
X146892857Y-57433609D02*
X146797619Y-57481228D01*
X146797619Y-57481228D02*
X146416667Y-57481228D01*
X147940476Y-57957419D02*
X147369048Y-57957419D01*
X147654762Y-57957419D02*
X147654762Y-56957419D01*
X147654762Y-56957419D02*
X147559524Y-57100276D01*
X147559524Y-57100276D02*
X147464286Y-57195514D01*
X147464286Y-57195514D02*
X147369048Y-57243133D01*
X148845238Y-56957419D02*
X148369048Y-56957419D01*
X148369048Y-56957419D02*
X148321429Y-57433609D01*
X148321429Y-57433609D02*
X148369048Y-57385990D01*
X148369048Y-57385990D02*
X148464286Y-57338371D01*
X148464286Y-57338371D02*
X148702381Y-57338371D01*
X148702381Y-57338371D02*
X148797619Y-57385990D01*
X148797619Y-57385990D02*
X148845238Y-57433609D01*
X148845238Y-57433609D02*
X148892857Y-57528847D01*
X148892857Y-57528847D02*
X148892857Y-57766942D01*
X148892857Y-57766942D02*
X148845238Y-57862180D01*
X148845238Y-57862180D02*
X148797619Y-57909800D01*
X148797619Y-57909800D02*
X148702381Y-57957419D01*
X148702381Y-57957419D02*
X148464286Y-57957419D01*
X148464286Y-57957419D02*
X148369048Y-57909800D01*
X148369048Y-57909800D02*
X148321429Y-57862180D01*
D11*
X111498095Y-74500319D02*
X111498095Y-75309842D01*
X111498095Y-75309842D02*
X111545714Y-75405080D01*
X111545714Y-75405080D02*
X111593333Y-75452700D01*
X111593333Y-75452700D02*
X111688571Y-75500319D01*
X111688571Y-75500319D02*
X111879047Y-75500319D01*
X111879047Y-75500319D02*
X111974285Y-75452700D01*
X111974285Y-75452700D02*
X112021904Y-75405080D01*
X112021904Y-75405080D02*
X112069523Y-75309842D01*
X112069523Y-75309842D02*
X112069523Y-74500319D01*
X113069523Y-75500319D02*
X112498095Y-75500319D01*
X112783809Y-75500319D02*
X112783809Y-74500319D01*
X112783809Y-74500319D02*
X112688571Y-74643176D01*
X112688571Y-74643176D02*
X112593333Y-74738414D01*
X112593333Y-74738414D02*
X112498095Y-74786033D01*
X80606680Y-98242857D02*
X80654300Y-98290476D01*
X80654300Y-98290476D02*
X80701919Y-98433333D01*
X80701919Y-98433333D02*
X80701919Y-98528571D01*
X80701919Y-98528571D02*
X80654300Y-98671428D01*
X80654300Y-98671428D02*
X80559061Y-98766666D01*
X80559061Y-98766666D02*
X80463823Y-98814285D01*
X80463823Y-98814285D02*
X80273347Y-98861904D01*
X80273347Y-98861904D02*
X80130490Y-98861904D01*
X80130490Y-98861904D02*
X79940014Y-98814285D01*
X79940014Y-98814285D02*
X79844776Y-98766666D01*
X79844776Y-98766666D02*
X79749538Y-98671428D01*
X79749538Y-98671428D02*
X79701919Y-98528571D01*
X79701919Y-98528571D02*
X79701919Y-98433333D01*
X79701919Y-98433333D02*
X79749538Y-98290476D01*
X79749538Y-98290476D02*
X79797157Y-98242857D01*
X79797157Y-97861904D02*
X79749538Y-97814285D01*
X79749538Y-97814285D02*
X79701919Y-97719047D01*
X79701919Y-97719047D02*
X79701919Y-97480952D01*
X79701919Y-97480952D02*
X79749538Y-97385714D01*
X79749538Y-97385714D02*
X79797157Y-97338095D01*
X79797157Y-97338095D02*
X79892395Y-97290476D01*
X79892395Y-97290476D02*
X79987633Y-97290476D01*
X79987633Y-97290476D02*
X80130490Y-97338095D01*
X80130490Y-97338095D02*
X80701919Y-97909523D01*
X80701919Y-97909523D02*
X80701919Y-97290476D01*
X79701919Y-96433333D02*
X79701919Y-96623809D01*
X79701919Y-96623809D02*
X79749538Y-96719047D01*
X79749538Y-96719047D02*
X79797157Y-96766666D01*
X79797157Y-96766666D02*
X79940014Y-96861904D01*
X79940014Y-96861904D02*
X80130490Y-96909523D01*
X80130490Y-96909523D02*
X80511442Y-96909523D01*
X80511442Y-96909523D02*
X80606680Y-96861904D01*
X80606680Y-96861904D02*
X80654300Y-96814285D01*
X80654300Y-96814285D02*
X80701919Y-96719047D01*
X80701919Y-96719047D02*
X80701919Y-96528571D01*
X80701919Y-96528571D02*
X80654300Y-96433333D01*
X80654300Y-96433333D02*
X80606680Y-96385714D01*
X80606680Y-96385714D02*
X80511442Y-96338095D01*
X80511442Y-96338095D02*
X80273347Y-96338095D01*
X80273347Y-96338095D02*
X80178109Y-96385714D01*
X80178109Y-96385714D02*
X80130490Y-96433333D01*
X80130490Y-96433333D02*
X80082871Y-96528571D01*
X80082871Y-96528571D02*
X80082871Y-96719047D01*
X80082871Y-96719047D02*
X80130490Y-96814285D01*
X80130490Y-96814285D02*
X80178109Y-96861904D01*
X80178109Y-96861904D02*
X80273347Y-96909523D01*
X120083333Y-90554819D02*
X119607143Y-90554819D01*
X119607143Y-90554819D02*
X119607143Y-89554819D01*
X120892857Y-89554819D02*
X120416667Y-89554819D01*
X120416667Y-89554819D02*
X120369048Y-90031009D01*
X120369048Y-90031009D02*
X120416667Y-89983390D01*
X120416667Y-89983390D02*
X120511905Y-89935771D01*
X120511905Y-89935771D02*
X120750000Y-89935771D01*
X120750000Y-89935771D02*
X120845238Y-89983390D01*
X120845238Y-89983390D02*
X120892857Y-90031009D01*
X120892857Y-90031009D02*
X120940476Y-90126247D01*
X120940476Y-90126247D02*
X120940476Y-90364342D01*
X120940476Y-90364342D02*
X120892857Y-90459580D01*
X120892857Y-90459580D02*
X120845238Y-90507200D01*
X120845238Y-90507200D02*
X120750000Y-90554819D01*
X120750000Y-90554819D02*
X120511905Y-90554819D01*
X120511905Y-90554819D02*
X120416667Y-90507200D01*
X120416667Y-90507200D02*
X120369048Y-90459580D01*
X108109580Y-84416666D02*
X108157200Y-84464285D01*
X108157200Y-84464285D02*
X108204819Y-84607142D01*
X108204819Y-84607142D02*
X108204819Y-84702380D01*
X108204819Y-84702380D02*
X108157200Y-84845237D01*
X108157200Y-84845237D02*
X108061961Y-84940475D01*
X108061961Y-84940475D02*
X107966723Y-84988094D01*
X107966723Y-84988094D02*
X107776247Y-85035713D01*
X107776247Y-85035713D02*
X107633390Y-85035713D01*
X107633390Y-85035713D02*
X107442914Y-84988094D01*
X107442914Y-84988094D02*
X107347676Y-84940475D01*
X107347676Y-84940475D02*
X107252438Y-84845237D01*
X107252438Y-84845237D02*
X107204819Y-84702380D01*
X107204819Y-84702380D02*
X107204819Y-84607142D01*
X107204819Y-84607142D02*
X107252438Y-84464285D01*
X107252438Y-84464285D02*
X107300057Y-84416666D01*
X107204819Y-84083332D02*
X107204819Y-83464285D01*
X107204819Y-83464285D02*
X107585771Y-83797618D01*
X107585771Y-83797618D02*
X107585771Y-83654761D01*
X107585771Y-83654761D02*
X107633390Y-83559523D01*
X107633390Y-83559523D02*
X107681009Y-83511904D01*
X107681009Y-83511904D02*
X107776247Y-83464285D01*
X107776247Y-83464285D02*
X108014342Y-83464285D01*
X108014342Y-83464285D02*
X108109580Y-83511904D01*
X108109580Y-83511904D02*
X108157200Y-83559523D01*
X108157200Y-83559523D02*
X108204819Y-83654761D01*
X108204819Y-83654761D02*
X108204819Y-83940475D01*
X108204819Y-83940475D02*
X108157200Y-84035713D01*
X108157200Y-84035713D02*
X108109580Y-84083332D01*
X107333333Y-113204819D02*
X107000000Y-112728628D01*
X106761905Y-113204819D02*
X106761905Y-112204819D01*
X106761905Y-112204819D02*
X107142857Y-112204819D01*
X107142857Y-112204819D02*
X107238095Y-112252438D01*
X107238095Y-112252438D02*
X107285714Y-112300057D01*
X107285714Y-112300057D02*
X107333333Y-112395295D01*
X107333333Y-112395295D02*
X107333333Y-112538152D01*
X107333333Y-112538152D02*
X107285714Y-112633390D01*
X107285714Y-112633390D02*
X107238095Y-112681009D01*
X107238095Y-112681009D02*
X107142857Y-112728628D01*
X107142857Y-112728628D02*
X106761905Y-112728628D01*
X107809524Y-113204819D02*
X108000000Y-113204819D01*
X108000000Y-113204819D02*
X108095238Y-113157200D01*
X108095238Y-113157200D02*
X108142857Y-113109580D01*
X108142857Y-113109580D02*
X108238095Y-112966723D01*
X108238095Y-112966723D02*
X108285714Y-112776247D01*
X108285714Y-112776247D02*
X108285714Y-112395295D01*
X108285714Y-112395295D02*
X108238095Y-112300057D01*
X108238095Y-112300057D02*
X108190476Y-112252438D01*
X108190476Y-112252438D02*
X108095238Y-112204819D01*
X108095238Y-112204819D02*
X107904762Y-112204819D01*
X107904762Y-112204819D02*
X107809524Y-112252438D01*
X107809524Y-112252438D02*
X107761905Y-112300057D01*
X107761905Y-112300057D02*
X107714286Y-112395295D01*
X107714286Y-112395295D02*
X107714286Y-112633390D01*
X107714286Y-112633390D02*
X107761905Y-112728628D01*
X107761905Y-112728628D02*
X107809524Y-112776247D01*
X107809524Y-112776247D02*
X107904762Y-112823866D01*
X107904762Y-112823866D02*
X108095238Y-112823866D01*
X108095238Y-112823866D02*
X108190476Y-112776247D01*
X108190476Y-112776247D02*
X108238095Y-112728628D01*
X108238095Y-112728628D02*
X108285714Y-112633390D01*
X77104242Y-117351919D02*
X76770909Y-116875728D01*
X76532814Y-117351919D02*
X76532814Y-116351919D01*
X76532814Y-116351919D02*
X76913766Y-116351919D01*
X76913766Y-116351919D02*
X77009004Y-116399538D01*
X77009004Y-116399538D02*
X77056623Y-116447157D01*
X77056623Y-116447157D02*
X77104242Y-116542395D01*
X77104242Y-116542395D02*
X77104242Y-116685252D01*
X77104242Y-116685252D02*
X77056623Y-116780490D01*
X77056623Y-116780490D02*
X77009004Y-116828109D01*
X77009004Y-116828109D02*
X76913766Y-116875728D01*
X76913766Y-116875728D02*
X76532814Y-116875728D01*
X77437576Y-116351919D02*
X78056623Y-116351919D01*
X78056623Y-116351919D02*
X77723290Y-116732871D01*
X77723290Y-116732871D02*
X77866147Y-116732871D01*
X77866147Y-116732871D02*
X77961385Y-116780490D01*
X77961385Y-116780490D02*
X78009004Y-116828109D01*
X78009004Y-116828109D02*
X78056623Y-116923347D01*
X78056623Y-116923347D02*
X78056623Y-117161442D01*
X78056623Y-117161442D02*
X78009004Y-117256680D01*
X78009004Y-117256680D02*
X77961385Y-117304300D01*
X77961385Y-117304300D02*
X77866147Y-117351919D01*
X77866147Y-117351919D02*
X77580433Y-117351919D01*
X77580433Y-117351919D02*
X77485195Y-117304300D01*
X77485195Y-117304300D02*
X77437576Y-117256680D01*
X78389957Y-116351919D02*
X79056623Y-116351919D01*
X79056623Y-116351919D02*
X78628052Y-117351919D01*
D10*
X80275595Y-79169919D02*
X80847023Y-79169919D01*
X80561309Y-80169919D02*
X80561309Y-79169919D01*
X81180357Y-80169919D02*
X81180357Y-79169919D01*
X81180357Y-79169919D02*
X81561309Y-79169919D01*
X81561309Y-79169919D02*
X81656547Y-79217538D01*
X81656547Y-79217538D02*
X81704166Y-79265157D01*
X81704166Y-79265157D02*
X81751785Y-79360395D01*
X81751785Y-79360395D02*
X81751785Y-79503252D01*
X81751785Y-79503252D02*
X81704166Y-79598490D01*
X81704166Y-79598490D02*
X81656547Y-79646109D01*
X81656547Y-79646109D02*
X81561309Y-79693728D01*
X81561309Y-79693728D02*
X81180357Y-79693728D01*
X82608928Y-79503252D02*
X82608928Y-80169919D01*
X82370833Y-79122300D02*
X82132738Y-79836585D01*
X82132738Y-79836585D02*
X82751785Y-79836585D01*
D11*
X119607142Y-110859580D02*
X119559523Y-110907200D01*
X119559523Y-110907200D02*
X119416666Y-110954819D01*
X119416666Y-110954819D02*
X119321428Y-110954819D01*
X119321428Y-110954819D02*
X119178571Y-110907200D01*
X119178571Y-110907200D02*
X119083333Y-110811961D01*
X119083333Y-110811961D02*
X119035714Y-110716723D01*
X119035714Y-110716723D02*
X118988095Y-110526247D01*
X118988095Y-110526247D02*
X118988095Y-110383390D01*
X118988095Y-110383390D02*
X119035714Y-110192914D01*
X119035714Y-110192914D02*
X119083333Y-110097676D01*
X119083333Y-110097676D02*
X119178571Y-110002438D01*
X119178571Y-110002438D02*
X119321428Y-109954819D01*
X119321428Y-109954819D02*
X119416666Y-109954819D01*
X119416666Y-109954819D02*
X119559523Y-110002438D01*
X119559523Y-110002438D02*
X119607142Y-110050057D01*
X120559523Y-110954819D02*
X119988095Y-110954819D01*
X120273809Y-110954819D02*
X120273809Y-109954819D01*
X120273809Y-109954819D02*
X120178571Y-110097676D01*
X120178571Y-110097676D02*
X120083333Y-110192914D01*
X120083333Y-110192914D02*
X119988095Y-110240533D01*
X121416666Y-109954819D02*
X121226190Y-109954819D01*
X121226190Y-109954819D02*
X121130952Y-110002438D01*
X121130952Y-110002438D02*
X121083333Y-110050057D01*
X121083333Y-110050057D02*
X120988095Y-110192914D01*
X120988095Y-110192914D02*
X120940476Y-110383390D01*
X120940476Y-110383390D02*
X120940476Y-110764342D01*
X120940476Y-110764342D02*
X120988095Y-110859580D01*
X120988095Y-110859580D02*
X121035714Y-110907200D01*
X121035714Y-110907200D02*
X121130952Y-110954819D01*
X121130952Y-110954819D02*
X121321428Y-110954819D01*
X121321428Y-110954819D02*
X121416666Y-110907200D01*
X121416666Y-110907200D02*
X121464285Y-110859580D01*
X121464285Y-110859580D02*
X121511904Y-110764342D01*
X121511904Y-110764342D02*
X121511904Y-110526247D01*
X121511904Y-110526247D02*
X121464285Y-110431009D01*
X121464285Y-110431009D02*
X121416666Y-110383390D01*
X121416666Y-110383390D02*
X121321428Y-110335771D01*
X121321428Y-110335771D02*
X121130952Y-110335771D01*
X121130952Y-110335771D02*
X121035714Y-110383390D01*
X121035714Y-110383390D02*
X120988095Y-110431009D01*
X120988095Y-110431009D02*
X120940476Y-110526247D01*
X99859580Y-99892857D02*
X99907200Y-99940476D01*
X99907200Y-99940476D02*
X99954819Y-100083333D01*
X99954819Y-100083333D02*
X99954819Y-100178571D01*
X99954819Y-100178571D02*
X99907200Y-100321428D01*
X99907200Y-100321428D02*
X99811961Y-100416666D01*
X99811961Y-100416666D02*
X99716723Y-100464285D01*
X99716723Y-100464285D02*
X99526247Y-100511904D01*
X99526247Y-100511904D02*
X99383390Y-100511904D01*
X99383390Y-100511904D02*
X99192914Y-100464285D01*
X99192914Y-100464285D02*
X99097676Y-100416666D01*
X99097676Y-100416666D02*
X99002438Y-100321428D01*
X99002438Y-100321428D02*
X98954819Y-100178571D01*
X98954819Y-100178571D02*
X98954819Y-100083333D01*
X98954819Y-100083333D02*
X99002438Y-99940476D01*
X99002438Y-99940476D02*
X99050057Y-99892857D01*
X99954819Y-98940476D02*
X99954819Y-99511904D01*
X99954819Y-99226190D02*
X98954819Y-99226190D01*
X98954819Y-99226190D02*
X99097676Y-99321428D01*
X99097676Y-99321428D02*
X99192914Y-99416666D01*
X99192914Y-99416666D02*
X99240533Y-99511904D01*
X99050057Y-98559523D02*
X99002438Y-98511904D01*
X99002438Y-98511904D02*
X98954819Y-98416666D01*
X98954819Y-98416666D02*
X98954819Y-98178571D01*
X98954819Y-98178571D02*
X99002438Y-98083333D01*
X99002438Y-98083333D02*
X99050057Y-98035714D01*
X99050057Y-98035714D02*
X99145295Y-97988095D01*
X99145295Y-97988095D02*
X99240533Y-97988095D01*
X99240533Y-97988095D02*
X99383390Y-98035714D01*
X99383390Y-98035714D02*
X99954819Y-98607142D01*
X99954819Y-98607142D02*
X99954819Y-97988095D01*
X105859580Y-75666666D02*
X105907200Y-75714285D01*
X105907200Y-75714285D02*
X105954819Y-75857142D01*
X105954819Y-75857142D02*
X105954819Y-75952380D01*
X105954819Y-75952380D02*
X105907200Y-76095237D01*
X105907200Y-76095237D02*
X105811961Y-76190475D01*
X105811961Y-76190475D02*
X105716723Y-76238094D01*
X105716723Y-76238094D02*
X105526247Y-76285713D01*
X105526247Y-76285713D02*
X105383390Y-76285713D01*
X105383390Y-76285713D02*
X105192914Y-76238094D01*
X105192914Y-76238094D02*
X105097676Y-76190475D01*
X105097676Y-76190475D02*
X105002438Y-76095237D01*
X105002438Y-76095237D02*
X104954819Y-75952380D01*
X104954819Y-75952380D02*
X104954819Y-75857142D01*
X104954819Y-75857142D02*
X105002438Y-75714285D01*
X105002438Y-75714285D02*
X105050057Y-75666666D01*
X104954819Y-74809523D02*
X104954819Y-74999999D01*
X104954819Y-74999999D02*
X105002438Y-75095237D01*
X105002438Y-75095237D02*
X105050057Y-75142856D01*
X105050057Y-75142856D02*
X105192914Y-75238094D01*
X105192914Y-75238094D02*
X105383390Y-75285713D01*
X105383390Y-75285713D02*
X105764342Y-75285713D01*
X105764342Y-75285713D02*
X105859580Y-75238094D01*
X105859580Y-75238094D02*
X105907200Y-75190475D01*
X105907200Y-75190475D02*
X105954819Y-75095237D01*
X105954819Y-75095237D02*
X105954819Y-74904761D01*
X105954819Y-74904761D02*
X105907200Y-74809523D01*
X105907200Y-74809523D02*
X105859580Y-74761904D01*
X105859580Y-74761904D02*
X105764342Y-74714285D01*
X105764342Y-74714285D02*
X105526247Y-74714285D01*
X105526247Y-74714285D02*
X105431009Y-74761904D01*
X105431009Y-74761904D02*
X105383390Y-74809523D01*
X105383390Y-74809523D02*
X105335771Y-74904761D01*
X105335771Y-74904761D02*
X105335771Y-75095237D01*
X105335771Y-75095237D02*
X105383390Y-75190475D01*
X105383390Y-75190475D02*
X105431009Y-75238094D01*
X105431009Y-75238094D02*
X105526247Y-75285713D01*
X111518095Y-98868013D02*
X111518095Y-99677536D01*
X111518095Y-99677536D02*
X111565714Y-99772774D01*
X111565714Y-99772774D02*
X111613333Y-99820394D01*
X111613333Y-99820394D02*
X111708571Y-99868013D01*
X111708571Y-99868013D02*
X111899047Y-99868013D01*
X111899047Y-99868013D02*
X111994285Y-99820394D01*
X111994285Y-99820394D02*
X112041904Y-99772774D01*
X112041904Y-99772774D02*
X112089523Y-99677536D01*
X112089523Y-99677536D02*
X112089523Y-98868013D01*
X113041904Y-98868013D02*
X112565714Y-98868013D01*
X112565714Y-98868013D02*
X112518095Y-99344203D01*
X112518095Y-99344203D02*
X112565714Y-99296584D01*
X112565714Y-99296584D02*
X112660952Y-99248965D01*
X112660952Y-99248965D02*
X112899047Y-99248965D01*
X112899047Y-99248965D02*
X112994285Y-99296584D01*
X112994285Y-99296584D02*
X113041904Y-99344203D01*
X113041904Y-99344203D02*
X113089523Y-99439441D01*
X113089523Y-99439441D02*
X113089523Y-99677536D01*
X113089523Y-99677536D02*
X113041904Y-99772774D01*
X113041904Y-99772774D02*
X112994285Y-99820394D01*
X112994285Y-99820394D02*
X112899047Y-99868013D01*
X112899047Y-99868013D02*
X112660952Y-99868013D01*
X112660952Y-99868013D02*
X112565714Y-99820394D01*
X112565714Y-99820394D02*
X112518095Y-99772774D01*
X99204819Y-67142857D02*
X98728628Y-67476190D01*
X99204819Y-67714285D02*
X98204819Y-67714285D01*
X98204819Y-67714285D02*
X98204819Y-67333333D01*
X98204819Y-67333333D02*
X98252438Y-67238095D01*
X98252438Y-67238095D02*
X98300057Y-67190476D01*
X98300057Y-67190476D02*
X98395295Y-67142857D01*
X98395295Y-67142857D02*
X98538152Y-67142857D01*
X98538152Y-67142857D02*
X98633390Y-67190476D01*
X98633390Y-67190476D02*
X98681009Y-67238095D01*
X98681009Y-67238095D02*
X98728628Y-67333333D01*
X98728628Y-67333333D02*
X98728628Y-67714285D01*
X98300057Y-66761904D02*
X98252438Y-66714285D01*
X98252438Y-66714285D02*
X98204819Y-66619047D01*
X98204819Y-66619047D02*
X98204819Y-66380952D01*
X98204819Y-66380952D02*
X98252438Y-66285714D01*
X98252438Y-66285714D02*
X98300057Y-66238095D01*
X98300057Y-66238095D02*
X98395295Y-66190476D01*
X98395295Y-66190476D02*
X98490533Y-66190476D01*
X98490533Y-66190476D02*
X98633390Y-66238095D01*
X98633390Y-66238095D02*
X99204819Y-66809523D01*
X99204819Y-66809523D02*
X99204819Y-66190476D01*
X98204819Y-65333333D02*
X98204819Y-65523809D01*
X98204819Y-65523809D02*
X98252438Y-65619047D01*
X98252438Y-65619047D02*
X98300057Y-65666666D01*
X98300057Y-65666666D02*
X98442914Y-65761904D01*
X98442914Y-65761904D02*
X98633390Y-65809523D01*
X98633390Y-65809523D02*
X99014342Y-65809523D01*
X99014342Y-65809523D02*
X99109580Y-65761904D01*
X99109580Y-65761904D02*
X99157200Y-65714285D01*
X99157200Y-65714285D02*
X99204819Y-65619047D01*
X99204819Y-65619047D02*
X99204819Y-65428571D01*
X99204819Y-65428571D02*
X99157200Y-65333333D01*
X99157200Y-65333333D02*
X99109580Y-65285714D01*
X99109580Y-65285714D02*
X99014342Y-65238095D01*
X99014342Y-65238095D02*
X98776247Y-65238095D01*
X98776247Y-65238095D02*
X98681009Y-65285714D01*
X98681009Y-65285714D02*
X98633390Y-65333333D01*
X98633390Y-65333333D02*
X98585771Y-65428571D01*
X98585771Y-65428571D02*
X98585771Y-65619047D01*
X98585771Y-65619047D02*
X98633390Y-65714285D01*
X98633390Y-65714285D02*
X98681009Y-65761904D01*
X98681009Y-65761904D02*
X98776247Y-65809523D01*
X98229819Y-107145389D02*
X97229819Y-107145389D01*
X98229819Y-106669199D02*
X97229819Y-106669199D01*
X97229819Y-106669199D02*
X97229819Y-106431104D01*
X97229819Y-106431104D02*
X97277438Y-106288247D01*
X97277438Y-106288247D02*
X97372676Y-106193009D01*
X97372676Y-106193009D02*
X97467914Y-106145390D01*
X97467914Y-106145390D02*
X97658390Y-106097771D01*
X97658390Y-106097771D02*
X97801247Y-106097771D01*
X97801247Y-106097771D02*
X97991723Y-106145390D01*
X97991723Y-106145390D02*
X98086961Y-106193009D01*
X98086961Y-106193009D02*
X98182200Y-106288247D01*
X98182200Y-106288247D02*
X98229819Y-106431104D01*
X98229819Y-106431104D02*
X98229819Y-106669199D01*
X97325057Y-105716818D02*
X97277438Y-105669199D01*
X97277438Y-105669199D02*
X97229819Y-105573961D01*
X97229819Y-105573961D02*
X97229819Y-105335866D01*
X97229819Y-105335866D02*
X97277438Y-105240628D01*
X97277438Y-105240628D02*
X97325057Y-105193009D01*
X97325057Y-105193009D02*
X97420295Y-105145390D01*
X97420295Y-105145390D02*
X97515533Y-105145390D01*
X97515533Y-105145390D02*
X97658390Y-105193009D01*
X97658390Y-105193009D02*
X98229819Y-105764437D01*
X98229819Y-105764437D02*
X98229819Y-105145390D01*
X137198095Y-78454819D02*
X137198095Y-79264342D01*
X137198095Y-79264342D02*
X137245714Y-79359580D01*
X137245714Y-79359580D02*
X137293333Y-79407200D01*
X137293333Y-79407200D02*
X137388571Y-79454819D01*
X137388571Y-79454819D02*
X137579047Y-79454819D01*
X137579047Y-79454819D02*
X137674285Y-79407200D01*
X137674285Y-79407200D02*
X137721904Y-79359580D01*
X137721904Y-79359580D02*
X137769523Y-79264342D01*
X137769523Y-79264342D02*
X137769523Y-78454819D01*
X138150476Y-78454819D02*
X138769523Y-78454819D01*
X138769523Y-78454819D02*
X138436190Y-78835771D01*
X138436190Y-78835771D02*
X138579047Y-78835771D01*
X138579047Y-78835771D02*
X138674285Y-78883390D01*
X138674285Y-78883390D02*
X138721904Y-78931009D01*
X138721904Y-78931009D02*
X138769523Y-79026247D01*
X138769523Y-79026247D02*
X138769523Y-79264342D01*
X138769523Y-79264342D02*
X138721904Y-79359580D01*
X138721904Y-79359580D02*
X138674285Y-79407200D01*
X138674285Y-79407200D02*
X138579047Y-79454819D01*
X138579047Y-79454819D02*
X138293333Y-79454819D01*
X138293333Y-79454819D02*
X138198095Y-79407200D01*
X138198095Y-79407200D02*
X138150476Y-79359580D01*
X110143333Y-72467319D02*
X109810000Y-71991128D01*
X109571905Y-72467319D02*
X109571905Y-71467319D01*
X109571905Y-71467319D02*
X109952857Y-71467319D01*
X109952857Y-71467319D02*
X110048095Y-71514938D01*
X110048095Y-71514938D02*
X110095714Y-71562557D01*
X110095714Y-71562557D02*
X110143333Y-71657795D01*
X110143333Y-71657795D02*
X110143333Y-71800652D01*
X110143333Y-71800652D02*
X110095714Y-71895890D01*
X110095714Y-71895890D02*
X110048095Y-71943509D01*
X110048095Y-71943509D02*
X109952857Y-71991128D01*
X109952857Y-71991128D02*
X109571905Y-71991128D01*
X111048095Y-71467319D02*
X110571905Y-71467319D01*
X110571905Y-71467319D02*
X110524286Y-71943509D01*
X110524286Y-71943509D02*
X110571905Y-71895890D01*
X110571905Y-71895890D02*
X110667143Y-71848271D01*
X110667143Y-71848271D02*
X110905238Y-71848271D01*
X110905238Y-71848271D02*
X111000476Y-71895890D01*
X111000476Y-71895890D02*
X111048095Y-71943509D01*
X111048095Y-71943509D02*
X111095714Y-72038747D01*
X111095714Y-72038747D02*
X111095714Y-72276842D01*
X111095714Y-72276842D02*
X111048095Y-72372080D01*
X111048095Y-72372080D02*
X111000476Y-72419700D01*
X111000476Y-72419700D02*
X110905238Y-72467319D01*
X110905238Y-72467319D02*
X110667143Y-72467319D01*
X110667143Y-72467319D02*
X110571905Y-72419700D01*
X110571905Y-72419700D02*
X110524286Y-72372080D01*
X83779819Y-118973657D02*
X83303628Y-119306990D01*
X83779819Y-119545085D02*
X82779819Y-119545085D01*
X82779819Y-119545085D02*
X82779819Y-119164133D01*
X82779819Y-119164133D02*
X82827438Y-119068895D01*
X82827438Y-119068895D02*
X82875057Y-119021276D01*
X82875057Y-119021276D02*
X82970295Y-118973657D01*
X82970295Y-118973657D02*
X83113152Y-118973657D01*
X83113152Y-118973657D02*
X83208390Y-119021276D01*
X83208390Y-119021276D02*
X83256009Y-119068895D01*
X83256009Y-119068895D02*
X83303628Y-119164133D01*
X83303628Y-119164133D02*
X83303628Y-119545085D01*
X83113152Y-118116514D02*
X83779819Y-118116514D01*
X82732200Y-118354609D02*
X83446485Y-118592704D01*
X83446485Y-118592704D02*
X83446485Y-117973657D01*
X82779819Y-117402228D02*
X82779819Y-117306990D01*
X82779819Y-117306990D02*
X82827438Y-117211752D01*
X82827438Y-117211752D02*
X82875057Y-117164133D01*
X82875057Y-117164133D02*
X82970295Y-117116514D01*
X82970295Y-117116514D02*
X83160771Y-117068895D01*
X83160771Y-117068895D02*
X83398866Y-117068895D01*
X83398866Y-117068895D02*
X83589342Y-117116514D01*
X83589342Y-117116514D02*
X83684580Y-117164133D01*
X83684580Y-117164133D02*
X83732200Y-117211752D01*
X83732200Y-117211752D02*
X83779819Y-117306990D01*
X83779819Y-117306990D02*
X83779819Y-117402228D01*
X83779819Y-117402228D02*
X83732200Y-117497466D01*
X83732200Y-117497466D02*
X83684580Y-117545085D01*
X83684580Y-117545085D02*
X83589342Y-117592704D01*
X83589342Y-117592704D02*
X83398866Y-117640323D01*
X83398866Y-117640323D02*
X83160771Y-117640323D01*
X83160771Y-117640323D02*
X82970295Y-117592704D01*
X82970295Y-117592704D02*
X82875057Y-117545085D01*
X82875057Y-117545085D02*
X82827438Y-117497466D01*
X82827438Y-117497466D02*
X82779819Y-117402228D01*
X122954819Y-110142857D02*
X122478628Y-110476190D01*
X122954819Y-110714285D02*
X121954819Y-110714285D01*
X121954819Y-110714285D02*
X121954819Y-110333333D01*
X121954819Y-110333333D02*
X122002438Y-110238095D01*
X122002438Y-110238095D02*
X122050057Y-110190476D01*
X122050057Y-110190476D02*
X122145295Y-110142857D01*
X122145295Y-110142857D02*
X122288152Y-110142857D01*
X122288152Y-110142857D02*
X122383390Y-110190476D01*
X122383390Y-110190476D02*
X122431009Y-110238095D01*
X122431009Y-110238095D02*
X122478628Y-110333333D01*
X122478628Y-110333333D02*
X122478628Y-110714285D01*
X122954819Y-109190476D02*
X122954819Y-109761904D01*
X122954819Y-109476190D02*
X121954819Y-109476190D01*
X121954819Y-109476190D02*
X122097676Y-109571428D01*
X122097676Y-109571428D02*
X122192914Y-109666666D01*
X122192914Y-109666666D02*
X122240533Y-109761904D01*
X122050057Y-108809523D02*
X122002438Y-108761904D01*
X122002438Y-108761904D02*
X121954819Y-108666666D01*
X121954819Y-108666666D02*
X121954819Y-108428571D01*
X121954819Y-108428571D02*
X122002438Y-108333333D01*
X122002438Y-108333333D02*
X122050057Y-108285714D01*
X122050057Y-108285714D02*
X122145295Y-108238095D01*
X122145295Y-108238095D02*
X122240533Y-108238095D01*
X122240533Y-108238095D02*
X122383390Y-108285714D01*
X122383390Y-108285714D02*
X122954819Y-108857142D01*
X122954819Y-108857142D02*
X122954819Y-108238095D01*
D10*
X126363333Y-102987613D02*
X125887143Y-102987613D01*
X125887143Y-102987613D02*
X125887143Y-101987613D01*
X126649048Y-102082851D02*
X126696667Y-102035232D01*
X126696667Y-102035232D02*
X126791905Y-101987613D01*
X126791905Y-101987613D02*
X127030000Y-101987613D01*
X127030000Y-101987613D02*
X127125238Y-102035232D01*
X127125238Y-102035232D02*
X127172857Y-102082851D01*
X127172857Y-102082851D02*
X127220476Y-102178089D01*
X127220476Y-102178089D02*
X127220476Y-102273327D01*
X127220476Y-102273327D02*
X127172857Y-102416184D01*
X127172857Y-102416184D02*
X126601429Y-102987613D01*
X126601429Y-102987613D02*
X127220476Y-102987613D01*
D11*
X119583333Y-86609580D02*
X119535714Y-86657200D01*
X119535714Y-86657200D02*
X119392857Y-86704819D01*
X119392857Y-86704819D02*
X119297619Y-86704819D01*
X119297619Y-86704819D02*
X119154762Y-86657200D01*
X119154762Y-86657200D02*
X119059524Y-86561961D01*
X119059524Y-86561961D02*
X119011905Y-86466723D01*
X119011905Y-86466723D02*
X118964286Y-86276247D01*
X118964286Y-86276247D02*
X118964286Y-86133390D01*
X118964286Y-86133390D02*
X119011905Y-85942914D01*
X119011905Y-85942914D02*
X119059524Y-85847676D01*
X119059524Y-85847676D02*
X119154762Y-85752438D01*
X119154762Y-85752438D02*
X119297619Y-85704819D01*
X119297619Y-85704819D02*
X119392857Y-85704819D01*
X119392857Y-85704819D02*
X119535714Y-85752438D01*
X119535714Y-85752438D02*
X119583333Y-85800057D01*
X120059524Y-86704819D02*
X120250000Y-86704819D01*
X120250000Y-86704819D02*
X120345238Y-86657200D01*
X120345238Y-86657200D02*
X120392857Y-86609580D01*
X120392857Y-86609580D02*
X120488095Y-86466723D01*
X120488095Y-86466723D02*
X120535714Y-86276247D01*
X120535714Y-86276247D02*
X120535714Y-85895295D01*
X120535714Y-85895295D02*
X120488095Y-85800057D01*
X120488095Y-85800057D02*
X120440476Y-85752438D01*
X120440476Y-85752438D02*
X120345238Y-85704819D01*
X120345238Y-85704819D02*
X120154762Y-85704819D01*
X120154762Y-85704819D02*
X120059524Y-85752438D01*
X120059524Y-85752438D02*
X120011905Y-85800057D01*
X120011905Y-85800057D02*
X119964286Y-85895295D01*
X119964286Y-85895295D02*
X119964286Y-86133390D01*
X119964286Y-86133390D02*
X120011905Y-86228628D01*
X120011905Y-86228628D02*
X120059524Y-86276247D01*
X120059524Y-86276247D02*
X120154762Y-86323866D01*
X120154762Y-86323866D02*
X120345238Y-86323866D01*
X120345238Y-86323866D02*
X120440476Y-86276247D01*
X120440476Y-86276247D02*
X120488095Y-86228628D01*
X120488095Y-86228628D02*
X120535714Y-86133390D01*
X97604242Y-110506680D02*
X97556623Y-110554300D01*
X97556623Y-110554300D02*
X97413766Y-110601919D01*
X97413766Y-110601919D02*
X97318528Y-110601919D01*
X97318528Y-110601919D02*
X97175671Y-110554300D01*
X97175671Y-110554300D02*
X97080433Y-110459061D01*
X97080433Y-110459061D02*
X97032814Y-110363823D01*
X97032814Y-110363823D02*
X96985195Y-110173347D01*
X96985195Y-110173347D02*
X96985195Y-110030490D01*
X96985195Y-110030490D02*
X97032814Y-109840014D01*
X97032814Y-109840014D02*
X97080433Y-109744776D01*
X97080433Y-109744776D02*
X97175671Y-109649538D01*
X97175671Y-109649538D02*
X97318528Y-109601919D01*
X97318528Y-109601919D02*
X97413766Y-109601919D01*
X97413766Y-109601919D02*
X97556623Y-109649538D01*
X97556623Y-109649538D02*
X97604242Y-109697157D01*
X97985195Y-109697157D02*
X98032814Y-109649538D01*
X98032814Y-109649538D02*
X98128052Y-109601919D01*
X98128052Y-109601919D02*
X98366147Y-109601919D01*
X98366147Y-109601919D02*
X98461385Y-109649538D01*
X98461385Y-109649538D02*
X98509004Y-109697157D01*
X98509004Y-109697157D02*
X98556623Y-109792395D01*
X98556623Y-109792395D02*
X98556623Y-109887633D01*
X98556623Y-109887633D02*
X98509004Y-110030490D01*
X98509004Y-110030490D02*
X97937576Y-110601919D01*
X97937576Y-110601919D02*
X98556623Y-110601919D01*
X99032814Y-110601919D02*
X99223290Y-110601919D01*
X99223290Y-110601919D02*
X99318528Y-110554300D01*
X99318528Y-110554300D02*
X99366147Y-110506680D01*
X99366147Y-110506680D02*
X99461385Y-110363823D01*
X99461385Y-110363823D02*
X99509004Y-110173347D01*
X99509004Y-110173347D02*
X99509004Y-109792395D01*
X99509004Y-109792395D02*
X99461385Y-109697157D01*
X99461385Y-109697157D02*
X99413766Y-109649538D01*
X99413766Y-109649538D02*
X99318528Y-109601919D01*
X99318528Y-109601919D02*
X99128052Y-109601919D01*
X99128052Y-109601919D02*
X99032814Y-109649538D01*
X99032814Y-109649538D02*
X98985195Y-109697157D01*
X98985195Y-109697157D02*
X98937576Y-109792395D01*
X98937576Y-109792395D02*
X98937576Y-110030490D01*
X98937576Y-110030490D02*
X98985195Y-110125728D01*
X98985195Y-110125728D02*
X99032814Y-110173347D01*
X99032814Y-110173347D02*
X99128052Y-110220966D01*
X99128052Y-110220966D02*
X99318528Y-110220966D01*
X99318528Y-110220966D02*
X99413766Y-110173347D01*
X99413766Y-110173347D02*
X99461385Y-110125728D01*
X99461385Y-110125728D02*
X99509004Y-110030490D01*
X122107142Y-95859580D02*
X122059523Y-95907200D01*
X122059523Y-95907200D02*
X121916666Y-95954819D01*
X121916666Y-95954819D02*
X121821428Y-95954819D01*
X121821428Y-95954819D02*
X121678571Y-95907200D01*
X121678571Y-95907200D02*
X121583333Y-95811961D01*
X121583333Y-95811961D02*
X121535714Y-95716723D01*
X121535714Y-95716723D02*
X121488095Y-95526247D01*
X121488095Y-95526247D02*
X121488095Y-95383390D01*
X121488095Y-95383390D02*
X121535714Y-95192914D01*
X121535714Y-95192914D02*
X121583333Y-95097676D01*
X121583333Y-95097676D02*
X121678571Y-95002438D01*
X121678571Y-95002438D02*
X121821428Y-94954819D01*
X121821428Y-94954819D02*
X121916666Y-94954819D01*
X121916666Y-94954819D02*
X122059523Y-95002438D01*
X122059523Y-95002438D02*
X122107142Y-95050057D01*
X123059523Y-95954819D02*
X122488095Y-95954819D01*
X122773809Y-95954819D02*
X122773809Y-94954819D01*
X122773809Y-94954819D02*
X122678571Y-95097676D01*
X122678571Y-95097676D02*
X122583333Y-95192914D01*
X122583333Y-95192914D02*
X122488095Y-95240533D01*
X123630952Y-95383390D02*
X123535714Y-95335771D01*
X123535714Y-95335771D02*
X123488095Y-95288152D01*
X123488095Y-95288152D02*
X123440476Y-95192914D01*
X123440476Y-95192914D02*
X123440476Y-95145295D01*
X123440476Y-95145295D02*
X123488095Y-95050057D01*
X123488095Y-95050057D02*
X123535714Y-95002438D01*
X123535714Y-95002438D02*
X123630952Y-94954819D01*
X123630952Y-94954819D02*
X123821428Y-94954819D01*
X123821428Y-94954819D02*
X123916666Y-95002438D01*
X123916666Y-95002438D02*
X123964285Y-95050057D01*
X123964285Y-95050057D02*
X124011904Y-95145295D01*
X124011904Y-95145295D02*
X124011904Y-95192914D01*
X124011904Y-95192914D02*
X123964285Y-95288152D01*
X123964285Y-95288152D02*
X123916666Y-95335771D01*
X123916666Y-95335771D02*
X123821428Y-95383390D01*
X123821428Y-95383390D02*
X123630952Y-95383390D01*
X123630952Y-95383390D02*
X123535714Y-95431009D01*
X123535714Y-95431009D02*
X123488095Y-95478628D01*
X123488095Y-95478628D02*
X123440476Y-95573866D01*
X123440476Y-95573866D02*
X123440476Y-95764342D01*
X123440476Y-95764342D02*
X123488095Y-95859580D01*
X123488095Y-95859580D02*
X123535714Y-95907200D01*
X123535714Y-95907200D02*
X123630952Y-95954819D01*
X123630952Y-95954819D02*
X123821428Y-95954819D01*
X123821428Y-95954819D02*
X123916666Y-95907200D01*
X123916666Y-95907200D02*
X123964285Y-95859580D01*
X123964285Y-95859580D02*
X124011904Y-95764342D01*
X124011904Y-95764342D02*
X124011904Y-95573866D01*
X124011904Y-95573866D02*
X123964285Y-95478628D01*
X123964285Y-95478628D02*
X123916666Y-95431009D01*
X123916666Y-95431009D02*
X123821428Y-95383390D01*
X83199405Y-66354819D02*
X83199405Y-67164342D01*
X83199405Y-67164342D02*
X83247024Y-67259580D01*
X83247024Y-67259580D02*
X83294643Y-67307200D01*
X83294643Y-67307200D02*
X83389881Y-67354819D01*
X83389881Y-67354819D02*
X83580357Y-67354819D01*
X83580357Y-67354819D02*
X83675595Y-67307200D01*
X83675595Y-67307200D02*
X83723214Y-67259580D01*
X83723214Y-67259580D02*
X83770833Y-67164342D01*
X83770833Y-67164342D02*
X83770833Y-66354819D01*
X84770833Y-67354819D02*
X84199405Y-67354819D01*
X84485119Y-67354819D02*
X84485119Y-66354819D01*
X84485119Y-66354819D02*
X84389881Y-66497676D01*
X84389881Y-66497676D02*
X84294643Y-66592914D01*
X84294643Y-66592914D02*
X84199405Y-66640533D01*
X85151786Y-66450057D02*
X85199405Y-66402438D01*
X85199405Y-66402438D02*
X85294643Y-66354819D01*
X85294643Y-66354819D02*
X85532738Y-66354819D01*
X85532738Y-66354819D02*
X85627976Y-66402438D01*
X85627976Y-66402438D02*
X85675595Y-66450057D01*
X85675595Y-66450057D02*
X85723214Y-66545295D01*
X85723214Y-66545295D02*
X85723214Y-66640533D01*
X85723214Y-66640533D02*
X85675595Y-66783390D01*
X85675595Y-66783390D02*
X85104167Y-67354819D01*
X85104167Y-67354819D02*
X85723214Y-67354819D01*
X112357142Y-60704819D02*
X112023809Y-60228628D01*
X111785714Y-60704819D02*
X111785714Y-59704819D01*
X111785714Y-59704819D02*
X112166666Y-59704819D01*
X112166666Y-59704819D02*
X112261904Y-59752438D01*
X112261904Y-59752438D02*
X112309523Y-59800057D01*
X112309523Y-59800057D02*
X112357142Y-59895295D01*
X112357142Y-59895295D02*
X112357142Y-60038152D01*
X112357142Y-60038152D02*
X112309523Y-60133390D01*
X112309523Y-60133390D02*
X112261904Y-60181009D01*
X112261904Y-60181009D02*
X112166666Y-60228628D01*
X112166666Y-60228628D02*
X111785714Y-60228628D01*
X112738095Y-59800057D02*
X112785714Y-59752438D01*
X112785714Y-59752438D02*
X112880952Y-59704819D01*
X112880952Y-59704819D02*
X113119047Y-59704819D01*
X113119047Y-59704819D02*
X113214285Y-59752438D01*
X113214285Y-59752438D02*
X113261904Y-59800057D01*
X113261904Y-59800057D02*
X113309523Y-59895295D01*
X113309523Y-59895295D02*
X113309523Y-59990533D01*
X113309523Y-59990533D02*
X113261904Y-60133390D01*
X113261904Y-60133390D02*
X112690476Y-60704819D01*
X112690476Y-60704819D02*
X113309523Y-60704819D01*
X113880952Y-60133390D02*
X113785714Y-60085771D01*
X113785714Y-60085771D02*
X113738095Y-60038152D01*
X113738095Y-60038152D02*
X113690476Y-59942914D01*
X113690476Y-59942914D02*
X113690476Y-59895295D01*
X113690476Y-59895295D02*
X113738095Y-59800057D01*
X113738095Y-59800057D02*
X113785714Y-59752438D01*
X113785714Y-59752438D02*
X113880952Y-59704819D01*
X113880952Y-59704819D02*
X114071428Y-59704819D01*
X114071428Y-59704819D02*
X114166666Y-59752438D01*
X114166666Y-59752438D02*
X114214285Y-59800057D01*
X114214285Y-59800057D02*
X114261904Y-59895295D01*
X114261904Y-59895295D02*
X114261904Y-59942914D01*
X114261904Y-59942914D02*
X114214285Y-60038152D01*
X114214285Y-60038152D02*
X114166666Y-60085771D01*
X114166666Y-60085771D02*
X114071428Y-60133390D01*
X114071428Y-60133390D02*
X113880952Y-60133390D01*
X113880952Y-60133390D02*
X113785714Y-60181009D01*
X113785714Y-60181009D02*
X113738095Y-60228628D01*
X113738095Y-60228628D02*
X113690476Y-60323866D01*
X113690476Y-60323866D02*
X113690476Y-60514342D01*
X113690476Y-60514342D02*
X113738095Y-60609580D01*
X113738095Y-60609580D02*
X113785714Y-60657200D01*
X113785714Y-60657200D02*
X113880952Y-60704819D01*
X113880952Y-60704819D02*
X114071428Y-60704819D01*
X114071428Y-60704819D02*
X114166666Y-60657200D01*
X114166666Y-60657200D02*
X114214285Y-60609580D01*
X114214285Y-60609580D02*
X114261904Y-60514342D01*
X114261904Y-60514342D02*
X114261904Y-60323866D01*
X114261904Y-60323866D02*
X114214285Y-60228628D01*
X114214285Y-60228628D02*
X114166666Y-60181009D01*
X114166666Y-60181009D02*
X114071428Y-60133390D01*
X105859580Y-99892857D02*
X105907200Y-99940476D01*
X105907200Y-99940476D02*
X105954819Y-100083333D01*
X105954819Y-100083333D02*
X105954819Y-100178571D01*
X105954819Y-100178571D02*
X105907200Y-100321428D01*
X105907200Y-100321428D02*
X105811961Y-100416666D01*
X105811961Y-100416666D02*
X105716723Y-100464285D01*
X105716723Y-100464285D02*
X105526247Y-100511904D01*
X105526247Y-100511904D02*
X105383390Y-100511904D01*
X105383390Y-100511904D02*
X105192914Y-100464285D01*
X105192914Y-100464285D02*
X105097676Y-100416666D01*
X105097676Y-100416666D02*
X105002438Y-100321428D01*
X105002438Y-100321428D02*
X104954819Y-100178571D01*
X104954819Y-100178571D02*
X104954819Y-100083333D01*
X104954819Y-100083333D02*
X105002438Y-99940476D01*
X105002438Y-99940476D02*
X105050057Y-99892857D01*
X105954819Y-98940476D02*
X105954819Y-99511904D01*
X105954819Y-99226190D02*
X104954819Y-99226190D01*
X104954819Y-99226190D02*
X105097676Y-99321428D01*
X105097676Y-99321428D02*
X105192914Y-99416666D01*
X105192914Y-99416666D02*
X105240533Y-99511904D01*
X104954819Y-98321428D02*
X104954819Y-98226190D01*
X104954819Y-98226190D02*
X105002438Y-98130952D01*
X105002438Y-98130952D02*
X105050057Y-98083333D01*
X105050057Y-98083333D02*
X105145295Y-98035714D01*
X105145295Y-98035714D02*
X105335771Y-97988095D01*
X105335771Y-97988095D02*
X105573866Y-97988095D01*
X105573866Y-97988095D02*
X105764342Y-98035714D01*
X105764342Y-98035714D02*
X105859580Y-98083333D01*
X105859580Y-98083333D02*
X105907200Y-98130952D01*
X105907200Y-98130952D02*
X105954819Y-98226190D01*
X105954819Y-98226190D02*
X105954819Y-98321428D01*
X105954819Y-98321428D02*
X105907200Y-98416666D01*
X105907200Y-98416666D02*
X105859580Y-98464285D01*
X105859580Y-98464285D02*
X105764342Y-98511904D01*
X105764342Y-98511904D02*
X105573866Y-98559523D01*
X105573866Y-98559523D02*
X105335771Y-98559523D01*
X105335771Y-98559523D02*
X105145295Y-98511904D01*
X105145295Y-98511904D02*
X105050057Y-98464285D01*
X105050057Y-98464285D02*
X105002438Y-98416666D01*
X105002438Y-98416666D02*
X104954819Y-98321428D01*
X138954819Y-85916666D02*
X138478628Y-86249999D01*
X138954819Y-86488094D02*
X137954819Y-86488094D01*
X137954819Y-86488094D02*
X137954819Y-86107142D01*
X137954819Y-86107142D02*
X138002438Y-86011904D01*
X138002438Y-86011904D02*
X138050057Y-85964285D01*
X138050057Y-85964285D02*
X138145295Y-85916666D01*
X138145295Y-85916666D02*
X138288152Y-85916666D01*
X138288152Y-85916666D02*
X138383390Y-85964285D01*
X138383390Y-85964285D02*
X138431009Y-86011904D01*
X138431009Y-86011904D02*
X138478628Y-86107142D01*
X138478628Y-86107142D02*
X138478628Y-86488094D01*
X138383390Y-85345237D02*
X138335771Y-85440475D01*
X138335771Y-85440475D02*
X138288152Y-85488094D01*
X138288152Y-85488094D02*
X138192914Y-85535713D01*
X138192914Y-85535713D02*
X138145295Y-85535713D01*
X138145295Y-85535713D02*
X138050057Y-85488094D01*
X138050057Y-85488094D02*
X138002438Y-85440475D01*
X138002438Y-85440475D02*
X137954819Y-85345237D01*
X137954819Y-85345237D02*
X137954819Y-85154761D01*
X137954819Y-85154761D02*
X138002438Y-85059523D01*
X138002438Y-85059523D02*
X138050057Y-85011904D01*
X138050057Y-85011904D02*
X138145295Y-84964285D01*
X138145295Y-84964285D02*
X138192914Y-84964285D01*
X138192914Y-84964285D02*
X138288152Y-85011904D01*
X138288152Y-85011904D02*
X138335771Y-85059523D01*
X138335771Y-85059523D02*
X138383390Y-85154761D01*
X138383390Y-85154761D02*
X138383390Y-85345237D01*
X138383390Y-85345237D02*
X138431009Y-85440475D01*
X138431009Y-85440475D02*
X138478628Y-85488094D01*
X138478628Y-85488094D02*
X138573866Y-85535713D01*
X138573866Y-85535713D02*
X138764342Y-85535713D01*
X138764342Y-85535713D02*
X138859580Y-85488094D01*
X138859580Y-85488094D02*
X138907200Y-85440475D01*
X138907200Y-85440475D02*
X138954819Y-85345237D01*
X138954819Y-85345237D02*
X138954819Y-85154761D01*
X138954819Y-85154761D02*
X138907200Y-85059523D01*
X138907200Y-85059523D02*
X138859580Y-85011904D01*
X138859580Y-85011904D02*
X138764342Y-84964285D01*
X138764342Y-84964285D02*
X138573866Y-84964285D01*
X138573866Y-84964285D02*
X138478628Y-85011904D01*
X138478628Y-85011904D02*
X138431009Y-85059523D01*
X138431009Y-85059523D02*
X138383390Y-85154761D01*
D10*
X148488095Y-87207419D02*
X149059523Y-87207419D01*
X148773809Y-88207419D02*
X148773809Y-87207419D01*
X149392857Y-88207419D02*
X149392857Y-87207419D01*
X149392857Y-87207419D02*
X149773809Y-87207419D01*
X149773809Y-87207419D02*
X149869047Y-87255038D01*
X149869047Y-87255038D02*
X149916666Y-87302657D01*
X149916666Y-87302657D02*
X149964285Y-87397895D01*
X149964285Y-87397895D02*
X149964285Y-87540752D01*
X149964285Y-87540752D02*
X149916666Y-87635990D01*
X149916666Y-87635990D02*
X149869047Y-87683609D01*
X149869047Y-87683609D02*
X149773809Y-87731228D01*
X149773809Y-87731228D02*
X149392857Y-87731228D01*
X150821428Y-87207419D02*
X150630952Y-87207419D01*
X150630952Y-87207419D02*
X150535714Y-87255038D01*
X150535714Y-87255038D02*
X150488095Y-87302657D01*
X150488095Y-87302657D02*
X150392857Y-87445514D01*
X150392857Y-87445514D02*
X150345238Y-87635990D01*
X150345238Y-87635990D02*
X150345238Y-88016942D01*
X150345238Y-88016942D02*
X150392857Y-88112180D01*
X150392857Y-88112180D02*
X150440476Y-88159800D01*
X150440476Y-88159800D02*
X150535714Y-88207419D01*
X150535714Y-88207419D02*
X150726190Y-88207419D01*
X150726190Y-88207419D02*
X150821428Y-88159800D01*
X150821428Y-88159800D02*
X150869047Y-88112180D01*
X150869047Y-88112180D02*
X150916666Y-88016942D01*
X150916666Y-88016942D02*
X150916666Y-87778847D01*
X150916666Y-87778847D02*
X150869047Y-87683609D01*
X150869047Y-87683609D02*
X150821428Y-87635990D01*
X150821428Y-87635990D02*
X150726190Y-87588371D01*
X150726190Y-87588371D02*
X150535714Y-87588371D01*
X150535714Y-87588371D02*
X150440476Y-87635990D01*
X150440476Y-87635990D02*
X150392857Y-87683609D01*
X150392857Y-87683609D02*
X150345238Y-87778847D01*
D11*
X107511905Y-64954819D02*
X107511905Y-65764342D01*
X107511905Y-65764342D02*
X107559524Y-65859580D01*
X107559524Y-65859580D02*
X107607143Y-65907200D01*
X107607143Y-65907200D02*
X107702381Y-65954819D01*
X107702381Y-65954819D02*
X107892857Y-65954819D01*
X107892857Y-65954819D02*
X107988095Y-65907200D01*
X107988095Y-65907200D02*
X108035714Y-65859580D01*
X108035714Y-65859580D02*
X108083333Y-65764342D01*
X108083333Y-65764342D02*
X108083333Y-64954819D01*
X108511905Y-65050057D02*
X108559524Y-65002438D01*
X108559524Y-65002438D02*
X108654762Y-64954819D01*
X108654762Y-64954819D02*
X108892857Y-64954819D01*
X108892857Y-64954819D02*
X108988095Y-65002438D01*
X108988095Y-65002438D02*
X109035714Y-65050057D01*
X109035714Y-65050057D02*
X109083333Y-65145295D01*
X109083333Y-65145295D02*
X109083333Y-65240533D01*
X109083333Y-65240533D02*
X109035714Y-65383390D01*
X109035714Y-65383390D02*
X108464286Y-65954819D01*
X108464286Y-65954819D02*
X109083333Y-65954819D01*
X109702381Y-64954819D02*
X109797619Y-64954819D01*
X109797619Y-64954819D02*
X109892857Y-65002438D01*
X109892857Y-65002438D02*
X109940476Y-65050057D01*
X109940476Y-65050057D02*
X109988095Y-65145295D01*
X109988095Y-65145295D02*
X110035714Y-65335771D01*
X110035714Y-65335771D02*
X110035714Y-65573866D01*
X110035714Y-65573866D02*
X109988095Y-65764342D01*
X109988095Y-65764342D02*
X109940476Y-65859580D01*
X109940476Y-65859580D02*
X109892857Y-65907200D01*
X109892857Y-65907200D02*
X109797619Y-65954819D01*
X109797619Y-65954819D02*
X109702381Y-65954819D01*
X109702381Y-65954819D02*
X109607143Y-65907200D01*
X109607143Y-65907200D02*
X109559524Y-65859580D01*
X109559524Y-65859580D02*
X109511905Y-65764342D01*
X109511905Y-65764342D02*
X109464286Y-65573866D01*
X109464286Y-65573866D02*
X109464286Y-65335771D01*
X109464286Y-65335771D02*
X109511905Y-65145295D01*
X109511905Y-65145295D02*
X109559524Y-65050057D01*
X109559524Y-65050057D02*
X109607143Y-65002438D01*
X109607143Y-65002438D02*
X109702381Y-64954819D01*
X78107142Y-63304819D02*
X77773809Y-62828628D01*
X77535714Y-63304819D02*
X77535714Y-62304819D01*
X77535714Y-62304819D02*
X77916666Y-62304819D01*
X77916666Y-62304819D02*
X78011904Y-62352438D01*
X78011904Y-62352438D02*
X78059523Y-62400057D01*
X78059523Y-62400057D02*
X78107142Y-62495295D01*
X78107142Y-62495295D02*
X78107142Y-62638152D01*
X78107142Y-62638152D02*
X78059523Y-62733390D01*
X78059523Y-62733390D02*
X78011904Y-62781009D01*
X78011904Y-62781009D02*
X77916666Y-62828628D01*
X77916666Y-62828628D02*
X77535714Y-62828628D01*
X78488095Y-62400057D02*
X78535714Y-62352438D01*
X78535714Y-62352438D02*
X78630952Y-62304819D01*
X78630952Y-62304819D02*
X78869047Y-62304819D01*
X78869047Y-62304819D02*
X78964285Y-62352438D01*
X78964285Y-62352438D02*
X79011904Y-62400057D01*
X79011904Y-62400057D02*
X79059523Y-62495295D01*
X79059523Y-62495295D02*
X79059523Y-62590533D01*
X79059523Y-62590533D02*
X79011904Y-62733390D01*
X79011904Y-62733390D02*
X78440476Y-63304819D01*
X78440476Y-63304819D02*
X79059523Y-63304819D01*
X79964285Y-62304819D02*
X79488095Y-62304819D01*
X79488095Y-62304819D02*
X79440476Y-62781009D01*
X79440476Y-62781009D02*
X79488095Y-62733390D01*
X79488095Y-62733390D02*
X79583333Y-62685771D01*
X79583333Y-62685771D02*
X79821428Y-62685771D01*
X79821428Y-62685771D02*
X79916666Y-62733390D01*
X79916666Y-62733390D02*
X79964285Y-62781009D01*
X79964285Y-62781009D02*
X80011904Y-62876247D01*
X80011904Y-62876247D02*
X80011904Y-63114342D01*
X80011904Y-63114342D02*
X79964285Y-63209580D01*
X79964285Y-63209580D02*
X79916666Y-63257200D01*
X79916666Y-63257200D02*
X79821428Y-63304819D01*
X79821428Y-63304819D02*
X79583333Y-63304819D01*
X79583333Y-63304819D02*
X79488095Y-63257200D01*
X79488095Y-63257200D02*
X79440476Y-63209580D01*
X69049405Y-88167319D02*
X69049405Y-88976842D01*
X69049405Y-88976842D02*
X69097024Y-89072080D01*
X69097024Y-89072080D02*
X69144643Y-89119700D01*
X69144643Y-89119700D02*
X69239881Y-89167319D01*
X69239881Y-89167319D02*
X69430357Y-89167319D01*
X69430357Y-89167319D02*
X69525595Y-89119700D01*
X69525595Y-89119700D02*
X69573214Y-89072080D01*
X69573214Y-89072080D02*
X69620833Y-88976842D01*
X69620833Y-88976842D02*
X69620833Y-88167319D01*
X70620833Y-89167319D02*
X70049405Y-89167319D01*
X70335119Y-89167319D02*
X70335119Y-88167319D01*
X70335119Y-88167319D02*
X70239881Y-88310176D01*
X70239881Y-88310176D02*
X70144643Y-88405414D01*
X70144643Y-88405414D02*
X70049405Y-88453033D01*
X71525595Y-88167319D02*
X71049405Y-88167319D01*
X71049405Y-88167319D02*
X71001786Y-88643509D01*
X71001786Y-88643509D02*
X71049405Y-88595890D01*
X71049405Y-88595890D02*
X71144643Y-88548271D01*
X71144643Y-88548271D02*
X71382738Y-88548271D01*
X71382738Y-88548271D02*
X71477976Y-88595890D01*
X71477976Y-88595890D02*
X71525595Y-88643509D01*
X71525595Y-88643509D02*
X71573214Y-88738747D01*
X71573214Y-88738747D02*
X71573214Y-88976842D01*
X71573214Y-88976842D02*
X71525595Y-89072080D01*
X71525595Y-89072080D02*
X71477976Y-89119700D01*
X71477976Y-89119700D02*
X71382738Y-89167319D01*
X71382738Y-89167319D02*
X71144643Y-89167319D01*
X71144643Y-89167319D02*
X71049405Y-89119700D01*
X71049405Y-89119700D02*
X71001786Y-89072080D01*
X77104242Y-115101919D02*
X76770909Y-114625728D01*
X76532814Y-115101919D02*
X76532814Y-114101919D01*
X76532814Y-114101919D02*
X76913766Y-114101919D01*
X76913766Y-114101919D02*
X77009004Y-114149538D01*
X77009004Y-114149538D02*
X77056623Y-114197157D01*
X77056623Y-114197157D02*
X77104242Y-114292395D01*
X77104242Y-114292395D02*
X77104242Y-114435252D01*
X77104242Y-114435252D02*
X77056623Y-114530490D01*
X77056623Y-114530490D02*
X77009004Y-114578109D01*
X77009004Y-114578109D02*
X76913766Y-114625728D01*
X76913766Y-114625728D02*
X76532814Y-114625728D01*
X77437576Y-114101919D02*
X78056623Y-114101919D01*
X78056623Y-114101919D02*
X77723290Y-114482871D01*
X77723290Y-114482871D02*
X77866147Y-114482871D01*
X77866147Y-114482871D02*
X77961385Y-114530490D01*
X77961385Y-114530490D02*
X78009004Y-114578109D01*
X78009004Y-114578109D02*
X78056623Y-114673347D01*
X78056623Y-114673347D02*
X78056623Y-114911442D01*
X78056623Y-114911442D02*
X78009004Y-115006680D01*
X78009004Y-115006680D02*
X77961385Y-115054300D01*
X77961385Y-115054300D02*
X77866147Y-115101919D01*
X77866147Y-115101919D02*
X77580433Y-115101919D01*
X77580433Y-115101919D02*
X77485195Y-115054300D01*
X77485195Y-115054300D02*
X77437576Y-115006680D01*
X79009004Y-115101919D02*
X78437576Y-115101919D01*
X78723290Y-115101919D02*
X78723290Y-114101919D01*
X78723290Y-114101919D02*
X78628052Y-114244776D01*
X78628052Y-114244776D02*
X78532814Y-114340014D01*
X78532814Y-114340014D02*
X78437576Y-114387633D01*
X147238095Y-78204819D02*
X147238095Y-79014342D01*
X147238095Y-79014342D02*
X147285714Y-79109580D01*
X147285714Y-79109580D02*
X147333333Y-79157200D01*
X147333333Y-79157200D02*
X147428571Y-79204819D01*
X147428571Y-79204819D02*
X147619047Y-79204819D01*
X147619047Y-79204819D02*
X147714285Y-79157200D01*
X147714285Y-79157200D02*
X147761904Y-79109580D01*
X147761904Y-79109580D02*
X147809523Y-79014342D01*
X147809523Y-79014342D02*
X147809523Y-78204819D01*
X148238095Y-78300057D02*
X148285714Y-78252438D01*
X148285714Y-78252438D02*
X148380952Y-78204819D01*
X148380952Y-78204819D02*
X148619047Y-78204819D01*
X148619047Y-78204819D02*
X148714285Y-78252438D01*
X148714285Y-78252438D02*
X148761904Y-78300057D01*
X148761904Y-78300057D02*
X148809523Y-78395295D01*
X148809523Y-78395295D02*
X148809523Y-78490533D01*
X148809523Y-78490533D02*
X148761904Y-78633390D01*
X148761904Y-78633390D02*
X148190476Y-79204819D01*
X148190476Y-79204819D02*
X148809523Y-79204819D01*
X122204819Y-85416666D02*
X121728628Y-85749999D01*
X122204819Y-85988094D02*
X121204819Y-85988094D01*
X121204819Y-85988094D02*
X121204819Y-85607142D01*
X121204819Y-85607142D02*
X121252438Y-85511904D01*
X121252438Y-85511904D02*
X121300057Y-85464285D01*
X121300057Y-85464285D02*
X121395295Y-85416666D01*
X121395295Y-85416666D02*
X121538152Y-85416666D01*
X121538152Y-85416666D02*
X121633390Y-85464285D01*
X121633390Y-85464285D02*
X121681009Y-85511904D01*
X121681009Y-85511904D02*
X121728628Y-85607142D01*
X121728628Y-85607142D02*
X121728628Y-85988094D01*
X121204819Y-84559523D02*
X121204819Y-84749999D01*
X121204819Y-84749999D02*
X121252438Y-84845237D01*
X121252438Y-84845237D02*
X121300057Y-84892856D01*
X121300057Y-84892856D02*
X121442914Y-84988094D01*
X121442914Y-84988094D02*
X121633390Y-85035713D01*
X121633390Y-85035713D02*
X122014342Y-85035713D01*
X122014342Y-85035713D02*
X122109580Y-84988094D01*
X122109580Y-84988094D02*
X122157200Y-84940475D01*
X122157200Y-84940475D02*
X122204819Y-84845237D01*
X122204819Y-84845237D02*
X122204819Y-84654761D01*
X122204819Y-84654761D02*
X122157200Y-84559523D01*
X122157200Y-84559523D02*
X122109580Y-84511904D01*
X122109580Y-84511904D02*
X122014342Y-84464285D01*
X122014342Y-84464285D02*
X121776247Y-84464285D01*
X121776247Y-84464285D02*
X121681009Y-84511904D01*
X121681009Y-84511904D02*
X121633390Y-84559523D01*
X121633390Y-84559523D02*
X121585771Y-84654761D01*
X121585771Y-84654761D02*
X121585771Y-84845237D01*
X121585771Y-84845237D02*
X121633390Y-84940475D01*
X121633390Y-84940475D02*
X121681009Y-84988094D01*
X121681009Y-84988094D02*
X121776247Y-85035713D01*
D10*
X60775595Y-69169919D02*
X61347023Y-69169919D01*
X61061309Y-70169919D02*
X61061309Y-69169919D01*
X61680357Y-70169919D02*
X61680357Y-69169919D01*
X61680357Y-69169919D02*
X62061309Y-69169919D01*
X62061309Y-69169919D02*
X62156547Y-69217538D01*
X62156547Y-69217538D02*
X62204166Y-69265157D01*
X62204166Y-69265157D02*
X62251785Y-69360395D01*
X62251785Y-69360395D02*
X62251785Y-69503252D01*
X62251785Y-69503252D02*
X62204166Y-69598490D01*
X62204166Y-69598490D02*
X62156547Y-69646109D01*
X62156547Y-69646109D02*
X62061309Y-69693728D01*
X62061309Y-69693728D02*
X61680357Y-69693728D01*
X62585119Y-69169919D02*
X63204166Y-69169919D01*
X63204166Y-69169919D02*
X62870833Y-69550871D01*
X62870833Y-69550871D02*
X63013690Y-69550871D01*
X63013690Y-69550871D02*
X63108928Y-69598490D01*
X63108928Y-69598490D02*
X63156547Y-69646109D01*
X63156547Y-69646109D02*
X63204166Y-69741347D01*
X63204166Y-69741347D02*
X63204166Y-69979442D01*
X63204166Y-69979442D02*
X63156547Y-70074680D01*
X63156547Y-70074680D02*
X63108928Y-70122300D01*
X63108928Y-70122300D02*
X63013690Y-70169919D01*
X63013690Y-70169919D02*
X62727976Y-70169919D01*
X62727976Y-70169919D02*
X62632738Y-70122300D01*
X62632738Y-70122300D02*
X62585119Y-70074680D01*
D11*
X69849405Y-77367319D02*
X69849405Y-78176842D01*
X69849405Y-78176842D02*
X69897024Y-78272080D01*
X69897024Y-78272080D02*
X69944643Y-78319700D01*
X69944643Y-78319700D02*
X70039881Y-78367319D01*
X70039881Y-78367319D02*
X70230357Y-78367319D01*
X70230357Y-78367319D02*
X70325595Y-78319700D01*
X70325595Y-78319700D02*
X70373214Y-78272080D01*
X70373214Y-78272080D02*
X70420833Y-78176842D01*
X70420833Y-78176842D02*
X70420833Y-77367319D01*
X71420833Y-78367319D02*
X70849405Y-78367319D01*
X71135119Y-78367319D02*
X71135119Y-77367319D01*
X71135119Y-77367319D02*
X71039881Y-77510176D01*
X71039881Y-77510176D02*
X70944643Y-77605414D01*
X70944643Y-77605414D02*
X70849405Y-77653033D01*
X72373214Y-78367319D02*
X71801786Y-78367319D01*
X72087500Y-78367319D02*
X72087500Y-77367319D01*
X72087500Y-77367319D02*
X71992262Y-77510176D01*
X71992262Y-77510176D02*
X71897024Y-77605414D01*
X71897024Y-77605414D02*
X71801786Y-77653033D01*
X108204819Y-106642857D02*
X107728628Y-106976190D01*
X108204819Y-107214285D02*
X107204819Y-107214285D01*
X107204819Y-107214285D02*
X107204819Y-106833333D01*
X107204819Y-106833333D02*
X107252438Y-106738095D01*
X107252438Y-106738095D02*
X107300057Y-106690476D01*
X107300057Y-106690476D02*
X107395295Y-106642857D01*
X107395295Y-106642857D02*
X107538152Y-106642857D01*
X107538152Y-106642857D02*
X107633390Y-106690476D01*
X107633390Y-106690476D02*
X107681009Y-106738095D01*
X107681009Y-106738095D02*
X107728628Y-106833333D01*
X107728628Y-106833333D02*
X107728628Y-107214285D01*
X108204819Y-105690476D02*
X108204819Y-106261904D01*
X108204819Y-105976190D02*
X107204819Y-105976190D01*
X107204819Y-105976190D02*
X107347676Y-106071428D01*
X107347676Y-106071428D02*
X107442914Y-106166666D01*
X107442914Y-106166666D02*
X107490533Y-106261904D01*
X107538152Y-104833333D02*
X108204819Y-104833333D01*
X107157200Y-105071428D02*
X107871485Y-105309523D01*
X107871485Y-105309523D02*
X107871485Y-104690476D01*
X117107142Y-113204819D02*
X116773809Y-112728628D01*
X116535714Y-113204819D02*
X116535714Y-112204819D01*
X116535714Y-112204819D02*
X116916666Y-112204819D01*
X116916666Y-112204819D02*
X117011904Y-112252438D01*
X117011904Y-112252438D02*
X117059523Y-112300057D01*
X117059523Y-112300057D02*
X117107142Y-112395295D01*
X117107142Y-112395295D02*
X117107142Y-112538152D01*
X117107142Y-112538152D02*
X117059523Y-112633390D01*
X117059523Y-112633390D02*
X117011904Y-112681009D01*
X117011904Y-112681009D02*
X116916666Y-112728628D01*
X116916666Y-112728628D02*
X116535714Y-112728628D01*
X118059523Y-113204819D02*
X117488095Y-113204819D01*
X117773809Y-113204819D02*
X117773809Y-112204819D01*
X117773809Y-112204819D02*
X117678571Y-112347676D01*
X117678571Y-112347676D02*
X117583333Y-112442914D01*
X117583333Y-112442914D02*
X117488095Y-112490533D01*
X118678571Y-112204819D02*
X118773809Y-112204819D01*
X118773809Y-112204819D02*
X118869047Y-112252438D01*
X118869047Y-112252438D02*
X118916666Y-112300057D01*
X118916666Y-112300057D02*
X118964285Y-112395295D01*
X118964285Y-112395295D02*
X119011904Y-112585771D01*
X119011904Y-112585771D02*
X119011904Y-112823866D01*
X119011904Y-112823866D02*
X118964285Y-113014342D01*
X118964285Y-113014342D02*
X118916666Y-113109580D01*
X118916666Y-113109580D02*
X118869047Y-113157200D01*
X118869047Y-113157200D02*
X118773809Y-113204819D01*
X118773809Y-113204819D02*
X118678571Y-113204819D01*
X118678571Y-113204819D02*
X118583333Y-113157200D01*
X118583333Y-113157200D02*
X118535714Y-113109580D01*
X118535714Y-113109580D02*
X118488095Y-113014342D01*
X118488095Y-113014342D02*
X118440476Y-112823866D01*
X118440476Y-112823866D02*
X118440476Y-112585771D01*
X118440476Y-112585771D02*
X118488095Y-112395295D01*
X118488095Y-112395295D02*
X118535714Y-112300057D01*
X118535714Y-112300057D02*
X118583333Y-112252438D01*
X118583333Y-112252438D02*
X118678571Y-112204819D01*
X108109580Y-109892857D02*
X108157200Y-109940476D01*
X108157200Y-109940476D02*
X108204819Y-110083333D01*
X108204819Y-110083333D02*
X108204819Y-110178571D01*
X108204819Y-110178571D02*
X108157200Y-110321428D01*
X108157200Y-110321428D02*
X108061961Y-110416666D01*
X108061961Y-110416666D02*
X107966723Y-110464285D01*
X107966723Y-110464285D02*
X107776247Y-110511904D01*
X107776247Y-110511904D02*
X107633390Y-110511904D01*
X107633390Y-110511904D02*
X107442914Y-110464285D01*
X107442914Y-110464285D02*
X107347676Y-110416666D01*
X107347676Y-110416666D02*
X107252438Y-110321428D01*
X107252438Y-110321428D02*
X107204819Y-110178571D01*
X107204819Y-110178571D02*
X107204819Y-110083333D01*
X107204819Y-110083333D02*
X107252438Y-109940476D01*
X107252438Y-109940476D02*
X107300057Y-109892857D01*
X108204819Y-108940476D02*
X108204819Y-109511904D01*
X108204819Y-109226190D02*
X107204819Y-109226190D01*
X107204819Y-109226190D02*
X107347676Y-109321428D01*
X107347676Y-109321428D02*
X107442914Y-109416666D01*
X107442914Y-109416666D02*
X107490533Y-109511904D01*
X107204819Y-108607142D02*
X107204819Y-107988095D01*
X107204819Y-107988095D02*
X107585771Y-108321428D01*
X107585771Y-108321428D02*
X107585771Y-108178571D01*
X107585771Y-108178571D02*
X107633390Y-108083333D01*
X107633390Y-108083333D02*
X107681009Y-108035714D01*
X107681009Y-108035714D02*
X107776247Y-107988095D01*
X107776247Y-107988095D02*
X108014342Y-107988095D01*
X108014342Y-107988095D02*
X108109580Y-108035714D01*
X108109580Y-108035714D02*
X108157200Y-108083333D01*
X108157200Y-108083333D02*
X108204819Y-108178571D01*
X108204819Y-108178571D02*
X108204819Y-108464285D01*
X108204819Y-108464285D02*
X108157200Y-108559523D01*
X108157200Y-108559523D02*
X108109580Y-108607142D01*
X66549405Y-80667319D02*
X66549405Y-81476842D01*
X66549405Y-81476842D02*
X66597024Y-81572080D01*
X66597024Y-81572080D02*
X66644643Y-81619700D01*
X66644643Y-81619700D02*
X66739881Y-81667319D01*
X66739881Y-81667319D02*
X66930357Y-81667319D01*
X66930357Y-81667319D02*
X67025595Y-81619700D01*
X67025595Y-81619700D02*
X67073214Y-81572080D01*
X67073214Y-81572080D02*
X67120833Y-81476842D01*
X67120833Y-81476842D02*
X67120833Y-80667319D01*
X68120833Y-81667319D02*
X67549405Y-81667319D01*
X67835119Y-81667319D02*
X67835119Y-80667319D01*
X67835119Y-80667319D02*
X67739881Y-80810176D01*
X67739881Y-80810176D02*
X67644643Y-80905414D01*
X67644643Y-80905414D02*
X67549405Y-80953033D01*
X68977976Y-81000652D02*
X68977976Y-81667319D01*
X68739881Y-80619700D02*
X68501786Y-81333985D01*
X68501786Y-81333985D02*
X69120833Y-81333985D01*
D10*
X147511905Y-94457419D02*
X148083333Y-94457419D01*
X147797619Y-95457419D02*
X147797619Y-94457419D01*
X148416667Y-95457419D02*
X148416667Y-94457419D01*
X148416667Y-94457419D02*
X148797619Y-94457419D01*
X148797619Y-94457419D02*
X148892857Y-94505038D01*
X148892857Y-94505038D02*
X148940476Y-94552657D01*
X148940476Y-94552657D02*
X148988095Y-94647895D01*
X148988095Y-94647895D02*
X148988095Y-94790752D01*
X148988095Y-94790752D02*
X148940476Y-94885990D01*
X148940476Y-94885990D02*
X148892857Y-94933609D01*
X148892857Y-94933609D02*
X148797619Y-94981228D01*
X148797619Y-94981228D02*
X148416667Y-94981228D01*
X149940476Y-95457419D02*
X149369048Y-95457419D01*
X149654762Y-95457419D02*
X149654762Y-94457419D01*
X149654762Y-94457419D02*
X149559524Y-94600276D01*
X149559524Y-94600276D02*
X149464286Y-94695514D01*
X149464286Y-94695514D02*
X149369048Y-94743133D01*
X150559524Y-94457419D02*
X150654762Y-94457419D01*
X150654762Y-94457419D02*
X150750000Y-94505038D01*
X150750000Y-94505038D02*
X150797619Y-94552657D01*
X150797619Y-94552657D02*
X150845238Y-94647895D01*
X150845238Y-94647895D02*
X150892857Y-94838371D01*
X150892857Y-94838371D02*
X150892857Y-95076466D01*
X150892857Y-95076466D02*
X150845238Y-95266942D01*
X150845238Y-95266942D02*
X150797619Y-95362180D01*
X150797619Y-95362180D02*
X150750000Y-95409800D01*
X150750000Y-95409800D02*
X150654762Y-95457419D01*
X150654762Y-95457419D02*
X150559524Y-95457419D01*
X150559524Y-95457419D02*
X150464286Y-95409800D01*
X150464286Y-95409800D02*
X150416667Y-95362180D01*
X150416667Y-95362180D02*
X150369048Y-95266942D01*
X150369048Y-95266942D02*
X150321429Y-95076466D01*
X150321429Y-95076466D02*
X150321429Y-94838371D01*
X150321429Y-94838371D02*
X150369048Y-94647895D01*
X150369048Y-94647895D02*
X150416667Y-94552657D01*
X150416667Y-94552657D02*
X150464286Y-94505038D01*
X150464286Y-94505038D02*
X150559524Y-94457419D01*
D11*
X102859580Y-75666666D02*
X102907200Y-75714285D01*
X102907200Y-75714285D02*
X102954819Y-75857142D01*
X102954819Y-75857142D02*
X102954819Y-75952380D01*
X102954819Y-75952380D02*
X102907200Y-76095237D01*
X102907200Y-76095237D02*
X102811961Y-76190475D01*
X102811961Y-76190475D02*
X102716723Y-76238094D01*
X102716723Y-76238094D02*
X102526247Y-76285713D01*
X102526247Y-76285713D02*
X102383390Y-76285713D01*
X102383390Y-76285713D02*
X102192914Y-76238094D01*
X102192914Y-76238094D02*
X102097676Y-76190475D01*
X102097676Y-76190475D02*
X102002438Y-76095237D01*
X102002438Y-76095237D02*
X101954819Y-75952380D01*
X101954819Y-75952380D02*
X101954819Y-75857142D01*
X101954819Y-75857142D02*
X102002438Y-75714285D01*
X102002438Y-75714285D02*
X102050057Y-75666666D01*
X101954819Y-74761904D02*
X101954819Y-75238094D01*
X101954819Y-75238094D02*
X102431009Y-75285713D01*
X102431009Y-75285713D02*
X102383390Y-75238094D01*
X102383390Y-75238094D02*
X102335771Y-75142856D01*
X102335771Y-75142856D02*
X102335771Y-74904761D01*
X102335771Y-74904761D02*
X102383390Y-74809523D01*
X102383390Y-74809523D02*
X102431009Y-74761904D01*
X102431009Y-74761904D02*
X102526247Y-74714285D01*
X102526247Y-74714285D02*
X102764342Y-74714285D01*
X102764342Y-74714285D02*
X102859580Y-74761904D01*
X102859580Y-74761904D02*
X102907200Y-74809523D01*
X102907200Y-74809523D02*
X102954819Y-74904761D01*
X102954819Y-74904761D02*
X102954819Y-75142856D01*
X102954819Y-75142856D02*
X102907200Y-75238094D01*
X102907200Y-75238094D02*
X102859580Y-75285713D01*
X80451919Y-105539957D02*
X79975728Y-105873290D01*
X80451919Y-106111385D02*
X79451919Y-106111385D01*
X79451919Y-106111385D02*
X79451919Y-105730433D01*
X79451919Y-105730433D02*
X79499538Y-105635195D01*
X79499538Y-105635195D02*
X79547157Y-105587576D01*
X79547157Y-105587576D02*
X79642395Y-105539957D01*
X79642395Y-105539957D02*
X79785252Y-105539957D01*
X79785252Y-105539957D02*
X79880490Y-105587576D01*
X79880490Y-105587576D02*
X79928109Y-105635195D01*
X79928109Y-105635195D02*
X79975728Y-105730433D01*
X79975728Y-105730433D02*
X79975728Y-106111385D01*
X79785252Y-104682814D02*
X80451919Y-104682814D01*
X79404300Y-104920909D02*
X80118585Y-105159004D01*
X80118585Y-105159004D02*
X80118585Y-104539957D01*
X80451919Y-103635195D02*
X80451919Y-104206623D01*
X80451919Y-103920909D02*
X79451919Y-103920909D01*
X79451919Y-103920909D02*
X79594776Y-104016147D01*
X79594776Y-104016147D02*
X79690014Y-104111385D01*
X79690014Y-104111385D02*
X79737633Y-104206623D01*
X77742319Y-87855357D02*
X77266128Y-88188690D01*
X77742319Y-88426785D02*
X76742319Y-88426785D01*
X76742319Y-88426785D02*
X76742319Y-88045833D01*
X76742319Y-88045833D02*
X76789938Y-87950595D01*
X76789938Y-87950595D02*
X76837557Y-87902976D01*
X76837557Y-87902976D02*
X76932795Y-87855357D01*
X76932795Y-87855357D02*
X77075652Y-87855357D01*
X77075652Y-87855357D02*
X77170890Y-87902976D01*
X77170890Y-87902976D02*
X77218509Y-87950595D01*
X77218509Y-87950595D02*
X77266128Y-88045833D01*
X77266128Y-88045833D02*
X77266128Y-88426785D01*
X76837557Y-87474404D02*
X76789938Y-87426785D01*
X76789938Y-87426785D02*
X76742319Y-87331547D01*
X76742319Y-87331547D02*
X76742319Y-87093452D01*
X76742319Y-87093452D02*
X76789938Y-86998214D01*
X76789938Y-86998214D02*
X76837557Y-86950595D01*
X76837557Y-86950595D02*
X76932795Y-86902976D01*
X76932795Y-86902976D02*
X77028033Y-86902976D01*
X77028033Y-86902976D02*
X77170890Y-86950595D01*
X77170890Y-86950595D02*
X77742319Y-87522023D01*
X77742319Y-87522023D02*
X77742319Y-86902976D01*
X77075652Y-86045833D02*
X77742319Y-86045833D01*
X76694700Y-86283928D02*
X77408985Y-86522023D01*
X77408985Y-86522023D02*
X77408985Y-85902976D01*
X91511905Y-65228569D02*
X91511905Y-66038092D01*
X91511905Y-66038092D02*
X91559524Y-66133330D01*
X91559524Y-66133330D02*
X91607143Y-66180950D01*
X91607143Y-66180950D02*
X91702381Y-66228569D01*
X91702381Y-66228569D02*
X91892857Y-66228569D01*
X91892857Y-66228569D02*
X91988095Y-66180950D01*
X91988095Y-66180950D02*
X92035714Y-66133330D01*
X92035714Y-66133330D02*
X92083333Y-66038092D01*
X92083333Y-66038092D02*
X92083333Y-65228569D01*
X92511905Y-65323807D02*
X92559524Y-65276188D01*
X92559524Y-65276188D02*
X92654762Y-65228569D01*
X92654762Y-65228569D02*
X92892857Y-65228569D01*
X92892857Y-65228569D02*
X92988095Y-65276188D01*
X92988095Y-65276188D02*
X93035714Y-65323807D01*
X93035714Y-65323807D02*
X93083333Y-65419045D01*
X93083333Y-65419045D02*
X93083333Y-65514283D01*
X93083333Y-65514283D02*
X93035714Y-65657140D01*
X93035714Y-65657140D02*
X92464286Y-66228569D01*
X92464286Y-66228569D02*
X93083333Y-66228569D01*
X94035714Y-66228569D02*
X93464286Y-66228569D01*
X93750000Y-66228569D02*
X93750000Y-65228569D01*
X93750000Y-65228569D02*
X93654762Y-65371426D01*
X93654762Y-65371426D02*
X93559524Y-65466664D01*
X93559524Y-65466664D02*
X93464286Y-65514283D01*
D10*
X101488095Y-81707419D02*
X102059523Y-81707419D01*
X101773809Y-82707419D02*
X101773809Y-81707419D01*
X102392857Y-82707419D02*
X102392857Y-81707419D01*
X102392857Y-81707419D02*
X102773809Y-81707419D01*
X102773809Y-81707419D02*
X102869047Y-81755038D01*
X102869047Y-81755038D02*
X102916666Y-81802657D01*
X102916666Y-81802657D02*
X102964285Y-81897895D01*
X102964285Y-81897895D02*
X102964285Y-82040752D01*
X102964285Y-82040752D02*
X102916666Y-82135990D01*
X102916666Y-82135990D02*
X102869047Y-82183609D01*
X102869047Y-82183609D02*
X102773809Y-82231228D01*
X102773809Y-82231228D02*
X102392857Y-82231228D01*
X103297619Y-81707419D02*
X103964285Y-81707419D01*
X103964285Y-81707419D02*
X103535714Y-82707419D01*
D11*
X84701919Y-94635194D02*
X85511442Y-94635194D01*
X85511442Y-94635194D02*
X85606680Y-94587575D01*
X85606680Y-94587575D02*
X85654300Y-94539956D01*
X85654300Y-94539956D02*
X85701919Y-94444718D01*
X85701919Y-94444718D02*
X85701919Y-94254242D01*
X85701919Y-94254242D02*
X85654300Y-94159004D01*
X85654300Y-94159004D02*
X85606680Y-94111385D01*
X85606680Y-94111385D02*
X85511442Y-94063766D01*
X85511442Y-94063766D02*
X84701919Y-94063766D01*
X85701919Y-93063766D02*
X85701919Y-93635194D01*
X85701919Y-93349480D02*
X84701919Y-93349480D01*
X84701919Y-93349480D02*
X84844776Y-93444718D01*
X84844776Y-93444718D02*
X84940014Y-93539956D01*
X84940014Y-93539956D02*
X84987633Y-93635194D01*
X85130490Y-92492337D02*
X85082871Y-92587575D01*
X85082871Y-92587575D02*
X85035252Y-92635194D01*
X85035252Y-92635194D02*
X84940014Y-92682813D01*
X84940014Y-92682813D02*
X84892395Y-92682813D01*
X84892395Y-92682813D02*
X84797157Y-92635194D01*
X84797157Y-92635194D02*
X84749538Y-92587575D01*
X84749538Y-92587575D02*
X84701919Y-92492337D01*
X84701919Y-92492337D02*
X84701919Y-92301861D01*
X84701919Y-92301861D02*
X84749538Y-92206623D01*
X84749538Y-92206623D02*
X84797157Y-92159004D01*
X84797157Y-92159004D02*
X84892395Y-92111385D01*
X84892395Y-92111385D02*
X84940014Y-92111385D01*
X84940014Y-92111385D02*
X85035252Y-92159004D01*
X85035252Y-92159004D02*
X85082871Y-92206623D01*
X85082871Y-92206623D02*
X85130490Y-92301861D01*
X85130490Y-92301861D02*
X85130490Y-92492337D01*
X85130490Y-92492337D02*
X85178109Y-92587575D01*
X85178109Y-92587575D02*
X85225728Y-92635194D01*
X85225728Y-92635194D02*
X85320966Y-92682813D01*
X85320966Y-92682813D02*
X85511442Y-92682813D01*
X85511442Y-92682813D02*
X85606680Y-92635194D01*
X85606680Y-92635194D02*
X85654300Y-92587575D01*
X85654300Y-92587575D02*
X85701919Y-92492337D01*
X85701919Y-92492337D02*
X85701919Y-92301861D01*
X85701919Y-92301861D02*
X85654300Y-92206623D01*
X85654300Y-92206623D02*
X85606680Y-92159004D01*
X85606680Y-92159004D02*
X85511442Y-92111385D01*
X85511442Y-92111385D02*
X85320966Y-92111385D01*
X85320966Y-92111385D02*
X85225728Y-92159004D01*
X85225728Y-92159004D02*
X85178109Y-92206623D01*
X85178109Y-92206623D02*
X85130490Y-92301861D01*
X147454819Y-111142857D02*
X146978628Y-111476190D01*
X147454819Y-111714285D02*
X146454819Y-111714285D01*
X146454819Y-111714285D02*
X146454819Y-111333333D01*
X146454819Y-111333333D02*
X146502438Y-111238095D01*
X146502438Y-111238095D02*
X146550057Y-111190476D01*
X146550057Y-111190476D02*
X146645295Y-111142857D01*
X146645295Y-111142857D02*
X146788152Y-111142857D01*
X146788152Y-111142857D02*
X146883390Y-111190476D01*
X146883390Y-111190476D02*
X146931009Y-111238095D01*
X146931009Y-111238095D02*
X146978628Y-111333333D01*
X146978628Y-111333333D02*
X146978628Y-111714285D01*
X147454819Y-110190476D02*
X147454819Y-110761904D01*
X147454819Y-110476190D02*
X146454819Y-110476190D01*
X146454819Y-110476190D02*
X146597676Y-110571428D01*
X146597676Y-110571428D02*
X146692914Y-110666666D01*
X146692914Y-110666666D02*
X146740533Y-110761904D01*
X146454819Y-109285714D02*
X146454819Y-109761904D01*
X146454819Y-109761904D02*
X146931009Y-109809523D01*
X146931009Y-109809523D02*
X146883390Y-109761904D01*
X146883390Y-109761904D02*
X146835771Y-109666666D01*
X146835771Y-109666666D02*
X146835771Y-109428571D01*
X146835771Y-109428571D02*
X146883390Y-109333333D01*
X146883390Y-109333333D02*
X146931009Y-109285714D01*
X146931009Y-109285714D02*
X147026247Y-109238095D01*
X147026247Y-109238095D02*
X147264342Y-109238095D01*
X147264342Y-109238095D02*
X147359580Y-109285714D01*
X147359580Y-109285714D02*
X147407200Y-109333333D01*
X147407200Y-109333333D02*
X147454819Y-109428571D01*
X147454819Y-109428571D02*
X147454819Y-109666666D01*
X147454819Y-109666666D02*
X147407200Y-109761904D01*
X147407200Y-109761904D02*
X147359580Y-109809523D01*
X139454819Y-111142857D02*
X138978628Y-111476190D01*
X139454819Y-111714285D02*
X138454819Y-111714285D01*
X138454819Y-111714285D02*
X138454819Y-111333333D01*
X138454819Y-111333333D02*
X138502438Y-111238095D01*
X138502438Y-111238095D02*
X138550057Y-111190476D01*
X138550057Y-111190476D02*
X138645295Y-111142857D01*
X138645295Y-111142857D02*
X138788152Y-111142857D01*
X138788152Y-111142857D02*
X138883390Y-111190476D01*
X138883390Y-111190476D02*
X138931009Y-111238095D01*
X138931009Y-111238095D02*
X138978628Y-111333333D01*
X138978628Y-111333333D02*
X138978628Y-111714285D01*
X139454819Y-110190476D02*
X139454819Y-110761904D01*
X139454819Y-110476190D02*
X138454819Y-110476190D01*
X138454819Y-110476190D02*
X138597676Y-110571428D01*
X138597676Y-110571428D02*
X138692914Y-110666666D01*
X138692914Y-110666666D02*
X138740533Y-110761904D01*
X138454819Y-109333333D02*
X138454819Y-109523809D01*
X138454819Y-109523809D02*
X138502438Y-109619047D01*
X138502438Y-109619047D02*
X138550057Y-109666666D01*
X138550057Y-109666666D02*
X138692914Y-109761904D01*
X138692914Y-109761904D02*
X138883390Y-109809523D01*
X138883390Y-109809523D02*
X139264342Y-109809523D01*
X139264342Y-109809523D02*
X139359580Y-109761904D01*
X139359580Y-109761904D02*
X139407200Y-109714285D01*
X139407200Y-109714285D02*
X139454819Y-109619047D01*
X139454819Y-109619047D02*
X139454819Y-109428571D01*
X139454819Y-109428571D02*
X139407200Y-109333333D01*
X139407200Y-109333333D02*
X139359580Y-109285714D01*
X139359580Y-109285714D02*
X139264342Y-109238095D01*
X139264342Y-109238095D02*
X139026247Y-109238095D01*
X139026247Y-109238095D02*
X138931009Y-109285714D01*
X138931009Y-109285714D02*
X138883390Y-109333333D01*
X138883390Y-109333333D02*
X138835771Y-109428571D01*
X138835771Y-109428571D02*
X138835771Y-109619047D01*
X138835771Y-109619047D02*
X138883390Y-109714285D01*
X138883390Y-109714285D02*
X138931009Y-109761904D01*
X138931009Y-109761904D02*
X139026247Y-109809523D01*
X104932142Y-69954819D02*
X104598809Y-69478628D01*
X104360714Y-69954819D02*
X104360714Y-68954819D01*
X104360714Y-68954819D02*
X104741666Y-68954819D01*
X104741666Y-68954819D02*
X104836904Y-69002438D01*
X104836904Y-69002438D02*
X104884523Y-69050057D01*
X104884523Y-69050057D02*
X104932142Y-69145295D01*
X104932142Y-69145295D02*
X104932142Y-69288152D01*
X104932142Y-69288152D02*
X104884523Y-69383390D01*
X104884523Y-69383390D02*
X104836904Y-69431009D01*
X104836904Y-69431009D02*
X104741666Y-69478628D01*
X104741666Y-69478628D02*
X104360714Y-69478628D01*
X105313095Y-69050057D02*
X105360714Y-69002438D01*
X105360714Y-69002438D02*
X105455952Y-68954819D01*
X105455952Y-68954819D02*
X105694047Y-68954819D01*
X105694047Y-68954819D02*
X105789285Y-69002438D01*
X105789285Y-69002438D02*
X105836904Y-69050057D01*
X105836904Y-69050057D02*
X105884523Y-69145295D01*
X105884523Y-69145295D02*
X105884523Y-69240533D01*
X105884523Y-69240533D02*
X105836904Y-69383390D01*
X105836904Y-69383390D02*
X105265476Y-69954819D01*
X105265476Y-69954819D02*
X105884523Y-69954819D01*
X106217857Y-68954819D02*
X106884523Y-68954819D01*
X106884523Y-68954819D02*
X106455952Y-69954819D01*
X89201919Y-118767857D02*
X88725728Y-119101190D01*
X89201919Y-119339285D02*
X88201919Y-119339285D01*
X88201919Y-119339285D02*
X88201919Y-118958333D01*
X88201919Y-118958333D02*
X88249538Y-118863095D01*
X88249538Y-118863095D02*
X88297157Y-118815476D01*
X88297157Y-118815476D02*
X88392395Y-118767857D01*
X88392395Y-118767857D02*
X88535252Y-118767857D01*
X88535252Y-118767857D02*
X88630490Y-118815476D01*
X88630490Y-118815476D02*
X88678109Y-118863095D01*
X88678109Y-118863095D02*
X88725728Y-118958333D01*
X88725728Y-118958333D02*
X88725728Y-119339285D01*
X88201919Y-118434523D02*
X88201919Y-117815476D01*
X88201919Y-117815476D02*
X88582871Y-118148809D01*
X88582871Y-118148809D02*
X88582871Y-118005952D01*
X88582871Y-118005952D02*
X88630490Y-117910714D01*
X88630490Y-117910714D02*
X88678109Y-117863095D01*
X88678109Y-117863095D02*
X88773347Y-117815476D01*
X88773347Y-117815476D02*
X89011442Y-117815476D01*
X89011442Y-117815476D02*
X89106680Y-117863095D01*
X89106680Y-117863095D02*
X89154300Y-117910714D01*
X89154300Y-117910714D02*
X89201919Y-118005952D01*
X89201919Y-118005952D02*
X89201919Y-118291666D01*
X89201919Y-118291666D02*
X89154300Y-118386904D01*
X89154300Y-118386904D02*
X89106680Y-118434523D01*
X89201919Y-117339285D02*
X89201919Y-117148809D01*
X89201919Y-117148809D02*
X89154300Y-117053571D01*
X89154300Y-117053571D02*
X89106680Y-117005952D01*
X89106680Y-117005952D02*
X88963823Y-116910714D01*
X88963823Y-116910714D02*
X88773347Y-116863095D01*
X88773347Y-116863095D02*
X88392395Y-116863095D01*
X88392395Y-116863095D02*
X88297157Y-116910714D01*
X88297157Y-116910714D02*
X88249538Y-116958333D01*
X88249538Y-116958333D02*
X88201919Y-117053571D01*
X88201919Y-117053571D02*
X88201919Y-117244047D01*
X88201919Y-117244047D02*
X88249538Y-117339285D01*
X88249538Y-117339285D02*
X88297157Y-117386904D01*
X88297157Y-117386904D02*
X88392395Y-117434523D01*
X88392395Y-117434523D02*
X88630490Y-117434523D01*
X88630490Y-117434523D02*
X88725728Y-117386904D01*
X88725728Y-117386904D02*
X88773347Y-117339285D01*
X88773347Y-117339285D02*
X88820966Y-117244047D01*
X88820966Y-117244047D02*
X88820966Y-117053571D01*
X88820966Y-117053571D02*
X88773347Y-116958333D01*
X88773347Y-116958333D02*
X88725728Y-116910714D01*
X88725728Y-116910714D02*
X88630490Y-116863095D01*
D10*
X145511905Y-116457419D02*
X146083333Y-116457419D01*
X145797619Y-117457419D02*
X145797619Y-116457419D01*
X146416667Y-117457419D02*
X146416667Y-116457419D01*
X146416667Y-116457419D02*
X146797619Y-116457419D01*
X146797619Y-116457419D02*
X146892857Y-116505038D01*
X146892857Y-116505038D02*
X146940476Y-116552657D01*
X146940476Y-116552657D02*
X146988095Y-116647895D01*
X146988095Y-116647895D02*
X146988095Y-116790752D01*
X146988095Y-116790752D02*
X146940476Y-116885990D01*
X146940476Y-116885990D02*
X146892857Y-116933609D01*
X146892857Y-116933609D02*
X146797619Y-116981228D01*
X146797619Y-116981228D02*
X146416667Y-116981228D01*
X147940476Y-117457419D02*
X147369048Y-117457419D01*
X147654762Y-117457419D02*
X147654762Y-116457419D01*
X147654762Y-116457419D02*
X147559524Y-116600276D01*
X147559524Y-116600276D02*
X147464286Y-116695514D01*
X147464286Y-116695514D02*
X147369048Y-116743133D01*
X148273810Y-116457419D02*
X148940476Y-116457419D01*
X148940476Y-116457419D02*
X148511905Y-117457419D01*
D11*
X74049405Y-94667319D02*
X74049405Y-95476842D01*
X74049405Y-95476842D02*
X74097024Y-95572080D01*
X74097024Y-95572080D02*
X74144643Y-95619700D01*
X74144643Y-95619700D02*
X74239881Y-95667319D01*
X74239881Y-95667319D02*
X74430357Y-95667319D01*
X74430357Y-95667319D02*
X74525595Y-95619700D01*
X74525595Y-95619700D02*
X74573214Y-95572080D01*
X74573214Y-95572080D02*
X74620833Y-95476842D01*
X74620833Y-95476842D02*
X74620833Y-94667319D01*
X75620833Y-95667319D02*
X75049405Y-95667319D01*
X75335119Y-95667319D02*
X75335119Y-94667319D01*
X75335119Y-94667319D02*
X75239881Y-94810176D01*
X75239881Y-94810176D02*
X75144643Y-94905414D01*
X75144643Y-94905414D02*
X75049405Y-94953033D01*
X75954167Y-94667319D02*
X76620833Y-94667319D01*
X76620833Y-94667319D02*
X76192262Y-95667319D01*
X120558333Y-66804819D02*
X120082143Y-66804819D01*
X120082143Y-66804819D02*
X120082143Y-65804819D01*
X120796429Y-65804819D02*
X121415476Y-65804819D01*
X121415476Y-65804819D02*
X121082143Y-66185771D01*
X121082143Y-66185771D02*
X121225000Y-66185771D01*
X121225000Y-66185771D02*
X121320238Y-66233390D01*
X121320238Y-66233390D02*
X121367857Y-66281009D01*
X121367857Y-66281009D02*
X121415476Y-66376247D01*
X121415476Y-66376247D02*
X121415476Y-66614342D01*
X121415476Y-66614342D02*
X121367857Y-66709580D01*
X121367857Y-66709580D02*
X121320238Y-66757200D01*
X121320238Y-66757200D02*
X121225000Y-66804819D01*
X121225000Y-66804819D02*
X120939286Y-66804819D01*
X120939286Y-66804819D02*
X120844048Y-66757200D01*
X120844048Y-66757200D02*
X120796429Y-66709580D01*
X108204819Y-88416666D02*
X107728628Y-88749999D01*
X108204819Y-88988094D02*
X107204819Y-88988094D01*
X107204819Y-88988094D02*
X107204819Y-88607142D01*
X107204819Y-88607142D02*
X107252438Y-88511904D01*
X107252438Y-88511904D02*
X107300057Y-88464285D01*
X107300057Y-88464285D02*
X107395295Y-88416666D01*
X107395295Y-88416666D02*
X107538152Y-88416666D01*
X107538152Y-88416666D02*
X107633390Y-88464285D01*
X107633390Y-88464285D02*
X107681009Y-88511904D01*
X107681009Y-88511904D02*
X107728628Y-88607142D01*
X107728628Y-88607142D02*
X107728628Y-88988094D01*
X107204819Y-88083332D02*
X107204819Y-87464285D01*
X107204819Y-87464285D02*
X107585771Y-87797618D01*
X107585771Y-87797618D02*
X107585771Y-87654761D01*
X107585771Y-87654761D02*
X107633390Y-87559523D01*
X107633390Y-87559523D02*
X107681009Y-87511904D01*
X107681009Y-87511904D02*
X107776247Y-87464285D01*
X107776247Y-87464285D02*
X108014342Y-87464285D01*
X108014342Y-87464285D02*
X108109580Y-87511904D01*
X108109580Y-87511904D02*
X108157200Y-87559523D01*
X108157200Y-87559523D02*
X108204819Y-87654761D01*
X108204819Y-87654761D02*
X108204819Y-87940475D01*
X108204819Y-87940475D02*
X108157200Y-88035713D01*
X108157200Y-88035713D02*
X108109580Y-88083332D01*
X65242319Y-89355357D02*
X64766128Y-89688690D01*
X65242319Y-89926785D02*
X64242319Y-89926785D01*
X64242319Y-89926785D02*
X64242319Y-89545833D01*
X64242319Y-89545833D02*
X64289938Y-89450595D01*
X64289938Y-89450595D02*
X64337557Y-89402976D01*
X64337557Y-89402976D02*
X64432795Y-89355357D01*
X64432795Y-89355357D02*
X64575652Y-89355357D01*
X64575652Y-89355357D02*
X64670890Y-89402976D01*
X64670890Y-89402976D02*
X64718509Y-89450595D01*
X64718509Y-89450595D02*
X64766128Y-89545833D01*
X64766128Y-89545833D02*
X64766128Y-89926785D01*
X64337557Y-88974404D02*
X64289938Y-88926785D01*
X64289938Y-88926785D02*
X64242319Y-88831547D01*
X64242319Y-88831547D02*
X64242319Y-88593452D01*
X64242319Y-88593452D02*
X64289938Y-88498214D01*
X64289938Y-88498214D02*
X64337557Y-88450595D01*
X64337557Y-88450595D02*
X64432795Y-88402976D01*
X64432795Y-88402976D02*
X64528033Y-88402976D01*
X64528033Y-88402976D02*
X64670890Y-88450595D01*
X64670890Y-88450595D02*
X65242319Y-89022023D01*
X65242319Y-89022023D02*
X65242319Y-88402976D01*
X64242319Y-88069642D02*
X64242319Y-87450595D01*
X64242319Y-87450595D02*
X64623271Y-87783928D01*
X64623271Y-87783928D02*
X64623271Y-87641071D01*
X64623271Y-87641071D02*
X64670890Y-87545833D01*
X64670890Y-87545833D02*
X64718509Y-87498214D01*
X64718509Y-87498214D02*
X64813747Y-87450595D01*
X64813747Y-87450595D02*
X65051842Y-87450595D01*
X65051842Y-87450595D02*
X65147080Y-87498214D01*
X65147080Y-87498214D02*
X65194700Y-87545833D01*
X65194700Y-87545833D02*
X65242319Y-87641071D01*
X65242319Y-87641071D02*
X65242319Y-87926785D01*
X65242319Y-87926785D02*
X65194700Y-88022023D01*
X65194700Y-88022023D02*
X65147080Y-88069642D01*
X66897080Y-73605357D02*
X66944700Y-73652976D01*
X66944700Y-73652976D02*
X66992319Y-73795833D01*
X66992319Y-73795833D02*
X66992319Y-73891071D01*
X66992319Y-73891071D02*
X66944700Y-74033928D01*
X66944700Y-74033928D02*
X66849461Y-74129166D01*
X66849461Y-74129166D02*
X66754223Y-74176785D01*
X66754223Y-74176785D02*
X66563747Y-74224404D01*
X66563747Y-74224404D02*
X66420890Y-74224404D01*
X66420890Y-74224404D02*
X66230414Y-74176785D01*
X66230414Y-74176785D02*
X66135176Y-74129166D01*
X66135176Y-74129166D02*
X66039938Y-74033928D01*
X66039938Y-74033928D02*
X65992319Y-73891071D01*
X65992319Y-73891071D02*
X65992319Y-73795833D01*
X65992319Y-73795833D02*
X66039938Y-73652976D01*
X66039938Y-73652976D02*
X66087557Y-73605357D01*
X66087557Y-73224404D02*
X66039938Y-73176785D01*
X66039938Y-73176785D02*
X65992319Y-73081547D01*
X65992319Y-73081547D02*
X65992319Y-72843452D01*
X65992319Y-72843452D02*
X66039938Y-72748214D01*
X66039938Y-72748214D02*
X66087557Y-72700595D01*
X66087557Y-72700595D02*
X66182795Y-72652976D01*
X66182795Y-72652976D02*
X66278033Y-72652976D01*
X66278033Y-72652976D02*
X66420890Y-72700595D01*
X66420890Y-72700595D02*
X66992319Y-73272023D01*
X66992319Y-73272023D02*
X66992319Y-72652976D01*
X66992319Y-71700595D02*
X66992319Y-72272023D01*
X66992319Y-71986309D02*
X65992319Y-71986309D01*
X65992319Y-71986309D02*
X66135176Y-72081547D01*
X66135176Y-72081547D02*
X66230414Y-72176785D01*
X66230414Y-72176785D02*
X66278033Y-72272023D01*
D10*
X59632738Y-85646109D02*
X59775595Y-85693728D01*
X59775595Y-85693728D02*
X59823214Y-85741347D01*
X59823214Y-85741347D02*
X59870833Y-85836585D01*
X59870833Y-85836585D02*
X59870833Y-85979442D01*
X59870833Y-85979442D02*
X59823214Y-86074680D01*
X59823214Y-86074680D02*
X59775595Y-86122300D01*
X59775595Y-86122300D02*
X59680357Y-86169919D01*
X59680357Y-86169919D02*
X59299405Y-86169919D01*
X59299405Y-86169919D02*
X59299405Y-85169919D01*
X59299405Y-85169919D02*
X59632738Y-85169919D01*
X59632738Y-85169919D02*
X59727976Y-85217538D01*
X59727976Y-85217538D02*
X59775595Y-85265157D01*
X59775595Y-85265157D02*
X59823214Y-85360395D01*
X59823214Y-85360395D02*
X59823214Y-85455633D01*
X59823214Y-85455633D02*
X59775595Y-85550871D01*
X59775595Y-85550871D02*
X59727976Y-85598490D01*
X59727976Y-85598490D02*
X59632738Y-85646109D01*
X59632738Y-85646109D02*
X59299405Y-85646109D01*
X60823214Y-86169919D02*
X60251786Y-86169919D01*
X60537500Y-86169919D02*
X60537500Y-85169919D01*
X60537500Y-85169919D02*
X60442262Y-85312776D01*
X60442262Y-85312776D02*
X60347024Y-85408014D01*
X60347024Y-85408014D02*
X60251786Y-85455633D01*
D11*
X126083333Y-69859580D02*
X126035714Y-69907200D01*
X126035714Y-69907200D02*
X125892857Y-69954819D01*
X125892857Y-69954819D02*
X125797619Y-69954819D01*
X125797619Y-69954819D02*
X125654762Y-69907200D01*
X125654762Y-69907200D02*
X125559524Y-69811961D01*
X125559524Y-69811961D02*
X125511905Y-69716723D01*
X125511905Y-69716723D02*
X125464286Y-69526247D01*
X125464286Y-69526247D02*
X125464286Y-69383390D01*
X125464286Y-69383390D02*
X125511905Y-69192914D01*
X125511905Y-69192914D02*
X125559524Y-69097676D01*
X125559524Y-69097676D02*
X125654762Y-69002438D01*
X125654762Y-69002438D02*
X125797619Y-68954819D01*
X125797619Y-68954819D02*
X125892857Y-68954819D01*
X125892857Y-68954819D02*
X126035714Y-69002438D01*
X126035714Y-69002438D02*
X126083333Y-69050057D01*
X126464286Y-69050057D02*
X126511905Y-69002438D01*
X126511905Y-69002438D02*
X126607143Y-68954819D01*
X126607143Y-68954819D02*
X126845238Y-68954819D01*
X126845238Y-68954819D02*
X126940476Y-69002438D01*
X126940476Y-69002438D02*
X126988095Y-69050057D01*
X126988095Y-69050057D02*
X127035714Y-69145295D01*
X127035714Y-69145295D02*
X127035714Y-69240533D01*
X127035714Y-69240533D02*
X126988095Y-69383390D01*
X126988095Y-69383390D02*
X126416667Y-69954819D01*
X126416667Y-69954819D02*
X127035714Y-69954819D01*
D10*
X148488095Y-84207419D02*
X149059523Y-84207419D01*
X148773809Y-85207419D02*
X148773809Y-84207419D01*
X149392857Y-85207419D02*
X149392857Y-84207419D01*
X149392857Y-84207419D02*
X149773809Y-84207419D01*
X149773809Y-84207419D02*
X149869047Y-84255038D01*
X149869047Y-84255038D02*
X149916666Y-84302657D01*
X149916666Y-84302657D02*
X149964285Y-84397895D01*
X149964285Y-84397895D02*
X149964285Y-84540752D01*
X149964285Y-84540752D02*
X149916666Y-84635990D01*
X149916666Y-84635990D02*
X149869047Y-84683609D01*
X149869047Y-84683609D02*
X149773809Y-84731228D01*
X149773809Y-84731228D02*
X149392857Y-84731228D01*
X150535714Y-84635990D02*
X150440476Y-84588371D01*
X150440476Y-84588371D02*
X150392857Y-84540752D01*
X150392857Y-84540752D02*
X150345238Y-84445514D01*
X150345238Y-84445514D02*
X150345238Y-84397895D01*
X150345238Y-84397895D02*
X150392857Y-84302657D01*
X150392857Y-84302657D02*
X150440476Y-84255038D01*
X150440476Y-84255038D02*
X150535714Y-84207419D01*
X150535714Y-84207419D02*
X150726190Y-84207419D01*
X150726190Y-84207419D02*
X150821428Y-84255038D01*
X150821428Y-84255038D02*
X150869047Y-84302657D01*
X150869047Y-84302657D02*
X150916666Y-84397895D01*
X150916666Y-84397895D02*
X150916666Y-84445514D01*
X150916666Y-84445514D02*
X150869047Y-84540752D01*
X150869047Y-84540752D02*
X150821428Y-84588371D01*
X150821428Y-84588371D02*
X150726190Y-84635990D01*
X150726190Y-84635990D02*
X150535714Y-84635990D01*
X150535714Y-84635990D02*
X150440476Y-84683609D01*
X150440476Y-84683609D02*
X150392857Y-84731228D01*
X150392857Y-84731228D02*
X150345238Y-84826466D01*
X150345238Y-84826466D02*
X150345238Y-85016942D01*
X150345238Y-85016942D02*
X150392857Y-85112180D01*
X150392857Y-85112180D02*
X150440476Y-85159800D01*
X150440476Y-85159800D02*
X150535714Y-85207419D01*
X150535714Y-85207419D02*
X150726190Y-85207419D01*
X150726190Y-85207419D02*
X150821428Y-85159800D01*
X150821428Y-85159800D02*
X150869047Y-85112180D01*
X150869047Y-85112180D02*
X150916666Y-85016942D01*
X150916666Y-85016942D02*
X150916666Y-84826466D01*
X150916666Y-84826466D02*
X150869047Y-84731228D01*
X150869047Y-84731228D02*
X150821428Y-84683609D01*
X150821428Y-84683609D02*
X150726190Y-84635990D01*
D11*
X100854242Y-112756680D02*
X100806623Y-112804300D01*
X100806623Y-112804300D02*
X100663766Y-112851919D01*
X100663766Y-112851919D02*
X100568528Y-112851919D01*
X100568528Y-112851919D02*
X100425671Y-112804300D01*
X100425671Y-112804300D02*
X100330433Y-112709061D01*
X100330433Y-112709061D02*
X100282814Y-112613823D01*
X100282814Y-112613823D02*
X100235195Y-112423347D01*
X100235195Y-112423347D02*
X100235195Y-112280490D01*
X100235195Y-112280490D02*
X100282814Y-112090014D01*
X100282814Y-112090014D02*
X100330433Y-111994776D01*
X100330433Y-111994776D02*
X100425671Y-111899538D01*
X100425671Y-111899538D02*
X100568528Y-111851919D01*
X100568528Y-111851919D02*
X100663766Y-111851919D01*
X100663766Y-111851919D02*
X100806623Y-111899538D01*
X100806623Y-111899538D02*
X100854242Y-111947157D01*
X101187576Y-111851919D02*
X101806623Y-111851919D01*
X101806623Y-111851919D02*
X101473290Y-112232871D01*
X101473290Y-112232871D02*
X101616147Y-112232871D01*
X101616147Y-112232871D02*
X101711385Y-112280490D01*
X101711385Y-112280490D02*
X101759004Y-112328109D01*
X101759004Y-112328109D02*
X101806623Y-112423347D01*
X101806623Y-112423347D02*
X101806623Y-112661442D01*
X101806623Y-112661442D02*
X101759004Y-112756680D01*
X101759004Y-112756680D02*
X101711385Y-112804300D01*
X101711385Y-112804300D02*
X101616147Y-112851919D01*
X101616147Y-112851919D02*
X101330433Y-112851919D01*
X101330433Y-112851919D02*
X101235195Y-112804300D01*
X101235195Y-112804300D02*
X101187576Y-112756680D01*
X102425671Y-111851919D02*
X102520909Y-111851919D01*
X102520909Y-111851919D02*
X102616147Y-111899538D01*
X102616147Y-111899538D02*
X102663766Y-111947157D01*
X102663766Y-111947157D02*
X102711385Y-112042395D01*
X102711385Y-112042395D02*
X102759004Y-112232871D01*
X102759004Y-112232871D02*
X102759004Y-112470966D01*
X102759004Y-112470966D02*
X102711385Y-112661442D01*
X102711385Y-112661442D02*
X102663766Y-112756680D01*
X102663766Y-112756680D02*
X102616147Y-112804300D01*
X102616147Y-112804300D02*
X102520909Y-112851919D01*
X102520909Y-112851919D02*
X102425671Y-112851919D01*
X102425671Y-112851919D02*
X102330433Y-112804300D01*
X102330433Y-112804300D02*
X102282814Y-112756680D01*
X102282814Y-112756680D02*
X102235195Y-112661442D01*
X102235195Y-112661442D02*
X102187576Y-112470966D01*
X102187576Y-112470966D02*
X102187576Y-112232871D01*
X102187576Y-112232871D02*
X102235195Y-112042395D01*
X102235195Y-112042395D02*
X102282814Y-111947157D01*
X102282814Y-111947157D02*
X102330433Y-111899538D01*
X102330433Y-111899538D02*
X102425671Y-111851919D01*
X117107142Y-106859580D02*
X117059523Y-106907200D01*
X117059523Y-106907200D02*
X116916666Y-106954819D01*
X116916666Y-106954819D02*
X116821428Y-106954819D01*
X116821428Y-106954819D02*
X116678571Y-106907200D01*
X116678571Y-106907200D02*
X116583333Y-106811961D01*
X116583333Y-106811961D02*
X116535714Y-106716723D01*
X116535714Y-106716723D02*
X116488095Y-106526247D01*
X116488095Y-106526247D02*
X116488095Y-106383390D01*
X116488095Y-106383390D02*
X116535714Y-106192914D01*
X116535714Y-106192914D02*
X116583333Y-106097676D01*
X116583333Y-106097676D02*
X116678571Y-106002438D01*
X116678571Y-106002438D02*
X116821428Y-105954819D01*
X116821428Y-105954819D02*
X116916666Y-105954819D01*
X116916666Y-105954819D02*
X117059523Y-106002438D01*
X117059523Y-106002438D02*
X117107142Y-106050057D01*
X118059523Y-106954819D02*
X117488095Y-106954819D01*
X117773809Y-106954819D02*
X117773809Y-105954819D01*
X117773809Y-105954819D02*
X117678571Y-106097676D01*
X117678571Y-106097676D02*
X117583333Y-106192914D01*
X117583333Y-106192914D02*
X117488095Y-106240533D01*
X118964285Y-105954819D02*
X118488095Y-105954819D01*
X118488095Y-105954819D02*
X118440476Y-106431009D01*
X118440476Y-106431009D02*
X118488095Y-106383390D01*
X118488095Y-106383390D02*
X118583333Y-106335771D01*
X118583333Y-106335771D02*
X118821428Y-106335771D01*
X118821428Y-106335771D02*
X118916666Y-106383390D01*
X118916666Y-106383390D02*
X118964285Y-106431009D01*
X118964285Y-106431009D02*
X119011904Y-106526247D01*
X119011904Y-106526247D02*
X119011904Y-106764342D01*
X119011904Y-106764342D02*
X118964285Y-106859580D01*
X118964285Y-106859580D02*
X118916666Y-106907200D01*
X118916666Y-106907200D02*
X118821428Y-106954819D01*
X118821428Y-106954819D02*
X118583333Y-106954819D01*
X118583333Y-106954819D02*
X118488095Y-106907200D01*
X118488095Y-106907200D02*
X118440476Y-106859580D01*
X116604819Y-72142857D02*
X116128628Y-72476190D01*
X116604819Y-72714285D02*
X115604819Y-72714285D01*
X115604819Y-72714285D02*
X115604819Y-72333333D01*
X115604819Y-72333333D02*
X115652438Y-72238095D01*
X115652438Y-72238095D02*
X115700057Y-72190476D01*
X115700057Y-72190476D02*
X115795295Y-72142857D01*
X115795295Y-72142857D02*
X115938152Y-72142857D01*
X115938152Y-72142857D02*
X116033390Y-72190476D01*
X116033390Y-72190476D02*
X116081009Y-72238095D01*
X116081009Y-72238095D02*
X116128628Y-72333333D01*
X116128628Y-72333333D02*
X116128628Y-72714285D01*
X116604819Y-71190476D02*
X116604819Y-71761904D01*
X116604819Y-71476190D02*
X115604819Y-71476190D01*
X115604819Y-71476190D02*
X115747676Y-71571428D01*
X115747676Y-71571428D02*
X115842914Y-71666666D01*
X115842914Y-71666666D02*
X115890533Y-71761904D01*
X116033390Y-70619047D02*
X115985771Y-70714285D01*
X115985771Y-70714285D02*
X115938152Y-70761904D01*
X115938152Y-70761904D02*
X115842914Y-70809523D01*
X115842914Y-70809523D02*
X115795295Y-70809523D01*
X115795295Y-70809523D02*
X115700057Y-70761904D01*
X115700057Y-70761904D02*
X115652438Y-70714285D01*
X115652438Y-70714285D02*
X115604819Y-70619047D01*
X115604819Y-70619047D02*
X115604819Y-70428571D01*
X115604819Y-70428571D02*
X115652438Y-70333333D01*
X115652438Y-70333333D02*
X115700057Y-70285714D01*
X115700057Y-70285714D02*
X115795295Y-70238095D01*
X115795295Y-70238095D02*
X115842914Y-70238095D01*
X115842914Y-70238095D02*
X115938152Y-70285714D01*
X115938152Y-70285714D02*
X115985771Y-70333333D01*
X115985771Y-70333333D02*
X116033390Y-70428571D01*
X116033390Y-70428571D02*
X116033390Y-70619047D01*
X116033390Y-70619047D02*
X116081009Y-70714285D01*
X116081009Y-70714285D02*
X116128628Y-70761904D01*
X116128628Y-70761904D02*
X116223866Y-70809523D01*
X116223866Y-70809523D02*
X116414342Y-70809523D01*
X116414342Y-70809523D02*
X116509580Y-70761904D01*
X116509580Y-70761904D02*
X116557200Y-70714285D01*
X116557200Y-70714285D02*
X116604819Y-70619047D01*
X116604819Y-70619047D02*
X116604819Y-70428571D01*
X116604819Y-70428571D02*
X116557200Y-70333333D01*
X116557200Y-70333333D02*
X116509580Y-70285714D01*
X116509580Y-70285714D02*
X116414342Y-70238095D01*
X116414342Y-70238095D02*
X116223866Y-70238095D01*
X116223866Y-70238095D02*
X116128628Y-70285714D01*
X116128628Y-70285714D02*
X116081009Y-70333333D01*
X116081009Y-70333333D02*
X116033390Y-70428571D01*
X77104242Y-107601919D02*
X76770909Y-107125728D01*
X76532814Y-107601919D02*
X76532814Y-106601919D01*
X76532814Y-106601919D02*
X76913766Y-106601919D01*
X76913766Y-106601919D02*
X77009004Y-106649538D01*
X77009004Y-106649538D02*
X77056623Y-106697157D01*
X77056623Y-106697157D02*
X77104242Y-106792395D01*
X77104242Y-106792395D02*
X77104242Y-106935252D01*
X77104242Y-106935252D02*
X77056623Y-107030490D01*
X77056623Y-107030490D02*
X77009004Y-107078109D01*
X77009004Y-107078109D02*
X76913766Y-107125728D01*
X76913766Y-107125728D02*
X76532814Y-107125728D01*
X77437576Y-106601919D02*
X78056623Y-106601919D01*
X78056623Y-106601919D02*
X77723290Y-106982871D01*
X77723290Y-106982871D02*
X77866147Y-106982871D01*
X77866147Y-106982871D02*
X77961385Y-107030490D01*
X77961385Y-107030490D02*
X78009004Y-107078109D01*
X78009004Y-107078109D02*
X78056623Y-107173347D01*
X78056623Y-107173347D02*
X78056623Y-107411442D01*
X78056623Y-107411442D02*
X78009004Y-107506680D01*
X78009004Y-107506680D02*
X77961385Y-107554300D01*
X77961385Y-107554300D02*
X77866147Y-107601919D01*
X77866147Y-107601919D02*
X77580433Y-107601919D01*
X77580433Y-107601919D02*
X77485195Y-107554300D01*
X77485195Y-107554300D02*
X77437576Y-107506680D01*
X78913766Y-106935252D02*
X78913766Y-107601919D01*
X78675671Y-106554300D02*
X78437576Y-107268585D01*
X78437576Y-107268585D02*
X79056623Y-107268585D01*
D10*
X126343333Y-78619919D02*
X125867143Y-78619919D01*
X125867143Y-78619919D02*
X125867143Y-77619919D01*
X127200476Y-78619919D02*
X126629048Y-78619919D01*
X126914762Y-78619919D02*
X126914762Y-77619919D01*
X126914762Y-77619919D02*
X126819524Y-77762776D01*
X126819524Y-77762776D02*
X126724286Y-77858014D01*
X126724286Y-77858014D02*
X126629048Y-77905633D01*
X90659800Y-80333332D02*
X90707419Y-80190475D01*
X90707419Y-80190475D02*
X90707419Y-79952380D01*
X90707419Y-79952380D02*
X90659800Y-79857142D01*
X90659800Y-79857142D02*
X90612180Y-79809523D01*
X90612180Y-79809523D02*
X90516942Y-79761904D01*
X90516942Y-79761904D02*
X90421704Y-79761904D01*
X90421704Y-79761904D02*
X90326466Y-79809523D01*
X90326466Y-79809523D02*
X90278847Y-79857142D01*
X90278847Y-79857142D02*
X90231228Y-79952380D01*
X90231228Y-79952380D02*
X90183609Y-80142856D01*
X90183609Y-80142856D02*
X90135990Y-80238094D01*
X90135990Y-80238094D02*
X90088371Y-80285713D01*
X90088371Y-80285713D02*
X89993133Y-80333332D01*
X89993133Y-80333332D02*
X89897895Y-80333332D01*
X89897895Y-80333332D02*
X89802657Y-80285713D01*
X89802657Y-80285713D02*
X89755038Y-80238094D01*
X89755038Y-80238094D02*
X89707419Y-80142856D01*
X89707419Y-80142856D02*
X89707419Y-79904761D01*
X89707419Y-79904761D02*
X89755038Y-79761904D01*
X89707419Y-79428570D02*
X90707419Y-79190475D01*
X90707419Y-79190475D02*
X89993133Y-78999999D01*
X89993133Y-78999999D02*
X90707419Y-78809523D01*
X90707419Y-78809523D02*
X89707419Y-78571428D01*
X90707419Y-77666666D02*
X90707419Y-78238094D01*
X90707419Y-77952380D02*
X89707419Y-77952380D01*
X89707419Y-77952380D02*
X89850276Y-78047618D01*
X89850276Y-78047618D02*
X89945514Y-78142856D01*
X89945514Y-78142856D02*
X89993133Y-78238094D01*
D11*
X116604819Y-96392857D02*
X116128628Y-96726190D01*
X116604819Y-96964285D02*
X115604819Y-96964285D01*
X115604819Y-96964285D02*
X115604819Y-96583333D01*
X115604819Y-96583333D02*
X115652438Y-96488095D01*
X115652438Y-96488095D02*
X115700057Y-96440476D01*
X115700057Y-96440476D02*
X115795295Y-96392857D01*
X115795295Y-96392857D02*
X115938152Y-96392857D01*
X115938152Y-96392857D02*
X116033390Y-96440476D01*
X116033390Y-96440476D02*
X116081009Y-96488095D01*
X116081009Y-96488095D02*
X116128628Y-96583333D01*
X116128628Y-96583333D02*
X116128628Y-96964285D01*
X115700057Y-96011904D02*
X115652438Y-95964285D01*
X115652438Y-95964285D02*
X115604819Y-95869047D01*
X115604819Y-95869047D02*
X115604819Y-95630952D01*
X115604819Y-95630952D02*
X115652438Y-95535714D01*
X115652438Y-95535714D02*
X115700057Y-95488095D01*
X115700057Y-95488095D02*
X115795295Y-95440476D01*
X115795295Y-95440476D02*
X115890533Y-95440476D01*
X115890533Y-95440476D02*
X116033390Y-95488095D01*
X116033390Y-95488095D02*
X116604819Y-96059523D01*
X116604819Y-96059523D02*
X116604819Y-95440476D01*
X115604819Y-94821428D02*
X115604819Y-94726190D01*
X115604819Y-94726190D02*
X115652438Y-94630952D01*
X115652438Y-94630952D02*
X115700057Y-94583333D01*
X115700057Y-94583333D02*
X115795295Y-94535714D01*
X115795295Y-94535714D02*
X115985771Y-94488095D01*
X115985771Y-94488095D02*
X116223866Y-94488095D01*
X116223866Y-94488095D02*
X116414342Y-94535714D01*
X116414342Y-94535714D02*
X116509580Y-94583333D01*
X116509580Y-94583333D02*
X116557200Y-94630952D01*
X116557200Y-94630952D02*
X116604819Y-94726190D01*
X116604819Y-94726190D02*
X116604819Y-94821428D01*
X116604819Y-94821428D02*
X116557200Y-94916666D01*
X116557200Y-94916666D02*
X116509580Y-94964285D01*
X116509580Y-94964285D02*
X116414342Y-95011904D01*
X116414342Y-95011904D02*
X116223866Y-95059523D01*
X116223866Y-95059523D02*
X115985771Y-95059523D01*
X115985771Y-95059523D02*
X115795295Y-95011904D01*
X115795295Y-95011904D02*
X115700057Y-94964285D01*
X115700057Y-94964285D02*
X115652438Y-94916666D01*
X115652438Y-94916666D02*
X115604819Y-94821428D01*
D10*
X133511905Y-96457419D02*
X134083333Y-96457419D01*
X133797619Y-97457419D02*
X133797619Y-96457419D01*
X134416667Y-97457419D02*
X134416667Y-96457419D01*
X134416667Y-96457419D02*
X134797619Y-96457419D01*
X134797619Y-96457419D02*
X134892857Y-96505038D01*
X134892857Y-96505038D02*
X134940476Y-96552657D01*
X134940476Y-96552657D02*
X134988095Y-96647895D01*
X134988095Y-96647895D02*
X134988095Y-96790752D01*
X134988095Y-96790752D02*
X134940476Y-96885990D01*
X134940476Y-96885990D02*
X134892857Y-96933609D01*
X134892857Y-96933609D02*
X134797619Y-96981228D01*
X134797619Y-96981228D02*
X134416667Y-96981228D01*
X135940476Y-97457419D02*
X135369048Y-97457419D01*
X135654762Y-97457419D02*
X135654762Y-96457419D01*
X135654762Y-96457419D02*
X135559524Y-96600276D01*
X135559524Y-96600276D02*
X135464286Y-96695514D01*
X135464286Y-96695514D02*
X135369048Y-96743133D01*
X136321429Y-96552657D02*
X136369048Y-96505038D01*
X136369048Y-96505038D02*
X136464286Y-96457419D01*
X136464286Y-96457419D02*
X136702381Y-96457419D01*
X136702381Y-96457419D02*
X136797619Y-96505038D01*
X136797619Y-96505038D02*
X136845238Y-96552657D01*
X136845238Y-96552657D02*
X136892857Y-96647895D01*
X136892857Y-96647895D02*
X136892857Y-96743133D01*
X136892857Y-96743133D02*
X136845238Y-96885990D01*
X136845238Y-96885990D02*
X136273810Y-97457419D01*
X136273810Y-97457419D02*
X136892857Y-97457419D01*
D11*
X109687142Y-96835013D02*
X109353809Y-96358822D01*
X109115714Y-96835013D02*
X109115714Y-95835013D01*
X109115714Y-95835013D02*
X109496666Y-95835013D01*
X109496666Y-95835013D02*
X109591904Y-95882632D01*
X109591904Y-95882632D02*
X109639523Y-95930251D01*
X109639523Y-95930251D02*
X109687142Y-96025489D01*
X109687142Y-96025489D02*
X109687142Y-96168346D01*
X109687142Y-96168346D02*
X109639523Y-96263584D01*
X109639523Y-96263584D02*
X109591904Y-96311203D01*
X109591904Y-96311203D02*
X109496666Y-96358822D01*
X109496666Y-96358822D02*
X109115714Y-96358822D01*
X110639523Y-96835013D02*
X110068095Y-96835013D01*
X110353809Y-96835013D02*
X110353809Y-95835013D01*
X110353809Y-95835013D02*
X110258571Y-95977870D01*
X110258571Y-95977870D02*
X110163333Y-96073108D01*
X110163333Y-96073108D02*
X110068095Y-96120727D01*
X111591904Y-96835013D02*
X111020476Y-96835013D01*
X111306190Y-96835013D02*
X111306190Y-95835013D01*
X111306190Y-95835013D02*
X111210952Y-95977870D01*
X111210952Y-95977870D02*
X111115714Y-96073108D01*
X111115714Y-96073108D02*
X111020476Y-96120727D01*
X126143333Y-88167319D02*
X125810000Y-87691128D01*
X125571905Y-88167319D02*
X125571905Y-87167319D01*
X125571905Y-87167319D02*
X125952857Y-87167319D01*
X125952857Y-87167319D02*
X126048095Y-87214938D01*
X126048095Y-87214938D02*
X126095714Y-87262557D01*
X126095714Y-87262557D02*
X126143333Y-87357795D01*
X126143333Y-87357795D02*
X126143333Y-87500652D01*
X126143333Y-87500652D02*
X126095714Y-87595890D01*
X126095714Y-87595890D02*
X126048095Y-87643509D01*
X126048095Y-87643509D02*
X125952857Y-87691128D01*
X125952857Y-87691128D02*
X125571905Y-87691128D01*
X127095714Y-88167319D02*
X126524286Y-88167319D01*
X126810000Y-88167319D02*
X126810000Y-87167319D01*
X126810000Y-87167319D02*
X126714762Y-87310176D01*
X126714762Y-87310176D02*
X126619524Y-87405414D01*
X126619524Y-87405414D02*
X126524286Y-87453033D01*
X117943333Y-72742080D02*
X117895714Y-72789700D01*
X117895714Y-72789700D02*
X117752857Y-72837319D01*
X117752857Y-72837319D02*
X117657619Y-72837319D01*
X117657619Y-72837319D02*
X117514762Y-72789700D01*
X117514762Y-72789700D02*
X117419524Y-72694461D01*
X117419524Y-72694461D02*
X117371905Y-72599223D01*
X117371905Y-72599223D02*
X117324286Y-72408747D01*
X117324286Y-72408747D02*
X117324286Y-72265890D01*
X117324286Y-72265890D02*
X117371905Y-72075414D01*
X117371905Y-72075414D02*
X117419524Y-71980176D01*
X117419524Y-71980176D02*
X117514762Y-71884938D01*
X117514762Y-71884938D02*
X117657619Y-71837319D01*
X117657619Y-71837319D02*
X117752857Y-71837319D01*
X117752857Y-71837319D02*
X117895714Y-71884938D01*
X117895714Y-71884938D02*
X117943333Y-71932557D01*
X118895714Y-72837319D02*
X118324286Y-72837319D01*
X118610000Y-72837319D02*
X118610000Y-71837319D01*
X118610000Y-71837319D02*
X118514762Y-71980176D01*
X118514762Y-71980176D02*
X118419524Y-72075414D01*
X118419524Y-72075414D02*
X118324286Y-72123033D01*
X119583333Y-84609580D02*
X119535714Y-84657200D01*
X119535714Y-84657200D02*
X119392857Y-84704819D01*
X119392857Y-84704819D02*
X119297619Y-84704819D01*
X119297619Y-84704819D02*
X119154762Y-84657200D01*
X119154762Y-84657200D02*
X119059524Y-84561961D01*
X119059524Y-84561961D02*
X119011905Y-84466723D01*
X119011905Y-84466723D02*
X118964286Y-84276247D01*
X118964286Y-84276247D02*
X118964286Y-84133390D01*
X118964286Y-84133390D02*
X119011905Y-83942914D01*
X119011905Y-83942914D02*
X119059524Y-83847676D01*
X119059524Y-83847676D02*
X119154762Y-83752438D01*
X119154762Y-83752438D02*
X119297619Y-83704819D01*
X119297619Y-83704819D02*
X119392857Y-83704819D01*
X119392857Y-83704819D02*
X119535714Y-83752438D01*
X119535714Y-83752438D02*
X119583333Y-83800057D01*
X120154762Y-84133390D02*
X120059524Y-84085771D01*
X120059524Y-84085771D02*
X120011905Y-84038152D01*
X120011905Y-84038152D02*
X119964286Y-83942914D01*
X119964286Y-83942914D02*
X119964286Y-83895295D01*
X119964286Y-83895295D02*
X120011905Y-83800057D01*
X120011905Y-83800057D02*
X120059524Y-83752438D01*
X120059524Y-83752438D02*
X120154762Y-83704819D01*
X120154762Y-83704819D02*
X120345238Y-83704819D01*
X120345238Y-83704819D02*
X120440476Y-83752438D01*
X120440476Y-83752438D02*
X120488095Y-83800057D01*
X120488095Y-83800057D02*
X120535714Y-83895295D01*
X120535714Y-83895295D02*
X120535714Y-83942914D01*
X120535714Y-83942914D02*
X120488095Y-84038152D01*
X120488095Y-84038152D02*
X120440476Y-84085771D01*
X120440476Y-84085771D02*
X120345238Y-84133390D01*
X120345238Y-84133390D02*
X120154762Y-84133390D01*
X120154762Y-84133390D02*
X120059524Y-84181009D01*
X120059524Y-84181009D02*
X120011905Y-84228628D01*
X120011905Y-84228628D02*
X119964286Y-84323866D01*
X119964286Y-84323866D02*
X119964286Y-84514342D01*
X119964286Y-84514342D02*
X120011905Y-84609580D01*
X120011905Y-84609580D02*
X120059524Y-84657200D01*
X120059524Y-84657200D02*
X120154762Y-84704819D01*
X120154762Y-84704819D02*
X120345238Y-84704819D01*
X120345238Y-84704819D02*
X120440476Y-84657200D01*
X120440476Y-84657200D02*
X120488095Y-84609580D01*
X120488095Y-84609580D02*
X120535714Y-84514342D01*
X120535714Y-84514342D02*
X120535714Y-84323866D01*
X120535714Y-84323866D02*
X120488095Y-84228628D01*
X120488095Y-84228628D02*
X120440476Y-84181009D01*
X120440476Y-84181009D02*
X120345238Y-84133390D01*
X70104242Y-107601919D02*
X69770909Y-107125728D01*
X69532814Y-107601919D02*
X69532814Y-106601919D01*
X69532814Y-106601919D02*
X69913766Y-106601919D01*
X69913766Y-106601919D02*
X70009004Y-106649538D01*
X70009004Y-106649538D02*
X70056623Y-106697157D01*
X70056623Y-106697157D02*
X70104242Y-106792395D01*
X70104242Y-106792395D02*
X70104242Y-106935252D01*
X70104242Y-106935252D02*
X70056623Y-107030490D01*
X70056623Y-107030490D02*
X70009004Y-107078109D01*
X70009004Y-107078109D02*
X69913766Y-107125728D01*
X69913766Y-107125728D02*
X69532814Y-107125728D01*
X70437576Y-106601919D02*
X71056623Y-106601919D01*
X71056623Y-106601919D02*
X70723290Y-106982871D01*
X70723290Y-106982871D02*
X70866147Y-106982871D01*
X70866147Y-106982871D02*
X70961385Y-107030490D01*
X70961385Y-107030490D02*
X71009004Y-107078109D01*
X71009004Y-107078109D02*
X71056623Y-107173347D01*
X71056623Y-107173347D02*
X71056623Y-107411442D01*
X71056623Y-107411442D02*
X71009004Y-107506680D01*
X71009004Y-107506680D02*
X70961385Y-107554300D01*
X70961385Y-107554300D02*
X70866147Y-107601919D01*
X70866147Y-107601919D02*
X70580433Y-107601919D01*
X70580433Y-107601919D02*
X70485195Y-107554300D01*
X70485195Y-107554300D02*
X70437576Y-107506680D01*
X71628052Y-107030490D02*
X71532814Y-106982871D01*
X71532814Y-106982871D02*
X71485195Y-106935252D01*
X71485195Y-106935252D02*
X71437576Y-106840014D01*
X71437576Y-106840014D02*
X71437576Y-106792395D01*
X71437576Y-106792395D02*
X71485195Y-106697157D01*
X71485195Y-106697157D02*
X71532814Y-106649538D01*
X71532814Y-106649538D02*
X71628052Y-106601919D01*
X71628052Y-106601919D02*
X71818528Y-106601919D01*
X71818528Y-106601919D02*
X71913766Y-106649538D01*
X71913766Y-106649538D02*
X71961385Y-106697157D01*
X71961385Y-106697157D02*
X72009004Y-106792395D01*
X72009004Y-106792395D02*
X72009004Y-106840014D01*
X72009004Y-106840014D02*
X71961385Y-106935252D01*
X71961385Y-106935252D02*
X71913766Y-106982871D01*
X71913766Y-106982871D02*
X71818528Y-107030490D01*
X71818528Y-107030490D02*
X71628052Y-107030490D01*
X71628052Y-107030490D02*
X71532814Y-107078109D01*
X71532814Y-107078109D02*
X71485195Y-107125728D01*
X71485195Y-107125728D02*
X71437576Y-107220966D01*
X71437576Y-107220966D02*
X71437576Y-107411442D01*
X71437576Y-107411442D02*
X71485195Y-107506680D01*
X71485195Y-107506680D02*
X71532814Y-107554300D01*
X71532814Y-107554300D02*
X71628052Y-107601919D01*
X71628052Y-107601919D02*
X71818528Y-107601919D01*
X71818528Y-107601919D02*
X71913766Y-107554300D01*
X71913766Y-107554300D02*
X71961385Y-107506680D01*
X71961385Y-107506680D02*
X72009004Y-107411442D01*
X72009004Y-107411442D02*
X72009004Y-107220966D01*
X72009004Y-107220966D02*
X71961385Y-107125728D01*
X71961385Y-107125728D02*
X71913766Y-107078109D01*
X71913766Y-107078109D02*
X71818528Y-107030490D01*
X117333333Y-82609580D02*
X117285714Y-82657200D01*
X117285714Y-82657200D02*
X117142857Y-82704819D01*
X117142857Y-82704819D02*
X117047619Y-82704819D01*
X117047619Y-82704819D02*
X116904762Y-82657200D01*
X116904762Y-82657200D02*
X116809524Y-82561961D01*
X116809524Y-82561961D02*
X116761905Y-82466723D01*
X116761905Y-82466723D02*
X116714286Y-82276247D01*
X116714286Y-82276247D02*
X116714286Y-82133390D01*
X116714286Y-82133390D02*
X116761905Y-81942914D01*
X116761905Y-81942914D02*
X116809524Y-81847676D01*
X116809524Y-81847676D02*
X116904762Y-81752438D01*
X116904762Y-81752438D02*
X117047619Y-81704819D01*
X117047619Y-81704819D02*
X117142857Y-81704819D01*
X117142857Y-81704819D02*
X117285714Y-81752438D01*
X117285714Y-81752438D02*
X117333333Y-81800057D01*
X117666667Y-81704819D02*
X118333333Y-81704819D01*
X118333333Y-81704819D02*
X117904762Y-82704819D01*
X102859580Y-99892857D02*
X102907200Y-99940476D01*
X102907200Y-99940476D02*
X102954819Y-100083333D01*
X102954819Y-100083333D02*
X102954819Y-100178571D01*
X102954819Y-100178571D02*
X102907200Y-100321428D01*
X102907200Y-100321428D02*
X102811961Y-100416666D01*
X102811961Y-100416666D02*
X102716723Y-100464285D01*
X102716723Y-100464285D02*
X102526247Y-100511904D01*
X102526247Y-100511904D02*
X102383390Y-100511904D01*
X102383390Y-100511904D02*
X102192914Y-100464285D01*
X102192914Y-100464285D02*
X102097676Y-100416666D01*
X102097676Y-100416666D02*
X102002438Y-100321428D01*
X102002438Y-100321428D02*
X101954819Y-100178571D01*
X101954819Y-100178571D02*
X101954819Y-100083333D01*
X101954819Y-100083333D02*
X102002438Y-99940476D01*
X102002438Y-99940476D02*
X102050057Y-99892857D01*
X102954819Y-98940476D02*
X102954819Y-99511904D01*
X102954819Y-99226190D02*
X101954819Y-99226190D01*
X101954819Y-99226190D02*
X102097676Y-99321428D01*
X102097676Y-99321428D02*
X102192914Y-99416666D01*
X102192914Y-99416666D02*
X102240533Y-99511904D01*
X102954819Y-97988095D02*
X102954819Y-98559523D01*
X102954819Y-98273809D02*
X101954819Y-98273809D01*
X101954819Y-98273809D02*
X102097676Y-98369047D01*
X102097676Y-98369047D02*
X102192914Y-98464285D01*
X102192914Y-98464285D02*
X102240533Y-98559523D01*
X147738095Y-102454819D02*
X147738095Y-103264342D01*
X147738095Y-103264342D02*
X147785714Y-103359580D01*
X147785714Y-103359580D02*
X147833333Y-103407200D01*
X147833333Y-103407200D02*
X147928571Y-103454819D01*
X147928571Y-103454819D02*
X148119047Y-103454819D01*
X148119047Y-103454819D02*
X148214285Y-103407200D01*
X148214285Y-103407200D02*
X148261904Y-103359580D01*
X148261904Y-103359580D02*
X148309523Y-103264342D01*
X148309523Y-103264342D02*
X148309523Y-102454819D01*
X148928571Y-102883390D02*
X148833333Y-102835771D01*
X148833333Y-102835771D02*
X148785714Y-102788152D01*
X148785714Y-102788152D02*
X148738095Y-102692914D01*
X148738095Y-102692914D02*
X148738095Y-102645295D01*
X148738095Y-102645295D02*
X148785714Y-102550057D01*
X148785714Y-102550057D02*
X148833333Y-102502438D01*
X148833333Y-102502438D02*
X148928571Y-102454819D01*
X148928571Y-102454819D02*
X149119047Y-102454819D01*
X149119047Y-102454819D02*
X149214285Y-102502438D01*
X149214285Y-102502438D02*
X149261904Y-102550057D01*
X149261904Y-102550057D02*
X149309523Y-102645295D01*
X149309523Y-102645295D02*
X149309523Y-102692914D01*
X149309523Y-102692914D02*
X149261904Y-102788152D01*
X149261904Y-102788152D02*
X149214285Y-102835771D01*
X149214285Y-102835771D02*
X149119047Y-102883390D01*
X149119047Y-102883390D02*
X148928571Y-102883390D01*
X148928571Y-102883390D02*
X148833333Y-102931009D01*
X148833333Y-102931009D02*
X148785714Y-102978628D01*
X148785714Y-102978628D02*
X148738095Y-103073866D01*
X148738095Y-103073866D02*
X148738095Y-103264342D01*
X148738095Y-103264342D02*
X148785714Y-103359580D01*
X148785714Y-103359580D02*
X148833333Y-103407200D01*
X148833333Y-103407200D02*
X148928571Y-103454819D01*
X148928571Y-103454819D02*
X149119047Y-103454819D01*
X149119047Y-103454819D02*
X149214285Y-103407200D01*
X149214285Y-103407200D02*
X149261904Y-103359580D01*
X149261904Y-103359580D02*
X149309523Y-103264342D01*
X149309523Y-103264342D02*
X149309523Y-103073866D01*
X149309523Y-103073866D02*
X149261904Y-102978628D01*
X149261904Y-102978628D02*
X149214285Y-102931009D01*
X149214285Y-102931009D02*
X149119047Y-102883390D01*
X92856680Y-122289957D02*
X92904300Y-122337576D01*
X92904300Y-122337576D02*
X92951919Y-122480433D01*
X92951919Y-122480433D02*
X92951919Y-122575671D01*
X92951919Y-122575671D02*
X92904300Y-122718528D01*
X92904300Y-122718528D02*
X92809061Y-122813766D01*
X92809061Y-122813766D02*
X92713823Y-122861385D01*
X92713823Y-122861385D02*
X92523347Y-122909004D01*
X92523347Y-122909004D02*
X92380490Y-122909004D01*
X92380490Y-122909004D02*
X92190014Y-122861385D01*
X92190014Y-122861385D02*
X92094776Y-122813766D01*
X92094776Y-122813766D02*
X91999538Y-122718528D01*
X91999538Y-122718528D02*
X91951919Y-122575671D01*
X91951919Y-122575671D02*
X91951919Y-122480433D01*
X91951919Y-122480433D02*
X91999538Y-122337576D01*
X91999538Y-122337576D02*
X92047157Y-122289957D01*
X92047157Y-121909004D02*
X91999538Y-121861385D01*
X91999538Y-121861385D02*
X91951919Y-121766147D01*
X91951919Y-121766147D02*
X91951919Y-121528052D01*
X91951919Y-121528052D02*
X91999538Y-121432814D01*
X91999538Y-121432814D02*
X92047157Y-121385195D01*
X92047157Y-121385195D02*
X92142395Y-121337576D01*
X92142395Y-121337576D02*
X92237633Y-121337576D01*
X92237633Y-121337576D02*
X92380490Y-121385195D01*
X92380490Y-121385195D02*
X92951919Y-121956623D01*
X92951919Y-121956623D02*
X92951919Y-121337576D01*
X92380490Y-120766147D02*
X92332871Y-120861385D01*
X92332871Y-120861385D02*
X92285252Y-120909004D01*
X92285252Y-120909004D02*
X92190014Y-120956623D01*
X92190014Y-120956623D02*
X92142395Y-120956623D01*
X92142395Y-120956623D02*
X92047157Y-120909004D01*
X92047157Y-120909004D02*
X91999538Y-120861385D01*
X91999538Y-120861385D02*
X91951919Y-120766147D01*
X91951919Y-120766147D02*
X91951919Y-120575671D01*
X91951919Y-120575671D02*
X91999538Y-120480433D01*
X91999538Y-120480433D02*
X92047157Y-120432814D01*
X92047157Y-120432814D02*
X92142395Y-120385195D01*
X92142395Y-120385195D02*
X92190014Y-120385195D01*
X92190014Y-120385195D02*
X92285252Y-120432814D01*
X92285252Y-120432814D02*
X92332871Y-120480433D01*
X92332871Y-120480433D02*
X92380490Y-120575671D01*
X92380490Y-120575671D02*
X92380490Y-120766147D01*
X92380490Y-120766147D02*
X92428109Y-120861385D01*
X92428109Y-120861385D02*
X92475728Y-120909004D01*
X92475728Y-120909004D02*
X92570966Y-120956623D01*
X92570966Y-120956623D02*
X92761442Y-120956623D01*
X92761442Y-120956623D02*
X92856680Y-120909004D01*
X92856680Y-120909004D02*
X92904300Y-120861385D01*
X92904300Y-120861385D02*
X92951919Y-120766147D01*
X92951919Y-120766147D02*
X92951919Y-120575671D01*
X92951919Y-120575671D02*
X92904300Y-120480433D01*
X92904300Y-120480433D02*
X92856680Y-120432814D01*
X92856680Y-120432814D02*
X92761442Y-120385195D01*
X92761442Y-120385195D02*
X92570966Y-120385195D01*
X92570966Y-120385195D02*
X92475728Y-120432814D01*
X92475728Y-120432814D02*
X92428109Y-120480433D01*
X92428109Y-120480433D02*
X92380490Y-120575671D01*
X69799405Y-94917319D02*
X69799405Y-95726842D01*
X69799405Y-95726842D02*
X69847024Y-95822080D01*
X69847024Y-95822080D02*
X69894643Y-95869700D01*
X69894643Y-95869700D02*
X69989881Y-95917319D01*
X69989881Y-95917319D02*
X70180357Y-95917319D01*
X70180357Y-95917319D02*
X70275595Y-95869700D01*
X70275595Y-95869700D02*
X70323214Y-95822080D01*
X70323214Y-95822080D02*
X70370833Y-95726842D01*
X70370833Y-95726842D02*
X70370833Y-94917319D01*
X71370833Y-95917319D02*
X70799405Y-95917319D01*
X71085119Y-95917319D02*
X71085119Y-94917319D01*
X71085119Y-94917319D02*
X70989881Y-95060176D01*
X70989881Y-95060176D02*
X70894643Y-95155414D01*
X70894643Y-95155414D02*
X70799405Y-95203033D01*
X72227976Y-94917319D02*
X72037500Y-94917319D01*
X72037500Y-94917319D02*
X71942262Y-94964938D01*
X71942262Y-94964938D02*
X71894643Y-95012557D01*
X71894643Y-95012557D02*
X71799405Y-95155414D01*
X71799405Y-95155414D02*
X71751786Y-95345890D01*
X71751786Y-95345890D02*
X71751786Y-95726842D01*
X71751786Y-95726842D02*
X71799405Y-95822080D01*
X71799405Y-95822080D02*
X71847024Y-95869700D01*
X71847024Y-95869700D02*
X71942262Y-95917319D01*
X71942262Y-95917319D02*
X72132738Y-95917319D01*
X72132738Y-95917319D02*
X72227976Y-95869700D01*
X72227976Y-95869700D02*
X72275595Y-95822080D01*
X72275595Y-95822080D02*
X72323214Y-95726842D01*
X72323214Y-95726842D02*
X72323214Y-95488747D01*
X72323214Y-95488747D02*
X72275595Y-95393509D01*
X72275595Y-95393509D02*
X72227976Y-95345890D01*
X72227976Y-95345890D02*
X72132738Y-95298271D01*
X72132738Y-95298271D02*
X71942262Y-95298271D01*
X71942262Y-95298271D02*
X71847024Y-95345890D01*
X71847024Y-95345890D02*
X71799405Y-95393509D01*
X71799405Y-95393509D02*
X71751786Y-95488747D01*
X90759005Y-113351919D02*
X90759005Y-114161442D01*
X90759005Y-114161442D02*
X90806624Y-114256680D01*
X90806624Y-114256680D02*
X90854243Y-114304300D01*
X90854243Y-114304300D02*
X90949481Y-114351919D01*
X90949481Y-114351919D02*
X91139957Y-114351919D01*
X91139957Y-114351919D02*
X91235195Y-114304300D01*
X91235195Y-114304300D02*
X91282814Y-114256680D01*
X91282814Y-114256680D02*
X91330433Y-114161442D01*
X91330433Y-114161442D02*
X91330433Y-113351919D01*
X92330433Y-114351919D02*
X91759005Y-114351919D01*
X92044719Y-114351919D02*
X92044719Y-113351919D01*
X92044719Y-113351919D02*
X91949481Y-113494776D01*
X91949481Y-113494776D02*
X91854243Y-113590014D01*
X91854243Y-113590014D02*
X91759005Y-113637633D01*
X92949481Y-113351919D02*
X93044719Y-113351919D01*
X93044719Y-113351919D02*
X93139957Y-113399538D01*
X93139957Y-113399538D02*
X93187576Y-113447157D01*
X93187576Y-113447157D02*
X93235195Y-113542395D01*
X93235195Y-113542395D02*
X93282814Y-113732871D01*
X93282814Y-113732871D02*
X93282814Y-113970966D01*
X93282814Y-113970966D02*
X93235195Y-114161442D01*
X93235195Y-114161442D02*
X93187576Y-114256680D01*
X93187576Y-114256680D02*
X93139957Y-114304300D01*
X93139957Y-114304300D02*
X93044719Y-114351919D01*
X93044719Y-114351919D02*
X92949481Y-114351919D01*
X92949481Y-114351919D02*
X92854243Y-114304300D01*
X92854243Y-114304300D02*
X92806624Y-114256680D01*
X92806624Y-114256680D02*
X92759005Y-114161442D01*
X92759005Y-114161442D02*
X92711386Y-113970966D01*
X92711386Y-113970966D02*
X92711386Y-113732871D01*
X92711386Y-113732871D02*
X92759005Y-113542395D01*
X92759005Y-113542395D02*
X92806624Y-113447157D01*
X92806624Y-113447157D02*
X92854243Y-113399538D01*
X92854243Y-113399538D02*
X92949481Y-113351919D01*
X85497100Y-107851919D02*
X85497100Y-108090014D01*
X85259005Y-107994776D02*
X85497100Y-108090014D01*
X85497100Y-108090014D02*
X85735195Y-107994776D01*
X85354243Y-108280490D02*
X85497100Y-108090014D01*
X85497100Y-108090014D02*
X85639957Y-108280490D01*
X85497100Y-108624019D02*
X85497100Y-108862114D01*
X85259005Y-108766876D02*
X85497100Y-108862114D01*
X85497100Y-108862114D02*
X85735195Y-108766876D01*
X85354243Y-109052590D02*
X85497100Y-108862114D01*
X85497100Y-108862114D02*
X85639957Y-109052590D01*
X102204819Y-67142857D02*
X101728628Y-67476190D01*
X102204819Y-67714285D02*
X101204819Y-67714285D01*
X101204819Y-67714285D02*
X101204819Y-67333333D01*
X101204819Y-67333333D02*
X101252438Y-67238095D01*
X101252438Y-67238095D02*
X101300057Y-67190476D01*
X101300057Y-67190476D02*
X101395295Y-67142857D01*
X101395295Y-67142857D02*
X101538152Y-67142857D01*
X101538152Y-67142857D02*
X101633390Y-67190476D01*
X101633390Y-67190476D02*
X101681009Y-67238095D01*
X101681009Y-67238095D02*
X101728628Y-67333333D01*
X101728628Y-67333333D02*
X101728628Y-67714285D01*
X101300057Y-66761904D02*
X101252438Y-66714285D01*
X101252438Y-66714285D02*
X101204819Y-66619047D01*
X101204819Y-66619047D02*
X101204819Y-66380952D01*
X101204819Y-66380952D02*
X101252438Y-66285714D01*
X101252438Y-66285714D02*
X101300057Y-66238095D01*
X101300057Y-66238095D02*
X101395295Y-66190476D01*
X101395295Y-66190476D02*
X101490533Y-66190476D01*
X101490533Y-66190476D02*
X101633390Y-66238095D01*
X101633390Y-66238095D02*
X102204819Y-66809523D01*
X102204819Y-66809523D02*
X102204819Y-66190476D01*
X102204819Y-65238095D02*
X102204819Y-65809523D01*
X102204819Y-65523809D02*
X101204819Y-65523809D01*
X101204819Y-65523809D02*
X101347676Y-65619047D01*
X101347676Y-65619047D02*
X101442914Y-65714285D01*
X101442914Y-65714285D02*
X101490533Y-65809523D01*
D10*
X58738095Y-94207419D02*
X59309523Y-94207419D01*
X59023809Y-95207419D02*
X59023809Y-94207419D01*
X59642857Y-95207419D02*
X59642857Y-94207419D01*
X59642857Y-94207419D02*
X60023809Y-94207419D01*
X60023809Y-94207419D02*
X60119047Y-94255038D01*
X60119047Y-94255038D02*
X60166666Y-94302657D01*
X60166666Y-94302657D02*
X60214285Y-94397895D01*
X60214285Y-94397895D02*
X60214285Y-94540752D01*
X60214285Y-94540752D02*
X60166666Y-94635990D01*
X60166666Y-94635990D02*
X60119047Y-94683609D01*
X60119047Y-94683609D02*
X60023809Y-94731228D01*
X60023809Y-94731228D02*
X59642857Y-94731228D01*
X60595238Y-94302657D02*
X60642857Y-94255038D01*
X60642857Y-94255038D02*
X60738095Y-94207419D01*
X60738095Y-94207419D02*
X60976190Y-94207419D01*
X60976190Y-94207419D02*
X61071428Y-94255038D01*
X61071428Y-94255038D02*
X61119047Y-94302657D01*
X61119047Y-94302657D02*
X61166666Y-94397895D01*
X61166666Y-94397895D02*
X61166666Y-94493133D01*
X61166666Y-94493133D02*
X61119047Y-94635990D01*
X61119047Y-94635990D02*
X60547619Y-95207419D01*
X60547619Y-95207419D02*
X61166666Y-95207419D01*
D11*
X142704819Y-111511904D02*
X143514342Y-111511904D01*
X143514342Y-111511904D02*
X143609580Y-111464285D01*
X143609580Y-111464285D02*
X143657200Y-111416666D01*
X143657200Y-111416666D02*
X143704819Y-111321428D01*
X143704819Y-111321428D02*
X143704819Y-111130952D01*
X143704819Y-111130952D02*
X143657200Y-111035714D01*
X143657200Y-111035714D02*
X143609580Y-110988095D01*
X143609580Y-110988095D02*
X143514342Y-110940476D01*
X143514342Y-110940476D02*
X142704819Y-110940476D01*
X142704819Y-110035714D02*
X142704819Y-110226190D01*
X142704819Y-110226190D02*
X142752438Y-110321428D01*
X142752438Y-110321428D02*
X142800057Y-110369047D01*
X142800057Y-110369047D02*
X142942914Y-110464285D01*
X142942914Y-110464285D02*
X143133390Y-110511904D01*
X143133390Y-110511904D02*
X143514342Y-110511904D01*
X143514342Y-110511904D02*
X143609580Y-110464285D01*
X143609580Y-110464285D02*
X143657200Y-110416666D01*
X143657200Y-110416666D02*
X143704819Y-110321428D01*
X143704819Y-110321428D02*
X143704819Y-110130952D01*
X143704819Y-110130952D02*
X143657200Y-110035714D01*
X143657200Y-110035714D02*
X143609580Y-109988095D01*
X143609580Y-109988095D02*
X143514342Y-109940476D01*
X143514342Y-109940476D02*
X143276247Y-109940476D01*
X143276247Y-109940476D02*
X143181009Y-109988095D01*
X143181009Y-109988095D02*
X143133390Y-110035714D01*
X143133390Y-110035714D02*
X143085771Y-110130952D01*
X143085771Y-110130952D02*
X143085771Y-110321428D01*
X143085771Y-110321428D02*
X143133390Y-110416666D01*
X143133390Y-110416666D02*
X143181009Y-110464285D01*
X143181009Y-110464285D02*
X143276247Y-110511904D01*
X146954819Y-85916666D02*
X146478628Y-86249999D01*
X146954819Y-86488094D02*
X145954819Y-86488094D01*
X145954819Y-86488094D02*
X145954819Y-86107142D01*
X145954819Y-86107142D02*
X146002438Y-86011904D01*
X146002438Y-86011904D02*
X146050057Y-85964285D01*
X146050057Y-85964285D02*
X146145295Y-85916666D01*
X146145295Y-85916666D02*
X146288152Y-85916666D01*
X146288152Y-85916666D02*
X146383390Y-85964285D01*
X146383390Y-85964285D02*
X146431009Y-86011904D01*
X146431009Y-86011904D02*
X146478628Y-86107142D01*
X146478628Y-86107142D02*
X146478628Y-86488094D01*
X145954819Y-85583332D02*
X145954819Y-84916666D01*
X145954819Y-84916666D02*
X146954819Y-85345237D01*
X67397080Y-91605357D02*
X67444700Y-91652976D01*
X67444700Y-91652976D02*
X67492319Y-91795833D01*
X67492319Y-91795833D02*
X67492319Y-91891071D01*
X67492319Y-91891071D02*
X67444700Y-92033928D01*
X67444700Y-92033928D02*
X67349461Y-92129166D01*
X67349461Y-92129166D02*
X67254223Y-92176785D01*
X67254223Y-92176785D02*
X67063747Y-92224404D01*
X67063747Y-92224404D02*
X66920890Y-92224404D01*
X66920890Y-92224404D02*
X66730414Y-92176785D01*
X66730414Y-92176785D02*
X66635176Y-92129166D01*
X66635176Y-92129166D02*
X66539938Y-92033928D01*
X66539938Y-92033928D02*
X66492319Y-91891071D01*
X66492319Y-91891071D02*
X66492319Y-91795833D01*
X66492319Y-91795833D02*
X66539938Y-91652976D01*
X66539938Y-91652976D02*
X66587557Y-91605357D01*
X66587557Y-91224404D02*
X66539938Y-91176785D01*
X66539938Y-91176785D02*
X66492319Y-91081547D01*
X66492319Y-91081547D02*
X66492319Y-90843452D01*
X66492319Y-90843452D02*
X66539938Y-90748214D01*
X66539938Y-90748214D02*
X66587557Y-90700595D01*
X66587557Y-90700595D02*
X66682795Y-90652976D01*
X66682795Y-90652976D02*
X66778033Y-90652976D01*
X66778033Y-90652976D02*
X66920890Y-90700595D01*
X66920890Y-90700595D02*
X67492319Y-91272023D01*
X67492319Y-91272023D02*
X67492319Y-90652976D01*
X66587557Y-90272023D02*
X66539938Y-90224404D01*
X66539938Y-90224404D02*
X66492319Y-90129166D01*
X66492319Y-90129166D02*
X66492319Y-89891071D01*
X66492319Y-89891071D02*
X66539938Y-89795833D01*
X66539938Y-89795833D02*
X66587557Y-89748214D01*
X66587557Y-89748214D02*
X66682795Y-89700595D01*
X66682795Y-89700595D02*
X66778033Y-89700595D01*
X66778033Y-89700595D02*
X66920890Y-89748214D01*
X66920890Y-89748214D02*
X67492319Y-90319642D01*
X67492319Y-90319642D02*
X67492319Y-89700595D01*
X132204819Y-91392857D02*
X131728628Y-91726190D01*
X132204819Y-91964285D02*
X131204819Y-91964285D01*
X131204819Y-91964285D02*
X131204819Y-91583333D01*
X131204819Y-91583333D02*
X131252438Y-91488095D01*
X131252438Y-91488095D02*
X131300057Y-91440476D01*
X131300057Y-91440476D02*
X131395295Y-91392857D01*
X131395295Y-91392857D02*
X131538152Y-91392857D01*
X131538152Y-91392857D02*
X131633390Y-91440476D01*
X131633390Y-91440476D02*
X131681009Y-91488095D01*
X131681009Y-91488095D02*
X131728628Y-91583333D01*
X131728628Y-91583333D02*
X131728628Y-91964285D01*
X132204819Y-90440476D02*
X132204819Y-91011904D01*
X132204819Y-90726190D02*
X131204819Y-90726190D01*
X131204819Y-90726190D02*
X131347676Y-90821428D01*
X131347676Y-90821428D02*
X131442914Y-90916666D01*
X131442914Y-90916666D02*
X131490533Y-91011904D01*
X131204819Y-90107142D02*
X131204819Y-89440476D01*
X131204819Y-89440476D02*
X132204819Y-89869047D01*
X125610595Y-92667319D02*
X125610595Y-93476842D01*
X125610595Y-93476842D02*
X125658214Y-93572080D01*
X125658214Y-93572080D02*
X125705833Y-93619700D01*
X125705833Y-93619700D02*
X125801071Y-93667319D01*
X125801071Y-93667319D02*
X125991547Y-93667319D01*
X125991547Y-93667319D02*
X126086785Y-93619700D01*
X126086785Y-93619700D02*
X126134404Y-93572080D01*
X126134404Y-93572080D02*
X126182023Y-93476842D01*
X126182023Y-93476842D02*
X126182023Y-92667319D01*
X126705833Y-93667319D02*
X126896309Y-93667319D01*
X126896309Y-93667319D02*
X126991547Y-93619700D01*
X126991547Y-93619700D02*
X127039166Y-93572080D01*
X127039166Y-93572080D02*
X127134404Y-93429223D01*
X127134404Y-93429223D02*
X127182023Y-93238747D01*
X127182023Y-93238747D02*
X127182023Y-92857795D01*
X127182023Y-92857795D02*
X127134404Y-92762557D01*
X127134404Y-92762557D02*
X127086785Y-92714938D01*
X127086785Y-92714938D02*
X126991547Y-92667319D01*
X126991547Y-92667319D02*
X126801071Y-92667319D01*
X126801071Y-92667319D02*
X126705833Y-92714938D01*
X126705833Y-92714938D02*
X126658214Y-92762557D01*
X126658214Y-92762557D02*
X126610595Y-92857795D01*
X126610595Y-92857795D02*
X126610595Y-93095890D01*
X126610595Y-93095890D02*
X126658214Y-93191128D01*
X126658214Y-93191128D02*
X126705833Y-93238747D01*
X126705833Y-93238747D02*
X126801071Y-93286366D01*
X126801071Y-93286366D02*
X126991547Y-93286366D01*
X126991547Y-93286366D02*
X127086785Y-93238747D01*
X127086785Y-93238747D02*
X127134404Y-93191128D01*
X127134404Y-93191128D02*
X127182023Y-93095890D01*
X82701919Y-105063766D02*
X82701919Y-105539956D01*
X82701919Y-105539956D02*
X81701919Y-105539956D01*
X82035252Y-104301861D02*
X82701919Y-104301861D01*
X81654300Y-104539956D02*
X82368585Y-104778051D01*
X82368585Y-104778051D02*
X82368585Y-104159004D01*
X99859580Y-75666666D02*
X99907200Y-75714285D01*
X99907200Y-75714285D02*
X99954819Y-75857142D01*
X99954819Y-75857142D02*
X99954819Y-75952380D01*
X99954819Y-75952380D02*
X99907200Y-76095237D01*
X99907200Y-76095237D02*
X99811961Y-76190475D01*
X99811961Y-76190475D02*
X99716723Y-76238094D01*
X99716723Y-76238094D02*
X99526247Y-76285713D01*
X99526247Y-76285713D02*
X99383390Y-76285713D01*
X99383390Y-76285713D02*
X99192914Y-76238094D01*
X99192914Y-76238094D02*
X99097676Y-76190475D01*
X99097676Y-76190475D02*
X99002438Y-76095237D01*
X99002438Y-76095237D02*
X98954819Y-75952380D01*
X98954819Y-75952380D02*
X98954819Y-75857142D01*
X98954819Y-75857142D02*
X99002438Y-75714285D01*
X99002438Y-75714285D02*
X99050057Y-75666666D01*
X99288152Y-74809523D02*
X99954819Y-74809523D01*
X98907200Y-75047618D02*
X99621485Y-75285713D01*
X99621485Y-75285713D02*
X99621485Y-74666666D01*
X77799405Y-80917319D02*
X77799405Y-81726842D01*
X77799405Y-81726842D02*
X77847024Y-81822080D01*
X77847024Y-81822080D02*
X77894643Y-81869700D01*
X77894643Y-81869700D02*
X77989881Y-81917319D01*
X77989881Y-81917319D02*
X78180357Y-81917319D01*
X78180357Y-81917319D02*
X78275595Y-81869700D01*
X78275595Y-81869700D02*
X78323214Y-81822080D01*
X78323214Y-81822080D02*
X78370833Y-81726842D01*
X78370833Y-81726842D02*
X78370833Y-80917319D01*
X79370833Y-81917319D02*
X78799405Y-81917319D01*
X79085119Y-81917319D02*
X79085119Y-80917319D01*
X79085119Y-80917319D02*
X78989881Y-81060176D01*
X78989881Y-81060176D02*
X78894643Y-81155414D01*
X78894643Y-81155414D02*
X78799405Y-81203033D01*
X79704167Y-80917319D02*
X80323214Y-80917319D01*
X80323214Y-80917319D02*
X79989881Y-81298271D01*
X79989881Y-81298271D02*
X80132738Y-81298271D01*
X80132738Y-81298271D02*
X80227976Y-81345890D01*
X80227976Y-81345890D02*
X80275595Y-81393509D01*
X80275595Y-81393509D02*
X80323214Y-81488747D01*
X80323214Y-81488747D02*
X80323214Y-81726842D01*
X80323214Y-81726842D02*
X80275595Y-81822080D01*
X80275595Y-81822080D02*
X80227976Y-81869700D01*
X80227976Y-81869700D02*
X80132738Y-81917319D01*
X80132738Y-81917319D02*
X79847024Y-81917319D01*
X79847024Y-81917319D02*
X79751786Y-81869700D01*
X79751786Y-81869700D02*
X79704167Y-81822080D01*
D10*
X85738095Y-71457419D02*
X86309523Y-71457419D01*
X86023809Y-72457419D02*
X86023809Y-71457419D01*
X86642857Y-72457419D02*
X86642857Y-71457419D01*
X86642857Y-71457419D02*
X87023809Y-71457419D01*
X87023809Y-71457419D02*
X87119047Y-71505038D01*
X87119047Y-71505038D02*
X87166666Y-71552657D01*
X87166666Y-71552657D02*
X87214285Y-71647895D01*
X87214285Y-71647895D02*
X87214285Y-71790752D01*
X87214285Y-71790752D02*
X87166666Y-71885990D01*
X87166666Y-71885990D02*
X87119047Y-71933609D01*
X87119047Y-71933609D02*
X87023809Y-71981228D01*
X87023809Y-71981228D02*
X86642857Y-71981228D01*
X88166666Y-72457419D02*
X87595238Y-72457419D01*
X87880952Y-72457419D02*
X87880952Y-71457419D01*
X87880952Y-71457419D02*
X87785714Y-71600276D01*
X87785714Y-71600276D02*
X87690476Y-71695514D01*
X87690476Y-71695514D02*
X87595238Y-71743133D01*
D11*
X70104242Y-109851919D02*
X69770909Y-109375728D01*
X69532814Y-109851919D02*
X69532814Y-108851919D01*
X69532814Y-108851919D02*
X69913766Y-108851919D01*
X69913766Y-108851919D02*
X70009004Y-108899538D01*
X70009004Y-108899538D02*
X70056623Y-108947157D01*
X70056623Y-108947157D02*
X70104242Y-109042395D01*
X70104242Y-109042395D02*
X70104242Y-109185252D01*
X70104242Y-109185252D02*
X70056623Y-109280490D01*
X70056623Y-109280490D02*
X70009004Y-109328109D01*
X70009004Y-109328109D02*
X69913766Y-109375728D01*
X69913766Y-109375728D02*
X69532814Y-109375728D01*
X70437576Y-108851919D02*
X71056623Y-108851919D01*
X71056623Y-108851919D02*
X70723290Y-109232871D01*
X70723290Y-109232871D02*
X70866147Y-109232871D01*
X70866147Y-109232871D02*
X70961385Y-109280490D01*
X70961385Y-109280490D02*
X71009004Y-109328109D01*
X71009004Y-109328109D02*
X71056623Y-109423347D01*
X71056623Y-109423347D02*
X71056623Y-109661442D01*
X71056623Y-109661442D02*
X71009004Y-109756680D01*
X71009004Y-109756680D02*
X70961385Y-109804300D01*
X70961385Y-109804300D02*
X70866147Y-109851919D01*
X70866147Y-109851919D02*
X70580433Y-109851919D01*
X70580433Y-109851919D02*
X70485195Y-109804300D01*
X70485195Y-109804300D02*
X70437576Y-109756680D01*
X71913766Y-108851919D02*
X71723290Y-108851919D01*
X71723290Y-108851919D02*
X71628052Y-108899538D01*
X71628052Y-108899538D02*
X71580433Y-108947157D01*
X71580433Y-108947157D02*
X71485195Y-109090014D01*
X71485195Y-109090014D02*
X71437576Y-109280490D01*
X71437576Y-109280490D02*
X71437576Y-109661442D01*
X71437576Y-109661442D02*
X71485195Y-109756680D01*
X71485195Y-109756680D02*
X71532814Y-109804300D01*
X71532814Y-109804300D02*
X71628052Y-109851919D01*
X71628052Y-109851919D02*
X71818528Y-109851919D01*
X71818528Y-109851919D02*
X71913766Y-109804300D01*
X71913766Y-109804300D02*
X71961385Y-109756680D01*
X71961385Y-109756680D02*
X72009004Y-109661442D01*
X72009004Y-109661442D02*
X72009004Y-109423347D01*
X72009004Y-109423347D02*
X71961385Y-109328109D01*
X71961385Y-109328109D02*
X71913766Y-109280490D01*
X71913766Y-109280490D02*
X71818528Y-109232871D01*
X71818528Y-109232871D02*
X71628052Y-109232871D01*
X71628052Y-109232871D02*
X71532814Y-109280490D01*
X71532814Y-109280490D02*
X71485195Y-109328109D01*
X71485195Y-109328109D02*
X71437576Y-109423347D01*
X77104242Y-112851919D02*
X76770909Y-112375728D01*
X76532814Y-112851919D02*
X76532814Y-111851919D01*
X76532814Y-111851919D02*
X76913766Y-111851919D01*
X76913766Y-111851919D02*
X77009004Y-111899538D01*
X77009004Y-111899538D02*
X77056623Y-111947157D01*
X77056623Y-111947157D02*
X77104242Y-112042395D01*
X77104242Y-112042395D02*
X77104242Y-112185252D01*
X77104242Y-112185252D02*
X77056623Y-112280490D01*
X77056623Y-112280490D02*
X77009004Y-112328109D01*
X77009004Y-112328109D02*
X76913766Y-112375728D01*
X76913766Y-112375728D02*
X76532814Y-112375728D01*
X77437576Y-111851919D02*
X78056623Y-111851919D01*
X78056623Y-111851919D02*
X77723290Y-112232871D01*
X77723290Y-112232871D02*
X77866147Y-112232871D01*
X77866147Y-112232871D02*
X77961385Y-112280490D01*
X77961385Y-112280490D02*
X78009004Y-112328109D01*
X78009004Y-112328109D02*
X78056623Y-112423347D01*
X78056623Y-112423347D02*
X78056623Y-112661442D01*
X78056623Y-112661442D02*
X78009004Y-112756680D01*
X78009004Y-112756680D02*
X77961385Y-112804300D01*
X77961385Y-112804300D02*
X77866147Y-112851919D01*
X77866147Y-112851919D02*
X77580433Y-112851919D01*
X77580433Y-112851919D02*
X77485195Y-112804300D01*
X77485195Y-112804300D02*
X77437576Y-112756680D01*
X78437576Y-111947157D02*
X78485195Y-111899538D01*
X78485195Y-111899538D02*
X78580433Y-111851919D01*
X78580433Y-111851919D02*
X78818528Y-111851919D01*
X78818528Y-111851919D02*
X78913766Y-111899538D01*
X78913766Y-111899538D02*
X78961385Y-111947157D01*
X78961385Y-111947157D02*
X79009004Y-112042395D01*
X79009004Y-112042395D02*
X79009004Y-112137633D01*
X79009004Y-112137633D02*
X78961385Y-112280490D01*
X78961385Y-112280490D02*
X78389957Y-112851919D01*
X78389957Y-112851919D02*
X79009004Y-112851919D01*
D10*
X61761905Y-56957419D02*
X62333333Y-56957419D01*
X62047619Y-57957419D02*
X62047619Y-56957419D01*
X62666667Y-57957419D02*
X62666667Y-56957419D01*
X62666667Y-56957419D02*
X63047619Y-56957419D01*
X63047619Y-56957419D02*
X63142857Y-57005038D01*
X63142857Y-57005038D02*
X63190476Y-57052657D01*
X63190476Y-57052657D02*
X63238095Y-57147895D01*
X63238095Y-57147895D02*
X63238095Y-57290752D01*
X63238095Y-57290752D02*
X63190476Y-57385990D01*
X63190476Y-57385990D02*
X63142857Y-57433609D01*
X63142857Y-57433609D02*
X63047619Y-57481228D01*
X63047619Y-57481228D02*
X62666667Y-57481228D01*
X64190476Y-57957419D02*
X63619048Y-57957419D01*
X63904762Y-57957419D02*
X63904762Y-56957419D01*
X63904762Y-56957419D02*
X63809524Y-57100276D01*
X63809524Y-57100276D02*
X63714286Y-57195514D01*
X63714286Y-57195514D02*
X63619048Y-57243133D01*
X65047619Y-57290752D02*
X65047619Y-57957419D01*
X64809524Y-56909800D02*
X64571429Y-57624085D01*
X64571429Y-57624085D02*
X65190476Y-57624085D01*
X61261905Y-117207419D02*
X61833333Y-117207419D01*
X61547619Y-118207419D02*
X61547619Y-117207419D01*
X62166667Y-118207419D02*
X62166667Y-117207419D01*
X62166667Y-117207419D02*
X62547619Y-117207419D01*
X62547619Y-117207419D02*
X62642857Y-117255038D01*
X62642857Y-117255038D02*
X62690476Y-117302657D01*
X62690476Y-117302657D02*
X62738095Y-117397895D01*
X62738095Y-117397895D02*
X62738095Y-117540752D01*
X62738095Y-117540752D02*
X62690476Y-117635990D01*
X62690476Y-117635990D02*
X62642857Y-117683609D01*
X62642857Y-117683609D02*
X62547619Y-117731228D01*
X62547619Y-117731228D02*
X62166667Y-117731228D01*
X63690476Y-118207419D02*
X63119048Y-118207419D01*
X63404762Y-118207419D02*
X63404762Y-117207419D01*
X63404762Y-117207419D02*
X63309524Y-117350276D01*
X63309524Y-117350276D02*
X63214286Y-117445514D01*
X63214286Y-117445514D02*
X63119048Y-117493133D01*
X64547619Y-117207419D02*
X64357143Y-117207419D01*
X64357143Y-117207419D02*
X64261905Y-117255038D01*
X64261905Y-117255038D02*
X64214286Y-117302657D01*
X64214286Y-117302657D02*
X64119048Y-117445514D01*
X64119048Y-117445514D02*
X64071429Y-117635990D01*
X64071429Y-117635990D02*
X64071429Y-118016942D01*
X64071429Y-118016942D02*
X64119048Y-118112180D01*
X64119048Y-118112180D02*
X64166667Y-118159800D01*
X64166667Y-118159800D02*
X64261905Y-118207419D01*
X64261905Y-118207419D02*
X64452381Y-118207419D01*
X64452381Y-118207419D02*
X64547619Y-118159800D01*
X64547619Y-118159800D02*
X64595238Y-118112180D01*
X64595238Y-118112180D02*
X64642857Y-118016942D01*
X64642857Y-118016942D02*
X64642857Y-117778847D01*
X64642857Y-117778847D02*
X64595238Y-117683609D01*
X64595238Y-117683609D02*
X64547619Y-117635990D01*
X64547619Y-117635990D02*
X64452381Y-117588371D01*
X64452381Y-117588371D02*
X64261905Y-117588371D01*
X64261905Y-117588371D02*
X64166667Y-117635990D01*
X64166667Y-117635990D02*
X64119048Y-117683609D01*
X64119048Y-117683609D02*
X64071429Y-117778847D01*
D11*
X141954819Y-86761904D02*
X142764342Y-86761904D01*
X142764342Y-86761904D02*
X142859580Y-86714285D01*
X142859580Y-86714285D02*
X142907200Y-86666666D01*
X142907200Y-86666666D02*
X142954819Y-86571428D01*
X142954819Y-86571428D02*
X142954819Y-86380952D01*
X142954819Y-86380952D02*
X142907200Y-86285714D01*
X142907200Y-86285714D02*
X142859580Y-86238095D01*
X142859580Y-86238095D02*
X142764342Y-86190476D01*
X142764342Y-86190476D02*
X141954819Y-86190476D01*
X142288152Y-85285714D02*
X142954819Y-85285714D01*
X141907200Y-85523809D02*
X142621485Y-85761904D01*
X142621485Y-85761904D02*
X142621485Y-85142857D01*
D10*
X86009005Y-89854519D02*
X86580433Y-89854519D01*
X86294719Y-90854519D02*
X86294719Y-89854519D01*
X86913767Y-90854519D02*
X86913767Y-89854519D01*
X86913767Y-89854519D02*
X87294719Y-89854519D01*
X87294719Y-89854519D02*
X87389957Y-89902138D01*
X87389957Y-89902138D02*
X87437576Y-89949757D01*
X87437576Y-89949757D02*
X87485195Y-90044995D01*
X87485195Y-90044995D02*
X87485195Y-90187852D01*
X87485195Y-90187852D02*
X87437576Y-90283090D01*
X87437576Y-90283090D02*
X87389957Y-90330709D01*
X87389957Y-90330709D02*
X87294719Y-90378328D01*
X87294719Y-90378328D02*
X86913767Y-90378328D01*
X88437576Y-90854519D02*
X87866148Y-90854519D01*
X88151862Y-90854519D02*
X88151862Y-89854519D01*
X88151862Y-89854519D02*
X88056624Y-89997376D01*
X88056624Y-89997376D02*
X87961386Y-90092614D01*
X87961386Y-90092614D02*
X87866148Y-90140233D01*
X89389957Y-90854519D02*
X88818529Y-90854519D01*
X89104243Y-90854519D02*
X89104243Y-89854519D01*
X89104243Y-89854519D02*
X89009005Y-89997376D01*
X89009005Y-89997376D02*
X88913767Y-90092614D01*
X88913767Y-90092614D02*
X88818529Y-90140233D01*
D11*
X108204819Y-82416666D02*
X107728628Y-82749999D01*
X108204819Y-82988094D02*
X107204819Y-82988094D01*
X107204819Y-82988094D02*
X107204819Y-82607142D01*
X107204819Y-82607142D02*
X107252438Y-82511904D01*
X107252438Y-82511904D02*
X107300057Y-82464285D01*
X107300057Y-82464285D02*
X107395295Y-82416666D01*
X107395295Y-82416666D02*
X107538152Y-82416666D01*
X107538152Y-82416666D02*
X107633390Y-82464285D01*
X107633390Y-82464285D02*
X107681009Y-82511904D01*
X107681009Y-82511904D02*
X107728628Y-82607142D01*
X107728628Y-82607142D02*
X107728628Y-82988094D01*
X107300057Y-82035713D02*
X107252438Y-81988094D01*
X107252438Y-81988094D02*
X107204819Y-81892856D01*
X107204819Y-81892856D02*
X107204819Y-81654761D01*
X107204819Y-81654761D02*
X107252438Y-81559523D01*
X107252438Y-81559523D02*
X107300057Y-81511904D01*
X107300057Y-81511904D02*
X107395295Y-81464285D01*
X107395295Y-81464285D02*
X107490533Y-81464285D01*
X107490533Y-81464285D02*
X107633390Y-81511904D01*
X107633390Y-81511904D02*
X108204819Y-82083332D01*
X108204819Y-82083332D02*
X108204819Y-81464285D01*
D10*
X136761905Y-69957419D02*
X137333333Y-69957419D01*
X137047619Y-70957419D02*
X137047619Y-69957419D01*
X137666667Y-70957419D02*
X137666667Y-69957419D01*
X137666667Y-69957419D02*
X138047619Y-69957419D01*
X138047619Y-69957419D02*
X138142857Y-70005038D01*
X138142857Y-70005038D02*
X138190476Y-70052657D01*
X138190476Y-70052657D02*
X138238095Y-70147895D01*
X138238095Y-70147895D02*
X138238095Y-70290752D01*
X138238095Y-70290752D02*
X138190476Y-70385990D01*
X138190476Y-70385990D02*
X138142857Y-70433609D01*
X138142857Y-70433609D02*
X138047619Y-70481228D01*
X138047619Y-70481228D02*
X137666667Y-70481228D01*
X139190476Y-70957419D02*
X138619048Y-70957419D01*
X138904762Y-70957419D02*
X138904762Y-69957419D01*
X138904762Y-69957419D02*
X138809524Y-70100276D01*
X138809524Y-70100276D02*
X138714286Y-70195514D01*
X138714286Y-70195514D02*
X138619048Y-70243133D01*
X139523810Y-69957419D02*
X140142857Y-69957419D01*
X140142857Y-69957419D02*
X139809524Y-70338371D01*
X139809524Y-70338371D02*
X139952381Y-70338371D01*
X139952381Y-70338371D02*
X140047619Y-70385990D01*
X140047619Y-70385990D02*
X140095238Y-70433609D01*
X140095238Y-70433609D02*
X140142857Y-70528847D01*
X140142857Y-70528847D02*
X140142857Y-70766942D01*
X140142857Y-70766942D02*
X140095238Y-70862180D01*
X140095238Y-70862180D02*
X140047619Y-70909800D01*
X140047619Y-70909800D02*
X139952381Y-70957419D01*
X139952381Y-70957419D02*
X139666667Y-70957419D01*
X139666667Y-70957419D02*
X139571429Y-70909800D01*
X139571429Y-70909800D02*
X139523810Y-70862180D01*
D11*
X108357142Y-60609580D02*
X108309523Y-60657200D01*
X108309523Y-60657200D02*
X108166666Y-60704819D01*
X108166666Y-60704819D02*
X108071428Y-60704819D01*
X108071428Y-60704819D02*
X107928571Y-60657200D01*
X107928571Y-60657200D02*
X107833333Y-60561961D01*
X107833333Y-60561961D02*
X107785714Y-60466723D01*
X107785714Y-60466723D02*
X107738095Y-60276247D01*
X107738095Y-60276247D02*
X107738095Y-60133390D01*
X107738095Y-60133390D02*
X107785714Y-59942914D01*
X107785714Y-59942914D02*
X107833333Y-59847676D01*
X107833333Y-59847676D02*
X107928571Y-59752438D01*
X107928571Y-59752438D02*
X108071428Y-59704819D01*
X108071428Y-59704819D02*
X108166666Y-59704819D01*
X108166666Y-59704819D02*
X108309523Y-59752438D01*
X108309523Y-59752438D02*
X108357142Y-59800057D01*
X108738095Y-59800057D02*
X108785714Y-59752438D01*
X108785714Y-59752438D02*
X108880952Y-59704819D01*
X108880952Y-59704819D02*
X109119047Y-59704819D01*
X109119047Y-59704819D02*
X109214285Y-59752438D01*
X109214285Y-59752438D02*
X109261904Y-59800057D01*
X109261904Y-59800057D02*
X109309523Y-59895295D01*
X109309523Y-59895295D02*
X109309523Y-59990533D01*
X109309523Y-59990533D02*
X109261904Y-60133390D01*
X109261904Y-60133390D02*
X108690476Y-60704819D01*
X108690476Y-60704819D02*
X109309523Y-60704819D01*
X109928571Y-59704819D02*
X110023809Y-59704819D01*
X110023809Y-59704819D02*
X110119047Y-59752438D01*
X110119047Y-59752438D02*
X110166666Y-59800057D01*
X110166666Y-59800057D02*
X110214285Y-59895295D01*
X110214285Y-59895295D02*
X110261904Y-60085771D01*
X110261904Y-60085771D02*
X110261904Y-60323866D01*
X110261904Y-60323866D02*
X110214285Y-60514342D01*
X110214285Y-60514342D02*
X110166666Y-60609580D01*
X110166666Y-60609580D02*
X110119047Y-60657200D01*
X110119047Y-60657200D02*
X110023809Y-60704819D01*
X110023809Y-60704819D02*
X109928571Y-60704819D01*
X109928571Y-60704819D02*
X109833333Y-60657200D01*
X109833333Y-60657200D02*
X109785714Y-60609580D01*
X109785714Y-60609580D02*
X109738095Y-60514342D01*
X109738095Y-60514342D02*
X109690476Y-60323866D01*
X109690476Y-60323866D02*
X109690476Y-60085771D01*
X109690476Y-60085771D02*
X109738095Y-59895295D01*
X109738095Y-59895295D02*
X109785714Y-59800057D01*
X109785714Y-59800057D02*
X109833333Y-59752438D01*
X109833333Y-59752438D02*
X109928571Y-59704819D01*
X137738095Y-102704819D02*
X137738095Y-103514342D01*
X137738095Y-103514342D02*
X137785714Y-103609580D01*
X137785714Y-103609580D02*
X137833333Y-103657200D01*
X137833333Y-103657200D02*
X137928571Y-103704819D01*
X137928571Y-103704819D02*
X138119047Y-103704819D01*
X138119047Y-103704819D02*
X138214285Y-103657200D01*
X138214285Y-103657200D02*
X138261904Y-103609580D01*
X138261904Y-103609580D02*
X138309523Y-103514342D01*
X138309523Y-103514342D02*
X138309523Y-102704819D01*
X138690476Y-102704819D02*
X139357142Y-102704819D01*
X139357142Y-102704819D02*
X138928571Y-103704819D01*
X102761905Y-52454819D02*
X102761905Y-53264342D01*
X102761905Y-53264342D02*
X102809524Y-53359580D01*
X102809524Y-53359580D02*
X102857143Y-53407200D01*
X102857143Y-53407200D02*
X102952381Y-53454819D01*
X102952381Y-53454819D02*
X103142857Y-53454819D01*
X103142857Y-53454819D02*
X103238095Y-53407200D01*
X103238095Y-53407200D02*
X103285714Y-53359580D01*
X103285714Y-53359580D02*
X103333333Y-53264342D01*
X103333333Y-53264342D02*
X103333333Y-52454819D01*
X103761905Y-53407200D02*
X103904762Y-53454819D01*
X103904762Y-53454819D02*
X104142857Y-53454819D01*
X104142857Y-53454819D02*
X104238095Y-53407200D01*
X104238095Y-53407200D02*
X104285714Y-53359580D01*
X104285714Y-53359580D02*
X104333333Y-53264342D01*
X104333333Y-53264342D02*
X104333333Y-53169104D01*
X104333333Y-53169104D02*
X104285714Y-53073866D01*
X104285714Y-53073866D02*
X104238095Y-53026247D01*
X104238095Y-53026247D02*
X104142857Y-52978628D01*
X104142857Y-52978628D02*
X103952381Y-52931009D01*
X103952381Y-52931009D02*
X103857143Y-52883390D01*
X103857143Y-52883390D02*
X103809524Y-52835771D01*
X103809524Y-52835771D02*
X103761905Y-52740533D01*
X103761905Y-52740533D02*
X103761905Y-52645295D01*
X103761905Y-52645295D02*
X103809524Y-52550057D01*
X103809524Y-52550057D02*
X103857143Y-52502438D01*
X103857143Y-52502438D02*
X103952381Y-52454819D01*
X103952381Y-52454819D02*
X104190476Y-52454819D01*
X104190476Y-52454819D02*
X104333333Y-52502438D01*
X105095238Y-52931009D02*
X105238095Y-52978628D01*
X105238095Y-52978628D02*
X105285714Y-53026247D01*
X105285714Y-53026247D02*
X105333333Y-53121485D01*
X105333333Y-53121485D02*
X105333333Y-53264342D01*
X105333333Y-53264342D02*
X105285714Y-53359580D01*
X105285714Y-53359580D02*
X105238095Y-53407200D01*
X105238095Y-53407200D02*
X105142857Y-53454819D01*
X105142857Y-53454819D02*
X104761905Y-53454819D01*
X104761905Y-53454819D02*
X104761905Y-52454819D01*
X104761905Y-52454819D02*
X105095238Y-52454819D01*
X105095238Y-52454819D02*
X105190476Y-52502438D01*
X105190476Y-52502438D02*
X105238095Y-52550057D01*
X105238095Y-52550057D02*
X105285714Y-52645295D01*
X105285714Y-52645295D02*
X105285714Y-52740533D01*
X105285714Y-52740533D02*
X105238095Y-52835771D01*
X105238095Y-52835771D02*
X105190476Y-52883390D01*
X105190476Y-52883390D02*
X105095238Y-52931009D01*
X105095238Y-52931009D02*
X104761905Y-52931009D01*
X106333333Y-53359580D02*
X106285714Y-53407200D01*
X106285714Y-53407200D02*
X106142857Y-53454819D01*
X106142857Y-53454819D02*
X106047619Y-53454819D01*
X106047619Y-53454819D02*
X105904762Y-53407200D01*
X105904762Y-53407200D02*
X105809524Y-53311961D01*
X105809524Y-53311961D02*
X105761905Y-53216723D01*
X105761905Y-53216723D02*
X105714286Y-53026247D01*
X105714286Y-53026247D02*
X105714286Y-52883390D01*
X105714286Y-52883390D02*
X105761905Y-52692914D01*
X105761905Y-52692914D02*
X105809524Y-52597676D01*
X105809524Y-52597676D02*
X105904762Y-52502438D01*
X105904762Y-52502438D02*
X106047619Y-52454819D01*
X106047619Y-52454819D02*
X106142857Y-52454819D01*
X106142857Y-52454819D02*
X106285714Y-52502438D01*
X106285714Y-52502438D02*
X106333333Y-52550057D01*
X106714286Y-52550057D02*
X106761905Y-52502438D01*
X106761905Y-52502438D02*
X106857143Y-52454819D01*
X106857143Y-52454819D02*
X107095238Y-52454819D01*
X107095238Y-52454819D02*
X107190476Y-52502438D01*
X107190476Y-52502438D02*
X107238095Y-52550057D01*
X107238095Y-52550057D02*
X107285714Y-52645295D01*
X107285714Y-52645295D02*
X107285714Y-52740533D01*
X107285714Y-52740533D02*
X107238095Y-52883390D01*
X107238095Y-52883390D02*
X106666667Y-53454819D01*
X106666667Y-53454819D02*
X107285714Y-53454819D01*
X117487142Y-97109774D02*
X117439523Y-97157394D01*
X117439523Y-97157394D02*
X117296666Y-97205013D01*
X117296666Y-97205013D02*
X117201428Y-97205013D01*
X117201428Y-97205013D02*
X117058571Y-97157394D01*
X117058571Y-97157394D02*
X116963333Y-97062155D01*
X116963333Y-97062155D02*
X116915714Y-96966917D01*
X116915714Y-96966917D02*
X116868095Y-96776441D01*
X116868095Y-96776441D02*
X116868095Y-96633584D01*
X116868095Y-96633584D02*
X116915714Y-96443108D01*
X116915714Y-96443108D02*
X116963333Y-96347870D01*
X116963333Y-96347870D02*
X117058571Y-96252632D01*
X117058571Y-96252632D02*
X117201428Y-96205013D01*
X117201428Y-96205013D02*
X117296666Y-96205013D01*
X117296666Y-96205013D02*
X117439523Y-96252632D01*
X117439523Y-96252632D02*
X117487142Y-96300251D01*
X118439523Y-97205013D02*
X117868095Y-97205013D01*
X118153809Y-97205013D02*
X118153809Y-96205013D01*
X118153809Y-96205013D02*
X118058571Y-96347870D01*
X118058571Y-96347870D02*
X117963333Y-96443108D01*
X117963333Y-96443108D02*
X117868095Y-96490727D01*
X118772857Y-96205013D02*
X119439523Y-96205013D01*
X119439523Y-96205013D02*
X119010952Y-97205013D01*
X77104242Y-110601919D02*
X76770909Y-110125728D01*
X76532814Y-110601919D02*
X76532814Y-109601919D01*
X76532814Y-109601919D02*
X76913766Y-109601919D01*
X76913766Y-109601919D02*
X77009004Y-109649538D01*
X77009004Y-109649538D02*
X77056623Y-109697157D01*
X77056623Y-109697157D02*
X77104242Y-109792395D01*
X77104242Y-109792395D02*
X77104242Y-109935252D01*
X77104242Y-109935252D02*
X77056623Y-110030490D01*
X77056623Y-110030490D02*
X77009004Y-110078109D01*
X77009004Y-110078109D02*
X76913766Y-110125728D01*
X76913766Y-110125728D02*
X76532814Y-110125728D01*
X77437576Y-109601919D02*
X78056623Y-109601919D01*
X78056623Y-109601919D02*
X77723290Y-109982871D01*
X77723290Y-109982871D02*
X77866147Y-109982871D01*
X77866147Y-109982871D02*
X77961385Y-110030490D01*
X77961385Y-110030490D02*
X78009004Y-110078109D01*
X78009004Y-110078109D02*
X78056623Y-110173347D01*
X78056623Y-110173347D02*
X78056623Y-110411442D01*
X78056623Y-110411442D02*
X78009004Y-110506680D01*
X78009004Y-110506680D02*
X77961385Y-110554300D01*
X77961385Y-110554300D02*
X77866147Y-110601919D01*
X77866147Y-110601919D02*
X77580433Y-110601919D01*
X77580433Y-110601919D02*
X77485195Y-110554300D01*
X77485195Y-110554300D02*
X77437576Y-110506680D01*
X78389957Y-109601919D02*
X79009004Y-109601919D01*
X79009004Y-109601919D02*
X78675671Y-109982871D01*
X78675671Y-109982871D02*
X78818528Y-109982871D01*
X78818528Y-109982871D02*
X78913766Y-110030490D01*
X78913766Y-110030490D02*
X78961385Y-110078109D01*
X78961385Y-110078109D02*
X79009004Y-110173347D01*
X79009004Y-110173347D02*
X79009004Y-110411442D01*
X79009004Y-110411442D02*
X78961385Y-110506680D01*
X78961385Y-110506680D02*
X78913766Y-110554300D01*
X78913766Y-110554300D02*
X78818528Y-110601919D01*
X78818528Y-110601919D02*
X78532814Y-110601919D01*
X78532814Y-110601919D02*
X78437576Y-110554300D01*
X78437576Y-110554300D02*
X78389957Y-110506680D01*
D10*
X148488095Y-91707419D02*
X149059523Y-91707419D01*
X148773809Y-92707419D02*
X148773809Y-91707419D01*
X149392857Y-92707419D02*
X149392857Y-91707419D01*
X149392857Y-91707419D02*
X149773809Y-91707419D01*
X149773809Y-91707419D02*
X149869047Y-91755038D01*
X149869047Y-91755038D02*
X149916666Y-91802657D01*
X149916666Y-91802657D02*
X149964285Y-91897895D01*
X149964285Y-91897895D02*
X149964285Y-92040752D01*
X149964285Y-92040752D02*
X149916666Y-92135990D01*
X149916666Y-92135990D02*
X149869047Y-92183609D01*
X149869047Y-92183609D02*
X149773809Y-92231228D01*
X149773809Y-92231228D02*
X149392857Y-92231228D01*
X150440476Y-92707419D02*
X150630952Y-92707419D01*
X150630952Y-92707419D02*
X150726190Y-92659800D01*
X150726190Y-92659800D02*
X150773809Y-92612180D01*
X150773809Y-92612180D02*
X150869047Y-92469323D01*
X150869047Y-92469323D02*
X150916666Y-92278847D01*
X150916666Y-92278847D02*
X150916666Y-91897895D01*
X150916666Y-91897895D02*
X150869047Y-91802657D01*
X150869047Y-91802657D02*
X150821428Y-91755038D01*
X150821428Y-91755038D02*
X150726190Y-91707419D01*
X150726190Y-91707419D02*
X150535714Y-91707419D01*
X150535714Y-91707419D02*
X150440476Y-91755038D01*
X150440476Y-91755038D02*
X150392857Y-91802657D01*
X150392857Y-91802657D02*
X150345238Y-91897895D01*
X150345238Y-91897895D02*
X150345238Y-92135990D01*
X150345238Y-92135990D02*
X150392857Y-92231228D01*
X150392857Y-92231228D02*
X150440476Y-92278847D01*
X150440476Y-92278847D02*
X150535714Y-92326466D01*
X150535714Y-92326466D02*
X150726190Y-92326466D01*
X150726190Y-92326466D02*
X150821428Y-92278847D01*
X150821428Y-92278847D02*
X150869047Y-92231228D01*
X150869047Y-92231228D02*
X150916666Y-92135990D01*
D11*
X117333333Y-88704819D02*
X117000000Y-88228628D01*
X116761905Y-88704819D02*
X116761905Y-87704819D01*
X116761905Y-87704819D02*
X117142857Y-87704819D01*
X117142857Y-87704819D02*
X117238095Y-87752438D01*
X117238095Y-87752438D02*
X117285714Y-87800057D01*
X117285714Y-87800057D02*
X117333333Y-87895295D01*
X117333333Y-87895295D02*
X117333333Y-88038152D01*
X117333333Y-88038152D02*
X117285714Y-88133390D01*
X117285714Y-88133390D02*
X117238095Y-88181009D01*
X117238095Y-88181009D02*
X117142857Y-88228628D01*
X117142857Y-88228628D02*
X116761905Y-88228628D01*
X118190476Y-88038152D02*
X118190476Y-88704819D01*
X117952381Y-87657200D02*
X117714286Y-88371485D01*
X117714286Y-88371485D02*
X118333333Y-88371485D01*
X119607142Y-108859580D02*
X119559523Y-108907200D01*
X119559523Y-108907200D02*
X119416666Y-108954819D01*
X119416666Y-108954819D02*
X119321428Y-108954819D01*
X119321428Y-108954819D02*
X119178571Y-108907200D01*
X119178571Y-108907200D02*
X119083333Y-108811961D01*
X119083333Y-108811961D02*
X119035714Y-108716723D01*
X119035714Y-108716723D02*
X118988095Y-108526247D01*
X118988095Y-108526247D02*
X118988095Y-108383390D01*
X118988095Y-108383390D02*
X119035714Y-108192914D01*
X119035714Y-108192914D02*
X119083333Y-108097676D01*
X119083333Y-108097676D02*
X119178571Y-108002438D01*
X119178571Y-108002438D02*
X119321428Y-107954819D01*
X119321428Y-107954819D02*
X119416666Y-107954819D01*
X119416666Y-107954819D02*
X119559523Y-108002438D01*
X119559523Y-108002438D02*
X119607142Y-108050057D01*
X120559523Y-108954819D02*
X119988095Y-108954819D01*
X120273809Y-108954819D02*
X120273809Y-107954819D01*
X120273809Y-107954819D02*
X120178571Y-108097676D01*
X120178571Y-108097676D02*
X120083333Y-108192914D01*
X120083333Y-108192914D02*
X119988095Y-108240533D01*
X121416666Y-108288152D02*
X121416666Y-108954819D01*
X121178571Y-107907200D02*
X120940476Y-108621485D01*
X120940476Y-108621485D02*
X121559523Y-108621485D01*
D10*
X73022695Y-102832419D02*
X73594123Y-102832419D01*
X73308409Y-103832419D02*
X73308409Y-102832419D01*
X74498885Y-103832419D02*
X74165552Y-103356228D01*
X73927457Y-103832419D02*
X73927457Y-102832419D01*
X73927457Y-102832419D02*
X74308409Y-102832419D01*
X74308409Y-102832419D02*
X74403647Y-102880038D01*
X74403647Y-102880038D02*
X74451266Y-102927657D01*
X74451266Y-102927657D02*
X74498885Y-103022895D01*
X74498885Y-103022895D02*
X74498885Y-103165752D01*
X74498885Y-103165752D02*
X74451266Y-103260990D01*
X74451266Y-103260990D02*
X74403647Y-103308609D01*
X74403647Y-103308609D02*
X74308409Y-103356228D01*
X74308409Y-103356228D02*
X73927457Y-103356228D01*
X75451266Y-103832419D02*
X74879838Y-103832419D01*
X75165552Y-103832419D02*
X75165552Y-102832419D01*
X75165552Y-102832419D02*
X75070314Y-102975276D01*
X75070314Y-102975276D02*
X74975076Y-103070514D01*
X74975076Y-103070514D02*
X74879838Y-103118133D01*
D11*
X73808333Y-63304819D02*
X73332143Y-63304819D01*
X73332143Y-63304819D02*
X73332143Y-62304819D01*
X74570238Y-62304819D02*
X74379762Y-62304819D01*
X74379762Y-62304819D02*
X74284524Y-62352438D01*
X74284524Y-62352438D02*
X74236905Y-62400057D01*
X74236905Y-62400057D02*
X74141667Y-62542914D01*
X74141667Y-62542914D02*
X74094048Y-62733390D01*
X74094048Y-62733390D02*
X74094048Y-63114342D01*
X74094048Y-63114342D02*
X74141667Y-63209580D01*
X74141667Y-63209580D02*
X74189286Y-63257200D01*
X74189286Y-63257200D02*
X74284524Y-63304819D01*
X74284524Y-63304819D02*
X74475000Y-63304819D01*
X74475000Y-63304819D02*
X74570238Y-63257200D01*
X74570238Y-63257200D02*
X74617857Y-63209580D01*
X74617857Y-63209580D02*
X74665476Y-63114342D01*
X74665476Y-63114342D02*
X74665476Y-62876247D01*
X74665476Y-62876247D02*
X74617857Y-62781009D01*
X74617857Y-62781009D02*
X74570238Y-62733390D01*
X74570238Y-62733390D02*
X74475000Y-62685771D01*
X74475000Y-62685771D02*
X74284524Y-62685771D01*
X74284524Y-62685771D02*
X74189286Y-62733390D01*
X74189286Y-62733390D02*
X74141667Y-62781009D01*
X74141667Y-62781009D02*
X74094048Y-62876247D01*
%TO.C,R13*%
D12*
X126557064Y-109695194D02*
X126102936Y-109695194D01*
X126557064Y-111165194D02*
X126102936Y-111165194D01*
%TO.C,R22*%
X63502500Y-76689564D02*
X63502500Y-76235436D01*
X64972500Y-76689564D02*
X64972500Y-76235436D01*
%TO.C,R19*%
X74752500Y-74985436D02*
X74752500Y-75439564D01*
X76222500Y-74985436D02*
X76222500Y-75439564D01*
%TO.C,C27*%
X91990000Y-106180452D02*
X91990000Y-105657948D01*
X93460000Y-106180452D02*
X93460000Y-105657948D01*
%TO.C,U1*%
D13*
X110360000Y-76512500D02*
X111060000Y-76512500D01*
X110360000Y-76962500D02*
X110360000Y-76512500D01*
X110360000Y-79862500D02*
X110360000Y-80312500D01*
X110360000Y-80312500D02*
X111060000Y-80312500D01*
X113460000Y-80312500D02*
X114160000Y-80312500D01*
X114160000Y-76512500D02*
X113460000Y-76512500D01*
X114160000Y-76962500D02*
X114160000Y-76512500D01*
X114160000Y-80312500D02*
X114160000Y-79862500D01*
D14*
X110990000Y-75999500D02*
G75*
G02*
X110736000Y-75999500I-127000J0D01*
G01*
X110736000Y-75999500D02*
G75*
G02*
X110990000Y-75999500I127000J0D01*
G01*
%TO.C,C26*%
D12*
X81490000Y-97338748D02*
X81490000Y-97861252D01*
X82960000Y-97338748D02*
X82960000Y-97861252D01*
%TO.C,L5*%
X118390000Y-90790000D02*
X118390000Y-92710000D01*
X118390000Y-92710000D02*
X121250000Y-92710000D01*
X121250000Y-90790000D02*
X118390000Y-90790000D01*
%TO.C,C3*%
X110248748Y-83527500D02*
X110771252Y-83527500D01*
X110248748Y-84997500D02*
X110771252Y-84997500D01*
%TO.C,R9*%
X110302936Y-111895194D02*
X110757064Y-111895194D01*
X110302936Y-113365194D02*
X110757064Y-113365194D01*
%TO.C,R37*%
X80713748Y-116140000D02*
X81236252Y-116140000D01*
X80713748Y-117610000D02*
X81236252Y-117610000D01*
%TO.C,C16*%
X114591252Y-109895194D02*
X114068748Y-109895194D01*
X114591252Y-111365194D02*
X114068748Y-111365194D01*
%TO.C,C12*%
X98775000Y-103091446D02*
X98775000Y-102568942D01*
X100245000Y-103091446D02*
X100245000Y-102568942D01*
%TO.C,C6*%
X104775000Y-78723752D02*
X104775000Y-78201248D01*
X106245000Y-78723752D02*
X106245000Y-78201248D01*
%TO.C,U5*%
D13*
X110380000Y-100880194D02*
X111080000Y-100880194D01*
X110380000Y-101330194D02*
X110380000Y-100880194D01*
X110380000Y-104230194D02*
X110380000Y-104680194D01*
X110380000Y-104680194D02*
X111080000Y-104680194D01*
X113480000Y-104680194D02*
X114180000Y-104680194D01*
X114180000Y-100880194D02*
X113480000Y-100880194D01*
X114180000Y-101330194D02*
X114180000Y-100880194D01*
X114180000Y-104680194D02*
X114180000Y-104230194D01*
D14*
X111010000Y-100367194D02*
G75*
G02*
X110756000Y-100367194I-127000J0D01*
G01*
X110756000Y-100367194D02*
G75*
G02*
X111010000Y-100367194I127000J0D01*
G01*
%TO.C,R26*%
D12*
X98090000Y-62796686D02*
X98090000Y-63250814D01*
X99560000Y-62796686D02*
X99560000Y-63250814D01*
%TO.C,ID2*%
X94615000Y-105907948D02*
X94615000Y-106430452D01*
X96835000Y-105907948D02*
X96835000Y-106430452D01*
%TO.C,U3*%
X136050000Y-73352500D02*
X136050000Y-74612500D01*
X136050000Y-80172500D02*
X136050000Y-78912500D01*
X139810000Y-73352500D02*
X136050000Y-73352500D01*
X139810000Y-80172500D02*
X136050000Y-80172500D01*
X141330000Y-80402500D02*
X140850000Y-80402500D01*
X141090000Y-80072500D01*
X141330000Y-80402500D01*
G36*
X141330000Y-80402500D02*
G01*
X140850000Y-80402500D01*
X141090000Y-80072500D01*
X141330000Y-80402500D01*
G37*
%TO.C,R5*%
X110082936Y-72927500D02*
X110537064Y-72927500D01*
X110082936Y-74397500D02*
X110537064Y-74397500D01*
%TO.C,R40*%
X84240000Y-118557864D02*
X84240000Y-118103736D01*
X85710000Y-118557864D02*
X85710000Y-118103736D01*
%TO.C,R12*%
X116795000Y-109403130D02*
X116795000Y-109857258D01*
X118265000Y-109403130D02*
X118265000Y-109857258D01*
%TO.C,L2*%
D10*
X121530000Y-97530194D02*
X131530000Y-97530194D01*
X131530000Y-107530194D01*
X121530000Y-107530194D01*
X121530000Y-97530194D01*
%TO.C,C9*%
D12*
X114571252Y-85527500D02*
X114048748Y-85527500D01*
X114571252Y-86997500D02*
X114048748Y-86997500D01*
%TO.C,C29*%
X94213748Y-109390000D02*
X94736252Y-109390000D01*
X94213748Y-110860000D02*
X94736252Y-110860000D01*
%TO.C,C18*%
X126591252Y-94695194D02*
X126068748Y-94695194D01*
X126591252Y-96165194D02*
X126068748Y-96165194D01*
%TO.C,U12*%
X83677500Y-62940000D02*
X85197500Y-62940000D01*
X83677500Y-63940000D02*
X83677500Y-62940000D01*
X83677500Y-66060000D02*
X83677500Y-65060000D01*
X85197500Y-62940000D02*
X85197500Y-62990000D01*
X85197500Y-64110000D02*
X85197500Y-64890000D01*
X85197500Y-66010000D02*
X85197500Y-66060000D01*
X85197500Y-66060000D02*
X83677500Y-66060000D01*
X85737500Y-64880000D02*
X85497500Y-64550000D01*
X85977500Y-64550000D01*
X85737500Y-64880000D01*
G36*
X85737500Y-64880000D02*
G01*
X85497500Y-64550000D01*
X85977500Y-64550000D01*
X85737500Y-64880000D01*
G37*
%TO.C,R28*%
X112340000Y-62546686D02*
X112340000Y-63000814D01*
X113810000Y-62546686D02*
X113810000Y-63000814D01*
%TO.C,C10*%
X104795000Y-103091446D02*
X104795000Y-102568942D01*
X106265000Y-103091446D02*
X106265000Y-102568942D01*
%TO.C,R8*%
X137825000Y-82597936D02*
X137825000Y-83052064D01*
X139295000Y-82597936D02*
X139295000Y-83052064D01*
%TO.C,U20*%
D15*
X103999000Y-61605250D02*
X103999000Y-64757250D01*
X103999000Y-64757250D02*
X104244500Y-64757250D01*
X104244500Y-61605250D02*
X103999000Y-61605250D01*
X106905500Y-61605250D02*
X107151000Y-61605250D01*
X107151000Y-61605250D02*
X107151000Y-64757250D01*
X107151000Y-64757250D02*
X106905500Y-64757250D01*
D11*
X106650000Y-61141250D02*
G75*
G02*
X106500000Y-61141250I-75000J0D01*
G01*
X106500000Y-61141250D02*
G75*
G02*
X106650000Y-61141250I75000J0D01*
G01*
%TO.C,R25*%
D12*
X78522936Y-63765000D02*
X78977064Y-63765000D01*
X78522936Y-65235000D02*
X78977064Y-65235000D01*
%TO.C,U15*%
X71037500Y-87772500D02*
X70237500Y-87772500D01*
X71037500Y-87772500D02*
X71837500Y-87772500D01*
X72037500Y-84552500D02*
X70237500Y-84552500D01*
X72577500Y-88052500D02*
X72097500Y-88052500D01*
X72337500Y-87722500D01*
X72577500Y-88052500D01*
G36*
X72577500Y-88052500D02*
G01*
X72097500Y-88052500D01*
X72337500Y-87722500D01*
X72577500Y-88052500D01*
G37*
%TO.C,R31*%
X80747936Y-113890000D02*
X81202064Y-113890000D01*
X80747936Y-115360000D02*
X81202064Y-115360000D01*
%TO.C,U2*%
X143937500Y-77065000D02*
X145457500Y-77065000D01*
X143937500Y-78065000D02*
X143937500Y-77065000D01*
X143937500Y-80185000D02*
X143937500Y-79185000D01*
X145457500Y-77065000D02*
X145457500Y-77115000D01*
X145457500Y-78235000D02*
X145457500Y-79015000D01*
X145457500Y-80135000D02*
X145457500Y-80185000D01*
X145457500Y-80185000D02*
X143937500Y-80185000D01*
X145997500Y-79005000D02*
X145757500Y-78675000D01*
X146237500Y-78675000D01*
X145997500Y-79005000D01*
G36*
X145997500Y-79005000D02*
G01*
X145757500Y-78675000D01*
X146237500Y-78675000D01*
X145997500Y-79005000D01*
G37*
%TO.C,R6*%
X116775000Y-85035436D02*
X116775000Y-85489564D01*
X118245000Y-85035436D02*
X118245000Y-85489564D01*
%TO.C,U11*%
X70987500Y-76622500D02*
X70187500Y-76622500D01*
X70987500Y-76622500D02*
X71787500Y-76622500D01*
X71987500Y-73402500D02*
X70187500Y-73402500D01*
X72527500Y-76902500D02*
X72047500Y-76902500D01*
X72287500Y-76572500D01*
X72527500Y-76902500D01*
G36*
X72527500Y-76902500D02*
G01*
X72047500Y-76902500D01*
X72287500Y-76572500D01*
X72527500Y-76902500D01*
G37*
%TO.C,R14*%
X110302936Y-105895194D02*
X110757064Y-105895194D01*
X110302936Y-107365194D02*
X110757064Y-107365194D01*
%TO.C,R10*%
X114557064Y-111895194D02*
X114102936Y-111895194D01*
X114557064Y-113365194D02*
X114102936Y-113365194D01*
%TO.C,C13*%
X110268748Y-107895194D02*
X110791252Y-107895194D01*
X110268748Y-109365194D02*
X110791252Y-109365194D01*
%TO.C,U14*%
X73907500Y-80452500D02*
X74837500Y-80452500D01*
X73907500Y-81252500D02*
X73907500Y-80452500D01*
X73907500Y-81252500D02*
X73907500Y-82052500D01*
X77067500Y-80452500D02*
X76137500Y-80452500D01*
X77067500Y-80452500D02*
X77067500Y-81912500D01*
X73877500Y-82552500D02*
X73547500Y-82792500D01*
X73547500Y-82312500D01*
X73877500Y-82552500D01*
G36*
X73877500Y-82552500D02*
G01*
X73547500Y-82792500D01*
X73547500Y-82312500D01*
X73877500Y-82552500D01*
G37*
%TO.C,C5*%
X101765000Y-78723752D02*
X101765000Y-78201248D01*
X103235000Y-78723752D02*
X103235000Y-78201248D01*
%TO.C,R41*%
X79240000Y-101622936D02*
X79240000Y-102077064D01*
X80710000Y-101622936D02*
X80710000Y-102077064D01*
%TO.C,R24*%
X74552500Y-86985436D02*
X74552500Y-87439564D01*
X76022500Y-86985436D02*
X76022500Y-87439564D01*
%TO.C,U21*%
X89415000Y-63923750D02*
X89415000Y-67683750D01*
X89415000Y-67683750D02*
X90675000Y-67683750D01*
X96235000Y-63923750D02*
X96235000Y-67683750D01*
X96235000Y-67683750D02*
X94975000Y-67683750D01*
X96465000Y-62883750D02*
X96135000Y-62643750D01*
X96465000Y-62403750D01*
X96465000Y-62883750D01*
G36*
X96465000Y-62883750D02*
G01*
X96135000Y-62643750D01*
X96465000Y-62403750D01*
X96465000Y-62883750D01*
G37*
%TO.C,U18*%
X84275000Y-96725000D02*
X84275000Y-103145000D01*
X84275000Y-103145000D02*
X84545000Y-103145000D01*
X91175000Y-96725000D02*
X91175000Y-103145000D01*
X91175000Y-103145000D02*
X90905000Y-103145000D01*
X84585000Y-104875000D02*
X84115000Y-105215000D01*
X84115000Y-104535000D01*
X84585000Y-104875000D01*
G36*
X84585000Y-104875000D02*
G01*
X84115000Y-105215000D01*
X84115000Y-104535000D01*
X84585000Y-104875000D01*
G37*
%TO.C,R15*%
X146382500Y-106778130D02*
X146382500Y-107232258D01*
X147852500Y-106778130D02*
X147852500Y-107232258D01*
%TO.C,R16*%
X138382500Y-106978130D02*
X138382500Y-107432258D01*
X139852500Y-106978130D02*
X139852500Y-107432258D01*
%TO.C,R27*%
X105347936Y-66538750D02*
X105802064Y-66538750D01*
X105347936Y-68008750D02*
X105802064Y-68008750D01*
%TO.C,R39*%
X87015000Y-120302064D02*
X87015000Y-115947936D01*
X90435000Y-120302064D02*
X90435000Y-115947936D01*
%TO.C,U17*%
X73707500Y-91202500D02*
X74637500Y-91202500D01*
X73707500Y-92002500D02*
X73707500Y-91202500D01*
X73707500Y-92002500D02*
X73707500Y-92802500D01*
X76867500Y-91202500D02*
X75937500Y-91202500D01*
X76867500Y-91202500D02*
X76867500Y-92662500D01*
X73677500Y-93302500D02*
X73347500Y-93542500D01*
X73347500Y-93062500D01*
X73677500Y-93302500D01*
G36*
X73677500Y-93302500D02*
G01*
X73347500Y-93542500D01*
X73347500Y-93062500D01*
X73677500Y-93302500D01*
G37*
%TO.C,L3*%
X118865000Y-67040000D02*
X118865000Y-68960000D01*
X118865000Y-68960000D02*
X121725000Y-68960000D01*
X121725000Y-67040000D02*
X118865000Y-67040000D01*
%TO.C,R3*%
X110282936Y-87527500D02*
X110737064Y-87527500D01*
X110282936Y-88997500D02*
X110737064Y-88997500D01*
%TO.C,R23*%
X64052500Y-84985436D02*
X64052500Y-85439564D01*
X65522500Y-84985436D02*
X65522500Y-85439564D01*
%TO.C,C21*%
X65752500Y-76201248D02*
X65752500Y-76723752D01*
X67222500Y-76201248D02*
X67222500Y-76723752D01*
%TO.C,C2*%
X126571252Y-70327500D02*
X126048748Y-70327500D01*
X126571252Y-71797500D02*
X126048748Y-71797500D01*
%TO.C,C30*%
X97773348Y-111640000D02*
X98295852Y-111640000D01*
X97773348Y-113110000D02*
X98295852Y-113110000D01*
%TO.C,C15*%
X114068748Y-105895194D02*
X114591252Y-105895194D01*
X114068748Y-107365194D02*
X114591252Y-107365194D01*
%TO.C,R18*%
X113765000Y-71272936D02*
X113765000Y-71727064D01*
X115235000Y-71272936D02*
X115235000Y-71727064D01*
%TO.C,R34*%
X80747936Y-106390000D02*
X81202064Y-106390000D01*
X80747936Y-107860000D02*
X81202064Y-107860000D01*
%TO.C,L1*%
D10*
X121510000Y-73162500D02*
X131510000Y-73162500D01*
X131510000Y-83162500D01*
X121510000Y-83162500D01*
X121510000Y-73162500D01*
%TO.C,R20*%
D12*
X113765000Y-96522936D02*
X113765000Y-96977064D01*
X115235000Y-96522936D02*
X115235000Y-96977064D01*
%TO.C,R11*%
X110102936Y-97295194D02*
X110557064Y-97295194D01*
X110102936Y-98765194D02*
X110557064Y-98765194D01*
%TO.C,R1*%
X126537064Y-85327500D02*
X126082936Y-85327500D01*
X126537064Y-86797500D02*
X126082936Y-86797500D01*
%TO.C,C1*%
X117848748Y-73327500D02*
X118371252Y-73327500D01*
X117848748Y-74797500D02*
X118371252Y-74797500D01*
%TO.C,C8*%
X114571252Y-83527500D02*
X114048748Y-83527500D01*
X114571252Y-84997500D02*
X114048748Y-84997500D01*
%TO.C,R38*%
X74023348Y-106390000D02*
X74545852Y-106390000D01*
X74023348Y-107860000D02*
X74545852Y-107860000D01*
%TO.C,C7*%
X114048748Y-81527500D02*
X114571252Y-81527500D01*
X114048748Y-82997500D02*
X114571252Y-82997500D01*
%TO.C,C11*%
X101785000Y-103091446D02*
X101785000Y-102568942D01*
X103255000Y-103091446D02*
X103255000Y-102568942D01*
%TO.C,U8*%
X144495000Y-101445194D02*
X146015000Y-101445194D01*
X144495000Y-102445194D02*
X144495000Y-101445194D01*
X144495000Y-104565194D02*
X144495000Y-103565194D01*
X146015000Y-101445194D02*
X146015000Y-101495194D01*
X146015000Y-102615194D02*
X146015000Y-103395194D01*
X146015000Y-104515194D02*
X146015000Y-104565194D01*
X146015000Y-104565194D02*
X144495000Y-104565194D01*
X146555000Y-103385194D02*
X146315000Y-103055194D01*
X146795000Y-103055194D01*
X146555000Y-103385194D01*
G36*
X146555000Y-103385194D02*
G01*
X146315000Y-103055194D01*
X146795000Y-103055194D01*
X146555000Y-103385194D01*
G37*
%TO.C,C28*%
X91740000Y-118342052D02*
X91740000Y-117819548D01*
X93210000Y-118342052D02*
X93210000Y-117819548D01*
%TO.C,U16*%
X69457500Y-92722500D02*
X69457500Y-91262500D01*
X69457500Y-92722500D02*
X70387500Y-92722500D01*
X72617500Y-91922500D02*
X72617500Y-91122500D01*
X72617500Y-91922500D02*
X72617500Y-92722500D01*
X72617500Y-92722500D02*
X71687500Y-92722500D01*
X72977500Y-90862500D02*
X72647500Y-90622500D01*
X72977500Y-90382500D01*
X72977500Y-90862500D01*
G36*
X72977500Y-90862500D02*
G01*
X72647500Y-90622500D01*
X72977500Y-90382500D01*
X72977500Y-90862500D01*
G37*
%TO.C,U10*%
D16*
X86303300Y-108247500D02*
X86303300Y-108709460D01*
X86303300Y-112128940D02*
X86303300Y-112590900D01*
X86303300Y-112590900D02*
X86765260Y-112590900D01*
X86765260Y-108247500D02*
X86303300Y-108247500D01*
X90184740Y-112590900D02*
X90646700Y-112590900D01*
X90646700Y-108247500D02*
X90184740Y-108247500D01*
X90646700Y-108709460D02*
X90646700Y-108247500D01*
X90646700Y-112590900D02*
X90646700Y-112128940D01*
D17*
G36*
X88915500Y-113276700D02*
G01*
X88534499Y-113276700D01*
X88534499Y-113022700D01*
X88915500Y-113022700D01*
X88915500Y-113276700D01*
G37*
G36*
X89415501Y-107815700D02*
G01*
X89034501Y-107815700D01*
X89034501Y-107561700D01*
X89415501Y-107561700D01*
X89415501Y-107815700D01*
G37*
%TO.C,R21*%
D12*
X101015000Y-63477064D02*
X101015000Y-63022936D01*
X102485000Y-63477064D02*
X102485000Y-63022936D01*
%TO.C,U6*%
X141557500Y-106707694D02*
X141607500Y-106707694D01*
X141557500Y-108227694D02*
X141557500Y-106707694D01*
X142557500Y-108227694D02*
X141557500Y-108227694D01*
X142727500Y-106707694D02*
X143507500Y-106707694D01*
X144627500Y-106707694D02*
X144677500Y-106707694D01*
X144677500Y-106707694D02*
X144677500Y-108227694D01*
X144677500Y-108227694D02*
X143677500Y-108227694D01*
X143497500Y-106167694D02*
X143167500Y-106407694D01*
X143167500Y-105927694D01*
X143497500Y-106167694D01*
G36*
X143497500Y-106167694D02*
G01*
X143167500Y-106407694D01*
X143167500Y-105927694D01*
X143497500Y-106167694D01*
G37*
%TO.C,R7*%
X145825000Y-82397936D02*
X145825000Y-82852064D01*
X147295000Y-82397936D02*
X147295000Y-82852064D01*
%TO.C,C22*%
X66302500Y-87201248D02*
X66302500Y-87723752D01*
X67772500Y-87201248D02*
X67772500Y-87723752D01*
%TO.C,R17*%
X129175000Y-91089564D02*
X129175000Y-90635436D01*
X130645000Y-91089564D02*
X130645000Y-90635436D01*
%TO.C,U9*%
X125412500Y-89252500D02*
X126932500Y-89252500D01*
X125412500Y-90252500D02*
X125412500Y-89252500D01*
X125412500Y-92372500D02*
X125412500Y-91372500D01*
X126932500Y-89252500D02*
X126932500Y-89302500D01*
X126932500Y-90422500D02*
X126932500Y-91202500D01*
X126932500Y-92322500D02*
X126932500Y-92372500D01*
X126932500Y-92372500D02*
X125412500Y-92372500D01*
X127472500Y-91192500D02*
X127232500Y-90862500D01*
X127712500Y-90862500D01*
X127472500Y-91192500D01*
G36*
X127472500Y-91192500D02*
G01*
X127232500Y-90862500D01*
X127712500Y-90862500D01*
X127472500Y-91192500D01*
G37*
%TO.C,L4*%
X81265000Y-100850000D02*
X81265000Y-103710000D01*
X81265000Y-103710000D02*
X83185000Y-103710000D01*
X83185000Y-103710000D02*
X83185000Y-100850000D01*
%TO.C,C4*%
X98755000Y-78723752D02*
X98755000Y-78201248D01*
X100225000Y-78723752D02*
X100225000Y-78201248D01*
%TO.C,U13*%
X69607500Y-81972500D02*
X69607500Y-80512500D01*
X69607500Y-81972500D02*
X70537500Y-81972500D01*
X72767500Y-81172500D02*
X72767500Y-80372500D01*
X72767500Y-81172500D02*
X72767500Y-81972500D01*
X72767500Y-81972500D02*
X71837500Y-81972500D01*
X73127500Y-80112500D02*
X72797500Y-79872500D01*
X73127500Y-79632500D01*
X73127500Y-80112500D01*
G36*
X73127500Y-80112500D02*
G01*
X72797500Y-79872500D01*
X73127500Y-79632500D01*
X73127500Y-80112500D01*
G37*
%TO.C,R36*%
X74545852Y-108640000D02*
X74023348Y-108640000D01*
X74545852Y-110110000D02*
X74023348Y-110110000D01*
%TO.C,R32*%
X80747936Y-111640000D02*
X81202064Y-111640000D01*
X80747936Y-113110000D02*
X81202064Y-113110000D01*
%TO.C,U4*%
X141000000Y-82327500D02*
X141050000Y-82327500D01*
X141000000Y-83847500D02*
X141000000Y-82327500D01*
X142000000Y-83847500D02*
X141000000Y-83847500D01*
X142170000Y-82327500D02*
X142950000Y-82327500D01*
X144070000Y-82327500D02*
X144120000Y-82327500D01*
X144120000Y-82327500D02*
X144120000Y-83847500D01*
X144120000Y-83847500D02*
X143120000Y-83847500D01*
X142940000Y-81787500D02*
X142610000Y-82027500D01*
X142610000Y-81547500D01*
X142940000Y-81787500D01*
G36*
X142940000Y-81787500D02*
G01*
X142610000Y-82027500D01*
X142610000Y-81547500D01*
X142940000Y-81787500D01*
G37*
%TO.C,R2*%
X110282936Y-81527500D02*
X110737064Y-81527500D01*
X110282936Y-82997500D02*
X110737064Y-82997500D01*
%TO.C,C20*%
X109590000Y-62512498D02*
X109590000Y-63035002D01*
X111060000Y-62512498D02*
X111060000Y-63035002D01*
%TO.C,U7*%
X136607500Y-97732694D02*
X136607500Y-98992694D01*
X136607500Y-104552694D02*
X136607500Y-103292694D01*
X140367500Y-97732694D02*
X136607500Y-97732694D01*
X140367500Y-104552694D02*
X136607500Y-104552694D01*
X141887500Y-104782694D02*
X141407500Y-104782694D01*
X141647500Y-104452694D01*
X141887500Y-104782694D01*
G36*
X141887500Y-104782694D02*
G01*
X141407500Y-104782694D01*
X141647500Y-104452694D01*
X141887500Y-104782694D01*
G37*
%TO.C,USBC2*%
D14*
X100529000Y-49153750D02*
X100529000Y-50635250D01*
X100529000Y-49153750D02*
X109469000Y-49153750D01*
X100529000Y-52871750D02*
X100529000Y-54735250D01*
X109469000Y-49153750D02*
X109469000Y-50634750D01*
X109469000Y-52872250D02*
X109469000Y-54734750D01*
%TO.C,C17*%
D12*
X117868748Y-97695194D02*
X118391252Y-97695194D01*
X117868748Y-99165194D02*
X118391252Y-99165194D01*
%TO.C,R33*%
X80747936Y-109390000D02*
X81202064Y-109390000D01*
X80747936Y-110860000D02*
X81202064Y-110860000D01*
%TO.C,R4*%
X114537064Y-87527500D02*
X114082936Y-87527500D01*
X114537064Y-88997500D02*
X114082936Y-88997500D01*
%TO.C,C14*%
X114591252Y-107895194D02*
X114068748Y-107895194D01*
X114591252Y-109365194D02*
X114068748Y-109365194D01*
%TO.C,TR1*%
D13*
X70284600Y-101375000D02*
G75*
G02*
X78284600Y-101375000I4000000J0D01*
G01*
X78284600Y-101375000D02*
G75*
G02*
X70284600Y-101375000I-4000000J0D01*
G01*
%TO.C,L6*%
D12*
X72115000Y-63540000D02*
X72115000Y-65460000D01*
X72115000Y-65460000D02*
X74975000Y-65460000D01*
X74975000Y-63540000D02*
X72115000Y-63540000D01*
%TD*%
M02*
