%TF.GenerationSoftware,KiCad,Pcbnew,10.0.1*%
%TF.CreationDate,2026-05-28T20:16:35+10:00*%
%TF.ProjectId,PowerBox_PCB,506f7765-7242-46f7-985f-5043422e6b69,rev?*%
%TF.SameCoordinates,Original*%
%TF.FileFunction,Paste,Top*%
%TF.FilePolarity,Positive*%
%FSLAX46Y46*%
G04 Gerber Fmt 4.6, Leading zero omitted, Abs format (unit mm)*
G04 Created by KiCad (PCBNEW 10.0.1) date 2026-05-28 20:16:35*
%MOMM*%
%LPD*%
G01*
G04 APERTURE LIST*
G04 Aperture macros list*
%AMRoundRect*
0 Rectangle with rounded corners*
0 $1 Rounding radius*
0 $2 $3 $4 $5 $6 $7 $8 $9 X,Y pos of 4 corners*
0 Add a 4 corners polygon primitive as box body*
4,1,4,$2,$3,$4,$5,$6,$7,$8,$9,$2,$3,0*
0 Add four circle primitives for the rounded corners*
1,1,$1+$1,$2,$3*
1,1,$1+$1,$4,$5*
1,1,$1+$1,$6,$7*
1,1,$1+$1,$8,$9*
0 Add four rect primitives between the rounded corners*
20,1,$1+$1,$2,$3,$4,$5,0*
20,1,$1+$1,$4,$5,$6,$7,0*
20,1,$1+$1,$6,$7,$8,$9,0*
20,1,$1+$1,$8,$9,$2,$3,0*%
%AMFreePoly0*
4,1,21,-0.160000,1.440000,0.160000,1.440000,0.160000,2.160000,0.400000,2.160000,0.400000,1.016000,1.016000,1.016000,1.016000,-1.016000,0.400000,-1.016000,0.400000,-2.160000,0.160000,-2.160000,0.160000,-1.440000,-0.160000,-1.440000,-0.160000,-2.160000,-0.400000,-2.160000,-0.400000,-1.016000,-1.016000,-1.016000,-1.016000,1.016000,-0.400000,1.016000,-0.400000,2.160000,-0.160000,2.160000,
-0.160000,1.440000,-0.160000,1.440000,$1*%
%AMFreePoly1*
4,1,5,0.300000,-0.650000,-0.300000,-0.650000,-0.300000,0.650000,0.300000,0.650000,0.300000,-0.650000,0.300000,-0.650000,$1*%
%AMFreePoly2*
4,1,5,0.299500,-0.650000,-0.300500,-0.650000,-0.300500,0.650000,0.299500,0.650000,0.299500,-0.650000,0.299500,-0.650000,$1*%
G04 Aperture macros list end*
%ADD10C,0.000000*%
%ADD11RoundRect,0.250000X0.350000X0.450000X-0.350000X0.450000X-0.350000X-0.450000X0.350000X-0.450000X0*%
%ADD12RoundRect,0.250000X0.450000X-0.350000X0.450000X0.350000X-0.450000X0.350000X-0.450000X-0.350000X0*%
%ADD13RoundRect,0.300000X-0.700000X-0.700000X0.700000X-0.700000X0.700000X0.700000X-0.700000X0.700000X0*%
%ADD14RoundRect,0.250000X-0.450000X0.350000X-0.450000X-0.350000X0.450000X-0.350000X0.450000X0.350000X0*%
%ADD15RoundRect,0.250000X0.475000X-0.337500X0.475000X0.337500X-0.475000X0.337500X-0.475000X-0.337500X0*%
%ADD16R,0.280000X0.800000*%
%ADD17R,0.800000X0.280000*%
%ADD18FreePoly0,0.000000*%
%ADD19RoundRect,0.250000X-0.475000X0.337500X-0.475000X-0.337500X0.475000X-0.337500X0.475000X0.337500X0*%
%ADD20RoundRect,0.250000X-0.325000X-0.450000X0.325000X-0.450000X0.325000X0.450000X-0.325000X0.450000X0*%
%ADD21RoundRect,0.250000X-0.337500X-0.475000X0.337500X-0.475000X0.337500X0.475000X-0.337500X0.475000X0*%
%ADD22RoundRect,0.250000X-0.350000X-0.450000X0.350000X-0.450000X0.350000X0.450000X-0.350000X0.450000X0*%
%ADD23RoundRect,0.250000X0.337500X0.475000X-0.337500X0.475000X-0.337500X-0.475000X0.337500X-0.475000X0*%
%ADD24RoundRect,0.250001X-0.849999X0.462499X-0.849999X-0.462499X0.849999X-0.462499X0.849999X0.462499X0*%
%ADD25RoundRect,0.375000X0.625000X0.375000X-0.625000X0.375000X-0.625000X-0.375000X0.625000X-0.375000X0*%
%ADD26RoundRect,0.500000X0.500000X1.400000X-0.500000X1.400000X-0.500000X-1.400000X0.500000X-1.400000X0*%
%ADD27RoundRect,0.255000X0.595000X-1.845000X0.595000X1.845000X-0.595000X1.845000X-0.595000X-1.845000X0*%
%ADD28RoundRect,0.150000X0.587500X0.150000X-0.587500X0.150000X-0.587500X-0.150000X0.587500X-0.150000X0*%
%ADD29R,0.280000X0.665000*%
%ADD30R,2.500000X1.500000*%
%ADD31RoundRect,0.162500X0.617500X0.162500X-0.617500X0.162500X-0.617500X-0.162500X0.617500X-0.162500X0*%
%ADD32RoundRect,0.200000X0.200000X-0.750000X0.200000X0.750000X-0.200000X0.750000X-0.200000X-0.750000X0*%
%ADD33RoundRect,0.375000X-0.375000X0.625000X-0.375000X-0.625000X0.375000X-0.625000X0.375000X0.625000X0*%
%ADD34RoundRect,0.500000X-1.400000X0.500000X-1.400000X-0.500000X1.400000X-0.500000X1.400000X0.500000X0*%
%ADD35RoundRect,0.250000X1.125000X-1.275000X1.125000X1.275000X-1.125000X1.275000X-1.125000X-1.275000X0*%
%ADD36RoundRect,0.250000X0.350000X-0.850000X0.350000X0.850000X-0.350000X0.850000X-0.350000X-0.850000X0*%
%ADD37RoundRect,0.249999X1.425001X-0.450001X1.425001X0.450001X-1.425001X0.450001X-1.425001X-0.450001X0*%
%ADD38RoundRect,0.200000X-0.200000X0.750000X-0.200000X-0.750000X0.200000X-0.750000X0.200000X0.750000X0*%
%ADD39R,0.787400X0.254000*%
%ADD40R,0.254000X0.787400*%
%ADD41R,2.600000X2.600000*%
%ADD42RoundRect,0.150000X-0.150000X0.587500X-0.150000X-0.587500X0.150000X-0.587500X0.150000X0.587500X0*%
%ADD43RoundRect,0.250000X0.450000X-0.325000X0.450000X0.325000X-0.450000X0.325000X-0.450000X-0.325000X0*%
%ADD44FreePoly1,180.000000*%
%ADD45R,0.300000X1.300000*%
%ADD46FreePoly2,180.000000*%
G04 APERTURE END LIST*
D10*
%TO.C,USBC2*%
G36*
X103400000Y-57371750D02*
G01*
X103100000Y-57371750D01*
X103100000Y-56071750D01*
X103400000Y-56071750D01*
X103400000Y-57371750D01*
G37*
G36*
X103900500Y-57371750D02*
G01*
X103600500Y-57371750D01*
X103600500Y-56071750D01*
X103900500Y-56071750D01*
X103900500Y-57371750D01*
G37*
G36*
X104400000Y-57371750D02*
G01*
X104100000Y-57371750D01*
X104100000Y-56071750D01*
X104400000Y-56071750D01*
X104400000Y-57371750D01*
G37*
G36*
X104900000Y-57371750D02*
G01*
X104600000Y-57371750D01*
X104600000Y-56071750D01*
X104900000Y-56071750D01*
X104900000Y-57371750D01*
G37*
G36*
X105400000Y-57371750D02*
G01*
X105100000Y-57371750D01*
X105100000Y-56071750D01*
X105400000Y-56071750D01*
X105400000Y-57371750D01*
G37*
G36*
X105900000Y-57371750D02*
G01*
X105600000Y-57371750D01*
X105600000Y-56071750D01*
X105900000Y-56071750D01*
X105900000Y-57371750D01*
G37*
G36*
X106400000Y-57371750D02*
G01*
X106100000Y-57371750D01*
X106100000Y-56071750D01*
X106400000Y-56071750D01*
X106400000Y-57371750D01*
G37*
G36*
X106900000Y-57371750D02*
G01*
X106600000Y-57371750D01*
X106600000Y-56071750D01*
X106900000Y-56071750D01*
X106900000Y-57371750D01*
G37*
G36*
X102100000Y-57371750D02*
G01*
X101800000Y-57371750D01*
X101500000Y-57371750D01*
X101500000Y-56071750D01*
X101800000Y-56071750D01*
X102100000Y-56071750D01*
X102100000Y-57371750D01*
G37*
G36*
X102900000Y-57371750D02*
G01*
X102600000Y-57371750D01*
X102300000Y-57371750D01*
X102300000Y-56071750D01*
X102600000Y-56071750D01*
X102900000Y-56071750D01*
X102900000Y-57371750D01*
G37*
G36*
X107700000Y-57371750D02*
G01*
X107400000Y-57371750D01*
X107100000Y-57371750D01*
X107100000Y-56071750D01*
X107400000Y-56071750D01*
X107700000Y-56071750D01*
X107700000Y-57371750D01*
G37*
G36*
X108500000Y-57371750D02*
G01*
X108200000Y-57371750D01*
X107900000Y-57371750D01*
X107900000Y-56071750D01*
X108200000Y-56071750D01*
X108500000Y-56071750D01*
X108500000Y-57371750D01*
G37*
G36*
X100719500Y-50875250D02*
G01*
X100749500Y-50878250D01*
X100779000Y-50882750D01*
X100808500Y-50888750D01*
X100837500Y-50896250D01*
X100866000Y-50904750D01*
X100894000Y-50915250D01*
X100921500Y-50926750D01*
X100948500Y-50939750D01*
X100975000Y-50953750D01*
X101000500Y-50969750D01*
X101025000Y-50986250D01*
X101049000Y-51004750D01*
X101072000Y-51023750D01*
X101094000Y-51044250D01*
X101114500Y-51065250D01*
X101134500Y-51087750D01*
X101153000Y-51111250D01*
X101170500Y-51135750D01*
X101187000Y-51160750D01*
X101202000Y-51186750D01*
X101215500Y-51213250D01*
X101228000Y-51240750D01*
X101238500Y-51268250D01*
X101248000Y-51296750D01*
X101256500Y-51325750D01*
X101263000Y-51354750D01*
X101268000Y-51384250D01*
X101272000Y-51413750D01*
X101274000Y-51443750D01*
X101275000Y-51473750D01*
X101275000Y-52073750D01*
X101274000Y-52103250D01*
X101272000Y-52133250D01*
X101268000Y-52163250D01*
X101263000Y-52192250D01*
X101256500Y-52221750D01*
X101248000Y-52250250D01*
X101238500Y-52278750D01*
X101228000Y-52306750D01*
X101215500Y-52333750D01*
X101202000Y-52360750D01*
X101187000Y-52386250D01*
X101170500Y-52411750D01*
X101153000Y-52435750D01*
X101134500Y-52459250D01*
X101114500Y-52481750D01*
X101094000Y-52503250D01*
X101072000Y-52523250D01*
X101049000Y-52542750D01*
X101025000Y-52560750D01*
X101000500Y-52577750D01*
X100975000Y-52593250D01*
X100948500Y-52607750D01*
X100921500Y-52620250D01*
X100894000Y-52632250D01*
X100866000Y-52642250D01*
X100837500Y-52651250D01*
X100808500Y-52658750D01*
X100779000Y-52664250D01*
X100749500Y-52668750D01*
X100719500Y-52671750D01*
X100690000Y-52673250D01*
X100660000Y-52673250D01*
X100630000Y-52671750D01*
X100600500Y-52668750D01*
X100570500Y-52664250D01*
X100541500Y-52658750D01*
X100512500Y-52651250D01*
X100484000Y-52642250D01*
X100455500Y-52632250D01*
X100428000Y-52620250D01*
X100401000Y-52607750D01*
X100375000Y-52593250D01*
X100349500Y-52577750D01*
X100324500Y-52560750D01*
X100301000Y-52542750D01*
X100278000Y-52523250D01*
X100256000Y-52503250D01*
X100235000Y-52481750D01*
X100215000Y-52459250D01*
X100196500Y-52435750D01*
X100179000Y-52411750D01*
X100163000Y-52386250D01*
X100148000Y-52360750D01*
X100134500Y-52333750D01*
X100122000Y-52306750D01*
X100111000Y-52278750D01*
X100101500Y-52250250D01*
X100093500Y-52221750D01*
X100087000Y-52192250D01*
X100081500Y-52163250D01*
X100078000Y-52133250D01*
X100075500Y-52103250D01*
X100075000Y-52073750D01*
X100075000Y-51473750D01*
X100075500Y-51443750D01*
X100078000Y-51413750D01*
X100081500Y-51384250D01*
X100087000Y-51354750D01*
X100093500Y-51325750D01*
X100101500Y-51296750D01*
X100111000Y-51268250D01*
X100122000Y-51240750D01*
X100134500Y-51213250D01*
X100148000Y-51186750D01*
X100163000Y-51160750D01*
X100179000Y-51135750D01*
X100196500Y-51111250D01*
X100215000Y-51087750D01*
X100235000Y-51065250D01*
X100256000Y-51044250D01*
X100278000Y-51023750D01*
X100301000Y-51004750D01*
X100324500Y-50986250D01*
X100349500Y-50969750D01*
X100375000Y-50953750D01*
X100401000Y-50939750D01*
X100428000Y-50926750D01*
X100455500Y-50915250D01*
X100484000Y-50904750D01*
X100512500Y-50896250D01*
X100541500Y-50888750D01*
X100570500Y-50882750D01*
X100600500Y-50878250D01*
X100630000Y-50875250D01*
X100660000Y-50873750D01*
X100690000Y-50873750D01*
X100719500Y-50875250D01*
G37*
G36*
X100719500Y-54955250D02*
G01*
X100749500Y-54958250D01*
X100779000Y-54962750D01*
X100808500Y-54968750D01*
X100837500Y-54975750D01*
X100866000Y-54984750D01*
X100894000Y-54994750D01*
X100921500Y-55006750D01*
X100948500Y-55019750D01*
X100975000Y-55033750D01*
X101000500Y-55049250D01*
X101025000Y-55066250D01*
X101049000Y-55084250D01*
X101072000Y-55103750D01*
X101094000Y-55123750D01*
X101114500Y-55145250D01*
X101134500Y-55167750D01*
X101153000Y-55191250D01*
X101170500Y-55215250D01*
X101187000Y-55240750D01*
X101202000Y-55266750D01*
X101215500Y-55293250D01*
X101228000Y-55320250D01*
X101238500Y-55348250D01*
X101248000Y-55376750D01*
X101256500Y-55405250D01*
X101263000Y-55434750D01*
X101268000Y-55464250D01*
X101272000Y-55493750D01*
X101274000Y-55523750D01*
X101275000Y-55553250D01*
X101275000Y-56353250D01*
X101274000Y-56383250D01*
X101272000Y-56413250D01*
X101268000Y-56442750D01*
X101263000Y-56472250D01*
X101256500Y-56501750D01*
X101248000Y-56530250D01*
X101238500Y-56558750D01*
X101228000Y-56586750D01*
X101215500Y-56613750D01*
X101202000Y-56640250D01*
X101187000Y-56666250D01*
X101170500Y-56691250D01*
X101153000Y-56715750D01*
X101134500Y-56739250D01*
X101114500Y-56761750D01*
X101094000Y-56783250D01*
X101072000Y-56803250D01*
X101049000Y-56822750D01*
X101025000Y-56840750D01*
X101000500Y-56857250D01*
X100975000Y-56873250D01*
X100948500Y-56887250D01*
X100921500Y-56900250D01*
X100894000Y-56912250D01*
X100866000Y-56922250D01*
X100837500Y-56931250D01*
X100808500Y-56938250D01*
X100779000Y-56944250D01*
X100749500Y-56948750D01*
X100719500Y-56951750D01*
X100690000Y-56953250D01*
X100660000Y-56953250D01*
X100630000Y-56951750D01*
X100600500Y-56948750D01*
X100570500Y-56944250D01*
X100541500Y-56938250D01*
X100512500Y-56931250D01*
X100484000Y-56922250D01*
X100455500Y-56912250D01*
X100428000Y-56900250D01*
X100401000Y-56887250D01*
X100375000Y-56873250D01*
X100349500Y-56857250D01*
X100324500Y-56840750D01*
X100301000Y-56822750D01*
X100278000Y-56803250D01*
X100256000Y-56783250D01*
X100235000Y-56761750D01*
X100215000Y-56739250D01*
X100196500Y-56715750D01*
X100179000Y-56691250D01*
X100163000Y-56666250D01*
X100148000Y-56640250D01*
X100134500Y-56613750D01*
X100122000Y-56586750D01*
X100111000Y-56558750D01*
X100101500Y-56530250D01*
X100093500Y-56501750D01*
X100087000Y-56472250D01*
X100081500Y-56442750D01*
X100078000Y-56413250D01*
X100075500Y-56383250D01*
X100075000Y-56353250D01*
X100075000Y-55553250D01*
X100075500Y-55523750D01*
X100078000Y-55493750D01*
X100081500Y-55464250D01*
X100087000Y-55434750D01*
X100093500Y-55405250D01*
X100101500Y-55376750D01*
X100111000Y-55348250D01*
X100122000Y-55320250D01*
X100134500Y-55293250D01*
X100148000Y-55266750D01*
X100163000Y-55240750D01*
X100179000Y-55215250D01*
X100196500Y-55191250D01*
X100215000Y-55167750D01*
X100235000Y-55145250D01*
X100256000Y-55123750D01*
X100278000Y-55103750D01*
X100301000Y-55084250D01*
X100324500Y-55066250D01*
X100349500Y-55049250D01*
X100375000Y-55033750D01*
X100401000Y-55019750D01*
X100428000Y-55006750D01*
X100455500Y-54994750D01*
X100484000Y-54984750D01*
X100512500Y-54975750D01*
X100541500Y-54968750D01*
X100570500Y-54962750D01*
X100600500Y-54958250D01*
X100630000Y-54955250D01*
X100660000Y-54953750D01*
X100690000Y-54953750D01*
X100719500Y-54955250D01*
G37*
G36*
X109370000Y-54955250D02*
G01*
X109399500Y-54958250D01*
X109429500Y-54962750D01*
X109458500Y-54968750D01*
X109487500Y-54975750D01*
X109516000Y-54984750D01*
X109544500Y-54994750D01*
X109572000Y-55006750D01*
X109599000Y-55019750D01*
X109625000Y-55033750D01*
X109650500Y-55049250D01*
X109675500Y-55066250D01*
X109699000Y-55084250D01*
X109722000Y-55103750D01*
X109744000Y-55123750D01*
X109765000Y-55145250D01*
X109785000Y-55167750D01*
X109803500Y-55191250D01*
X109821000Y-55215250D01*
X109837000Y-55240750D01*
X109852000Y-55266750D01*
X109865500Y-55293250D01*
X109878000Y-55320250D01*
X109889000Y-55348250D01*
X109898500Y-55376750D01*
X109906500Y-55405250D01*
X109913000Y-55434750D01*
X109918500Y-55464250D01*
X109922000Y-55493750D01*
X109924500Y-55523750D01*
X109925000Y-55553250D01*
X109925000Y-56353250D01*
X109924500Y-56383250D01*
X109922000Y-56413250D01*
X109918500Y-56442750D01*
X109913000Y-56472250D01*
X109906500Y-56501750D01*
X109898500Y-56530250D01*
X109889000Y-56558750D01*
X109878000Y-56586750D01*
X109865500Y-56613750D01*
X109852000Y-56640250D01*
X109837000Y-56666250D01*
X109821000Y-56691250D01*
X109803500Y-56715750D01*
X109785000Y-56739250D01*
X109765000Y-56761750D01*
X109744000Y-56783250D01*
X109722000Y-56803250D01*
X109699000Y-56822750D01*
X109675500Y-56840750D01*
X109650500Y-56857250D01*
X109625000Y-56873250D01*
X109599000Y-56887250D01*
X109572000Y-56900250D01*
X109544500Y-56912250D01*
X109516000Y-56922250D01*
X109487500Y-56931250D01*
X109458500Y-56938250D01*
X109429500Y-56944250D01*
X109399500Y-56948750D01*
X109370000Y-56951750D01*
X109340000Y-56953250D01*
X109310000Y-56953250D01*
X109280500Y-56951750D01*
X109250500Y-56948750D01*
X109221000Y-56944250D01*
X109191500Y-56938250D01*
X109162500Y-56931250D01*
X109134000Y-56922250D01*
X109106000Y-56912250D01*
X109078500Y-56900250D01*
X109051500Y-56887250D01*
X109025000Y-56873250D01*
X108999500Y-56857250D01*
X108975000Y-56840750D01*
X108951000Y-56822750D01*
X108928000Y-56803250D01*
X108906000Y-56783250D01*
X108885500Y-56761750D01*
X108865500Y-56739250D01*
X108847000Y-56715750D01*
X108829500Y-56691250D01*
X108813000Y-56666250D01*
X108798000Y-56640250D01*
X108784500Y-56613750D01*
X108772000Y-56586750D01*
X108761500Y-56558750D01*
X108752000Y-56530250D01*
X108743500Y-56501750D01*
X108737000Y-56472250D01*
X108732000Y-56442750D01*
X108728000Y-56413250D01*
X108726000Y-56383250D01*
X108725000Y-56353250D01*
X108725000Y-55553250D01*
X108726000Y-55523750D01*
X108728000Y-55493750D01*
X108732000Y-55464250D01*
X108737000Y-55434750D01*
X108743500Y-55405250D01*
X108752000Y-55376750D01*
X108761500Y-55348250D01*
X108772000Y-55320250D01*
X108784500Y-55293250D01*
X108798000Y-55266750D01*
X108813000Y-55240750D01*
X108829500Y-55215250D01*
X108847000Y-55191250D01*
X108865500Y-55167750D01*
X108885500Y-55145250D01*
X108906000Y-55123750D01*
X108928000Y-55103750D01*
X108951000Y-55084250D01*
X108975000Y-55066250D01*
X108999500Y-55049250D01*
X109025000Y-55033750D01*
X109051500Y-55019750D01*
X109078500Y-55006750D01*
X109106000Y-54994750D01*
X109134000Y-54984750D01*
X109162500Y-54975750D01*
X109191500Y-54968750D01*
X109221000Y-54962750D01*
X109250500Y-54958250D01*
X109280500Y-54955250D01*
X109310000Y-54953750D01*
X109340000Y-54953750D01*
X109370000Y-54955250D01*
G37*
G36*
X109370000Y-50875250D02*
G01*
X109399500Y-50878250D01*
X109429500Y-50882750D01*
X109458500Y-50888750D01*
X109487500Y-50896250D01*
X109516000Y-50904750D01*
X109544500Y-50915250D01*
X109572000Y-50926750D01*
X109599000Y-50939750D01*
X109625000Y-50953750D01*
X109650500Y-50969750D01*
X109675500Y-50986250D01*
X109699000Y-51004750D01*
X109722000Y-51023750D01*
X109744000Y-51044250D01*
X109765000Y-51065250D01*
X109785000Y-51087750D01*
X109803500Y-51111250D01*
X109821000Y-51135750D01*
X109837000Y-51160750D01*
X109852000Y-51186750D01*
X109865500Y-51213250D01*
X109878000Y-51240750D01*
X109889000Y-51268250D01*
X109898500Y-51296750D01*
X109906500Y-51325750D01*
X109913000Y-51354750D01*
X109918500Y-51384250D01*
X109922000Y-51413750D01*
X109924500Y-51443750D01*
X109925000Y-51473750D01*
X109925000Y-52073750D01*
X109924500Y-52103250D01*
X109922000Y-52133250D01*
X109918500Y-52163250D01*
X109913000Y-52192250D01*
X109906500Y-52221750D01*
X109898500Y-52250250D01*
X109889000Y-52278750D01*
X109878000Y-52306750D01*
X109865500Y-52333750D01*
X109852000Y-52360750D01*
X109837000Y-52386250D01*
X109821000Y-52411750D01*
X109803500Y-52435750D01*
X109785000Y-52459250D01*
X109765000Y-52481750D01*
X109744000Y-52503250D01*
X109722000Y-52523250D01*
X109699000Y-52542750D01*
X109675500Y-52560750D01*
X109650500Y-52577750D01*
X109625000Y-52593250D01*
X109599000Y-52607750D01*
X109572000Y-52620250D01*
X109544500Y-52632250D01*
X109516000Y-52642250D01*
X109487500Y-52651250D01*
X109458500Y-52658750D01*
X109429500Y-52664250D01*
X109399500Y-52668750D01*
X109370000Y-52671750D01*
X109340000Y-52673250D01*
X109310000Y-52673250D01*
X109280500Y-52671750D01*
X109250500Y-52668750D01*
X109221000Y-52664250D01*
X109191500Y-52658750D01*
X109162500Y-52651250D01*
X109134000Y-52642250D01*
X109106000Y-52632250D01*
X109078500Y-52620250D01*
X109051500Y-52607750D01*
X109025000Y-52593250D01*
X108999500Y-52577750D01*
X108975000Y-52560750D01*
X108951000Y-52542750D01*
X108928000Y-52523250D01*
X108906000Y-52503250D01*
X108885500Y-52481750D01*
X108865500Y-52459250D01*
X108847000Y-52435750D01*
X108829500Y-52411750D01*
X108813000Y-52386250D01*
X108798000Y-52360750D01*
X108784500Y-52333750D01*
X108772000Y-52306750D01*
X108761500Y-52278750D01*
X108752000Y-52250250D01*
X108743500Y-52221750D01*
X108737000Y-52192250D01*
X108732000Y-52163250D01*
X108728000Y-52133250D01*
X108726000Y-52103250D01*
X108725000Y-52073750D01*
X108725000Y-51473750D01*
X108726000Y-51443750D01*
X108728000Y-51413750D01*
X108732000Y-51384250D01*
X108737000Y-51354750D01*
X108743500Y-51325750D01*
X108752000Y-51296750D01*
X108761500Y-51268250D01*
X108772000Y-51240750D01*
X108784500Y-51213250D01*
X108798000Y-51186750D01*
X108813000Y-51160750D01*
X108829500Y-51135750D01*
X108847000Y-51111250D01*
X108865500Y-51087750D01*
X108885500Y-51065250D01*
X108906000Y-51044250D01*
X108928000Y-51023750D01*
X108951000Y-51004750D01*
X108975000Y-50986250D01*
X108999500Y-50969750D01*
X109025000Y-50953750D01*
X109051500Y-50939750D01*
X109078500Y-50926750D01*
X109106000Y-50915250D01*
X109134000Y-50904750D01*
X109162500Y-50896250D01*
X109191500Y-50888750D01*
X109221000Y-50882750D01*
X109250500Y-50878250D01*
X109280500Y-50875250D01*
X109310000Y-50873750D01*
X109340000Y-50873750D01*
X109370000Y-50875250D01*
G37*
%TD*%
D11*
%TO.C,R13*%
X127330000Y-110430194D03*
X125330000Y-110430194D03*
%TD*%
D12*
%TO.C,R22*%
X64237500Y-77462500D03*
X64237500Y-75462500D03*
%TD*%
D13*
%TO.C,TP5*%
X105500000Y-106750000D03*
%TD*%
D14*
%TO.C,R19*%
X75487500Y-74212500D03*
X75487500Y-76212500D03*
%TD*%
D15*
%TO.C,C27*%
X92725000Y-106956700D03*
X92725000Y-104881700D03*
%TD*%
D16*
%TO.C,U1*%
X111510000Y-76687500D03*
D17*
X110535000Y-77412500D03*
X110535000Y-77912500D03*
X110535000Y-78412500D03*
X110535000Y-78912500D03*
X110535000Y-79412500D03*
D16*
X111510000Y-80137500D03*
X113010000Y-80137500D03*
D17*
X113985000Y-79412500D03*
X113985000Y-78912500D03*
X113985000Y-78412500D03*
X113985000Y-77912500D03*
X113985000Y-77412500D03*
D16*
X113010000Y-76687500D03*
D18*
X112260000Y-78412500D03*
%TD*%
D19*
%TO.C,C26*%
X82225000Y-96562500D03*
X82225000Y-98637500D03*
%TD*%
D20*
%TO.C,L5*%
X119225000Y-91750000D03*
X121275000Y-91750000D03*
%TD*%
D21*
%TO.C,C3*%
X109472500Y-84262500D03*
X111547500Y-84262500D03*
%TD*%
D22*
%TO.C,R9*%
X109530000Y-112630194D03*
X111530000Y-112630194D03*
%TD*%
D21*
%TO.C,R37*%
X79937500Y-116875000D03*
X82012500Y-116875000D03*
%TD*%
D13*
%TO.C,TP4*%
X78787500Y-79712500D03*
%TD*%
D23*
%TO.C,C16*%
X115367500Y-110630194D03*
X113292500Y-110630194D03*
%TD*%
D15*
%TO.C,C12*%
X99510000Y-103867694D03*
X99510000Y-101792694D03*
%TD*%
%TO.C,C6*%
X105510000Y-79500000D03*
X105510000Y-77425000D03*
%TD*%
D16*
%TO.C,U5*%
X111530000Y-101055194D03*
D17*
X110555000Y-101780194D03*
X110555000Y-102280194D03*
X110555000Y-102780194D03*
X110555000Y-103280194D03*
X110555000Y-103780194D03*
D16*
X111530000Y-104505194D03*
X113030000Y-104505194D03*
D17*
X114005000Y-103780194D03*
X114005000Y-103280194D03*
X114005000Y-102780194D03*
X114005000Y-102280194D03*
X114005000Y-101780194D03*
D16*
X113030000Y-101055194D03*
D18*
X112280000Y-102780194D03*
%TD*%
D14*
%TO.C,R26*%
X98825000Y-62023750D03*
X98825000Y-64023750D03*
%TD*%
D24*
%TO.C,ID2*%
X95725000Y-105006700D03*
X95725000Y-107331700D03*
%TD*%
D25*
%TO.C,U3*%
X141110000Y-79062500D03*
X141110000Y-76762500D03*
X141110000Y-74462500D03*
D26*
X134810000Y-76762500D03*
%TD*%
D22*
%TO.C,R5*%
X109310000Y-73662500D03*
X111310000Y-73662500D03*
%TD*%
D12*
%TO.C,R40*%
X84975000Y-119330800D03*
X84975000Y-117330800D03*
%TD*%
D14*
%TO.C,R12*%
X117530000Y-108630194D03*
X117530000Y-110630194D03*
%TD*%
D27*
%TO.C,L2*%
X122530000Y-102530194D03*
X130530000Y-102530194D03*
%TD*%
D23*
%TO.C,C9*%
X115347500Y-86262500D03*
X113272500Y-86262500D03*
%TD*%
D21*
%TO.C,C29*%
X93437500Y-110125000D03*
X95512500Y-110125000D03*
%TD*%
D23*
%TO.C,C18*%
X127367500Y-95430194D03*
X125292500Y-95430194D03*
%TD*%
D28*
%TO.C,U12*%
X85375000Y-65450000D03*
X85375000Y-63550000D03*
X83500000Y-64500000D03*
%TD*%
D14*
%TO.C,R28*%
X113075000Y-61773750D03*
X113075000Y-63773750D03*
%TD*%
D15*
%TO.C,C10*%
X105530000Y-103867694D03*
X105530000Y-101792694D03*
%TD*%
D14*
%TO.C,R8*%
X138560000Y-81825000D03*
X138560000Y-83825000D03*
%TD*%
D13*
%TO.C,TP6*%
X152250000Y-87750000D03*
%TD*%
D29*
%TO.C,U20*%
X106575000Y-61773750D03*
X106075000Y-61773750D03*
X105575000Y-61773750D03*
X105075000Y-61773750D03*
X104575000Y-61773750D03*
X104575000Y-64588750D03*
X105075000Y-64588750D03*
X105575000Y-64588750D03*
X106075000Y-64588750D03*
X106575000Y-64588750D03*
D30*
X105575000Y-63181250D03*
%TD*%
D22*
%TO.C,R25*%
X77750000Y-64500000D03*
X79750000Y-64500000D03*
%TD*%
D31*
%TO.C,U15*%
X72487500Y-87112500D03*
X72487500Y-86162500D03*
X72487500Y-85212500D03*
X69787500Y-85212500D03*
X69787500Y-86162500D03*
X69787500Y-87112500D03*
%TD*%
D22*
%TO.C,R31*%
X79975000Y-114625000D03*
X81975000Y-114625000D03*
%TD*%
D28*
%TO.C,U2*%
X145635000Y-79575000D03*
X145635000Y-77675000D03*
X143760000Y-78625000D03*
%TD*%
D14*
%TO.C,R6*%
X117510000Y-84262500D03*
X117510000Y-86262500D03*
%TD*%
D13*
%TO.C,TP3*%
X62037500Y-71462500D03*
%TD*%
D31*
%TO.C,U11*%
X72437500Y-75962500D03*
X72437500Y-75012500D03*
X72437500Y-74062500D03*
X69737500Y-74062500D03*
X69737500Y-75012500D03*
X69737500Y-75962500D03*
%TD*%
D22*
%TO.C,R14*%
X109530000Y-106630194D03*
X111530000Y-106630194D03*
%TD*%
D11*
%TO.C,R10*%
X115330000Y-112630194D03*
X113330000Y-112630194D03*
%TD*%
D21*
%TO.C,C13*%
X109492500Y-108630194D03*
X111567500Y-108630194D03*
%TD*%
D32*
%TO.C,U14*%
X74537500Y-82712500D03*
X76437500Y-82712500D03*
X75487500Y-79712500D03*
%TD*%
D13*
%TO.C,TP10*%
X152250000Y-95000000D03*
%TD*%
D15*
%TO.C,C5*%
X102500000Y-79500000D03*
X102500000Y-77425000D03*
%TD*%
D14*
%TO.C,R41*%
X79975000Y-100850000D03*
X79975000Y-102850000D03*
%TD*%
%TO.C,R24*%
X75287500Y-86212500D03*
X75287500Y-88212500D03*
%TD*%
D33*
%TO.C,U21*%
X95125000Y-62623750D03*
X92825000Y-62623750D03*
X90525000Y-62623750D03*
D34*
X92825000Y-68923750D03*
%TD*%
D13*
%TO.C,TP7*%
X105500000Y-82250000D03*
%TD*%
D35*
%TO.C,U18*%
X86200000Y-100250000D03*
X89250000Y-100250000D03*
X86200000Y-96900000D03*
X89250000Y-96900000D03*
D36*
X85445000Y-104875000D03*
X87725000Y-104875000D03*
X90005000Y-104875000D03*
%TD*%
D14*
%TO.C,R15*%
X147117500Y-106005194D03*
X147117500Y-108005194D03*
%TD*%
%TO.C,R16*%
X139117500Y-106205194D03*
X139117500Y-108205194D03*
%TD*%
D22*
%TO.C,R27*%
X104575000Y-67273750D03*
X106575000Y-67273750D03*
%TD*%
D37*
%TO.C,R39*%
X88725000Y-121175000D03*
X88725000Y-115075000D03*
%TD*%
D32*
%TO.C,U17*%
X74337500Y-93462500D03*
X76237500Y-93462500D03*
X75287500Y-90462500D03*
%TD*%
D20*
%TO.C,L3*%
X119700000Y-68000000D03*
X121750000Y-68000000D03*
%TD*%
D22*
%TO.C,R3*%
X109510000Y-88262500D03*
X111510000Y-88262500D03*
%TD*%
D14*
%TO.C,R23*%
X64787500Y-84212500D03*
X64787500Y-86212500D03*
%TD*%
D19*
%TO.C,C21*%
X66487500Y-75425000D03*
X66487500Y-77500000D03*
%TD*%
D23*
%TO.C,C2*%
X127347500Y-71062500D03*
X125272500Y-71062500D03*
%TD*%
D13*
%TO.C,TP8*%
X152250000Y-84750000D03*
%TD*%
D21*
%TO.C,C30*%
X96997100Y-112375000D03*
X99072100Y-112375000D03*
%TD*%
%TO.C,C15*%
X113292500Y-106630194D03*
X115367500Y-106630194D03*
%TD*%
D14*
%TO.C,R18*%
X114500000Y-70500000D03*
X114500000Y-72500000D03*
%TD*%
D22*
%TO.C,R34*%
X79975000Y-107125000D03*
X81975000Y-107125000D03*
%TD*%
D27*
%TO.C,L1*%
X122510000Y-78162500D03*
X130510000Y-78162500D03*
%TD*%
D14*
%TO.C,R20*%
X114500000Y-95750000D03*
X114500000Y-97750000D03*
%TD*%
D13*
%TO.C,TP12*%
X135250000Y-94000000D03*
%TD*%
D22*
%TO.C,R11*%
X109330000Y-98030194D03*
X111330000Y-98030194D03*
%TD*%
D11*
%TO.C,R1*%
X127310000Y-86062500D03*
X125310000Y-86062500D03*
%TD*%
D21*
%TO.C,C1*%
X117072500Y-74062500D03*
X119147500Y-74062500D03*
%TD*%
D23*
%TO.C,C8*%
X115347500Y-84262500D03*
X113272500Y-84262500D03*
%TD*%
D21*
%TO.C,R38*%
X73247100Y-107125000D03*
X75322100Y-107125000D03*
%TD*%
%TO.C,C7*%
X113272500Y-82262500D03*
X115347500Y-82262500D03*
%TD*%
D15*
%TO.C,C11*%
X102520000Y-103867694D03*
X102520000Y-101792694D03*
%TD*%
D28*
%TO.C,U8*%
X146192500Y-103955194D03*
X146192500Y-102055194D03*
X144317500Y-103005194D03*
%TD*%
D15*
%TO.C,C28*%
X92475000Y-119118300D03*
X92475000Y-117043300D03*
%TD*%
D38*
%TO.C,U16*%
X71987500Y-90462500D03*
X70087500Y-90462500D03*
X71037500Y-93462500D03*
%TD*%
D39*
%TO.C,U10*%
X86519200Y-109169200D03*
X86519200Y-109669199D03*
X86519200Y-110169200D03*
X86519200Y-110669200D03*
X86519200Y-111169201D03*
X86519200Y-111669200D03*
D40*
X87225000Y-112375000D03*
X87724999Y-112375000D03*
X88225000Y-112375000D03*
X88725000Y-112375000D03*
X89225001Y-112375000D03*
X89725000Y-112375000D03*
D39*
X90430800Y-111669200D03*
X90430800Y-111169201D03*
X90430800Y-110669200D03*
X90430800Y-110169200D03*
X90430800Y-109669199D03*
X90430800Y-109169200D03*
D40*
X89725000Y-108463400D03*
X89225001Y-108463400D03*
X88725000Y-108463400D03*
X88225000Y-108463400D03*
X87724999Y-108463400D03*
X87225000Y-108463400D03*
D41*
X88475000Y-110419200D03*
%TD*%
D12*
%TO.C,R21*%
X101750000Y-64250000D03*
X101750000Y-62250000D03*
%TD*%
D13*
%TO.C,TP2*%
X60000000Y-91750000D03*
%TD*%
D42*
%TO.C,U6*%
X144067500Y-106530194D03*
X142167500Y-106530194D03*
X143117500Y-108405194D03*
%TD*%
D14*
%TO.C,R7*%
X146560000Y-81625000D03*
X146560000Y-83625000D03*
%TD*%
D19*
%TO.C,C22*%
X67037500Y-86425000D03*
X67037500Y-88500000D03*
%TD*%
D12*
%TO.C,R17*%
X129910000Y-91862500D03*
X129910000Y-89862500D03*
%TD*%
D28*
%TO.C,U9*%
X127110000Y-91762500D03*
X127110000Y-89862500D03*
X125235000Y-90812500D03*
%TD*%
D43*
%TO.C,L4*%
X82225000Y-102875000D03*
X82225000Y-100825000D03*
%TD*%
D15*
%TO.C,C4*%
X99490000Y-79500000D03*
X99490000Y-77425000D03*
%TD*%
D38*
%TO.C,U13*%
X72137500Y-79712500D03*
X70237500Y-79712500D03*
X71187500Y-82712500D03*
%TD*%
D13*
%TO.C,TP1*%
X87000000Y-69000000D03*
%TD*%
D23*
%TO.C,R36*%
X75322100Y-109375000D03*
X73247100Y-109375000D03*
%TD*%
D22*
%TO.C,R32*%
X79975000Y-112375000D03*
X81975000Y-112375000D03*
%TD*%
D42*
%TO.C,U4*%
X143510000Y-82150000D03*
X141610000Y-82150000D03*
X142560000Y-84025000D03*
%TD*%
D13*
%TO.C,TP11*%
X87747100Y-92647100D03*
%TD*%
D22*
%TO.C,R2*%
X109510000Y-82262500D03*
X111510000Y-82262500D03*
%TD*%
D13*
%TO.C,TP13*%
X134750000Y-70500000D03*
%TD*%
D19*
%TO.C,C20*%
X110325000Y-61736250D03*
X110325000Y-63811250D03*
%TD*%
D25*
%TO.C,U7*%
X141667500Y-103442694D03*
X141667500Y-101142694D03*
X141667500Y-98842694D03*
D26*
X135367500Y-101142694D03*
%TD*%
D44*
%TO.C,USBC2*%
X108200000Y-56721750D03*
X107400000Y-56721750D03*
D45*
X106250000Y-56721750D03*
X105250000Y-56721750D03*
X104750000Y-56721750D03*
X103750500Y-56721750D03*
D44*
X101800000Y-56721750D03*
D46*
X102599500Y-56721750D03*
D45*
X103250000Y-56721750D03*
X104250000Y-56721750D03*
X105750000Y-56721750D03*
X106750000Y-56721750D03*
%TD*%
D21*
%TO.C,C17*%
X117092500Y-98430194D03*
X119167500Y-98430194D03*
%TD*%
D22*
%TO.C,R33*%
X79975000Y-110125000D03*
X81975000Y-110125000D03*
%TD*%
D13*
%TO.C,TP9*%
X152250000Y-92000000D03*
%TD*%
D11*
%TO.C,R4*%
X115310000Y-88262500D03*
X113310000Y-88262500D03*
%TD*%
D23*
%TO.C,C14*%
X115367500Y-108630194D03*
X113292500Y-108630194D03*
%TD*%
D20*
%TO.C,L6*%
X72950000Y-64500000D03*
X75000000Y-64500000D03*
%TD*%
M02*
