%TF.GenerationSoftware,KiCad,Pcbnew,10.0.1*%
%TF.CreationDate,2026-05-28T20:16:35+10:00*%
%TF.ProjectId,PowerBox_PCB,506f7765-7242-46f7-985f-5043422e6b69,rev?*%
%TF.SameCoordinates,Original*%
%TF.FileFunction,Soldermask,Top*%
%TF.FilePolarity,Negative*%
%FSLAX46Y46*%
G04 Gerber Fmt 4.6, Leading zero omitted, Abs format (unit mm)*
G04 Created by KiCad (PCBNEW 10.0.1) date 2026-05-28 20:16:35*
%MOMM*%
%LPD*%
G01*
G04 APERTURE LIST*
G04 Aperture macros list*
%AMRoundRect*
0 Rectangle with rounded corners*
0 $1 Rounding radius*
0 $2 $3 $4 $5 $6 $7 $8 $9 X,Y pos of 4 corners*
0 Add a 4 corners polygon primitive as box body*
4,1,4,$2,$3,$4,$5,$6,$7,$8,$9,$2,$3,0*
0 Add four circle primitives for the rounded corners*
1,1,$1+$1,$2,$3*
1,1,$1+$1,$4,$5*
1,1,$1+$1,$6,$7*
1,1,$1+$1,$8,$9*
0 Add four rect primitives between the rounded corners*
20,1,$1+$1,$2,$3,$4,$5,0*
20,1,$1+$1,$4,$5,$6,$7,0*
20,1,$1+$1,$6,$7,$8,$9,0*
20,1,$1+$1,$8,$9,$2,$3,0*%
%AMFreePoly0*
4,1,21,-0.160000,1.440000,0.160000,1.440000,0.160000,2.160000,0.400000,2.160000,0.400000,1.016000,1.016000,1.016000,1.016000,-1.016000,0.400000,-1.016000,0.400000,-2.160000,0.160000,-2.160000,0.160000,-1.440000,-0.160000,-1.440000,-0.160000,-2.160000,-0.400000,-2.160000,-0.400000,-1.016000,-1.016000,-1.016000,-1.016000,1.016000,-0.400000,1.016000,-0.400000,2.160000,-0.160000,2.160000,
-0.160000,1.440000,-0.160000,1.440000,$1*%
%AMFreePoly1*
4,1,5,0.300000,-0.650000,-0.300000,-0.650000,-0.300000,0.650000,0.300000,0.650000,0.300000,-0.650000,0.300000,-0.650000,$1*%
%AMFreePoly2*
4,1,5,0.299500,-0.650000,-0.300500,-0.650000,-0.300500,0.650000,0.299500,0.650000,0.299500,-0.650000,0.299500,-0.650000,$1*%
G04 Aperture macros list end*
%ADD10RoundRect,0.250000X0.350000X0.450000X-0.350000X0.450000X-0.350000X-0.450000X0.350000X-0.450000X0*%
%ADD11RoundRect,0.250000X0.450000X-0.350000X0.450000X0.350000X-0.450000X0.350000X-0.450000X-0.350000X0*%
%ADD12RoundRect,0.300000X-0.700000X-0.700000X0.700000X-0.700000X0.700000X0.700000X-0.700000X0.700000X0*%
%ADD13RoundRect,0.250000X-0.450000X0.350000X-0.450000X-0.350000X0.450000X-0.350000X0.450000X0.350000X0*%
%ADD14RoundRect,0.250000X0.475000X-0.337500X0.475000X0.337500X-0.475000X0.337500X-0.475000X-0.337500X0*%
%ADD15C,5.750000*%
%ADD16R,0.280000X0.800000*%
%ADD17R,0.800000X0.280000*%
%ADD18FreePoly0,0.000000*%
%ADD19RoundRect,0.250000X-0.475000X0.337500X-0.475000X-0.337500X0.475000X-0.337500X0.475000X0.337500X0*%
%ADD20RoundRect,0.250000X-0.325000X-0.450000X0.325000X-0.450000X0.325000X0.450000X-0.325000X0.450000X0*%
%ADD21RoundRect,0.250000X-0.337500X-0.475000X0.337500X-0.475000X0.337500X0.475000X-0.337500X0.475000X0*%
%ADD22RoundRect,0.250000X-0.350000X-0.450000X0.350000X-0.450000X0.350000X0.450000X-0.350000X0.450000X0*%
%ADD23RoundRect,0.250000X0.337500X0.475000X-0.337500X0.475000X-0.337500X-0.475000X0.337500X-0.475000X0*%
%ADD24RoundRect,0.250001X-0.849999X0.462499X-0.849999X-0.462499X0.849999X-0.462499X0.849999X0.462499X0*%
%ADD25RoundRect,0.375000X0.625000X0.375000X-0.625000X0.375000X-0.625000X-0.375000X0.625000X-0.375000X0*%
%ADD26RoundRect,0.500000X0.500000X1.400000X-0.500000X1.400000X-0.500000X-1.400000X0.500000X-1.400000X0*%
%ADD27RoundRect,0.255000X0.595000X-1.845000X0.595000X1.845000X-0.595000X1.845000X-0.595000X-1.845000X0*%
%ADD28RoundRect,0.150000X0.587500X0.150000X-0.587500X0.150000X-0.587500X-0.150000X0.587500X-0.150000X0*%
%ADD29R,0.280000X0.665000*%
%ADD30R,2.500000X1.500000*%
%ADD31RoundRect,0.162500X0.617500X0.162500X-0.617500X0.162500X-0.617500X-0.162500X0.617500X-0.162500X0*%
%ADD32RoundRect,0.200000X0.200000X-0.750000X0.200000X0.750000X-0.200000X0.750000X-0.200000X-0.750000X0*%
%ADD33RoundRect,0.375000X-0.375000X0.625000X-0.375000X-0.625000X0.375000X-0.625000X0.375000X0.625000X0*%
%ADD34RoundRect,0.500000X-1.400000X0.500000X-1.400000X-0.500000X1.400000X-0.500000X1.400000X0.500000X0*%
%ADD35RoundRect,0.250000X0.350000X-0.850000X0.350000X0.850000X-0.350000X0.850000X-0.350000X-0.850000X0*%
%ADD36RoundRect,0.249997X2.650003X-2.950003X2.650003X2.950003X-2.650003X2.950003X-2.650003X-2.950003X0*%
%ADD37RoundRect,0.249999X1.425001X-0.450001X1.425001X0.450001X-1.425001X0.450001X-1.425001X-0.450001X0*%
%ADD38RoundRect,0.300000X0.700000X-0.700000X0.700000X0.700000X-0.700000X0.700000X-0.700000X-0.700000X0*%
%ADD39RoundRect,0.200000X-0.200000X0.750000X-0.200000X-0.750000X0.200000X-0.750000X0.200000X0.750000X0*%
%ADD40R,0.787400X0.254000*%
%ADD41R,0.254000X0.787400*%
%ADD42R,2.600000X2.600000*%
%ADD43RoundRect,0.150000X-0.150000X0.587500X-0.150000X-0.587500X0.150000X-0.587500X0.150000X0.587500X0*%
%ADD44RoundRect,0.250000X0.450000X-0.325000X0.450000X0.325000X-0.450000X0.325000X-0.450000X-0.325000X0*%
%ADD45O,1.200000X2.000000*%
%ADD46O,1.200000X1.800000*%
%ADD47FreePoly1,180.000000*%
%ADD48R,0.300000X1.300000*%
%ADD49FreePoly2,180.000000*%
%ADD50C,2.000000*%
G04 APERTURE END LIST*
D10*
%TO.C,R13*%
X127330000Y-110430194D03*
X125330000Y-110430194D03*
%TD*%
D11*
%TO.C,R22*%
X64237500Y-77462500D03*
X64237500Y-75462500D03*
%TD*%
D12*
%TO.C,TP5*%
X105500000Y-106750000D03*
%TD*%
D13*
%TO.C,R19*%
X75487500Y-74212500D03*
X75487500Y-76212500D03*
%TD*%
D14*
%TO.C,C27*%
X92725000Y-106956700D03*
X92725000Y-104881700D03*
%TD*%
D15*
%TO.C,TP15*%
X151250000Y-53750000D03*
%TD*%
D16*
%TO.C,U1*%
X111510000Y-76687500D03*
D17*
X110535000Y-77412500D03*
X110535000Y-77912500D03*
X110535000Y-78412500D03*
X110535000Y-78912500D03*
X110535000Y-79412500D03*
D16*
X111510000Y-80137500D03*
X113010000Y-80137500D03*
D17*
X113985000Y-79412500D03*
X113985000Y-78912500D03*
X113985000Y-78412500D03*
X113985000Y-77912500D03*
X113985000Y-77412500D03*
D16*
X113010000Y-76687500D03*
D18*
X112260000Y-78412500D03*
%TD*%
D19*
%TO.C,C26*%
X82225000Y-96562500D03*
X82225000Y-98637500D03*
%TD*%
D20*
%TO.C,L5*%
X119225000Y-91750000D03*
X121275000Y-91750000D03*
%TD*%
D21*
%TO.C,C3*%
X109472500Y-84262500D03*
X111547500Y-84262500D03*
%TD*%
D22*
%TO.C,R9*%
X109530000Y-112630194D03*
X111530000Y-112630194D03*
%TD*%
D21*
%TO.C,R37*%
X79937500Y-116875000D03*
X82012500Y-116875000D03*
%TD*%
D12*
%TO.C,TP4*%
X78787500Y-79712500D03*
%TD*%
D23*
%TO.C,C16*%
X115367500Y-110630194D03*
X113292500Y-110630194D03*
%TD*%
D14*
%TO.C,C12*%
X99510000Y-103867694D03*
X99510000Y-101792694D03*
%TD*%
%TO.C,C6*%
X105510000Y-79500000D03*
X105510000Y-77425000D03*
%TD*%
D16*
%TO.C,U5*%
X111530000Y-101055194D03*
D17*
X110555000Y-101780194D03*
X110555000Y-102280194D03*
X110555000Y-102780194D03*
X110555000Y-103280194D03*
X110555000Y-103780194D03*
D16*
X111530000Y-104505194D03*
X113030000Y-104505194D03*
D17*
X114005000Y-103780194D03*
X114005000Y-103280194D03*
X114005000Y-102780194D03*
X114005000Y-102280194D03*
X114005000Y-101780194D03*
D16*
X113030000Y-101055194D03*
D18*
X112280000Y-102780194D03*
%TD*%
D13*
%TO.C,R26*%
X98825000Y-62023750D03*
X98825000Y-64023750D03*
%TD*%
D24*
%TO.C,ID2*%
X95725000Y-105006700D03*
X95725000Y-107331700D03*
%TD*%
D25*
%TO.C,U3*%
X141110000Y-79062500D03*
X141110000Y-76762500D03*
X141110000Y-74462500D03*
D26*
X134810000Y-76762500D03*
%TD*%
D22*
%TO.C,R5*%
X109310000Y-73662500D03*
X111310000Y-73662500D03*
%TD*%
D11*
%TO.C,R40*%
X84975000Y-119330800D03*
X84975000Y-117330800D03*
%TD*%
D13*
%TO.C,R12*%
X117530000Y-108630194D03*
X117530000Y-110630194D03*
%TD*%
D27*
%TO.C,L2*%
X122530000Y-102530194D03*
X130530000Y-102530194D03*
%TD*%
D23*
%TO.C,C9*%
X115347500Y-86262500D03*
X113272500Y-86262500D03*
%TD*%
D21*
%TO.C,C29*%
X93437500Y-110125000D03*
X95512500Y-110125000D03*
%TD*%
D23*
%TO.C,C18*%
X127367500Y-95430194D03*
X125292500Y-95430194D03*
%TD*%
D28*
%TO.C,U12*%
X85375000Y-65450000D03*
X85375000Y-63550000D03*
X83500000Y-64500000D03*
%TD*%
D13*
%TO.C,R28*%
X113075000Y-61773750D03*
X113075000Y-63773750D03*
%TD*%
D14*
%TO.C,C10*%
X105530000Y-103867694D03*
X105530000Y-101792694D03*
%TD*%
D13*
%TO.C,R8*%
X138560000Y-81825000D03*
X138560000Y-83825000D03*
%TD*%
D12*
%TO.C,TP6*%
X152250000Y-87750000D03*
%TD*%
D29*
%TO.C,U20*%
X106575000Y-61773750D03*
X106075000Y-61773750D03*
X105575000Y-61773750D03*
X105075000Y-61773750D03*
X104575000Y-61773750D03*
X104575000Y-64588750D03*
X105075000Y-64588750D03*
X105575000Y-64588750D03*
X106075000Y-64588750D03*
X106575000Y-64588750D03*
D30*
X105575000Y-63181250D03*
%TD*%
D22*
%TO.C,R25*%
X77750000Y-64500000D03*
X79750000Y-64500000D03*
%TD*%
D31*
%TO.C,U15*%
X72487500Y-87112500D03*
X72487500Y-86162500D03*
X72487500Y-85212500D03*
X69787500Y-85212500D03*
X69787500Y-86162500D03*
X69787500Y-87112500D03*
%TD*%
D22*
%TO.C,R31*%
X79975000Y-114625000D03*
X81975000Y-114625000D03*
%TD*%
D28*
%TO.C,U2*%
X145635000Y-79575000D03*
X145635000Y-77675000D03*
X143760000Y-78625000D03*
%TD*%
D13*
%TO.C,R6*%
X117510000Y-84262500D03*
X117510000Y-86262500D03*
%TD*%
D12*
%TO.C,TP3*%
X62037500Y-71462500D03*
%TD*%
D31*
%TO.C,U11*%
X72437500Y-75962500D03*
X72437500Y-75012500D03*
X72437500Y-74062500D03*
X69737500Y-74062500D03*
X69737500Y-75012500D03*
X69737500Y-75962500D03*
%TD*%
D22*
%TO.C,R14*%
X109530000Y-106630194D03*
X111530000Y-106630194D03*
%TD*%
D10*
%TO.C,R10*%
X115330000Y-112630194D03*
X113330000Y-112630194D03*
%TD*%
D21*
%TO.C,C13*%
X109492500Y-108630194D03*
X111567500Y-108630194D03*
%TD*%
D32*
%TO.C,U14*%
X74537500Y-82712500D03*
X76437500Y-82712500D03*
X75487500Y-79712500D03*
%TD*%
D12*
%TO.C,TP10*%
X152250000Y-95000000D03*
%TD*%
D14*
%TO.C,C5*%
X102500000Y-79500000D03*
X102500000Y-77425000D03*
%TD*%
D13*
%TO.C,R41*%
X79975000Y-100850000D03*
X79975000Y-102850000D03*
%TD*%
%TO.C,R24*%
X75287500Y-86212500D03*
X75287500Y-88212500D03*
%TD*%
D33*
%TO.C,U21*%
X95125000Y-62623750D03*
X92825000Y-62623750D03*
X90525000Y-62623750D03*
D34*
X92825000Y-68923750D03*
%TD*%
D12*
%TO.C,TP7*%
X105500000Y-82250000D03*
%TD*%
D35*
%TO.C,U18*%
X85445000Y-104875000D03*
X87725000Y-104875000D03*
D36*
X87725000Y-98575000D03*
D35*
X90005000Y-104875000D03*
%TD*%
D13*
%TO.C,R15*%
X147117500Y-106005194D03*
X147117500Y-108005194D03*
%TD*%
%TO.C,R16*%
X139117500Y-106205194D03*
X139117500Y-108205194D03*
%TD*%
D22*
%TO.C,R27*%
X104575000Y-67273750D03*
X106575000Y-67273750D03*
%TD*%
D37*
%TO.C,R39*%
X88725000Y-121175000D03*
X88725000Y-115075000D03*
%TD*%
D15*
%TO.C,TP17*%
X151250000Y-121250000D03*
%TD*%
D32*
%TO.C,U17*%
X74337500Y-93462500D03*
X76237500Y-93462500D03*
X75287500Y-90462500D03*
%TD*%
D20*
%TO.C,L3*%
X119700000Y-68000000D03*
X121750000Y-68000000D03*
%TD*%
D22*
%TO.C,R3*%
X109510000Y-88262500D03*
X111510000Y-88262500D03*
%TD*%
D13*
%TO.C,R23*%
X64787500Y-84212500D03*
X64787500Y-86212500D03*
%TD*%
D19*
%TO.C,C21*%
X66487500Y-75425000D03*
X66487500Y-77500000D03*
%TD*%
D12*
%TO.C,B1*%
X60037500Y-77212500D03*
X60037500Y-80212500D03*
X60037500Y-83212500D03*
%TD*%
D23*
%TO.C,C2*%
X127347500Y-71062500D03*
X125272500Y-71062500D03*
%TD*%
D12*
%TO.C,TP8*%
X152250000Y-84750000D03*
%TD*%
D21*
%TO.C,C30*%
X96997100Y-112375000D03*
X99072100Y-112375000D03*
%TD*%
%TO.C,C15*%
X113292500Y-106630194D03*
X115367500Y-106630194D03*
%TD*%
D13*
%TO.C,R18*%
X114500000Y-70500000D03*
X114500000Y-72500000D03*
%TD*%
D22*
%TO.C,R34*%
X79975000Y-107125000D03*
X81975000Y-107125000D03*
%TD*%
D27*
%TO.C,L1*%
X122510000Y-78162500D03*
X130510000Y-78162500D03*
%TD*%
D38*
%TO.C,SW1*%
X84750000Y-82000000D03*
X84750000Y-79000000D03*
X84750000Y-76000000D03*
X87750000Y-82000000D03*
X87750000Y-79000000D03*
X87750000Y-76000000D03*
%TD*%
D13*
%TO.C,R20*%
X114500000Y-95750000D03*
X114500000Y-97750000D03*
%TD*%
D12*
%TO.C,TP12*%
X135250000Y-94000000D03*
%TD*%
D22*
%TO.C,R11*%
X109330000Y-98030194D03*
X111330000Y-98030194D03*
%TD*%
D10*
%TO.C,R1*%
X127310000Y-86062500D03*
X125310000Y-86062500D03*
%TD*%
D21*
%TO.C,C1*%
X117072500Y-74062500D03*
X119147500Y-74062500D03*
%TD*%
D23*
%TO.C,C8*%
X115347500Y-84262500D03*
X113272500Y-84262500D03*
%TD*%
D21*
%TO.C,R38*%
X73247100Y-107125000D03*
X75322100Y-107125000D03*
%TD*%
%TO.C,C7*%
X113272500Y-82262500D03*
X115347500Y-82262500D03*
%TD*%
D14*
%TO.C,C11*%
X102520000Y-103867694D03*
X102520000Y-101792694D03*
%TD*%
D28*
%TO.C,U8*%
X146192500Y-103955194D03*
X146192500Y-102055194D03*
X144317500Y-103005194D03*
%TD*%
D14*
%TO.C,C28*%
X92475000Y-119118300D03*
X92475000Y-117043300D03*
%TD*%
D39*
%TO.C,U16*%
X71987500Y-90462500D03*
X70087500Y-90462500D03*
X71037500Y-93462500D03*
%TD*%
D40*
%TO.C,U10*%
X86519200Y-109169200D03*
X86519200Y-109669199D03*
X86519200Y-110169200D03*
X86519200Y-110669200D03*
X86519200Y-111169201D03*
X86519200Y-111669200D03*
D41*
X87225000Y-112375000D03*
X87724999Y-112375000D03*
X88225000Y-112375000D03*
X88725000Y-112375000D03*
X89225001Y-112375000D03*
X89725000Y-112375000D03*
D40*
X90430800Y-111669200D03*
X90430800Y-111169201D03*
X90430800Y-110669200D03*
X90430800Y-110169200D03*
X90430800Y-109669199D03*
X90430800Y-109169200D03*
D41*
X89725000Y-108463400D03*
X89225001Y-108463400D03*
X88725000Y-108463400D03*
X88225000Y-108463400D03*
X87724999Y-108463400D03*
X87225000Y-108463400D03*
D42*
X88475000Y-110419200D03*
%TD*%
D11*
%TO.C,R21*%
X101750000Y-64250000D03*
X101750000Y-62250000D03*
%TD*%
D12*
%TO.C,TP2*%
X60000000Y-91750000D03*
%TD*%
D43*
%TO.C,U6*%
X144067500Y-106530194D03*
X142167500Y-106530194D03*
X143117500Y-108405194D03*
%TD*%
D13*
%TO.C,R7*%
X146560000Y-81625000D03*
X146560000Y-83625000D03*
%TD*%
D19*
%TO.C,C22*%
X67037500Y-86425000D03*
X67037500Y-88500000D03*
%TD*%
D11*
%TO.C,R17*%
X129910000Y-91862500D03*
X129910000Y-89862500D03*
%TD*%
D28*
%TO.C,U9*%
X127110000Y-91762500D03*
X127110000Y-89862500D03*
X125235000Y-90812500D03*
%TD*%
D44*
%TO.C,L4*%
X82225000Y-102875000D03*
X82225000Y-100825000D03*
%TD*%
D14*
%TO.C,C4*%
X99490000Y-79500000D03*
X99490000Y-77425000D03*
%TD*%
D39*
%TO.C,U13*%
X72137500Y-79712500D03*
X70237500Y-79712500D03*
X71187500Y-82712500D03*
%TD*%
D12*
%TO.C,TP1*%
X87000000Y-69000000D03*
%TD*%
D23*
%TO.C,R36*%
X75322100Y-109375000D03*
X73247100Y-109375000D03*
%TD*%
D22*
%TO.C,R32*%
X79975000Y-112375000D03*
X81975000Y-112375000D03*
%TD*%
D15*
%TO.C,TP14*%
X58750000Y-53750000D03*
%TD*%
%TO.C,TP16*%
X58750000Y-121000000D03*
%TD*%
D43*
%TO.C,U4*%
X143510000Y-82150000D03*
X141610000Y-82150000D03*
X142560000Y-84025000D03*
%TD*%
D12*
%TO.C,TP11*%
X87747100Y-92647100D03*
%TD*%
D22*
%TO.C,R2*%
X109510000Y-82262500D03*
X111510000Y-82262500D03*
%TD*%
D12*
%TO.C,TP13*%
X134750000Y-70500000D03*
%TD*%
D19*
%TO.C,C20*%
X110325000Y-61736250D03*
X110325000Y-63811250D03*
%TD*%
D25*
%TO.C,U7*%
X141667500Y-103442694D03*
X141667500Y-101142694D03*
X141667500Y-98842694D03*
D26*
X135367500Y-101142694D03*
%TD*%
D45*
%TO.C,USBC2*%
X100675000Y-55953250D03*
D46*
X100675000Y-51773750D03*
X109325000Y-51773750D03*
D45*
X109325000Y-55953250D03*
D47*
X108200000Y-56721750D03*
X107400000Y-56721750D03*
D48*
X106250000Y-56721750D03*
X105250000Y-56721750D03*
X104750000Y-56721750D03*
X103750500Y-56721750D03*
D47*
X101800000Y-56721750D03*
D49*
X102599500Y-56721750D03*
D48*
X103250000Y-56721750D03*
X104250000Y-56721750D03*
X105750000Y-56721750D03*
X106750000Y-56721750D03*
%TD*%
D21*
%TO.C,C17*%
X117092500Y-98430194D03*
X119167500Y-98430194D03*
%TD*%
D22*
%TO.C,R33*%
X79975000Y-110125000D03*
X81975000Y-110125000D03*
%TD*%
D12*
%TO.C,TP9*%
X152250000Y-92000000D03*
%TD*%
D10*
%TO.C,R4*%
X115310000Y-88262500D03*
X113310000Y-88262500D03*
%TD*%
D23*
%TO.C,C14*%
X115367500Y-108630194D03*
X113292500Y-108630194D03*
%TD*%
D50*
%TO.C,TR1*%
X71784600Y-101375000D03*
X76784600Y-101375000D03*
%TD*%
D20*
%TO.C,L6*%
X72950000Y-64500000D03*
X75000000Y-64500000D03*
%TD*%
M02*
