%TF.GenerationSoftware,KiCad,Pcbnew,10.0.1*%
%TF.CreationDate,2026-05-28T20:16:35+10:00*%
%TF.ProjectId,PowerBox_PCB,506f7765-7242-46f7-985f-5043422e6b69,rev?*%
%TF.SameCoordinates,Original*%
%TF.FileFunction,Profile,NP*%
%FSLAX46Y46*%
G04 Gerber Fmt 4.6, Leading zero omitted, Abs format (unit mm)*
G04 Created by KiCad (PCBNEW 10.0.1) date 2026-05-28 20:16:35*
%MOMM*%
%LPD*%
G01*
G04 APERTURE LIST*
%TA.AperFunction,Profile*%
%ADD10C,0.050000*%
%TD*%
%TA.AperFunction,Profile*%
%ADD11C,0.000000*%
%TD*%
G04 APERTURE END LIST*
D10*
X55000000Y-53000000D02*
X55000000Y-53000000D01*
G75*
G02*
X58000000Y-50000000I3000000J0D01*
G01*
X152000000Y-50000000D01*
G75*
G02*
X155000000Y-53000000I0J-3000000D01*
G01*
X155000000Y-122000000D01*
G75*
G02*
X152000000Y-125000000I-3000000J0D01*
G01*
X58000000Y-125000000D01*
G75*
G02*
X55000000Y-122000000I0J3000000D01*
G01*
X55000000Y-53000000D01*
D11*
%TA.AperFunction,Profile*%
%TO.C,USBC2*%
G36*
X102243506Y-55106795D02*
G01*
X102328286Y-55155742D01*
X102397508Y-55224964D01*
X102446455Y-55309744D01*
X102471792Y-55404303D01*
X102471792Y-55502197D01*
X102446455Y-55596756D01*
X102397508Y-55681536D01*
X102328286Y-55750758D01*
X102243506Y-55799705D01*
X102148947Y-55825042D01*
X102051053Y-55825042D01*
X101956494Y-55799705D01*
X101871714Y-55750758D01*
X101802492Y-55681536D01*
X101753545Y-55596756D01*
X101728208Y-55502197D01*
X101728208Y-55404303D01*
X101753545Y-55309744D01*
X101802492Y-55224964D01*
X101871714Y-55155742D01*
X101956494Y-55106795D01*
X102051053Y-55081458D01*
X102148947Y-55081458D01*
X102243506Y-55106795D01*
G37*
%TD.AperFunction*%
%TA.AperFunction,Profile*%
G36*
X108043506Y-55106795D02*
G01*
X108128286Y-55155742D01*
X108197508Y-55224964D01*
X108246455Y-55309744D01*
X108271792Y-55404303D01*
X108271792Y-55502197D01*
X108246455Y-55596756D01*
X108197508Y-55681536D01*
X108128286Y-55750758D01*
X108043506Y-55799705D01*
X107948947Y-55825042D01*
X107851053Y-55825042D01*
X107756494Y-55799705D01*
X107671714Y-55750758D01*
X107602492Y-55681536D01*
X107553545Y-55596756D01*
X107528208Y-55502197D01*
X107528208Y-55404303D01*
X107553545Y-55309744D01*
X107602492Y-55224964D01*
X107671714Y-55155742D01*
X107756494Y-55106795D01*
X107851053Y-55081458D01*
X107948947Y-55081458D01*
X108043506Y-55106795D01*
G37*
%TD.AperFunction*%
%TD*%
M02*
