M48
; DRILL file KiCad 10.0.1 date 2026-05-28T20:16:30
; FORMAT={-:-/ absolute / metric / decimal}
; #@! TF.CreationDate,2026-05-28T20:16:30+10:00
; #@! TF.GenerationSoftware,Kicad,Pcbnew,10.0.1
; #@! TF.FileFunction,Plated,1,2,PTH
FMAT,2
METRIC
; #@! TA.AperFunction,Plated,PTH,ViaDrill
T1C0.300
; #@! TA.AperFunction,Plated,PTH,ComponentDrill
T2C0.800
; #@! TA.AperFunction,Plated,PTH,ComponentDrill
T3C3.200
%
G90
G05
T1
X57.0Y-102.25
X57.75Y-68.0
X59.0Y-115.75
X59.25Y-109.25
X59.25Y-112.25
X60.5Y-89.25
X62.037Y-72.712
X62.037Y-73.462
X62.037Y-74.212
X62.037Y-74.962
X62.037Y-75.712
X62.037Y-76.462
X62.037Y-77.212
X64.25Y-111.5
X66.5Y-68.0
X66.5Y-121.0
X66.75Y-118.0
X72.037Y-95.712
X73.75Y-63.25
X75.287Y-88.212
X76.263Y-93.438
X77.5Y-56.0
X77.537Y-88.212
X77.537Y-90.712
X77.787Y-81.362
X78.238Y-82.712
X79.0Y-84.0
X79.5Y-81.5
X79.787Y-82.712
X79.938Y-116.875
X79.975Y-107.125
X79.975Y-110.125
X79.975Y-112.375
X79.975Y-114.625
X83.475Y-104.825
X84.5Y-122.75
X84.8Y-121.175
X85.445Y-104.875
X86.0Y-122.5
X86.7Y-121.175
X88.475Y-110.419
X88.5Y-55.0
X90.431Y-111.397
X90.997Y-111.397
X90.997Y-112.147
X91.747Y-111.397
X91.747Y-112.147
X91.975Y-109.169
X92.475Y-117.043
X92.725Y-104.882
X94.75Y-93.0
X95.75Y-74.75
X96.747Y-110.147
X97.997Y-118.397
X98.75Y-79.5
X98.997Y-110.897
X99.5Y-79.5
X100.75Y-79.5
X101.5Y-79.5
X101.5Y-95.5
X101.7Y-59.149
X101.75Y-58.5
X102.0Y-105.75
X102.0Y-113.25
X102.5Y-58.5
X102.5Y-79.5
X102.581Y-57.75
X103.0Y-81.75
X103.25Y-79.5
X104.0Y-79.5
X104.575Y-58.274
X104.75Y-79.5
X105.075Y-55.274
X105.5Y-79.5
X105.575Y-60.524
X106.075Y-59.774
X107.25Y-118.75
X107.5Y-70.0
X107.5Y-86.0
X107.5Y-110.25
X107.597Y-57.775
X108.0Y-104.0
X108.25Y-58.0
X108.25Y-79.75
X109.0Y-58.0
X110.847Y-80.8
X110.867Y-105.168
X111.51Y-85.862
X111.51Y-86.662
X111.53Y-110.23
X111.53Y-111.03
X112.26Y-78.412
X112.28Y-102.78
X114.0Y-118.5
X115.387Y-103.923
X116.75Y-78.25
X116.75Y-102.5
X118.5Y-77.0
X118.5Y-79.5
X118.5Y-101.25
X118.5Y-103.75
X120.25Y-75.75
X120.25Y-78.25
X120.25Y-80.75
X120.25Y-100.25
X120.25Y-102.5
X120.25Y-105.0
X120.75Y-70.75
X121.0Y-95.25
X122.25Y-118.75
X122.5Y-74.5
X122.5Y-82.0
X122.5Y-98.75
X122.5Y-106.5
X123.31Y-86.062
X123.33Y-110.43
X124.11Y-90.862
X124.5Y-74.5
X124.5Y-78.0
X124.5Y-82.0
X124.5Y-98.75
X124.5Y-102.75
X124.5Y-106.5
X126.5Y-56.25
X126.5Y-78.25
X126.5Y-103.5
X128.5Y-74.25
X128.5Y-78.25
X128.5Y-81.75
X128.75Y-99.0
X128.75Y-102.5
X128.75Y-106.0
X129.25Y-119.0
X130.5Y-74.25
X130.5Y-81.75
X130.5Y-99.0
X130.5Y-106.0
X132.0Y-63.0
X132.75Y-74.5
X132.75Y-76.75
X132.75Y-79.5
X133.0Y-100.75
X133.0Y-102.5
X133.0Y-104.75
X139.75Y-118.0
X143.75Y-55.75
X143.75Y-93.0
X146.75Y-89.0
X147.75Y-117.75
X148.75Y-64.75
X148.75Y-72.25
X150.5Y-80.5
X151.25Y-114.0
T2
X60.037Y-77.212
X60.037Y-80.212
X60.037Y-83.212
X71.785Y-101.375
X76.785Y-101.375
X84.75Y-76.0
X84.75Y-79.0
X84.75Y-82.0
X87.75Y-76.0
X87.75Y-79.0
X87.75Y-82.0
T3
X58.75Y-53.75
X58.75Y-121.0
X151.25Y-53.75
X151.25Y-121.25
T2
G00X100.675Y-52.074
M15
G01X100.675Y-51.474
M16
G05
G00X100.675Y-56.353
M15
G01X100.675Y-55.553
M16
G05
G00X109.325Y-52.074
M15
G01X109.325Y-51.474
M16
G05
G00X109.325Y-56.353
M15
G01X109.325Y-55.553
M16
G05
M30
